<?xml version="1.0" encoding="utf-8" standalone="no"?>
<!DOCTYPE svg PUBLIC "-//W3C//DTD SVG 1.1//EN"
  "http://www.w3.org/Graphics/SVG/1.1/DTD/svg11.dtd">
<!-- Created with matplotlib (https://matplotlib.org/) -->
<svg height="504pt" version="1.1" viewBox="0 0 864 504" width="864pt" xmlns="http://www.w3.org/2000/svg" xmlns:xlink="http://www.w3.org/1999/xlink">
 <metadata>
  <rdf:RDF xmlns:cc="http://creativecommons.org/ns#" xmlns:dc="http://purl.org/dc/elements/1.1/" xmlns:rdf="http://www.w3.org/1999/02/22-rdf-syntax-ns#">
   <cc:Work>
    <dc:type rdf:resource="http://purl.org/dc/dcmitype/StillImage"/>
    <dc:date>2021-05-19T09:01:26.271792</dc:date>
    <dc:format>image/svg+xml</dc:format>
    <dc:creator>
     <cc:Agent>
      <dc:title>Matplotlib v3.3.4, https://matplotlib.org/</dc:title>
     </cc:Agent>
    </dc:creator>
   </cc:Work>
  </rdf:RDF>
 </metadata>
 <defs>
  <style type="text/css">*{stroke-linecap:butt;stroke-linejoin:round;}</style>
 </defs>
 <g id="figure_1">
  <g id="patch_1">
   <path d="M 0 504 
L 864 504 
L 864 0 
L 0 0 
z
" style="fill:#ffffff;"/>
  </g>
  <g id="axes_1">
   <g id="patch_2">
    <path d="M 108 448.56 
L 777.6 448.56 
L 777.6 60.48 
L 108 60.48 
z
" style="fill:#eaeaf2;"/>
   </g>
   <g id="matplotlib.axis_1">
    <g id="xtick_1">
     <g id="line2d_1">
      <path clip-path="url(#p9433fffa55)" d="M 154.716279 448.56 
L 154.716279 60.48 
" style="fill:none;stroke:#ffffff;stroke-linecap:round;stroke-width:0.8;"/>
     </g>
     <g id="text_1">
      <!-- 50 -->
      <g style="fill:#262626;" transform="translate(149.155342 462.717813)scale(0.1 -0.1)">
       <defs>
        <path d="M 4.15625 18.75 
L 13.375 19.53125 
Q 14.40625 12.796875 18.140625 9.390625 
Q 21.875 6 27.15625 6 
Q 33.5 6 37.890625 10.78125 
Q 42.28125 15.578125 42.28125 23.484375 
Q 42.28125 31 38.0625 35.34375 
Q 33.84375 39.703125 27 39.703125 
Q 22.75 39.703125 19.328125 37.765625 
Q 15.921875 35.84375 13.96875 32.765625 
L 5.71875 33.84375 
L 12.640625 70.609375 
L 48.25 70.609375 
L 48.25 62.203125 
L 19.671875 62.203125 
L 15.828125 42.96875 
Q 22.265625 47.46875 29.34375 47.46875 
Q 38.71875 47.46875 45.15625 40.96875 
Q 51.609375 34.46875 51.609375 24.265625 
Q 51.609375 14.546875 45.953125 7.46875 
Q 39.0625 -1.21875 27.15625 -1.21875 
Q 17.390625 -1.21875 11.203125 4.25 
Q 5.03125 9.71875 4.15625 18.75 
z
" id="ArialMT-53"/>
        <path d="M 4.15625 35.296875 
Q 4.15625 48 6.765625 55.734375 
Q 9.375 63.484375 14.515625 67.671875 
Q 19.671875 71.875 27.484375 71.875 
Q 33.25 71.875 37.59375 69.546875 
Q 41.9375 67.234375 44.765625 62.859375 
Q 47.609375 58.5 49.21875 52.21875 
Q 50.828125 45.953125 50.828125 35.296875 
Q 50.828125 22.703125 48.234375 14.96875 
Q 45.65625 7.234375 40.5 3 
Q 35.359375 -1.21875 27.484375 -1.21875 
Q 17.140625 -1.21875 11.234375 6.203125 
Q 4.15625 15.140625 4.15625 35.296875 
z
M 13.1875 35.296875 
Q 13.1875 17.671875 17.3125 11.828125 
Q 21.4375 6 27.484375 6 
Q 33.546875 6 37.671875 11.859375 
Q 41.796875 17.71875 41.796875 35.296875 
Q 41.796875 52.984375 37.671875 58.78125 
Q 33.546875 64.59375 27.390625 64.59375 
Q 21.34375 64.59375 17.71875 59.46875 
Q 13.1875 52.9375 13.1875 35.296875 
z
" id="ArialMT-48"/>
       </defs>
       <use xlink:href="#ArialMT-53"/>
       <use x="55.615234" xlink:href="#ArialMT-48"/>
      </g>
     </g>
    </g>
    <g id="xtick_2">
     <g id="line2d_2">
      <path clip-path="url(#p9433fffa55)" d="M 232.576744 448.56 
L 232.576744 60.48 
" style="fill:none;stroke:#ffffff;stroke-linecap:round;stroke-width:0.8;"/>
     </g>
     <g id="text_2">
      <!-- 100 -->
      <g style="fill:#262626;" transform="translate(224.235338 462.717813)scale(0.1 -0.1)">
       <defs>
        <path d="M 37.25 0 
L 28.46875 0 
L 28.46875 56 
Q 25.296875 52.984375 20.140625 49.953125 
Q 14.984375 46.921875 10.890625 45.40625 
L 10.890625 53.90625 
Q 18.265625 57.375 23.78125 62.296875 
Q 29.296875 67.234375 31.59375 71.875 
L 37.25 71.875 
z
" id="ArialMT-49"/>
       </defs>
       <use xlink:href="#ArialMT-49"/>
       <use x="55.615234" xlink:href="#ArialMT-48"/>
       <use x="111.230469" xlink:href="#ArialMT-48"/>
      </g>
     </g>
    </g>
    <g id="xtick_3">
     <g id="line2d_3">
      <path clip-path="url(#p9433fffa55)" d="M 310.437209 448.56 
L 310.437209 60.48 
" style="fill:none;stroke:#ffffff;stroke-linecap:round;stroke-width:0.8;"/>
     </g>
     <g id="text_3">
      <!-- 150 -->
      <g style="fill:#262626;" transform="translate(302.095803 462.717813)scale(0.1 -0.1)">
       <use xlink:href="#ArialMT-49"/>
       <use x="55.615234" xlink:href="#ArialMT-53"/>
       <use x="111.230469" xlink:href="#ArialMT-48"/>
      </g>
     </g>
    </g>
    <g id="xtick_4">
     <g id="line2d_4">
      <path clip-path="url(#p9433fffa55)" d="M 388.297674 448.56 
L 388.297674 60.48 
" style="fill:none;stroke:#ffffff;stroke-linecap:round;stroke-width:0.8;"/>
     </g>
     <g id="text_4">
      <!-- 200 -->
      <g style="fill:#262626;" transform="translate(379.956268 462.717813)scale(0.1 -0.1)">
       <defs>
        <path d="M 50.34375 8.453125 
L 50.34375 0 
L 3.03125 0 
Q 2.9375 3.171875 4.046875 6.109375 
Q 5.859375 10.9375 9.828125 15.625 
Q 13.8125 20.3125 21.34375 26.46875 
Q 33.015625 36.03125 37.109375 41.625 
Q 41.21875 47.21875 41.21875 52.203125 
Q 41.21875 57.421875 37.46875 61 
Q 33.734375 64.59375 27.734375 64.59375 
Q 21.390625 64.59375 17.578125 60.78125 
Q 13.765625 56.984375 13.71875 50.25 
L 4.6875 51.171875 
Q 5.609375 61.28125 11.65625 66.578125 
Q 17.71875 71.875 27.9375 71.875 
Q 38.234375 71.875 44.234375 66.15625 
Q 50.25 60.453125 50.25 52 
Q 50.25 47.703125 48.484375 43.546875 
Q 46.734375 39.40625 42.65625 34.8125 
Q 38.578125 30.21875 29.109375 22.21875 
Q 21.1875 15.578125 18.9375 13.203125 
Q 16.703125 10.84375 15.234375 8.453125 
z
" id="ArialMT-50"/>
       </defs>
       <use xlink:href="#ArialMT-50"/>
       <use x="55.615234" xlink:href="#ArialMT-48"/>
       <use x="111.230469" xlink:href="#ArialMT-48"/>
      </g>
     </g>
    </g>
    <g id="xtick_5">
     <g id="line2d_5">
      <path clip-path="url(#p9433fffa55)" d="M 466.15814 448.56 
L 466.15814 60.48 
" style="fill:none;stroke:#ffffff;stroke-linecap:round;stroke-width:0.8;"/>
     </g>
     <g id="text_5">
      <!-- 250 -->
      <g style="fill:#262626;" transform="translate(457.816733 462.717813)scale(0.1 -0.1)">
       <use xlink:href="#ArialMT-50"/>
       <use x="55.615234" xlink:href="#ArialMT-53"/>
       <use x="111.230469" xlink:href="#ArialMT-48"/>
      </g>
     </g>
    </g>
    <g id="xtick_6">
     <g id="line2d_6">
      <path clip-path="url(#p9433fffa55)" d="M 544.018605 448.56 
L 544.018605 60.48 
" style="fill:none;stroke:#ffffff;stroke-linecap:round;stroke-width:0.8;"/>
     </g>
     <g id="text_6">
      <!-- 300 -->
      <g style="fill:#262626;" transform="translate(535.677198 462.717813)scale(0.1 -0.1)">
       <defs>
        <path d="M 4.203125 18.890625 
L 12.984375 20.0625 
Q 14.5 12.59375 18.140625 9.296875 
Q 21.78125 6 27 6 
Q 33.203125 6 37.46875 10.296875 
Q 41.75 14.59375 41.75 20.953125 
Q 41.75 27 37.796875 30.921875 
Q 33.84375 34.859375 27.734375 34.859375 
Q 25.25 34.859375 21.53125 33.890625 
L 22.515625 41.609375 
Q 23.390625 41.5 23.921875 41.5 
Q 29.546875 41.5 34.03125 44.421875 
Q 38.53125 47.359375 38.53125 53.46875 
Q 38.53125 58.296875 35.25 61.46875 
Q 31.984375 64.65625 26.8125 64.65625 
Q 21.6875 64.65625 18.265625 61.421875 
Q 14.84375 58.203125 13.875 51.765625 
L 5.078125 53.328125 
Q 6.6875 62.15625 12.390625 67.015625 
Q 18.109375 71.875 26.609375 71.875 
Q 32.46875 71.875 37.390625 69.359375 
Q 42.328125 66.84375 44.9375 62.5 
Q 47.5625 58.15625 47.5625 53.265625 
Q 47.5625 48.640625 45.0625 44.828125 
Q 42.578125 41.015625 37.703125 38.765625 
Q 44.046875 37.3125 47.5625 32.6875 
Q 51.078125 28.078125 51.078125 21.140625 
Q 51.078125 11.765625 44.234375 5.25 
Q 37.40625 -1.265625 26.953125 -1.265625 
Q 17.53125 -1.265625 11.296875 4.34375 
Q 5.078125 9.96875 4.203125 18.890625 
z
" id="ArialMT-51"/>
       </defs>
       <use xlink:href="#ArialMT-51"/>
       <use x="55.615234" xlink:href="#ArialMT-48"/>
       <use x="111.230469" xlink:href="#ArialMT-48"/>
      </g>
     </g>
    </g>
    <g id="xtick_7">
     <g id="line2d_7">
      <path clip-path="url(#p9433fffa55)" d="M 621.87907 448.56 
L 621.87907 60.48 
" style="fill:none;stroke:#ffffff;stroke-linecap:round;stroke-width:0.8;"/>
     </g>
     <g id="text_7">
      <!-- 350 -->
      <g style="fill:#262626;" transform="translate(613.537664 462.717813)scale(0.1 -0.1)">
       <use xlink:href="#ArialMT-51"/>
       <use x="55.615234" xlink:href="#ArialMT-53"/>
       <use x="111.230469" xlink:href="#ArialMT-48"/>
      </g>
     </g>
    </g>
    <g id="xtick_8">
     <g id="line2d_8">
      <path clip-path="url(#p9433fffa55)" d="M 699.739535 448.56 
L 699.739535 60.48 
" style="fill:none;stroke:#ffffff;stroke-linecap:round;stroke-width:0.8;"/>
     </g>
     <g id="text_8">
      <!-- 400 -->
      <g style="fill:#262626;" transform="translate(691.398129 462.717813)scale(0.1 -0.1)">
       <defs>
        <path d="M 32.328125 0 
L 32.328125 17.140625 
L 1.265625 17.140625 
L 1.265625 25.203125 
L 33.9375 71.578125 
L 41.109375 71.578125 
L 41.109375 25.203125 
L 50.78125 25.203125 
L 50.78125 17.140625 
L 41.109375 17.140625 
L 41.109375 0 
z
M 32.328125 25.203125 
L 32.328125 57.46875 
L 9.90625 25.203125 
z
" id="ArialMT-52"/>
       </defs>
       <use xlink:href="#ArialMT-52"/>
       <use x="55.615234" xlink:href="#ArialMT-48"/>
       <use x="111.230469" xlink:href="#ArialMT-48"/>
      </g>
     </g>
    </g>
    <g id="xtick_9">
     <g id="line2d_9">
      <path clip-path="url(#p9433fffa55)" d="M 777.6 448.56 
L 777.6 60.48 
" style="fill:none;stroke:#ffffff;stroke-linecap:round;stroke-width:0.8;"/>
     </g>
     <g id="text_9">
      <!-- 450 -->
      <g style="fill:#262626;" transform="translate(769.258594 462.717813)scale(0.1 -0.1)">
       <use xlink:href="#ArialMT-52"/>
       <use x="55.615234" xlink:href="#ArialMT-53"/>
       <use x="111.230469" xlink:href="#ArialMT-48"/>
      </g>
     </g>
    </g>
    <g id="text_10">
     <!-- Neighbors -->
     <g style="fill:#262626;" transform="translate(410.895312 478.72625)scale(0.14 -0.14)">
      <defs>
       <path d="M 7.625 0 
L 7.625 71.578125 
L 17.328125 71.578125 
L 54.9375 15.375 
L 54.9375 71.578125 
L 64.015625 71.578125 
L 64.015625 0 
L 54.296875 0 
L 16.703125 56.25 
L 16.703125 0 
z
" id="ArialMT-78"/>
       <path d="M 42.09375 16.703125 
L 51.171875 15.578125 
Q 49.03125 7.625 43.21875 3.21875 
Q 37.40625 -1.171875 28.375 -1.171875 
Q 17 -1.171875 10.328125 5.828125 
Q 3.65625 12.84375 3.65625 25.484375 
Q 3.65625 38.578125 10.390625 45.796875 
Q 17.140625 53.03125 27.875 53.03125 
Q 38.28125 53.03125 44.875 45.953125 
Q 51.46875 38.875 51.46875 26.03125 
Q 51.46875 25.25 51.421875 23.6875 
L 12.75 23.6875 
Q 13.234375 15.140625 17.578125 10.59375 
Q 21.921875 6.0625 28.421875 6.0625 
Q 33.25 6.0625 36.671875 8.59375 
Q 40.09375 11.140625 42.09375 16.703125 
z
M 13.234375 30.90625 
L 42.1875 30.90625 
Q 41.609375 37.453125 38.875 40.71875 
Q 34.671875 45.796875 27.984375 45.796875 
Q 21.921875 45.796875 17.796875 41.75 
Q 13.671875 37.703125 13.234375 30.90625 
z
" id="ArialMT-101"/>
       <path d="M 6.640625 61.46875 
L 6.640625 71.578125 
L 15.4375 71.578125 
L 15.4375 61.46875 
z
M 6.640625 0 
L 6.640625 51.859375 
L 15.4375 51.859375 
L 15.4375 0 
z
" id="ArialMT-105"/>
       <path d="M 4.984375 -4.296875 
L 13.53125 -5.5625 
Q 14.0625 -9.515625 16.5 -11.328125 
Q 19.78125 -13.765625 25.4375 -13.765625 
Q 31.546875 -13.765625 34.859375 -11.328125 
Q 38.1875 -8.890625 39.359375 -4.5 
Q 40.046875 -1.8125 39.984375 6.78125 
Q 34.234375 0 25.640625 0 
Q 14.9375 0 9.078125 7.71875 
Q 3.21875 15.4375 3.21875 26.21875 
Q 3.21875 33.640625 5.90625 39.90625 
Q 8.59375 46.1875 13.6875 49.609375 
Q 18.796875 53.03125 25.6875 53.03125 
Q 34.859375 53.03125 40.828125 45.609375 
L 40.828125 51.859375 
L 48.921875 51.859375 
L 48.921875 7.03125 
Q 48.921875 -5.078125 46.453125 -10.125 
Q 44 -15.1875 38.640625 -18.109375 
Q 33.296875 -21.046875 25.484375 -21.046875 
Q 16.21875 -21.046875 10.5 -16.875 
Q 4.78125 -12.703125 4.984375 -4.296875 
z
M 12.25 26.859375 
Q 12.25 16.65625 16.296875 11.96875 
Q 20.359375 7.28125 26.46875 7.28125 
Q 32.515625 7.28125 36.609375 11.9375 
Q 40.71875 16.609375 40.71875 26.5625 
Q 40.71875 36.078125 36.5 40.90625 
Q 32.28125 45.75 26.3125 45.75 
Q 20.453125 45.75 16.34375 40.984375 
Q 12.25 36.234375 12.25 26.859375 
z
" id="ArialMT-103"/>
       <path d="M 6.59375 0 
L 6.59375 71.578125 
L 15.375 71.578125 
L 15.375 45.90625 
Q 21.53125 53.03125 30.90625 53.03125 
Q 36.671875 53.03125 40.921875 50.75 
Q 45.171875 48.484375 47 44.484375 
Q 48.828125 40.484375 48.828125 32.859375 
L 48.828125 0 
L 40.046875 0 
L 40.046875 32.859375 
Q 40.046875 39.453125 37.1875 42.453125 
Q 34.328125 45.453125 29.109375 45.453125 
Q 25.203125 45.453125 21.75 43.421875 
Q 18.3125 41.40625 16.84375 37.9375 
Q 15.375 34.46875 15.375 28.375 
L 15.375 0 
z
" id="ArialMT-104"/>
       <path d="M 14.703125 0 
L 6.546875 0 
L 6.546875 71.578125 
L 15.328125 71.578125 
L 15.328125 46.046875 
Q 20.90625 53.03125 29.546875 53.03125 
Q 34.328125 53.03125 38.59375 51.09375 
Q 42.875 49.171875 45.625 45.671875 
Q 48.390625 42.1875 49.953125 37.25 
Q 51.515625 32.328125 51.515625 26.703125 
Q 51.515625 13.375 44.921875 6.09375 
Q 38.328125 -1.171875 29.109375 -1.171875 
Q 19.921875 -1.171875 14.703125 6.5 
z
M 14.59375 26.3125 
Q 14.59375 17 17.140625 12.84375 
Q 21.296875 6.0625 28.375 6.0625 
Q 34.125 6.0625 38.328125 11.0625 
Q 42.53125 16.0625 42.53125 25.984375 
Q 42.53125 36.140625 38.5 40.96875 
Q 34.46875 45.796875 28.765625 45.796875 
Q 23 45.796875 18.796875 40.796875 
Q 14.59375 35.796875 14.59375 26.3125 
z
" id="ArialMT-98"/>
       <path d="M 3.328125 25.921875 
Q 3.328125 40.328125 11.328125 47.265625 
Q 18.015625 53.03125 27.640625 53.03125 
Q 38.328125 53.03125 45.109375 46.015625 
Q 51.90625 39.015625 51.90625 26.65625 
Q 51.90625 16.65625 48.90625 10.90625 
Q 45.90625 5.171875 40.15625 2 
Q 34.421875 -1.171875 27.640625 -1.171875 
Q 16.75 -1.171875 10.03125 5.8125 
Q 3.328125 12.796875 3.328125 25.921875 
z
M 12.359375 25.921875 
Q 12.359375 15.96875 16.703125 11.015625 
Q 21.046875 6.0625 27.640625 6.0625 
Q 34.1875 6.0625 38.53125 11.03125 
Q 42.875 16.015625 42.875 26.21875 
Q 42.875 35.84375 38.5 40.796875 
Q 34.125 45.75 27.640625 45.75 
Q 21.046875 45.75 16.703125 40.8125 
Q 12.359375 35.890625 12.359375 25.921875 
z
" id="ArialMT-111"/>
       <path d="M 6.5 0 
L 6.5 51.859375 
L 14.40625 51.859375 
L 14.40625 44 
Q 17.4375 49.515625 20 51.265625 
Q 22.5625 53.03125 25.640625 53.03125 
Q 30.078125 53.03125 34.671875 50.203125 
L 31.640625 42.046875 
Q 28.421875 43.953125 25.203125 43.953125 
Q 22.3125 43.953125 20.015625 42.21875 
Q 17.71875 40.484375 16.75 37.40625 
Q 15.28125 32.71875 15.28125 27.15625 
L 15.28125 0 
z
" id="ArialMT-114"/>
       <path d="M 3.078125 15.484375 
L 11.765625 16.84375 
Q 12.5 11.625 15.84375 8.84375 
Q 19.1875 6.0625 25.203125 6.0625 
Q 31.25 6.0625 34.171875 8.515625 
Q 37.109375 10.984375 37.109375 14.3125 
Q 37.109375 17.28125 34.515625 19 
Q 32.71875 20.171875 25.53125 21.96875 
Q 15.875 24.421875 12.140625 26.203125 
Q 8.40625 27.984375 6.46875 31.125 
Q 4.546875 34.28125 4.546875 38.09375 
Q 4.546875 41.546875 6.125 44.5 
Q 7.71875 47.46875 10.453125 49.421875 
Q 12.5 50.921875 16.03125 51.96875 
Q 19.578125 53.03125 23.640625 53.03125 
Q 29.734375 53.03125 34.34375 51.265625 
Q 38.96875 49.515625 41.15625 46.5 
Q 43.359375 43.5 44.1875 38.484375 
L 35.59375 37.3125 
Q 35.015625 41.3125 32.203125 43.546875 
Q 29.390625 45.796875 24.265625 45.796875 
Q 18.21875 45.796875 15.625 43.796875 
Q 13.03125 41.796875 13.03125 39.109375 
Q 13.03125 37.40625 14.109375 36.03125 
Q 15.1875 34.625 17.484375 33.6875 
Q 18.796875 33.203125 25.25 31.453125 
Q 34.578125 28.953125 38.25 27.359375 
Q 41.9375 25.78125 44.03125 22.75 
Q 46.140625 19.734375 46.140625 15.234375 
Q 46.140625 10.84375 43.578125 6.953125 
Q 41.015625 3.078125 36.171875 0.953125 
Q 31.34375 -1.171875 25.25 -1.171875 
Q 15.140625 -1.171875 9.84375 3.03125 
Q 4.546875 7.234375 3.078125 15.484375 
z
" id="ArialMT-115"/>
      </defs>
      <use xlink:href="#ArialMT-78"/>
      <use x="72.216797" xlink:href="#ArialMT-101"/>
      <use x="127.832031" xlink:href="#ArialMT-105"/>
      <use x="150.048828" xlink:href="#ArialMT-103"/>
      <use x="205.664062" xlink:href="#ArialMT-104"/>
      <use x="261.279297" xlink:href="#ArialMT-98"/>
      <use x="316.894531" xlink:href="#ArialMT-111"/>
      <use x="372.509766" xlink:href="#ArialMT-114"/>
      <use x="405.810547" xlink:href="#ArialMT-115"/>
     </g>
    </g>
   </g>
   <g id="matplotlib.axis_2">
    <g id="ytick_1">
     <g id="line2d_10">
      <path clip-path="url(#p9433fffa55)" d="M 108 432.351288 
L 777.6 432.351288 
" style="fill:none;stroke:#ffffff;stroke-linecap:round;stroke-width:0.8;"/>
     </g>
     <g id="text_11">
      <!-- 0 -->
      <g style="fill:#262626;" transform="translate(95.439063 435.930194)scale(0.1 -0.1)">
       <use xlink:href="#ArialMT-48"/>
      </g>
     </g>
    </g>
    <g id="ytick_2">
     <g id="line2d_11">
      <path clip-path="url(#p9433fffa55)" d="M 108 362.706601 
L 777.6 362.706601 
" style="fill:none;stroke:#ffffff;stroke-linecap:round;stroke-width:0.8;"/>
     </g>
     <g id="text_12">
      <!-- 50 -->
      <g style="fill:#262626;" transform="translate(89.878125 366.285507)scale(0.1 -0.1)">
       <use xlink:href="#ArialMT-53"/>
       <use x="55.615234" xlink:href="#ArialMT-48"/>
      </g>
     </g>
    </g>
    <g id="ytick_3">
     <g id="line2d_12">
      <path clip-path="url(#p9433fffa55)" d="M 108 293.061913 
L 777.6 293.061913 
" style="fill:none;stroke:#ffffff;stroke-linecap:round;stroke-width:0.8;"/>
     </g>
     <g id="text_13">
      <!-- 100 -->
      <g style="fill:#262626;" transform="translate(84.317188 296.64082)scale(0.1 -0.1)">
       <use xlink:href="#ArialMT-49"/>
       <use x="55.615234" xlink:href="#ArialMT-48"/>
       <use x="111.230469" xlink:href="#ArialMT-48"/>
      </g>
     </g>
    </g>
    <g id="ytick_4">
     <g id="line2d_13">
      <path clip-path="url(#p9433fffa55)" d="M 108 223.417226 
L 777.6 223.417226 
" style="fill:none;stroke:#ffffff;stroke-linecap:round;stroke-width:0.8;"/>
     </g>
     <g id="text_14">
      <!-- 150 -->
      <g style="fill:#262626;" transform="translate(84.317188 226.996132)scale(0.1 -0.1)">
       <use xlink:href="#ArialMT-49"/>
       <use x="55.615234" xlink:href="#ArialMT-53"/>
       <use x="111.230469" xlink:href="#ArialMT-48"/>
      </g>
     </g>
    </g>
    <g id="ytick_5">
     <g id="line2d_14">
      <path clip-path="url(#p9433fffa55)" d="M 108 153.772539 
L 777.6 153.772539 
" style="fill:none;stroke:#ffffff;stroke-linecap:round;stroke-width:0.8;"/>
     </g>
     <g id="text_15">
      <!-- 200 -->
      <g style="fill:#262626;" transform="translate(84.317188 157.351445)scale(0.1 -0.1)">
       <use xlink:href="#ArialMT-50"/>
       <use x="55.615234" xlink:href="#ArialMT-48"/>
       <use x="111.230469" xlink:href="#ArialMT-48"/>
      </g>
     </g>
    </g>
    <g id="ytick_6">
     <g id="line2d_15">
      <path clip-path="url(#p9433fffa55)" d="M 108 84.127851 
L 777.6 84.127851 
" style="fill:none;stroke:#ffffff;stroke-linecap:round;stroke-width:0.8;"/>
     </g>
     <g id="text_16">
      <!-- 250 -->
      <g style="fill:#262626;" transform="translate(84.317188 87.706758)scale(0.1 -0.1)">
       <use xlink:href="#ArialMT-50"/>
       <use x="55.615234" xlink:href="#ArialMT-53"/>
       <use x="111.230469" xlink:href="#ArialMT-48"/>
      </g>
     </g>
    </g>
    <g id="text_17">
     <!-- Wall clock time [s] -->
     <g style="fill:#262626;" transform="translate(77.534688 310.262969)rotate(-90)scale(0.14 -0.14)">
      <defs>
       <path d="M 20.21875 0 
L 1.21875 71.578125 
L 10.9375 71.578125 
L 21.828125 24.65625 
Q 23.578125 17.28125 24.859375 10.015625 
Q 27.59375 21.484375 28.078125 23.25 
L 41.703125 71.578125 
L 53.125 71.578125 
L 63.375 35.359375 
Q 67.234375 21.875 68.953125 10.015625 
Q 70.3125 16.796875 72.515625 25.59375 
L 83.734375 71.578125 
L 93.265625 71.578125 
L 73.640625 0 
L 64.5 0 
L 49.421875 54.546875 
Q 47.515625 61.375 47.171875 62.9375 
Q 46.046875 58.015625 45.0625 54.546875 
L 29.890625 0 
z
" id="ArialMT-87"/>
       <path d="M 40.4375 6.390625 
Q 35.546875 2.25 31.03125 0.53125 
Q 26.515625 -1.171875 21.34375 -1.171875 
Q 12.796875 -1.171875 8.203125 3 
Q 3.609375 7.171875 3.609375 13.671875 
Q 3.609375 17.484375 5.34375 20.625 
Q 7.078125 23.78125 9.890625 25.6875 
Q 12.703125 27.59375 16.21875 28.5625 
Q 18.796875 29.25 24.03125 29.890625 
Q 34.671875 31.15625 39.703125 32.90625 
Q 39.75 34.71875 39.75 35.203125 
Q 39.75 40.578125 37.25 42.78125 
Q 33.890625 45.75 27.25 45.75 
Q 21.046875 45.75 18.09375 43.578125 
Q 15.140625 41.40625 13.71875 35.890625 
L 5.125 37.0625 
Q 6.296875 42.578125 8.984375 45.96875 
Q 11.671875 49.359375 16.75 51.1875 
Q 21.828125 53.03125 28.515625 53.03125 
Q 35.15625 53.03125 39.296875 51.46875 
Q 43.453125 49.90625 45.40625 47.53125 
Q 47.359375 45.171875 48.140625 41.546875 
Q 48.578125 39.3125 48.578125 33.453125 
L 48.578125 21.734375 
Q 48.578125 9.46875 49.140625 6.21875 
Q 49.703125 2.984375 51.375 0 
L 42.1875 0 
Q 40.828125 2.734375 40.4375 6.390625 
z
M 39.703125 26.03125 
Q 34.90625 24.078125 25.34375 22.703125 
Q 19.921875 21.921875 17.671875 20.9375 
Q 15.4375 19.96875 14.203125 18.09375 
Q 12.984375 16.21875 12.984375 13.921875 
Q 12.984375 10.40625 15.640625 8.0625 
Q 18.3125 5.71875 23.4375 5.71875 
Q 28.515625 5.71875 32.46875 7.9375 
Q 36.421875 10.15625 38.28125 14.015625 
Q 39.703125 17 39.703125 22.796875 
z
" id="ArialMT-97"/>
       <path d="M 6.390625 0 
L 6.390625 71.578125 
L 15.1875 71.578125 
L 15.1875 0 
z
" id="ArialMT-108"/>
       <path id="ArialMT-32"/>
       <path d="M 40.4375 19 
L 49.078125 17.875 
Q 47.65625 8.9375 41.8125 3.875 
Q 35.984375 -1.171875 27.484375 -1.171875 
Q 16.84375 -1.171875 10.375 5.78125 
Q 3.90625 12.75 3.90625 25.734375 
Q 3.90625 34.125 6.6875 40.421875 
Q 9.46875 46.734375 15.15625 49.875 
Q 20.84375 53.03125 27.546875 53.03125 
Q 35.984375 53.03125 41.359375 48.75 
Q 46.734375 44.484375 48.25 36.625 
L 39.703125 35.296875 
Q 38.484375 40.53125 35.375 43.15625 
Q 32.28125 45.796875 27.875 45.796875 
Q 21.234375 45.796875 17.078125 41.03125 
Q 12.9375 36.28125 12.9375 25.984375 
Q 12.9375 15.53125 16.9375 10.796875 
Q 20.953125 6.0625 27.390625 6.0625 
Q 32.5625 6.0625 36.03125 9.234375 
Q 39.5 12.40625 40.4375 19 
z
" id="ArialMT-99"/>
       <path d="M 6.640625 0 
L 6.640625 71.578125 
L 15.4375 71.578125 
L 15.4375 30.765625 
L 36.234375 51.859375 
L 47.609375 51.859375 
L 27.78125 32.625 
L 49.609375 0 
L 38.765625 0 
L 21.625 26.515625 
L 15.4375 20.5625 
L 15.4375 0 
z
" id="ArialMT-107"/>
       <path d="M 25.78125 7.859375 
L 27.046875 0.09375 
Q 23.34375 -0.6875 20.40625 -0.6875 
Q 15.625 -0.6875 12.984375 0.828125 
Q 10.359375 2.34375 9.28125 4.8125 
Q 8.203125 7.28125 8.203125 15.1875 
L 8.203125 45.015625 
L 1.765625 45.015625 
L 1.765625 51.859375 
L 8.203125 51.859375 
L 8.203125 64.703125 
L 16.9375 69.96875 
L 16.9375 51.859375 
L 25.78125 51.859375 
L 25.78125 45.015625 
L 16.9375 45.015625 
L 16.9375 14.703125 
Q 16.9375 10.9375 17.40625 9.859375 
Q 17.875 8.796875 18.921875 8.15625 
Q 19.96875 7.515625 21.921875 7.515625 
Q 23.390625 7.515625 25.78125 7.859375 
z
" id="ArialMT-116"/>
       <path d="M 6.59375 0 
L 6.59375 51.859375 
L 14.453125 51.859375 
L 14.453125 44.578125 
Q 16.890625 48.390625 20.9375 50.703125 
Q 25 53.03125 30.171875 53.03125 
Q 35.9375 53.03125 39.625 50.640625 
Q 43.3125 48.25 44.828125 43.953125 
Q 50.984375 53.03125 60.84375 53.03125 
Q 68.5625 53.03125 72.703125 48.75 
Q 76.859375 44.484375 76.859375 35.59375 
L 76.859375 0 
L 68.109375 0 
L 68.109375 32.671875 
Q 68.109375 37.9375 67.25 40.25 
Q 66.40625 42.578125 64.15625 43.984375 
Q 61.921875 45.40625 58.890625 45.40625 
Q 53.421875 45.40625 49.796875 41.765625 
Q 46.1875 38.140625 46.1875 30.125 
L 46.1875 0 
L 37.40625 0 
L 37.40625 33.6875 
Q 37.40625 39.546875 35.25 42.46875 
Q 33.109375 45.40625 28.21875 45.40625 
Q 24.515625 45.40625 21.359375 43.453125 
Q 18.21875 41.5 16.796875 37.734375 
Q 15.375 33.984375 15.375 26.90625 
L 15.375 0 
z
" id="ArialMT-109"/>
       <path d="M 6.78125 -19.875 
L 6.78125 71.578125 
L 26.171875 71.578125 
L 26.171875 64.3125 
L 15.578125 64.3125 
L 15.578125 -12.59375 
L 26.171875 -12.59375 
L 26.171875 -19.875 
z
" id="ArialMT-91"/>
       <path d="M 21.296875 -19.875 
L 1.90625 -19.875 
L 1.90625 -12.59375 
L 12.5 -12.59375 
L 12.5 64.3125 
L 1.90625 64.3125 
L 1.90625 71.578125 
L 21.296875 71.578125 
z
" id="ArialMT-93"/>
      </defs>
      <use xlink:href="#ArialMT-87"/>
      <use x="90.634766" xlink:href="#ArialMT-97"/>
      <use x="146.25" xlink:href="#ArialMT-108"/>
      <use x="168.466797" xlink:href="#ArialMT-108"/>
      <use x="190.683594" xlink:href="#ArialMT-32"/>
      <use x="218.466797" xlink:href="#ArialMT-99"/>
      <use x="268.466797" xlink:href="#ArialMT-108"/>
      <use x="290.683594" xlink:href="#ArialMT-111"/>
      <use x="346.298828" xlink:href="#ArialMT-99"/>
      <use x="396.298828" xlink:href="#ArialMT-107"/>
      <use x="446.298828" xlink:href="#ArialMT-32"/>
      <use x="474.082031" xlink:href="#ArialMT-116"/>
      <use x="501.865234" xlink:href="#ArialMT-105"/>
      <use x="524.082031" xlink:href="#ArialMT-109"/>
      <use x="607.382812" xlink:href="#ArialMT-101"/>
      <use x="662.998047" xlink:href="#ArialMT-32"/>
      <use x="690.78125" xlink:href="#ArialMT-91"/>
      <use x="718.564453" xlink:href="#ArialMT-115"/>
      <use x="768.564453" xlink:href="#ArialMT-93"/>
     </g>
    </g>
   </g>
   <g id="PolyCollection_1">
    <defs>
     <path d="M 108 -78.113727 
L 108 -78.02185 
L 120.457674 -80.443907 
L 134.472558 -81.395951 
L 148.487442 -82.418688 
L 162.502326 -82.863258 
L 174.96 -83.346131 
L 188.974884 -83.500721 
L 202.989767 -83.345888 
L 217.004651 -84.139521 
L 231.019535 -84.994547 
L 243.477209 -84.894966 
L 257.492093 -86.106923 
L 271.506977 -85.922505 
L 285.52186 -85.57527 
L 299.536744 -86.911361 
L 311.994419 -86.254583 
L 326.009302 -86.962548 
L 340.024186 -86.523715 
L 354.03907 -87.130588 
L 368.053953 -87.580047 
L 380.511628 -87.835164 
L 394.526512 -88.246805 
L 408.541395 -88.834298 
L 422.556279 -88.903039 
L 436.571163 -89.459175 
L 449.028837 -89.621921 
L 463.043721 -90.029934 
L 477.058605 -90.351457 
L 491.073488 -90.576204 
L 505.088372 -91.445458 
L 517.546047 -91.743916 
L 531.56093 -92.930419 
L 545.575814 -94.285623 
L 559.590698 -94.514703 
L 573.605581 -94.824105 
L 586.063256 -95.708393 
L 600.07814 -95.908457 
L 614.093023 -96.833481 
L 628.107907 -97.158479 
L 642.122791 -103.910048 
L 654.580465 -106.038723 
L 668.595349 -106.98134 
L 682.610233 -108.074686 
L 696.625116 -109.005686 
L 710.64 -110.643598 
L 723.097674 -110.87341 
L 737.112558 -111.370527 
L 751.127442 -112.627448 
L 765.142326 -113.067995 
L 779.157209 -114.757747 
L 779.157209 -115.022408 
L 779.157209 -115.022408 
L 765.142326 -113.537049 
L 751.127442 -113.012387 
L 737.112558 -111.671117 
L 723.097674 -111.485765 
L 710.64 -111.18295 
L 696.625116 -109.494803 
L 682.610233 -108.406059 
L 668.595349 -107.347789 
L 654.580465 -106.312027 
L 642.122791 -105.00549 
L 628.107907 -97.46255 
L 614.093023 -98.71552 
L 600.07814 -96.189477 
L 586.063256 -96.231758 
L 573.605581 -95.28726 
L 559.590698 -95.12326 
L 545.575814 -94.520933 
L 531.56093 -93.592209 
L 517.546047 -92.080307 
L 505.088372 -91.746397 
L 491.073488 -90.895228 
L 477.058605 -90.761093 
L 463.043721 -90.447899 
L 449.028837 -89.841155 
L 436.571163 -89.774434 
L 422.556279 -89.281718 
L 408.541395 -89.184705 
L 394.526512 -88.787675 
L 380.511628 -88.112249 
L 368.053953 -87.971327 
L 354.03907 -87.389626 
L 340.024186 -86.933701 
L 326.009302 -87.20463 
L 311.994419 -86.580668 
L 299.536744 -87.257167 
L 285.52186 -85.71983 
L 271.506977 -86.627089 
L 257.492093 -86.260391 
L 243.477209 -85.214526 
L 231.019535 -85.558224 
L 217.004651 -84.353652 
L 202.989767 -83.565915 
L 188.974884 -83.736155 
L 174.96 -83.540233 
L 162.502326 -83.143856 
L 148.487442 -82.632948 
L 134.472558 -81.527662 
L 120.457674 -80.592341 
L 108 -78.113727 
z
" id="m500e2276af" style="stroke:#db5f57;stroke-opacity:0.2;"/>
    </defs>
    <g clip-path="url(#p9433fffa55)">
     <use style="fill:#db5f57;fill-opacity:0.2;stroke:#db5f57;stroke-opacity:0.2;" x="0" xlink:href="#m500e2276af" y="504"/>
    </g>
   </g>
   <g id="PolyCollection_2">
    <defs>
     <path d="M 108 -85.604915 
L 108 -85.571203 
L 120.457674 -86.401863 
L 134.472558 -83.901926 
L 148.487442 -85.444683 
L 162.502326 -86.346877 
L 188.974884 -89.410221 
L 202.989767 -89.816172 
L 217.004651 -92.279901 
L 231.019535 -93.797599 
L 243.477209 -94.426252 
L 257.492093 -96.219261 
L 271.506977 -97.492363 
L 285.52186 -97.745699 
L 299.536744 -100.401176 
L 311.994419 -100.384891 
L 326.009302 -101.945367 
L 340.024186 -103.659005 
L 354.03907 -105.515 
L 368.053953 -107.969569 
L 380.511628 -109.495311 
L 394.526512 -110.918721 
L 408.541395 -113.106079 
L 422.556279 -115.274966 
L 436.571163 -117.296399 
L 449.028837 -119.572622 
L 463.043721 -121.91358 
L 477.058605 -125.839035 
L 491.073488 -128.440284 
L 505.088372 -132.747016 
L 517.546047 -134.982639 
L 531.56093 -135.656318 
L 545.575814 -141.199527 
L 559.590698 -142.249652 
L 573.605581 -147.480448 
L 586.063256 -151.012207 
L 600.07814 -152.148528 
L 614.093023 -158.279342 
L 628.107907 -162.46736 
L 642.122791 -183.380911 
L 654.580465 -196.488063 
L 668.595349 -199.459737 
L 682.610233 -206.598301 
L 696.625116 -212.813528 
L 710.64 -227.797013 
L 723.097674 -233.61605 
L 737.112558 -267.48108 
L 751.127442 -321.571242 
L 765.142326 -365.746833 
L 779.157209 -412.712679 
L 779.157209 -425.88 
L 779.157209 -425.88 
L 765.142326 -374.365628 
L 751.127442 -348.39576 
L 737.112558 -289.378426 
L 723.097674 -242.333644 
L 710.64 -230.429724 
L 696.625116 -217.601441 
L 682.610233 -210.95701 
L 668.595349 -206.444547 
L 654.580465 -197.951067 
L 642.122791 -190.503138 
L 628.107907 -165.72022 
L 614.093023 -161.380377 
L 600.07814 -152.781719 
L 586.063256 -151.949304 
L 573.605581 -148.711907 
L 559.590698 -143.360675 
L 545.575814 -141.807492 
L 531.56093 -136.272431 
L 517.546047 -135.860184 
L 505.088372 -134.860238 
L 491.073488 -129.422836 
L 477.058605 -128.234084 
L 463.043721 -122.150978 
L 449.028837 -120.599956 
L 436.571163 -117.850922 
L 422.556279 -115.750789 
L 408.541395 -113.735884 
L 394.526512 -111.227085 
L 380.511628 -110.010978 
L 368.053953 -108.353909 
L 354.03907 -106.2523 
L 340.024186 -104.267213 
L 326.009302 -102.756501 
L 311.994419 -100.710962 
L 299.536744 -102.429446 
L 285.52186 -98.34135 
L 271.506977 -97.676327 
L 257.492093 -96.827699 
L 243.477209 -94.722912 
L 231.019535 -94.140916 
L 217.004651 -92.70636 
L 202.989767 -90.167439 
L 188.974884 -89.752465 
L 162.502326 -86.635231 
L 148.487442 -85.707702 
L 134.472558 -84.221979 
L 120.457674 -86.457801 
L 108 -85.604915 
z
" id="m78e4de4bc1" style="stroke:#91db57;stroke-opacity:0.2;"/>
    </defs>
    <g clip-path="url(#p9433fffa55)">
     <use style="fill:#91db57;fill-opacity:0.2;stroke:#91db57;stroke-opacity:0.2;" x="0" xlink:href="#m78e4de4bc1" y="504"/>
    </g>
   </g>
   <g id="PolyCollection_3">
    <defs>
     <path d="M 108 -73.135353 
L 108 -73.08 
L 120.457674 -73.40705 
L 134.472558 -73.505488 
L 148.487442 -73.795231 
L 162.502326 -73.772281 
L 174.96 -73.872516 
L 188.974884 -74.076288 
L 202.989767 -74.233287 
L 217.004651 -74.226317 
L 231.019535 -74.316494 
L 243.477209 -74.476441 
L 257.492093 -74.56417 
L 271.506977 -74.704478 
L 285.52186 -74.876257 
L 299.536744 -74.993862 
L 311.994419 -75.012223 
L 326.009302 -75.103237 
L 340.024186 -75.287715 
L 354.03907 -75.436816 
L 368.053953 -75.509754 
L 380.511628 -75.67727 
L 394.526512 -75.903206 
L 408.541395 -76.02447 
L 422.556279 -76.202702 
L 436.571163 -76.345232 
L 449.028837 -76.537882 
L 463.043721 -76.632573 
L 477.058605 -76.784198 
L 491.073488 -76.987193 
L 505.088372 -77.356011 
L 517.546047 -77.500675 
L 531.56093 -77.972938 
L 545.575814 -78.353145 
L 559.590698 -78.791792 
L 573.605581 -79.031519 
L 586.063256 -79.311354 
L 600.07814 -79.757697 
L 614.093023 -79.996566 
L 628.107907 -80.245898 
L 642.122791 -83.952806 
L 654.580465 -84.432368 
L 668.595349 -84.824894 
L 682.610233 -85.402431 
L 696.625116 -85.7843 
L 710.64 -86.229482 
L 723.097674 -86.750987 
L 737.112558 -87.051984 
L 751.127442 -88.076147 
L 765.142326 -88.832249 
L 779.157209 -89.270568 
L 779.157209 -89.411523 
L 779.157209 -89.411523 
L 765.142326 -88.943996 
L 751.127442 -88.278234 
L 737.112558 -87.201337 
L 723.097674 -86.926099 
L 710.64 -86.528346 
L 696.625116 -85.989801 
L 682.610233 -85.625955 
L 668.595349 -84.969522 
L 654.580465 -84.605267 
L 642.122791 -84.140908 
L 628.107907 -80.368742 
L 614.093023 -80.163056 
L 600.07814 -79.867418 
L 586.063256 -79.420645 
L 573.605581 -79.212341 
L 559.590698 -78.958865 
L 545.575814 -78.504711 
L 531.56093 -78.09776 
L 517.546047 -77.611033 
L 505.088372 -77.512135 
L 491.073488 -77.157342 
L 477.058605 -76.946058 
L 463.043721 -76.845648 
L 449.028837 -76.624483 
L 436.571163 -76.485826 
L 422.556279 -76.275284 
L 408.541395 -76.108527 
L 394.526512 -76.041321 
L 380.511628 -75.720761 
L 368.053953 -75.565315 
L 354.03907 -75.510983 
L 340.024186 -75.362072 
L 326.009302 -75.19052 
L 311.994419 -75.123627 
L 299.536744 -75.098415 
L 285.52186 -74.937256 
L 271.506977 -74.786806 
L 257.492093 -74.67923 
L 243.477209 -74.561774 
L 231.019535 -74.355455 
L 217.004651 -74.329976 
L 202.989767 -74.341143 
L 188.974884 -74.161649 
L 174.96 -73.950684 
L 162.502326 -73.821474 
L 148.487442 -73.883716 
L 134.472558 -73.630628 
L 120.457674 -73.49316 
L 108 -73.135353 
z
" id="m718ae6c1c8" style="stroke:#57d3db;stroke-opacity:0.2;"/>
    </defs>
    <g clip-path="url(#p9433fffa55)">
     <use style="fill:#57d3db;fill-opacity:0.2;stroke:#57d3db;stroke-opacity:0.2;" x="0" xlink:href="#m718ae6c1c8" y="504"/>
    </g>
   </g>
   <g id="PolyCollection_4">
    <defs>
     <path d="M 108 -73.894266 
L 108 -73.864245 
L 120.457674 -73.969613 
L 134.472558 -74.79092 
L 148.487442 -75.31095 
L 162.502326 -75.714616 
L 188.974884 -77.018476 
L 202.989767 -77.442832 
L 217.004651 -78.173326 
L 231.019535 -78.723472 
L 243.477209 -79.256484 
L 257.492093 -79.70717 
L 271.506977 -80.154926 
L 285.52186 -80.748355 
L 299.536744 -81.497001 
L 311.994419 -81.571978 
L 326.009302 -82.231262 
L 340.024186 -83.345677 
L 354.03907 -84.158841 
L 368.053953 -85.397572 
L 380.511628 -85.949148 
L 394.526512 -86.868871 
L 408.541395 -88.27806 
L 422.556279 -90.430272 
L 436.571163 -90.896367 
L 449.028837 -91.03199 
L 463.043721 -91.469163 
L 477.058605 -93.531434 
L 491.073488 -95.609749 
L 505.088372 -96.702111 
L 517.546047 -98.305265 
L 531.56093 -98.500552 
L 545.575814 -101.095764 
L 559.590698 -101.447023 
L 573.605581 -103.728978 
L 586.063256 -105.324434 
L 600.07814 -105.73168 
L 614.093023 -109.243782 
L 628.107907 -109.940475 
L 642.122791 -121.405603 
L 654.580465 -127.631411 
L 668.595349 -129.101941 
L 682.610233 -134.455848 
L 696.625116 -135.177788 
L 710.64 -139.327257 
L 723.097674 -141.698233 
L 737.112558 -141.09585 
L 751.127442 -146.93819 
L 765.142326 -148.595892 
L 779.157209 -153.327671 
L 779.157209 -154.515728 
L 779.157209 -154.515728 
L 765.142326 -151.808772 
L 751.127442 -148.801487 
L 737.112558 -142.292333 
L 723.097674 -143.75593 
L 710.64 -140.237161 
L 696.625116 -135.810389 
L 682.610233 -135.404607 
L 668.595349 -131.225901 
L 654.580465 -130.528794 
L 642.122791 -126.418406 
L 628.107907 -111.717291 
L 614.093023 -109.801935 
L 600.07814 -106.377821 
L 586.063256 -105.577571 
L 573.605581 -104.460418 
L 559.590698 -102.100988 
L 545.575814 -101.39633 
L 531.56093 -98.84738 
L 517.546047 -98.939366 
L 505.088372 -97.529995 
L 491.073488 -97.132572 
L 477.058605 -94.251368 
L 463.043721 -91.698952 
L 449.028837 -91.3503 
L 436.571163 -95.217992 
L 422.556279 -91.576085 
L 408.541395 -88.562322 
L 394.526512 -87.154907 
L 380.511628 -86.229181 
L 368.053953 -85.652558 
L 354.03907 -84.322243 
L 340.024186 -83.609999 
L 326.009302 -82.537549 
L 311.994419 -81.900103 
L 299.536744 -81.799159 
L 285.52186 -80.885804 
L 271.506977 -80.304078 
L 257.492093 -79.847722 
L 243.477209 -79.395733 
L 231.019535 -78.94497 
L 217.004651 -78.380564 
L 202.989767 -77.579862 
L 188.974884 -77.103036 
L 162.502326 -75.89833 
L 148.487442 -75.460215 
L 134.472558 -74.902901 
L 120.457674 -74.030083 
L 108 -73.894266 
z
" id="md629acd170" style="stroke:#a157db;stroke-opacity:0.2;"/>
    </defs>
    <g clip-path="url(#p9433fffa55)">
     <use style="fill:#a157db;fill-opacity:0.2;stroke:#a157db;stroke-opacity:0.2;" x="0" xlink:href="#md629acd170" y="504"/>
    </g>
   </g>
   <g id="line2d_16">
    <path clip-path="url(#p9433fffa55)" d="M 108 425.936506 
L 120.457674 423.483321 
L 134.472558 422.542907 
L 148.487442 421.476034 
L 162.502326 421.007242 
L 174.96 420.547161 
L 188.974884 420.376156 
L 202.989767 420.545803 
L 217.004651 419.750463 
L 231.019535 418.770216 
L 243.477209 418.948004 
L 257.492093 417.814965 
L 271.506977 417.810337 
L 285.52186 418.351987 
L 299.536744 416.909734 
L 311.994419 417.588976 
L 326.009302 416.92775 
L 340.024186 417.306485 
L 354.03907 416.743959 
L 368.053953 416.233013 
L 380.511628 416.043559 
L 394.526512 415.503763 
L 408.541395 414.987487 
L 422.556279 414.9115 
L 436.571163 414.389558 
L 449.028837 414.272668 
L 463.043721 413.782483 
L 477.058605 413.418148 
L 491.073488 413.271831 
L 505.088372 412.403316 
L 517.546047 412.115321 
L 531.56093 410.746155 
L 545.575814 409.58945 
L 559.590698 409.199447 
L 573.605581 408.952991 
L 586.063256 408.000198 
L 600.07814 407.966802 
L 614.093023 406.293581 
L 628.107907 406.684513 
L 642.122791 399.607908 
L 654.580465 397.840288 
L 668.595349 396.829222 
L 682.610233 395.765489 
L 696.625116 394.749476 
L 710.64 393.101855 
L 723.097674 392.814119 
L 737.112558 392.467989 
L 751.127442 391.175075 
L 765.142326 390.688765 
L 779.157209 389.104632 
" style="fill:none;stroke:#db5f57;stroke-linecap:round;stroke-width:1.5;"/>
   </g>
   <g id="line2d_17">
    <path clip-path="url(#p9433fffa55)" d="M 108 418.411795 
L 120.457674 417.571544 
L 134.472558 419.924276 
L 148.487442 418.414526 
L 162.502326 417.523001 
L 188.974884 414.423839 
L 202.989767 414.03026 
L 217.004651 411.507139 
L 231.019535 410.045518 
L 243.477209 409.435262 
L 257.492093 407.499135 
L 271.506977 406.413227 
L 285.52186 405.952857 
L 299.536744 402.625419 
L 311.994419 403.453258 
L 326.009302 401.672939 
L 340.024186 400.010032 
L 354.03907 398.132558 
L 368.053953 395.832512 
L 380.511628 394.247524 
L 394.526512 392.936701 
L 408.541395 390.569304 
L 422.556279 388.477018 
L 436.571163 386.440449 
L 449.028837 383.915337 
L 463.043721 381.969649 
L 477.058605 377.284531 
L 491.073488 375.092207 
L 505.088372 370.229242 
L 517.546047 368.584517 
L 531.56093 368.011933 
L 545.575814 362.47843 
L 559.590698 361.206065 
L 573.605581 355.905245 
L 586.063256 352.51567 
L 600.07814 351.57031 
L 614.093023 344.372312 
L 628.107907 339.833257 
L 642.122791 317.454902 
L 654.580465 306.814784 
L 668.595349 301.161294 
L 682.610233 295.247256 
L 696.625116 289.201293 
L 710.64 274.83274 
L 723.097674 266.192624 
L 737.112558 226.440629 
L 751.127442 167.123701 
L 765.142326 134.321808 
L 779.157209 84.502639 
" style="fill:none;stroke:#91db57;stroke-linecap:round;stroke-width:1.5;"/>
   </g>
   <g id="line2d_18">
    <path clip-path="url(#p9433fffa55)" d="M 108 430.889265 
L 120.457674 430.550136 
L 134.472558 430.436676 
L 148.487442 430.158273 
L 162.502326 430.201257 
L 174.96 430.090623 
L 188.974884 429.886365 
L 202.989767 429.711529 
L 217.004651 429.718242 
L 231.019535 429.663903 
L 243.477209 429.479384 
L 257.492093 429.375616 
L 271.506977 429.251243 
L 285.52186 429.093573 
L 299.536744 428.948278 
L 311.994419 428.92924 
L 326.009302 428.850523 
L 340.024186 428.681086 
L 354.03907 428.527216 
L 368.053953 428.464965 
L 380.511628 428.300782 
L 394.526512 428.022687 
L 408.541395 427.940178 
L 422.556279 427.763648 
L 436.571163 427.59434 
L 449.028837 427.413277 
L 463.043721 427.274591 
L 477.058605 427.129838 
L 491.073488 426.933186 
L 505.088372 426.572963 
L 517.546047 426.443518 
L 531.56093 425.963375 
L 545.575814 425.5695 
L 559.590698 425.116734 
L 573.605581 424.885296 
L 586.063256 424.635946 
L 600.07814 424.193625 
L 614.093023 423.915731 
L 628.107907 423.691299 
L 642.122791 419.961431 
L 654.580465 419.475628 
L 668.595349 419.106572 
L 682.610233 418.479917 
L 696.625116 418.109931 
L 710.64 417.622193 
L 723.097674 417.168889 
L 737.112558 416.883397 
L 751.127442 415.828383 
L 765.142326 415.106713 
L 779.157209 414.66522 
" style="fill:none;stroke:#57d3db;stroke-linecap:round;stroke-width:1.5;"/>
   </g>
   <g id="line2d_19">
    <path clip-path="url(#p9433fffa55)" d="M 108 430.122216 
L 120.457674 430.003163 
L 134.472558 429.156351 
L 148.487442 428.612567 
L 162.502326 428.194341 
L 188.974884 426.939119 
L 202.989767 426.489167 
L 217.004651 425.723841 
L 231.019535 425.162685 
L 243.477209 424.678212 
L 257.492093 424.213782 
L 271.506977 423.772297 
L 285.52186 423.182445 
L 299.536744 422.346446 
L 311.994419 422.26794 
L 326.009302 421.607917 
L 340.024186 420.53214 
L 354.03907 419.760436 
L 368.053953 418.472458 
L 380.511628 417.90317 
L 394.526512 416.992481 
L 408.541395 415.588487 
L 422.556279 412.902871 
L 436.571163 410.930775 
L 449.028837 412.806412 
L 463.043721 412.417943 
L 477.058605 410.175025 
L 491.073488 407.68227 
L 505.088372 406.843087 
L 517.546047 405.401341 
L 531.56093 405.33226 
L 545.575814 402.748058 
L 559.590698 402.19655 
L 573.605581 399.93247 
L 586.063256 398.558266 
L 600.07814 397.980592 
L 614.093023 394.466527 
L 628.107907 393.306052 
L 642.122791 380.619336 
L 654.580465 375.291342 
L 668.595349 374.025487 
L 682.610233 369.093191 
L 696.625116 368.487024 
L 710.64 364.246325 
L 723.097674 361.556741 
L 737.112558 362.385027 
L 751.127442 356.276912 
L 765.142326 354.100672 
L 779.157209 350.094996 
" style="fill:none;stroke:#a157db;stroke-linecap:round;stroke-width:1.5;"/>
   </g>
   <g id="line2d_20"/>
   <g id="line2d_21"/>
   <g id="line2d_22"/>
   <g id="line2d_23"/>
   <g id="patch_3">
    <path d="M 108 448.56 
L 108 60.48 
" style="fill:none;stroke:#ffffff;stroke-linecap:square;stroke-linejoin:miter;stroke-width:0.8;"/>
   </g>
   <g id="patch_4">
    <path d="M 777.6 448.56 
L 777.6 60.48 
" style="fill:none;stroke:#ffffff;stroke-linecap:square;stroke-linejoin:miter;stroke-width:0.8;"/>
   </g>
   <g id="patch_5">
    <path d="M 108 448.56 
L 777.6 448.56 
" style="fill:none;stroke:#ffffff;stroke-linecap:square;stroke-linejoin:miter;stroke-width:0.8;"/>
   </g>
   <g id="patch_6">
    <path d="M 108 60.48 
L 777.6 60.48 
" style="fill:none;stroke:#ffffff;stroke-linecap:square;stroke-linejoin:miter;stroke-width:0.8;"/>
   </g>
   <g id="text_18">
    <!-- Time performances comparison -->
    <g style="fill:#262626;" transform="translate(330.62375 54.48)scale(0.16 -0.16)">
     <defs>
      <path d="M 25.921875 0 
L 25.921875 63.140625 
L 2.34375 63.140625 
L 2.34375 71.578125 
L 59.078125 71.578125 
L 59.078125 63.140625 
L 35.40625 63.140625 
L 35.40625 0 
z
" id="ArialMT-84"/>
      <path d="M 6.59375 -19.875 
L 6.59375 51.859375 
L 14.59375 51.859375 
L 14.59375 45.125 
Q 17.4375 49.078125 21 51.046875 
Q 24.5625 53.03125 29.640625 53.03125 
Q 36.28125 53.03125 41.359375 49.609375 
Q 46.4375 46.1875 49.015625 39.953125 
Q 51.609375 33.734375 51.609375 26.3125 
Q 51.609375 18.359375 48.75 11.984375 
Q 45.90625 5.609375 40.453125 2.21875 
Q 35.015625 -1.171875 29 -1.171875 
Q 24.609375 -1.171875 21.109375 0.6875 
Q 17.625 2.546875 15.375 5.375 
L 15.375 -19.875 
z
M 14.546875 25.640625 
Q 14.546875 15.625 18.59375 10.84375 
Q 22.65625 6.0625 28.421875 6.0625 
Q 34.28125 6.0625 38.453125 11.015625 
Q 42.625 15.96875 42.625 26.375 
Q 42.625 36.28125 38.546875 41.203125 
Q 34.46875 46.140625 28.8125 46.140625 
Q 23.1875 46.140625 18.859375 40.890625 
Q 14.546875 35.640625 14.546875 25.640625 
z
" id="ArialMT-112"/>
      <path d="M 8.6875 0 
L 8.6875 45.015625 
L 0.921875 45.015625 
L 0.921875 51.859375 
L 8.6875 51.859375 
L 8.6875 57.375 
Q 8.6875 62.59375 9.625 65.140625 
Q 10.890625 68.5625 14.078125 70.671875 
Q 17.28125 72.796875 23.046875 72.796875 
Q 26.765625 72.796875 31.25 71.921875 
L 29.9375 64.265625 
Q 27.203125 64.75 24.75 64.75 
Q 20.75 64.75 19.09375 63.03125 
Q 17.4375 61.328125 17.4375 56.640625 
L 17.4375 51.859375 
L 27.546875 51.859375 
L 27.546875 45.015625 
L 17.4375 45.015625 
L 17.4375 0 
z
" id="ArialMT-102"/>
      <path d="M 6.59375 0 
L 6.59375 51.859375 
L 14.5 51.859375 
L 14.5 44.484375 
Q 20.21875 53.03125 31 53.03125 
Q 35.6875 53.03125 39.625 51.34375 
Q 43.5625 49.65625 45.515625 46.921875 
Q 47.46875 44.1875 48.25 40.4375 
Q 48.734375 37.984375 48.734375 31.890625 
L 48.734375 0 
L 39.9375 0 
L 39.9375 31.546875 
Q 39.9375 36.921875 38.90625 39.578125 
Q 37.890625 42.234375 35.28125 43.8125 
Q 32.671875 45.40625 29.15625 45.40625 
Q 23.53125 45.40625 19.453125 41.84375 
Q 15.375 38.28125 15.375 28.328125 
L 15.375 0 
z
" id="ArialMT-110"/>
     </defs>
     <use xlink:href="#ArialMT-84"/>
     <use x="57.333984" xlink:href="#ArialMT-105"/>
     <use x="79.550781" xlink:href="#ArialMT-109"/>
     <use x="162.851562" xlink:href="#ArialMT-101"/>
     <use x="218.466797" xlink:href="#ArialMT-32"/>
     <use x="246.25" xlink:href="#ArialMT-112"/>
     <use x="301.865234" xlink:href="#ArialMT-101"/>
     <use x="357.480469" xlink:href="#ArialMT-114"/>
     <use x="390.78125" xlink:href="#ArialMT-102"/>
     <use x="418.564453" xlink:href="#ArialMT-111"/>
     <use x="474.179688" xlink:href="#ArialMT-114"/>
     <use x="507.480469" xlink:href="#ArialMT-109"/>
     <use x="590.78125" xlink:href="#ArialMT-97"/>
     <use x="646.396484" xlink:href="#ArialMT-110"/>
     <use x="702.011719" xlink:href="#ArialMT-99"/>
     <use x="752.011719" xlink:href="#ArialMT-101"/>
     <use x="807.626953" xlink:href="#ArialMT-115"/>
     <use x="857.626953" xlink:href="#ArialMT-32"/>
     <use x="885.410156" xlink:href="#ArialMT-99"/>
     <use x="935.410156" xlink:href="#ArialMT-111"/>
     <use x="991.025391" xlink:href="#ArialMT-109"/>
     <use x="1074.326172" xlink:href="#ArialMT-112"/>
     <use x="1129.941406" xlink:href="#ArialMT-97"/>
     <use x="1185.556641" xlink:href="#ArialMT-114"/>
     <use x="1218.857422" xlink:href="#ArialMT-105"/>
     <use x="1241.074219" xlink:href="#ArialMT-115"/>
     <use x="1291.074219" xlink:href="#ArialMT-111"/>
     <use x="1346.689453" xlink:href="#ArialMT-110"/>
    </g>
   </g>
   <g id="legend_1">
    <g id="patch_7">
     <path d="M 116.4 139.125 
L 274.850625 139.125 
Q 277.250625 139.125 277.250625 136.725 
L 277.250625 68.88 
Q 277.250625 66.48 274.850625 66.48 
L 116.4 66.48 
Q 114 66.48 114 68.88 
L 114 136.725 
Q 114 139.125 116.4 139.125 
z
" style="fill:#eaeaf2;opacity:0.8;stroke:#cccccc;stroke-linejoin:miter;"/>
    </g>
    <g id="line2d_24">
     <path d="M 118.8 75.815625 
L 142.8 75.815625 
" style="fill:none;stroke:#db5f57;stroke-linecap:round;stroke-width:1.5;"/>
    </g>
    <g id="line2d_25"/>
    <g id="text_19">
     <!-- LLE (whole data set) -->
     <g style="fill:#262626;" transform="translate(152.4 80.015625)scale(0.12 -0.12)">
      <defs>
       <path d="M 7.328125 0 
L 7.328125 71.578125 
L 16.796875 71.578125 
L 16.796875 8.453125 
L 52.046875 8.453125 
L 52.046875 0 
z
" id="ArialMT-76"/>
       <path d="M 7.90625 0 
L 7.90625 71.578125 
L 59.671875 71.578125 
L 59.671875 63.140625 
L 17.390625 63.140625 
L 17.390625 41.21875 
L 56.984375 41.21875 
L 56.984375 32.8125 
L 17.390625 32.8125 
L 17.390625 8.453125 
L 61.328125 8.453125 
L 61.328125 0 
z
" id="ArialMT-69"/>
       <path d="M 23.390625 -21.046875 
Q 16.109375 -11.859375 11.078125 0.4375 
Q 6.0625 12.75 6.0625 25.921875 
Q 6.0625 37.546875 9.8125 48.1875 
Q 14.203125 60.546875 23.390625 72.796875 
L 29.6875 72.796875 
Q 23.78125 62.640625 21.875 58.296875 
Q 18.890625 51.5625 17.1875 44.234375 
Q 15.09375 35.109375 15.09375 25.875 
Q 15.09375 2.390625 29.6875 -21.046875 
z
" id="ArialMT-40"/>
       <path d="M 16.15625 0 
L 0.296875 51.859375 
L 9.375 51.859375 
L 17.625 21.921875 
L 20.703125 10.796875 
Q 20.90625 11.625 23.390625 21.484375 
L 31.640625 51.859375 
L 40.671875 51.859375 
L 48.4375 21.78125 
L 51.03125 11.859375 
L 54 21.875 
L 62.890625 51.859375 
L 71.4375 51.859375 
L 55.21875 0 
L 46.09375 0 
L 37.84375 31.0625 
L 35.84375 39.890625 
L 25.34375 0 
z
" id="ArialMT-119"/>
       <path d="M 40.234375 0 
L 40.234375 6.546875 
Q 35.296875 -1.171875 25.734375 -1.171875 
Q 19.53125 -1.171875 14.328125 2.25 
Q 9.125 5.671875 6.265625 11.796875 
Q 3.421875 17.921875 3.421875 25.875 
Q 3.421875 33.640625 6 39.96875 
Q 8.59375 46.296875 13.765625 49.65625 
Q 18.953125 53.03125 25.34375 53.03125 
Q 30.03125 53.03125 33.6875 51.046875 
Q 37.359375 49.078125 39.65625 45.90625 
L 39.65625 71.578125 
L 48.390625 71.578125 
L 48.390625 0 
z
M 12.453125 25.875 
Q 12.453125 15.921875 16.640625 10.984375 
Q 20.84375 6.0625 26.5625 6.0625 
Q 32.328125 6.0625 36.34375 10.765625 
Q 40.375 15.484375 40.375 25.140625 
Q 40.375 35.796875 36.265625 40.765625 
Q 32.171875 45.75 26.171875 45.75 
Q 20.3125 45.75 16.375 40.96875 
Q 12.453125 36.1875 12.453125 25.875 
z
" id="ArialMT-100"/>
       <path d="M 12.359375 -21.046875 
L 6.0625 -21.046875 
Q 20.65625 2.390625 20.65625 25.875 
Q 20.65625 35.0625 18.5625 44.09375 
Q 16.890625 51.421875 13.921875 58.15625 
Q 12.015625 62.546875 6.0625 72.796875 
L 12.359375 72.796875 
Q 21.53125 60.546875 25.921875 48.1875 
Q 29.6875 37.546875 29.6875 25.921875 
Q 29.6875 12.75 24.625 0.4375 
Q 19.578125 -11.859375 12.359375 -21.046875 
z
" id="ArialMT-41"/>
      </defs>
      <use xlink:href="#ArialMT-76"/>
      <use x="55.615234" xlink:href="#ArialMT-76"/>
      <use x="111.230469" xlink:href="#ArialMT-69"/>
      <use x="177.929688" xlink:href="#ArialMT-32"/>
      <use x="205.712891" xlink:href="#ArialMT-40"/>
      <use x="239.013672" xlink:href="#ArialMT-119"/>
      <use x="311.230469" xlink:href="#ArialMT-104"/>
      <use x="366.845703" xlink:href="#ArialMT-111"/>
      <use x="422.460938" xlink:href="#ArialMT-108"/>
      <use x="444.677734" xlink:href="#ArialMT-101"/>
      <use x="500.292969" xlink:href="#ArialMT-32"/>
      <use x="528.076172" xlink:href="#ArialMT-100"/>
      <use x="583.691406" xlink:href="#ArialMT-97"/>
      <use x="639.306641" xlink:href="#ArialMT-116"/>
      <use x="667.089844" xlink:href="#ArialMT-97"/>
      <use x="722.705078" xlink:href="#ArialMT-32"/>
      <use x="750.488281" xlink:href="#ArialMT-115"/>
      <use x="800.488281" xlink:href="#ArialMT-101"/>
      <use x="856.103516" xlink:href="#ArialMT-116"/>
      <use x="883.886719" xlink:href="#ArialMT-41"/>
     </g>
    </g>
    <g id="line2d_26">
     <path d="M 118.8 93.076875 
L 142.8 93.076875 
" style="fill:none;stroke:#91db57;stroke-linecap:round;stroke-width:1.5;"/>
    </g>
    <g id="line2d_27"/>
    <g id="text_20">
     <!-- MLLE (whole data set) -->
     <g style="fill:#262626;" transform="translate(152.4 97.276875)scale(0.12 -0.12)">
      <defs>
       <path d="M 7.421875 0 
L 7.421875 71.578125 
L 21.6875 71.578125 
L 38.625 20.90625 
Q 40.96875 13.8125 42.046875 10.296875 
Q 43.265625 14.203125 45.84375 21.78125 
L 62.984375 71.578125 
L 75.734375 71.578125 
L 75.734375 0 
L 66.609375 0 
L 66.609375 59.90625 
L 45.796875 0 
L 37.25 0 
L 16.546875 60.9375 
L 16.546875 0 
z
" id="ArialMT-77"/>
      </defs>
      <use xlink:href="#ArialMT-77"/>
      <use x="83.300781" xlink:href="#ArialMT-76"/>
      <use x="138.916016" xlink:href="#ArialMT-76"/>
      <use x="194.53125" xlink:href="#ArialMT-69"/>
      <use x="261.230469" xlink:href="#ArialMT-32"/>
      <use x="289.013672" xlink:href="#ArialMT-40"/>
      <use x="322.314453" xlink:href="#ArialMT-119"/>
      <use x="394.53125" xlink:href="#ArialMT-104"/>
      <use x="450.146484" xlink:href="#ArialMT-111"/>
      <use x="505.761719" xlink:href="#ArialMT-108"/>
      <use x="527.978516" xlink:href="#ArialMT-101"/>
      <use x="583.59375" xlink:href="#ArialMT-32"/>
      <use x="611.376953" xlink:href="#ArialMT-100"/>
      <use x="666.992188" xlink:href="#ArialMT-97"/>
      <use x="722.607422" xlink:href="#ArialMT-116"/>
      <use x="750.390625" xlink:href="#ArialMT-97"/>
      <use x="806.005859" xlink:href="#ArialMT-32"/>
      <use x="833.789062" xlink:href="#ArialMT-115"/>
      <use x="883.789062" xlink:href="#ArialMT-101"/>
      <use x="939.404297" xlink:href="#ArialMT-116"/>
      <use x="967.1875" xlink:href="#ArialMT-41"/>
     </g>
    </g>
    <g id="line2d_28">
     <path d="M 118.8 110.338125 
L 142.8 110.338125 
" style="fill:none;stroke:#57d3db;stroke-linecap:round;stroke-width:1.5;"/>
    </g>
    <g id="line2d_29"/>
    <g id="text_21">
     <!-- LLE (semi data set) -->
     <g style="fill:#262626;" transform="translate(152.4 114.538125)scale(0.12 -0.12)">
      <use xlink:href="#ArialMT-76"/>
      <use x="55.615234" xlink:href="#ArialMT-76"/>
      <use x="111.230469" xlink:href="#ArialMT-69"/>
      <use x="177.929688" xlink:href="#ArialMT-32"/>
      <use x="205.712891" xlink:href="#ArialMT-40"/>
      <use x="239.013672" xlink:href="#ArialMT-115"/>
      <use x="289.013672" xlink:href="#ArialMT-101"/>
      <use x="344.628906" xlink:href="#ArialMT-109"/>
      <use x="427.929688" xlink:href="#ArialMT-105"/>
      <use x="450.146484" xlink:href="#ArialMT-32"/>
      <use x="477.929688" xlink:href="#ArialMT-100"/>
      <use x="533.544922" xlink:href="#ArialMT-97"/>
      <use x="589.160156" xlink:href="#ArialMT-116"/>
      <use x="616.943359" xlink:href="#ArialMT-97"/>
      <use x="672.558594" xlink:href="#ArialMT-32"/>
      <use x="700.341797" xlink:href="#ArialMT-115"/>
      <use x="750.341797" xlink:href="#ArialMT-101"/>
      <use x="805.957031" xlink:href="#ArialMT-116"/>
      <use x="833.740234" xlink:href="#ArialMT-41"/>
     </g>
    </g>
    <g id="line2d_30">
     <path d="M 118.8 127.599375 
L 142.8 127.599375 
" style="fill:none;stroke:#a157db;stroke-linecap:round;stroke-width:1.5;"/>
    </g>
    <g id="line2d_31"/>
    <g id="text_22">
     <!-- MLLE (semi data set) -->
     <g style="fill:#262626;" transform="translate(152.4 131.799375)scale(0.12 -0.12)">
      <use xlink:href="#ArialMT-77"/>
      <use x="83.300781" xlink:href="#ArialMT-76"/>
      <use x="138.916016" xlink:href="#ArialMT-76"/>
      <use x="194.53125" xlink:href="#ArialMT-69"/>
      <use x="261.230469" xlink:href="#ArialMT-32"/>
      <use x="289.013672" xlink:href="#ArialMT-40"/>
      <use x="322.314453" xlink:href="#ArialMT-115"/>
      <use x="372.314453" xlink:href="#ArialMT-101"/>
      <use x="427.929688" xlink:href="#ArialMT-109"/>
      <use x="511.230469" xlink:href="#ArialMT-105"/>
      <use x="533.447266" xlink:href="#ArialMT-32"/>
      <use x="561.230469" xlink:href="#ArialMT-100"/>
      <use x="616.845703" xlink:href="#ArialMT-97"/>
      <use x="672.460938" xlink:href="#ArialMT-116"/>
      <use x="700.244141" xlink:href="#ArialMT-97"/>
      <use x="755.859375" xlink:href="#ArialMT-32"/>
      <use x="783.642578" xlink:href="#ArialMT-115"/>
      <use x="833.642578" xlink:href="#ArialMT-101"/>
      <use x="889.257812" xlink:href="#ArialMT-116"/>
      <use x="917.041016" xlink:href="#ArialMT-41"/>
     </g>
    </g>
   </g>
  </g>
 </g>
 <defs>
  <clipPath id="p9433fffa55">
   <rect height="388.08" width="669.6" x="108" y="60.48"/>
  </clipPath>
 </defs>
</svg>
