<?xml version="1.0" encoding="utf-8" standalone="no"?>
<!DOCTYPE svg PUBLIC "-//W3C//DTD SVG 1.1//EN"
  "http://www.w3.org/Graphics/SVG/1.1/DTD/svg11.dtd">
<!-- Created with matplotlib (https://matplotlib.org/) -->
<svg height="504pt" version="1.1" viewBox="0 0 864 504" width="864pt" xmlns="http://www.w3.org/2000/svg" xmlns:xlink="http://www.w3.org/1999/xlink">
 <metadata>
  <rdf:RDF xmlns:cc="http://creativecommons.org/ns#" xmlns:dc="http://purl.org/dc/elements/1.1/" xmlns:rdf="http://www.w3.org/1999/02/22-rdf-syntax-ns#">
   <cc:Work>
    <dc:type rdf:resource="http://purl.org/dc/dcmitype/StillImage"/>
    <dc:date>2021-05-17T12:18:39.223781</dc:date>
    <dc:format>image/svg+xml</dc:format>
    <dc:creator>
     <cc:Agent>
      <dc:title>Matplotlib v3.3.4, https://matplotlib.org/</dc:title>
     </cc:Agent>
    </dc:creator>
   </cc:Work>
  </rdf:RDF>
 </metadata>
 <defs>
  <style type="text/css">*{stroke-linecap:butt;stroke-linejoin:round;}</style>
 </defs>
 <g id="figure_1">
  <g id="patch_1">
   <path d="M 0 504 
L 864 504 
L 864 0 
L 0 0 
z
" style="fill:#ffffff;"/>
  </g>
  <g id="axes_1">
   <g id="patch_2">
    <path d="M 108 441 
L 777.6 441 
L 777.6 60.48 
L 108 60.48 
z
" style="fill:#eaeaf2;"/>
   </g>
   <g id="matplotlib.axis_1">
    <g id="xtick_1">
     <g id="line2d_1">
      <path clip-path="url(#p271c67e8dc)" d="M 135.517808 441 
L 135.517808 60.48 
" style="fill:none;stroke:#ffffff;stroke-linecap:round;stroke-width:0.8;"/>
     </g>
     <g id="text_1">
      <!-- 100 -->
      <g style="fill:#262626;" transform="translate(127.176402 455.157812)scale(0.1 -0.1)">
       <defs>
        <path d="M 37.25 0 
L 28.46875 0 
L 28.46875 56 
Q 25.296875 52.984375 20.140625 49.953125 
Q 14.984375 46.921875 10.890625 45.40625 
L 10.890625 53.90625 
Q 18.265625 57.375 23.78125 62.296875 
Q 29.296875 67.234375 31.59375 71.875 
L 37.25 71.875 
z
" id="ArialMT-49"/>
        <path d="M 4.15625 35.296875 
Q 4.15625 48 6.765625 55.734375 
Q 9.375 63.484375 14.515625 67.671875 
Q 19.671875 71.875 27.484375 71.875 
Q 33.25 71.875 37.59375 69.546875 
Q 41.9375 67.234375 44.765625 62.859375 
Q 47.609375 58.5 49.21875 52.21875 
Q 50.828125 45.953125 50.828125 35.296875 
Q 50.828125 22.703125 48.234375 14.96875 
Q 45.65625 7.234375 40.5 3 
Q 35.359375 -1.21875 27.484375 -1.21875 
Q 17.140625 -1.21875 11.234375 6.203125 
Q 4.15625 15.140625 4.15625 35.296875 
z
M 13.1875 35.296875 
Q 13.1875 17.671875 17.3125 11.828125 
Q 21.4375 6 27.484375 6 
Q 33.546875 6 37.671875 11.859375 
Q 41.796875 17.71875 41.796875 35.296875 
Q 41.796875 52.984375 37.671875 58.78125 
Q 33.546875 64.59375 27.390625 64.59375 
Q 21.34375 64.59375 17.71875 59.46875 
Q 13.1875 52.9375 13.1875 35.296875 
z
" id="ArialMT-48"/>
       </defs>
       <use xlink:href="#ArialMT-49"/>
       <use x="55.615234" xlink:href="#ArialMT-48"/>
       <use x="111.230469" xlink:href="#ArialMT-48"/>
      </g>
     </g>
    </g>
    <g id="xtick_2">
     <g id="line2d_2">
      <path clip-path="url(#p271c67e8dc)" d="M 227.243836 441 
L 227.243836 60.48 
" style="fill:none;stroke:#ffffff;stroke-linecap:round;stroke-width:0.8;"/>
     </g>
     <g id="text_2">
      <!-- 200 -->
      <g style="fill:#262626;" transform="translate(218.902429 455.157812)scale(0.1 -0.1)">
       <defs>
        <path d="M 50.34375 8.453125 
L 50.34375 0 
L 3.03125 0 
Q 2.9375 3.171875 4.046875 6.109375 
Q 5.859375 10.9375 9.828125 15.625 
Q 13.8125 20.3125 21.34375 26.46875 
Q 33.015625 36.03125 37.109375 41.625 
Q 41.21875 47.21875 41.21875 52.203125 
Q 41.21875 57.421875 37.46875 61 
Q 33.734375 64.59375 27.734375 64.59375 
Q 21.390625 64.59375 17.578125 60.78125 
Q 13.765625 56.984375 13.71875 50.25 
L 4.6875 51.171875 
Q 5.609375 61.28125 11.65625 66.578125 
Q 17.71875 71.875 27.9375 71.875 
Q 38.234375 71.875 44.234375 66.15625 
Q 50.25 60.453125 50.25 52 
Q 50.25 47.703125 48.484375 43.546875 
Q 46.734375 39.40625 42.65625 34.8125 
Q 38.578125 30.21875 29.109375 22.21875 
Q 21.1875 15.578125 18.9375 13.203125 
Q 16.703125 10.84375 15.234375 8.453125 
z
" id="ArialMT-50"/>
       </defs>
       <use xlink:href="#ArialMT-50"/>
       <use x="55.615234" xlink:href="#ArialMT-48"/>
       <use x="111.230469" xlink:href="#ArialMT-48"/>
      </g>
     </g>
    </g>
    <g id="xtick_3">
     <g id="line2d_3">
      <path clip-path="url(#p271c67e8dc)" d="M 318.969863 441 
L 318.969863 60.48 
" style="fill:none;stroke:#ffffff;stroke-linecap:round;stroke-width:0.8;"/>
     </g>
     <g id="text_3">
      <!-- 300 -->
      <g style="fill:#262626;" transform="translate(310.628457 455.157812)scale(0.1 -0.1)">
       <defs>
        <path d="M 4.203125 18.890625 
L 12.984375 20.0625 
Q 14.5 12.59375 18.140625 9.296875 
Q 21.78125 6 27 6 
Q 33.203125 6 37.46875 10.296875 
Q 41.75 14.59375 41.75 20.953125 
Q 41.75 27 37.796875 30.921875 
Q 33.84375 34.859375 27.734375 34.859375 
Q 25.25 34.859375 21.53125 33.890625 
L 22.515625 41.609375 
Q 23.390625 41.5 23.921875 41.5 
Q 29.546875 41.5 34.03125 44.421875 
Q 38.53125 47.359375 38.53125 53.46875 
Q 38.53125 58.296875 35.25 61.46875 
Q 31.984375 64.65625 26.8125 64.65625 
Q 21.6875 64.65625 18.265625 61.421875 
Q 14.84375 58.203125 13.875 51.765625 
L 5.078125 53.328125 
Q 6.6875 62.15625 12.390625 67.015625 
Q 18.109375 71.875 26.609375 71.875 
Q 32.46875 71.875 37.390625 69.359375 
Q 42.328125 66.84375 44.9375 62.5 
Q 47.5625 58.15625 47.5625 53.265625 
Q 47.5625 48.640625 45.0625 44.828125 
Q 42.578125 41.015625 37.703125 38.765625 
Q 44.046875 37.3125 47.5625 32.6875 
Q 51.078125 28.078125 51.078125 21.140625 
Q 51.078125 11.765625 44.234375 5.25 
Q 37.40625 -1.265625 26.953125 -1.265625 
Q 17.53125 -1.265625 11.296875 4.34375 
Q 5.078125 9.96875 4.203125 18.890625 
z
" id="ArialMT-51"/>
       </defs>
       <use xlink:href="#ArialMT-51"/>
       <use x="55.615234" xlink:href="#ArialMT-48"/>
       <use x="111.230469" xlink:href="#ArialMT-48"/>
      </g>
     </g>
    </g>
    <g id="xtick_4">
     <g id="line2d_4">
      <path clip-path="url(#p271c67e8dc)" d="M 410.69589 441 
L 410.69589 60.48 
" style="fill:none;stroke:#ffffff;stroke-linecap:round;stroke-width:0.8;"/>
     </g>
     <g id="text_4">
      <!-- 400 -->
      <g style="fill:#262626;" transform="translate(402.354484 455.157812)scale(0.1 -0.1)">
       <defs>
        <path d="M 32.328125 0 
L 32.328125 17.140625 
L 1.265625 17.140625 
L 1.265625 25.203125 
L 33.9375 71.578125 
L 41.109375 71.578125 
L 41.109375 25.203125 
L 50.78125 25.203125 
L 50.78125 17.140625 
L 41.109375 17.140625 
L 41.109375 0 
z
M 32.328125 25.203125 
L 32.328125 57.46875 
L 9.90625 25.203125 
z
" id="ArialMT-52"/>
       </defs>
       <use xlink:href="#ArialMT-52"/>
       <use x="55.615234" xlink:href="#ArialMT-48"/>
       <use x="111.230469" xlink:href="#ArialMT-48"/>
      </g>
     </g>
    </g>
    <g id="xtick_5">
     <g id="line2d_5">
      <path clip-path="url(#p271c67e8dc)" d="M 502.421918 441 
L 502.421918 60.48 
" style="fill:none;stroke:#ffffff;stroke-linecap:round;stroke-width:0.8;"/>
     </g>
     <g id="text_5">
      <!-- 500 -->
      <g style="fill:#262626;" transform="translate(494.080512 455.157812)scale(0.1 -0.1)">
       <defs>
        <path d="M 4.15625 18.75 
L 13.375 19.53125 
Q 14.40625 12.796875 18.140625 9.390625 
Q 21.875 6 27.15625 6 
Q 33.5 6 37.890625 10.78125 
Q 42.28125 15.578125 42.28125 23.484375 
Q 42.28125 31 38.0625 35.34375 
Q 33.84375 39.703125 27 39.703125 
Q 22.75 39.703125 19.328125 37.765625 
Q 15.921875 35.84375 13.96875 32.765625 
L 5.71875 33.84375 
L 12.640625 70.609375 
L 48.25 70.609375 
L 48.25 62.203125 
L 19.671875 62.203125 
L 15.828125 42.96875 
Q 22.265625 47.46875 29.34375 47.46875 
Q 38.71875 47.46875 45.15625 40.96875 
Q 51.609375 34.46875 51.609375 24.265625 
Q 51.609375 14.546875 45.953125 7.46875 
Q 39.0625 -1.21875 27.15625 -1.21875 
Q 17.390625 -1.21875 11.203125 4.25 
Q 5.03125 9.71875 4.15625 18.75 
z
" id="ArialMT-53"/>
       </defs>
       <use xlink:href="#ArialMT-53"/>
       <use x="55.615234" xlink:href="#ArialMT-48"/>
       <use x="111.230469" xlink:href="#ArialMT-48"/>
      </g>
     </g>
    </g>
    <g id="xtick_6">
     <g id="line2d_6">
      <path clip-path="url(#p271c67e8dc)" d="M 594.147945 441 
L 594.147945 60.48 
" style="fill:none;stroke:#ffffff;stroke-linecap:round;stroke-width:0.8;"/>
     </g>
     <g id="text_6">
      <!-- 600 -->
      <g style="fill:#262626;" transform="translate(585.806539 455.157812)scale(0.1 -0.1)">
       <defs>
        <path d="M 49.75 54.046875 
L 41.015625 53.375 
Q 39.84375 58.546875 37.703125 60.890625 
Q 34.125 64.65625 28.90625 64.65625 
Q 24.703125 64.65625 21.53125 62.3125 
Q 17.390625 59.28125 14.984375 53.46875 
Q 12.59375 47.65625 12.5 36.921875 
Q 15.671875 41.75 20.265625 44.09375 
Q 24.859375 46.4375 29.890625 46.4375 
Q 38.671875 46.4375 44.84375 39.96875 
Q 51.03125 33.5 51.03125 23.25 
Q 51.03125 16.5 48.125 10.71875 
Q 45.21875 4.9375 40.140625 1.859375 
Q 35.0625 -1.21875 28.609375 -1.21875 
Q 17.625 -1.21875 10.6875 6.859375 
Q 3.765625 14.9375 3.765625 33.5 
Q 3.765625 54.25 11.421875 63.671875 
Q 18.109375 71.875 29.4375 71.875 
Q 37.890625 71.875 43.28125 67.140625 
Q 48.6875 62.40625 49.75 54.046875 
z
M 13.875 23.1875 
Q 13.875 18.65625 15.796875 14.5 
Q 17.71875 10.359375 21.1875 8.171875 
Q 24.65625 6 28.46875 6 
Q 34.03125 6 38.03125 10.484375 
Q 42.046875 14.984375 42.046875 22.703125 
Q 42.046875 30.125 38.078125 34.390625 
Q 34.125 38.671875 28.125 38.671875 
Q 22.171875 38.671875 18.015625 34.390625 
Q 13.875 30.125 13.875 23.1875 
z
" id="ArialMT-54"/>
       </defs>
       <use xlink:href="#ArialMT-54"/>
       <use x="55.615234" xlink:href="#ArialMT-48"/>
       <use x="111.230469" xlink:href="#ArialMT-48"/>
      </g>
     </g>
    </g>
    <g id="xtick_7">
     <g id="line2d_7">
      <path clip-path="url(#p271c67e8dc)" d="M 685.873973 441 
L 685.873973 60.48 
" style="fill:none;stroke:#ffffff;stroke-linecap:round;stroke-width:0.8;"/>
     </g>
     <g id="text_7">
      <!-- 700 -->
      <g style="fill:#262626;" transform="translate(677.532566 455.157812)scale(0.1 -0.1)">
       <defs>
        <path d="M 4.734375 62.203125 
L 4.734375 70.65625 
L 51.078125 70.65625 
L 51.078125 63.8125 
Q 44.234375 56.546875 37.515625 44.484375 
Q 30.8125 32.421875 27.15625 19.671875 
Q 24.515625 10.6875 23.78125 0 
L 14.75 0 
Q 14.890625 8.453125 18.0625 20.40625 
Q 21.234375 32.375 27.171875 43.484375 
Q 33.109375 54.59375 39.796875 62.203125 
z
" id="ArialMT-55"/>
       </defs>
       <use xlink:href="#ArialMT-55"/>
       <use x="55.615234" xlink:href="#ArialMT-48"/>
       <use x="111.230469" xlink:href="#ArialMT-48"/>
      </g>
     </g>
    </g>
    <g id="xtick_8">
     <g id="line2d_8">
      <path clip-path="url(#p271c67e8dc)" d="M 777.6 441 
L 777.6 60.48 
" style="fill:none;stroke:#ffffff;stroke-linecap:round;stroke-width:0.8;"/>
     </g>
     <g id="text_8">
      <!-- 800 -->
      <g style="fill:#262626;" transform="translate(769.258594 455.157812)scale(0.1 -0.1)">
       <defs>
        <path d="M 17.671875 38.8125 
Q 12.203125 40.828125 9.5625 44.53125 
Q 6.9375 48.25 6.9375 53.421875 
Q 6.9375 61.234375 12.546875 66.546875 
Q 18.171875 71.875 27.484375 71.875 
Q 36.859375 71.875 42.578125 66.421875 
Q 48.296875 60.984375 48.296875 53.171875 
Q 48.296875 48.1875 45.671875 44.5 
Q 43.0625 40.828125 37.75 38.8125 
Q 44.34375 36.671875 47.78125 31.875 
Q 51.21875 27.09375 51.21875 20.453125 
Q 51.21875 11.28125 44.71875 5.03125 
Q 38.234375 -1.21875 27.640625 -1.21875 
Q 17.046875 -1.21875 10.546875 5.046875 
Q 4.046875 11.328125 4.046875 20.703125 
Q 4.046875 27.6875 7.59375 32.390625 
Q 11.140625 37.109375 17.671875 38.8125 
z
M 15.921875 53.71875 
Q 15.921875 48.640625 19.1875 45.40625 
Q 22.46875 42.1875 27.6875 42.1875 
Q 32.765625 42.1875 36.015625 45.375 
Q 39.265625 48.578125 39.265625 53.21875 
Q 39.265625 58.0625 35.90625 61.359375 
Q 32.5625 64.65625 27.59375 64.65625 
Q 22.5625 64.65625 19.234375 61.421875 
Q 15.921875 58.203125 15.921875 53.71875 
z
M 13.09375 20.65625 
Q 13.09375 16.890625 14.875 13.375 
Q 16.65625 9.859375 20.171875 7.921875 
Q 23.6875 6 27.734375 6 
Q 34.03125 6 38.125 10.046875 
Q 42.234375 14.109375 42.234375 20.359375 
Q 42.234375 26.703125 38.015625 30.859375 
Q 33.796875 35.015625 27.4375 35.015625 
Q 21.234375 35.015625 17.15625 30.90625 
Q 13.09375 26.8125 13.09375 20.65625 
z
" id="ArialMT-56"/>
       </defs>
       <use xlink:href="#ArialMT-56"/>
       <use x="55.615234" xlink:href="#ArialMT-48"/>
       <use x="111.230469" xlink:href="#ArialMT-48"/>
      </g>
     </g>
    </g>
    <g id="text_9">
     <!-- Neighbors -->
     <g style="fill:#262626;" transform="translate(410.895312 471.16625)scale(0.14 -0.14)">
      <defs>
       <path d="M 7.625 0 
L 7.625 71.578125 
L 17.328125 71.578125 
L 54.9375 15.375 
L 54.9375 71.578125 
L 64.015625 71.578125 
L 64.015625 0 
L 54.296875 0 
L 16.703125 56.25 
L 16.703125 0 
z
" id="ArialMT-78"/>
       <path d="M 42.09375 16.703125 
L 51.171875 15.578125 
Q 49.03125 7.625 43.21875 3.21875 
Q 37.40625 -1.171875 28.375 -1.171875 
Q 17 -1.171875 10.328125 5.828125 
Q 3.65625 12.84375 3.65625 25.484375 
Q 3.65625 38.578125 10.390625 45.796875 
Q 17.140625 53.03125 27.875 53.03125 
Q 38.28125 53.03125 44.875 45.953125 
Q 51.46875 38.875 51.46875 26.03125 
Q 51.46875 25.25 51.421875 23.6875 
L 12.75 23.6875 
Q 13.234375 15.140625 17.578125 10.59375 
Q 21.921875 6.0625 28.421875 6.0625 
Q 33.25 6.0625 36.671875 8.59375 
Q 40.09375 11.140625 42.09375 16.703125 
z
M 13.234375 30.90625 
L 42.1875 30.90625 
Q 41.609375 37.453125 38.875 40.71875 
Q 34.671875 45.796875 27.984375 45.796875 
Q 21.921875 45.796875 17.796875 41.75 
Q 13.671875 37.703125 13.234375 30.90625 
z
" id="ArialMT-101"/>
       <path d="M 6.640625 61.46875 
L 6.640625 71.578125 
L 15.4375 71.578125 
L 15.4375 61.46875 
z
M 6.640625 0 
L 6.640625 51.859375 
L 15.4375 51.859375 
L 15.4375 0 
z
" id="ArialMT-105"/>
       <path d="M 4.984375 -4.296875 
L 13.53125 -5.5625 
Q 14.0625 -9.515625 16.5 -11.328125 
Q 19.78125 -13.765625 25.4375 -13.765625 
Q 31.546875 -13.765625 34.859375 -11.328125 
Q 38.1875 -8.890625 39.359375 -4.5 
Q 40.046875 -1.8125 39.984375 6.78125 
Q 34.234375 0 25.640625 0 
Q 14.9375 0 9.078125 7.71875 
Q 3.21875 15.4375 3.21875 26.21875 
Q 3.21875 33.640625 5.90625 39.90625 
Q 8.59375 46.1875 13.6875 49.609375 
Q 18.796875 53.03125 25.6875 53.03125 
Q 34.859375 53.03125 40.828125 45.609375 
L 40.828125 51.859375 
L 48.921875 51.859375 
L 48.921875 7.03125 
Q 48.921875 -5.078125 46.453125 -10.125 
Q 44 -15.1875 38.640625 -18.109375 
Q 33.296875 -21.046875 25.484375 -21.046875 
Q 16.21875 -21.046875 10.5 -16.875 
Q 4.78125 -12.703125 4.984375 -4.296875 
z
M 12.25 26.859375 
Q 12.25 16.65625 16.296875 11.96875 
Q 20.359375 7.28125 26.46875 7.28125 
Q 32.515625 7.28125 36.609375 11.9375 
Q 40.71875 16.609375 40.71875 26.5625 
Q 40.71875 36.078125 36.5 40.90625 
Q 32.28125 45.75 26.3125 45.75 
Q 20.453125 45.75 16.34375 40.984375 
Q 12.25 36.234375 12.25 26.859375 
z
" id="ArialMT-103"/>
       <path d="M 6.59375 0 
L 6.59375 71.578125 
L 15.375 71.578125 
L 15.375 45.90625 
Q 21.53125 53.03125 30.90625 53.03125 
Q 36.671875 53.03125 40.921875 50.75 
Q 45.171875 48.484375 47 44.484375 
Q 48.828125 40.484375 48.828125 32.859375 
L 48.828125 0 
L 40.046875 0 
L 40.046875 32.859375 
Q 40.046875 39.453125 37.1875 42.453125 
Q 34.328125 45.453125 29.109375 45.453125 
Q 25.203125 45.453125 21.75 43.421875 
Q 18.3125 41.40625 16.84375 37.9375 
Q 15.375 34.46875 15.375 28.375 
L 15.375 0 
z
" id="ArialMT-104"/>
       <path d="M 14.703125 0 
L 6.546875 0 
L 6.546875 71.578125 
L 15.328125 71.578125 
L 15.328125 46.046875 
Q 20.90625 53.03125 29.546875 53.03125 
Q 34.328125 53.03125 38.59375 51.09375 
Q 42.875 49.171875 45.625 45.671875 
Q 48.390625 42.1875 49.953125 37.25 
Q 51.515625 32.328125 51.515625 26.703125 
Q 51.515625 13.375 44.921875 6.09375 
Q 38.328125 -1.171875 29.109375 -1.171875 
Q 19.921875 -1.171875 14.703125 6.5 
z
M 14.59375 26.3125 
Q 14.59375 17 17.140625 12.84375 
Q 21.296875 6.0625 28.375 6.0625 
Q 34.125 6.0625 38.328125 11.0625 
Q 42.53125 16.0625 42.53125 25.984375 
Q 42.53125 36.140625 38.5 40.96875 
Q 34.46875 45.796875 28.765625 45.796875 
Q 23 45.796875 18.796875 40.796875 
Q 14.59375 35.796875 14.59375 26.3125 
z
" id="ArialMT-98"/>
       <path d="M 3.328125 25.921875 
Q 3.328125 40.328125 11.328125 47.265625 
Q 18.015625 53.03125 27.640625 53.03125 
Q 38.328125 53.03125 45.109375 46.015625 
Q 51.90625 39.015625 51.90625 26.65625 
Q 51.90625 16.65625 48.90625 10.90625 
Q 45.90625 5.171875 40.15625 2 
Q 34.421875 -1.171875 27.640625 -1.171875 
Q 16.75 -1.171875 10.03125 5.8125 
Q 3.328125 12.796875 3.328125 25.921875 
z
M 12.359375 25.921875 
Q 12.359375 15.96875 16.703125 11.015625 
Q 21.046875 6.0625 27.640625 6.0625 
Q 34.1875 6.0625 38.53125 11.03125 
Q 42.875 16.015625 42.875 26.21875 
Q 42.875 35.84375 38.5 40.796875 
Q 34.125 45.75 27.640625 45.75 
Q 21.046875 45.75 16.703125 40.8125 
Q 12.359375 35.890625 12.359375 25.921875 
z
" id="ArialMT-111"/>
       <path d="M 6.5 0 
L 6.5 51.859375 
L 14.40625 51.859375 
L 14.40625 44 
Q 17.4375 49.515625 20 51.265625 
Q 22.5625 53.03125 25.640625 53.03125 
Q 30.078125 53.03125 34.671875 50.203125 
L 31.640625 42.046875 
Q 28.421875 43.953125 25.203125 43.953125 
Q 22.3125 43.953125 20.015625 42.21875 
Q 17.71875 40.484375 16.75 37.40625 
Q 15.28125 32.71875 15.28125 27.15625 
L 15.28125 0 
z
" id="ArialMT-114"/>
       <path d="M 3.078125 15.484375 
L 11.765625 16.84375 
Q 12.5 11.625 15.84375 8.84375 
Q 19.1875 6.0625 25.203125 6.0625 
Q 31.25 6.0625 34.171875 8.515625 
Q 37.109375 10.984375 37.109375 14.3125 
Q 37.109375 17.28125 34.515625 19 
Q 32.71875 20.171875 25.53125 21.96875 
Q 15.875 24.421875 12.140625 26.203125 
Q 8.40625 27.984375 6.46875 31.125 
Q 4.546875 34.28125 4.546875 38.09375 
Q 4.546875 41.546875 6.125 44.5 
Q 7.71875 47.46875 10.453125 49.421875 
Q 12.5 50.921875 16.03125 51.96875 
Q 19.578125 53.03125 23.640625 53.03125 
Q 29.734375 53.03125 34.34375 51.265625 
Q 38.96875 49.515625 41.15625 46.5 
Q 43.359375 43.5 44.1875 38.484375 
L 35.59375 37.3125 
Q 35.015625 41.3125 32.203125 43.546875 
Q 29.390625 45.796875 24.265625 45.796875 
Q 18.21875 45.796875 15.625 43.796875 
Q 13.03125 41.796875 13.03125 39.109375 
Q 13.03125 37.40625 14.109375 36.03125 
Q 15.1875 34.625 17.484375 33.6875 
Q 18.796875 33.203125 25.25 31.453125 
Q 34.578125 28.953125 38.25 27.359375 
Q 41.9375 25.78125 44.03125 22.75 
Q 46.140625 19.734375 46.140625 15.234375 
Q 46.140625 10.84375 43.578125 6.953125 
Q 41.015625 3.078125 36.171875 0.953125 
Q 31.34375 -1.171875 25.25 -1.171875 
Q 15.140625 -1.171875 9.84375 3.03125 
Q 4.546875 7.234375 3.078125 15.484375 
z
" id="ArialMT-115"/>
      </defs>
      <use xlink:href="#ArialMT-78"/>
      <use x="72.216797" xlink:href="#ArialMT-101"/>
      <use x="127.832031" xlink:href="#ArialMT-105"/>
      <use x="150.048828" xlink:href="#ArialMT-103"/>
      <use x="205.664062" xlink:href="#ArialMT-104"/>
      <use x="261.279297" xlink:href="#ArialMT-98"/>
      <use x="316.894531" xlink:href="#ArialMT-111"/>
      <use x="372.509766" xlink:href="#ArialMT-114"/>
      <use x="405.810547" xlink:href="#ArialMT-115"/>
     </g>
    </g>
   </g>
   <g id="matplotlib.axis_2">
    <g id="ytick_1">
     <g id="line2d_9">
      <path clip-path="url(#p271c67e8dc)" d="M 108 431.76094 
L 777.6 431.76094 
" style="fill:none;stroke:#ffffff;stroke-linecap:round;stroke-width:0.8;"/>
     </g>
     <g id="text_10">
      <!-- 0 -->
      <g style="fill:#262626;" transform="translate(95.439063 435.339846)scale(0.1 -0.1)">
       <use xlink:href="#ArialMT-48"/>
      </g>
     </g>
    </g>
    <g id="ytick_2">
     <g id="line2d_10">
      <path clip-path="url(#p271c67e8dc)" d="M 108 386.895969 
L 777.6 386.895969 
" style="fill:none;stroke:#ffffff;stroke-linecap:round;stroke-width:0.8;"/>
     </g>
     <g id="text_11">
      <!-- 20 -->
      <g style="fill:#262626;" transform="translate(89.878125 390.474875)scale(0.1 -0.1)">
       <use xlink:href="#ArialMT-50"/>
       <use x="55.615234" xlink:href="#ArialMT-48"/>
      </g>
     </g>
    </g>
    <g id="ytick_3">
     <g id="line2d_11">
      <path clip-path="url(#p271c67e8dc)" d="M 108 342.030999 
L 777.6 342.030999 
" style="fill:none;stroke:#ffffff;stroke-linecap:round;stroke-width:0.8;"/>
     </g>
     <g id="text_12">
      <!-- 40 -->
      <g style="fill:#262626;" transform="translate(89.878125 345.609905)scale(0.1 -0.1)">
       <use xlink:href="#ArialMT-52"/>
       <use x="55.615234" xlink:href="#ArialMT-48"/>
      </g>
     </g>
    </g>
    <g id="ytick_4">
     <g id="line2d_12">
      <path clip-path="url(#p271c67e8dc)" d="M 108 297.166028 
L 777.6 297.166028 
" style="fill:none;stroke:#ffffff;stroke-linecap:round;stroke-width:0.8;"/>
     </g>
     <g id="text_13">
      <!-- 60 -->
      <g style="fill:#262626;" transform="translate(89.878125 300.744934)scale(0.1 -0.1)">
       <use xlink:href="#ArialMT-54"/>
       <use x="55.615234" xlink:href="#ArialMT-48"/>
      </g>
     </g>
    </g>
    <g id="ytick_5">
     <g id="line2d_13">
      <path clip-path="url(#p271c67e8dc)" d="M 108 252.301057 
L 777.6 252.301057 
" style="fill:none;stroke:#ffffff;stroke-linecap:round;stroke-width:0.8;"/>
     </g>
     <g id="text_14">
      <!-- 80 -->
      <g style="fill:#262626;" transform="translate(89.878125 255.879963)scale(0.1 -0.1)">
       <use xlink:href="#ArialMT-56"/>
       <use x="55.615234" xlink:href="#ArialMT-48"/>
      </g>
     </g>
    </g>
    <g id="ytick_6">
     <g id="line2d_14">
      <path clip-path="url(#p271c67e8dc)" d="M 108 207.436086 
L 777.6 207.436086 
" style="fill:none;stroke:#ffffff;stroke-linecap:round;stroke-width:0.8;"/>
     </g>
     <g id="text_15">
      <!-- 100 -->
      <g style="fill:#262626;" transform="translate(84.317188 211.014993)scale(0.1 -0.1)">
       <use xlink:href="#ArialMT-49"/>
       <use x="55.615234" xlink:href="#ArialMT-48"/>
       <use x="111.230469" xlink:href="#ArialMT-48"/>
      </g>
     </g>
    </g>
    <g id="ytick_7">
     <g id="line2d_15">
      <path clip-path="url(#p271c67e8dc)" d="M 108 162.571116 
L 777.6 162.571116 
" style="fill:none;stroke:#ffffff;stroke-linecap:round;stroke-width:0.8;"/>
     </g>
     <g id="text_16">
      <!-- 120 -->
      <g style="fill:#262626;" transform="translate(84.317188 166.150022)scale(0.1 -0.1)">
       <use xlink:href="#ArialMT-49"/>
       <use x="55.615234" xlink:href="#ArialMT-50"/>
       <use x="111.230469" xlink:href="#ArialMT-48"/>
      </g>
     </g>
    </g>
    <g id="ytick_8">
     <g id="line2d_16">
      <path clip-path="url(#p271c67e8dc)" d="M 108 117.706145 
L 777.6 117.706145 
" style="fill:none;stroke:#ffffff;stroke-linecap:round;stroke-width:0.8;"/>
     </g>
     <g id="text_17">
      <!-- 140 -->
      <g style="fill:#262626;" transform="translate(84.317188 121.285051)scale(0.1 -0.1)">
       <use xlink:href="#ArialMT-49"/>
       <use x="55.615234" xlink:href="#ArialMT-52"/>
       <use x="111.230469" xlink:href="#ArialMT-48"/>
      </g>
     </g>
    </g>
    <g id="ytick_9">
     <g id="line2d_17">
      <path clip-path="url(#p271c67e8dc)" d="M 108 72.841174 
L 777.6 72.841174 
" style="fill:none;stroke:#ffffff;stroke-linecap:round;stroke-width:0.8;"/>
     </g>
     <g id="text_18">
      <!-- 160 -->
      <g style="fill:#262626;" transform="translate(84.317188 76.420081)scale(0.1 -0.1)">
       <use xlink:href="#ArialMT-49"/>
       <use x="55.615234" xlink:href="#ArialMT-54"/>
       <use x="111.230469" xlink:href="#ArialMT-48"/>
      </g>
     </g>
    </g>
    <g id="text_19">
     <!-- Wall clock time [s] -->
     <g style="fill:#262626;" transform="translate(77.534688 306.482969)rotate(-90)scale(0.14 -0.14)">
      <defs>
       <path d="M 20.21875 0 
L 1.21875 71.578125 
L 10.9375 71.578125 
L 21.828125 24.65625 
Q 23.578125 17.28125 24.859375 10.015625 
Q 27.59375 21.484375 28.078125 23.25 
L 41.703125 71.578125 
L 53.125 71.578125 
L 63.375 35.359375 
Q 67.234375 21.875 68.953125 10.015625 
Q 70.3125 16.796875 72.515625 25.59375 
L 83.734375 71.578125 
L 93.265625 71.578125 
L 73.640625 0 
L 64.5 0 
L 49.421875 54.546875 
Q 47.515625 61.375 47.171875 62.9375 
Q 46.046875 58.015625 45.0625 54.546875 
L 29.890625 0 
z
" id="ArialMT-87"/>
       <path d="M 40.4375 6.390625 
Q 35.546875 2.25 31.03125 0.53125 
Q 26.515625 -1.171875 21.34375 -1.171875 
Q 12.796875 -1.171875 8.203125 3 
Q 3.609375 7.171875 3.609375 13.671875 
Q 3.609375 17.484375 5.34375 20.625 
Q 7.078125 23.78125 9.890625 25.6875 
Q 12.703125 27.59375 16.21875 28.5625 
Q 18.796875 29.25 24.03125 29.890625 
Q 34.671875 31.15625 39.703125 32.90625 
Q 39.75 34.71875 39.75 35.203125 
Q 39.75 40.578125 37.25 42.78125 
Q 33.890625 45.75 27.25 45.75 
Q 21.046875 45.75 18.09375 43.578125 
Q 15.140625 41.40625 13.71875 35.890625 
L 5.125 37.0625 
Q 6.296875 42.578125 8.984375 45.96875 
Q 11.671875 49.359375 16.75 51.1875 
Q 21.828125 53.03125 28.515625 53.03125 
Q 35.15625 53.03125 39.296875 51.46875 
Q 43.453125 49.90625 45.40625 47.53125 
Q 47.359375 45.171875 48.140625 41.546875 
Q 48.578125 39.3125 48.578125 33.453125 
L 48.578125 21.734375 
Q 48.578125 9.46875 49.140625 6.21875 
Q 49.703125 2.984375 51.375 0 
L 42.1875 0 
Q 40.828125 2.734375 40.4375 6.390625 
z
M 39.703125 26.03125 
Q 34.90625 24.078125 25.34375 22.703125 
Q 19.921875 21.921875 17.671875 20.9375 
Q 15.4375 19.96875 14.203125 18.09375 
Q 12.984375 16.21875 12.984375 13.921875 
Q 12.984375 10.40625 15.640625 8.0625 
Q 18.3125 5.71875 23.4375 5.71875 
Q 28.515625 5.71875 32.46875 7.9375 
Q 36.421875 10.15625 38.28125 14.015625 
Q 39.703125 17 39.703125 22.796875 
z
" id="ArialMT-97"/>
       <path d="M 6.390625 0 
L 6.390625 71.578125 
L 15.1875 71.578125 
L 15.1875 0 
z
" id="ArialMT-108"/>
       <path id="ArialMT-32"/>
       <path d="M 40.4375 19 
L 49.078125 17.875 
Q 47.65625 8.9375 41.8125 3.875 
Q 35.984375 -1.171875 27.484375 -1.171875 
Q 16.84375 -1.171875 10.375 5.78125 
Q 3.90625 12.75 3.90625 25.734375 
Q 3.90625 34.125 6.6875 40.421875 
Q 9.46875 46.734375 15.15625 49.875 
Q 20.84375 53.03125 27.546875 53.03125 
Q 35.984375 53.03125 41.359375 48.75 
Q 46.734375 44.484375 48.25 36.625 
L 39.703125 35.296875 
Q 38.484375 40.53125 35.375 43.15625 
Q 32.28125 45.796875 27.875 45.796875 
Q 21.234375 45.796875 17.078125 41.03125 
Q 12.9375 36.28125 12.9375 25.984375 
Q 12.9375 15.53125 16.9375 10.796875 
Q 20.953125 6.0625 27.390625 6.0625 
Q 32.5625 6.0625 36.03125 9.234375 
Q 39.5 12.40625 40.4375 19 
z
" id="ArialMT-99"/>
       <path d="M 6.640625 0 
L 6.640625 71.578125 
L 15.4375 71.578125 
L 15.4375 30.765625 
L 36.234375 51.859375 
L 47.609375 51.859375 
L 27.78125 32.625 
L 49.609375 0 
L 38.765625 0 
L 21.625 26.515625 
L 15.4375 20.5625 
L 15.4375 0 
z
" id="ArialMT-107"/>
       <path d="M 25.78125 7.859375 
L 27.046875 0.09375 
Q 23.34375 -0.6875 20.40625 -0.6875 
Q 15.625 -0.6875 12.984375 0.828125 
Q 10.359375 2.34375 9.28125 4.8125 
Q 8.203125 7.28125 8.203125 15.1875 
L 8.203125 45.015625 
L 1.765625 45.015625 
L 1.765625 51.859375 
L 8.203125 51.859375 
L 8.203125 64.703125 
L 16.9375 69.96875 
L 16.9375 51.859375 
L 25.78125 51.859375 
L 25.78125 45.015625 
L 16.9375 45.015625 
L 16.9375 14.703125 
Q 16.9375 10.9375 17.40625 9.859375 
Q 17.875 8.796875 18.921875 8.15625 
Q 19.96875 7.515625 21.921875 7.515625 
Q 23.390625 7.515625 25.78125 7.859375 
z
" id="ArialMT-116"/>
       <path d="M 6.59375 0 
L 6.59375 51.859375 
L 14.453125 51.859375 
L 14.453125 44.578125 
Q 16.890625 48.390625 20.9375 50.703125 
Q 25 53.03125 30.171875 53.03125 
Q 35.9375 53.03125 39.625 50.640625 
Q 43.3125 48.25 44.828125 43.953125 
Q 50.984375 53.03125 60.84375 53.03125 
Q 68.5625 53.03125 72.703125 48.75 
Q 76.859375 44.484375 76.859375 35.59375 
L 76.859375 0 
L 68.109375 0 
L 68.109375 32.671875 
Q 68.109375 37.9375 67.25 40.25 
Q 66.40625 42.578125 64.15625 43.984375 
Q 61.921875 45.40625 58.890625 45.40625 
Q 53.421875 45.40625 49.796875 41.765625 
Q 46.1875 38.140625 46.1875 30.125 
L 46.1875 0 
L 37.40625 0 
L 37.40625 33.6875 
Q 37.40625 39.546875 35.25 42.46875 
Q 33.109375 45.40625 28.21875 45.40625 
Q 24.515625 45.40625 21.359375 43.453125 
Q 18.21875 41.5 16.796875 37.734375 
Q 15.375 33.984375 15.375 26.90625 
L 15.375 0 
z
" id="ArialMT-109"/>
       <path d="M 6.78125 -19.875 
L 6.78125 71.578125 
L 26.171875 71.578125 
L 26.171875 64.3125 
L 15.578125 64.3125 
L 15.578125 -12.59375 
L 26.171875 -12.59375 
L 26.171875 -19.875 
z
" id="ArialMT-91"/>
       <path d="M 21.296875 -19.875 
L 1.90625 -19.875 
L 1.90625 -12.59375 
L 12.5 -12.59375 
L 12.5 64.3125 
L 1.90625 64.3125 
L 1.90625 71.578125 
L 21.296875 71.578125 
z
" id="ArialMT-93"/>
      </defs>
      <use xlink:href="#ArialMT-87"/>
      <use x="90.634766" xlink:href="#ArialMT-97"/>
      <use x="146.25" xlink:href="#ArialMT-108"/>
      <use x="168.466797" xlink:href="#ArialMT-108"/>
      <use x="190.683594" xlink:href="#ArialMT-32"/>
      <use x="218.466797" xlink:href="#ArialMT-99"/>
      <use x="268.466797" xlink:href="#ArialMT-108"/>
      <use x="290.683594" xlink:href="#ArialMT-111"/>
      <use x="346.298828" xlink:href="#ArialMT-99"/>
      <use x="396.298828" xlink:href="#ArialMT-107"/>
      <use x="446.298828" xlink:href="#ArialMT-32"/>
      <use x="474.082031" xlink:href="#ArialMT-116"/>
      <use x="501.865234" xlink:href="#ArialMT-105"/>
      <use x="524.082031" xlink:href="#ArialMT-109"/>
      <use x="607.382812" xlink:href="#ArialMT-101"/>
      <use x="662.998047" xlink:href="#ArialMT-32"/>
      <use x="690.78125" xlink:href="#ArialMT-91"/>
      <use x="718.564453" xlink:href="#ArialMT-115"/>
      <use x="768.564453" xlink:href="#ArialMT-93"/>
     </g>
    </g>
   </g>
   <g id="PolyCollection_1">
    <defs>
     <path d="M 108 -113.680564 
L 108 -113.029806 
L 124.510685 -112.675281 
L 141.93863 -115.100514 
L 159.366575 -113.938597 
L 175.87726 -116.257009 
L 193.305205 -115.420164 
L 210.733151 -116.996455 
L 228.161096 -118.116952 
L 244.671781 -120.495804 
L 262.099726 -121.870923 
L 279.527671 -124.767009 
L 296.955616 -126.830531 
L 313.466301 -130.241081 
L 330.894247 -135.186318 
L 348.322192 -143.525214 
L 365.750137 -146.172885 
L 382.260822 -149.969821 
L 399.688767 -154.203562 
L 417.116712 -161.028235 
L 434.544658 -166.119971 
L 451.055342 -168.672224 
L 468.483288 -175.010927 
L 485.911233 -183.389843 
L 503.339178 -189.210093 
L 519.849863 -197.132982 
L 537.277808 -205.296831 
L 554.705753 -211.525824 
L 572.133699 -220.27367 
L 588.644384 -228.87324 
L 606.072329 -237.458945 
L 623.500274 -245.628699 
L 640.928219 -257.807049 
L 657.438904 -264.569027 
L 674.866849 -274.150113 
L 692.294795 -288.025975 
L 709.72274 -294.388466 
L 726.233425 -306.909576 
L 743.66137 -322.582374 
L 761.089315 -331.597963 
L 778.51726 -349.610635 
L 778.51726 -352.876972 
L 778.51726 -352.876972 
L 761.089315 -332.291447 
L 743.66137 -323.265678 
L 726.233425 -311.851977 
L 709.72274 -296.958187 
L 692.294795 -288.649288 
L 674.866849 -295.827411 
L 657.438904 -277.656162 
L 640.928219 -270.429866 
L 623.500274 -259.454449 
L 606.072329 -247.038802 
L 588.644384 -242.035281 
L 572.133699 -227.010995 
L 554.705753 -220.186616 
L 537.277808 -210.711979 
L 519.849863 -199.06497 
L 503.339178 -190.347106 
L 485.911233 -184.592193 
L 468.483288 -176.012544 
L 451.055342 -169.681374 
L 434.544658 -166.777761 
L 417.116712 -161.670886 
L 399.688767 -155.018468 
L 382.260822 -150.554001 
L 365.750137 -146.847577 
L 348.322192 -143.761269 
L 330.894247 -135.431596 
L 313.466301 -130.771621 
L 296.955616 -126.977569 
L 279.527671 -125.209284 
L 262.099726 -122.202695 
L 244.671781 -120.946875 
L 228.161096 -118.296756 
L 210.733151 -117.237982 
L 193.305205 -115.653007 
L 175.87726 -116.593298 
L 159.366575 -114.045568 
L 141.93863 -115.557151 
L 124.510685 -112.868836 
L 108 -113.680564 
z
" id="mdd37d34492" style="stroke:#db5f57;stroke-opacity:0.2;"/>
    </defs>
    <g clip-path="url(#p271c67e8dc)">
     <use style="fill:#db5f57;fill-opacity:0.2;stroke:#db5f57;stroke-opacity:0.2;" x="0" xlink:href="#mdd37d34492" y="504"/>
    </g>
   </g>
   <g id="PolyCollection_2">
    <defs>
     <path d="M 108 -128.902173 
L 108 -127.763695 
L 116.255342 -130.171212 
L 125.427945 -134.552055 
L 134.600548 -137.592172 
L 143.773151 -140.5792 
L 152.028493 -142.319948 
L 161.201096 -144.323033 
L 170.373699 -147.367791 
L 179.546301 -155.103927 
L 187.801644 -154.034216 
L 196.974247 -156.978797 
L 206.146849 -165.993184 
L 215.319452 -166.224842 
L 224.492055 -170.632851 
L 232.747397 -175.299334 
L 241.92 -182.349566 
L 251.092603 -188.175573 
L 260.265205 -194.175345 
L 268.520548 -200.749479 
L 277.693151 -209.050693 
L 286.865753 -215.299071 
L 296.038356 -221.047995 
L 304.293699 -227.338986 
L 313.466301 -233.009817 
L 322.638904 -245.062551 
L 331.811507 -253.245381 
L 340.98411 -264.821719 
L 349.239452 -275.364445 
L 358.412055 -285.014144 
L 367.584658 -291.74813 
L 376.75726 -303.353659 
L 385.012603 -308.940172 
L 394.185205 -319.749447 
L 403.357808 -328.947368 
L 412.530411 -345.265241 
L 420.785753 -358.437168 
L 429.958356 -373.703869 
L 439.130959 -383.428174 
L 448.303562 -400.142731 
L 457.476164 -420.082216 
L 457.476164 -426.223636 
L 457.476164 -426.223636 
L 448.303562 -405.822104 
L 439.130959 -389.996773 
L 429.958356 -377.49165 
L 420.785753 -363.549788 
L 412.530411 -351.181155 
L 403.357808 -332.788967 
L 394.185205 -321.654272 
L 385.012603 -315.761502 
L 376.75726 -304.138648 
L 367.584658 -294.255253 
L 358.412055 -286.051051 
L 349.239452 -276.054077 
L 340.98411 -266.654171 
L 331.811507 -255.031352 
L 322.638904 -246.38726 
L 313.466301 -234.094958 
L 304.293699 -237.692521 
L 296.038356 -225.185051 
L 286.865753 -215.976229 
L 277.693151 -210.136688 
L 268.520548 -201.664164 
L 260.265205 -194.797454 
L 251.092603 -189.131019 
L 241.92 -183.035495 
L 232.747397 -176.156177 
L 224.492055 -171.452956 
L 215.319452 -169.148321 
L 206.146849 -177.912324 
L 196.974247 -157.897844 
L 187.801644 -154.937979 
L 179.546301 -157.420298 
L 170.373699 -148.033326 
L 161.201096 -145.142815 
L 152.028493 -143.244193 
L 143.773151 -141.409271 
L 134.600548 -138.331946 
L 125.427945 -135.45699 
L 116.255342 -130.927851 
L 108 -128.902173 
z
" id="m391366e35d" style="stroke:#91db57;stroke-opacity:0.2;"/>
    </defs>
    <g clip-path="url(#p271c67e8dc)">
     <use style="fill:#91db57;fill-opacity:0.2;stroke:#91db57;stroke-opacity:0.2;" x="0" xlink:href="#m391366e35d" y="504"/>
    </g>
   </g>
   <g id="PolyCollection_3">
    <defs>
     <path d="M 108 -80.418436 
L 108 -80.296364 
L 124.510685 -80.879262 
L 141.93863 -81.439255 
L 159.366575 -81.924783 
L 175.87726 -82.56899 
L 193.305205 -83.241061 
L 210.733151 -84.036353 
L 228.161096 -85.274883 
L 244.671781 -85.729479 
L 262.099726 -86.54559 
L 279.527671 -88.212206 
L 296.955616 -89.897136 
L 313.466301 -91.587631 
L 330.894247 -94.885056 
L 348.322192 -96.543479 
L 365.750137 -99.055106 
L 382.260822 -100.759392 
L 399.688767 -102.627624 
L 417.116712 -106.032552 
L 434.544658 -107.584987 
L 451.055342 -110.444493 
L 468.483288 -113.477865 
L 485.911233 -116.999404 
L 503.339178 -121.015948 
L 519.849863 -125.001514 
L 537.277808 -130.958467 
L 554.705753 -137.891212 
L 572.133699 -140.815185 
L 588.644384 -147.051663 
L 606.072329 -151.42206 
L 623.500274 -155.025475 
L 640.928219 -162.362173 
L 657.438904 -155.552316 
L 674.866849 -159.28158 
L 692.294795 -165.582916 
L 709.72274 -170.888872 
L 726.233425 -176.30951 
L 743.66137 -183.79895 
L 761.089315 -187.922483 
L 778.51726 -196.945316 
L 778.51726 -197.073806 
L 778.51726 -197.073806 
L 761.089315 -188.173734 
L 743.66137 -184.102821 
L 726.233425 -176.535729 
L 709.72274 -171.039916 
L 692.294795 -165.976177 
L 674.866849 -159.45613 
L 657.438904 -155.705632 
L 640.928219 -162.552575 
L 623.500274 -157.209136 
L 606.072329 -152.467246 
L 588.644384 -147.589392 
L 572.133699 -141.172131 
L 554.705753 -138.25326 
L 537.277808 -131.200584 
L 519.849863 -125.307375 
L 503.339178 -121.248444 
L 485.911233 -117.249145 
L 468.483288 -113.697017 
L 451.055342 -110.603315 
L 434.544658 -108.0358 
L 417.116712 -106.230947 
L 399.688767 -102.95047 
L 382.260822 -100.921221 
L 365.750137 -99.23125 
L 348.322192 -96.658475 
L 330.894247 -95.017885 
L 313.466301 -91.695862 
L 296.955616 -90.007989 
L 279.527671 -88.305952 
L 262.099726 -86.58182 
L 244.671781 -85.824601 
L 228.161096 -85.301286 
L 210.733151 -84.065669 
L 193.305205 -83.420832 
L 175.87726 -82.588926 
L 159.366575 -81.974193 
L 141.93863 -81.467283 
L 124.510685 -80.912397 
L 108 -80.418436 
z
" id="m41e161c2d1" style="stroke:#57d3db;stroke-opacity:0.2;"/>
    </defs>
    <g clip-path="url(#p271c67e8dc)">
     <use style="fill:#57d3db;fill-opacity:0.2;stroke:#57d3db;stroke-opacity:0.2;" x="0" xlink:href="#m41e161c2d1" y="504"/>
    </g>
   </g>
   <g id="PolyCollection_4">
    <defs>
     <path d="M 108 -87.57982 
L 108 -87.246202 
L 116.255342 -88.356029 
L 125.427945 -91.530359 
L 134.600548 -93.055099 
L 143.773151 -94.460553 
L 152.028493 -95.277017 
L 161.201096 -97.016137 
L 170.373699 -98.689837 
L 179.546301 -102.157767 
L 187.801644 -101.312455 
L 196.974247 -103.865036 
L 206.146849 -106.296971 
L 215.319452 -108.628407 
L 224.492055 -110.991756 
L 232.747397 -112.841618 
L 241.92 -115.430854 
L 251.092603 -118.208439 
L 260.265205 -121.164633 
L 268.520548 -124.984856 
L 277.693151 -128.952803 
L 286.865753 -132.048199 
L 296.038356 -136.02652 
L 304.293699 -138.957317 
L 313.466301 -142.812336 
L 322.638904 -148.748376 
L 331.811507 -152.377848 
L 340.98411 -157.041579 
L 349.239452 -162.387058 
L 358.412055 -167.502347 
L 367.584658 -171.852757 
L 376.75726 -176.828185 
L 385.012603 -180.553921 
L 394.185205 -185.771504 
L 403.357808 -191.03648 
L 412.530411 -198.530128 
L 420.785753 -205.512498 
L 429.958356 -211.889741 
L 439.130959 -213.129069 
L 448.303562 -219.500969 
L 457.476164 -232.032156 
L 457.476164 -232.249491 
L 457.476164 -232.249491 
L 448.303562 -223.019013 
L 439.130959 -216.401961 
L 429.958356 -212.073129 
L 420.785753 -205.746751 
L 412.530411 -198.866997 
L 403.357808 -192.736999 
L 394.185205 -186.005677 
L 385.012603 -180.639681 
L 376.75726 -177.34406 
L 367.584658 -172.139249 
L 358.412055 -167.751768 
L 349.239452 -162.52126 
L 340.98411 -157.134996 
L 331.811507 -152.524301 
L 322.638904 -148.964266 
L 313.466301 -143.293823 
L 304.293699 -139.154493 
L 296.038356 -136.474698 
L 286.865753 -132.492116 
L 277.693151 -129.377486 
L 268.520548 -125.354561 
L 260.265205 -121.403388 
L 251.092603 -118.639659 
L 241.92 -115.733637 
L 232.747397 -113.224682 
L 224.492055 -113.77221 
L 215.319452 -108.920512 
L 206.146849 -106.56289 
L 196.974247 -104.095653 
L 187.801644 -101.544926 
L 179.546301 -102.45668 
L 170.373699 -98.852456 
L 161.201096 -97.321027 
L 152.028493 -95.403636 
L 143.773151 -94.669757 
L 134.600548 -93.227313 
L 125.427945 -91.725501 
L 116.255342 -88.480737 
L 108 -87.57982 
z
" id="m44dbc8e015" style="stroke:#a157db;stroke-opacity:0.2;"/>
    </defs>
    <g clip-path="url(#p271c67e8dc)">
     <use style="fill:#a157db;fill-opacity:0.2;stroke:#a157db;stroke-opacity:0.2;" x="0" xlink:href="#m44dbc8e015" y="504"/>
    </g>
   </g>
   <g id="line2d_18">
    <path clip-path="url(#p271c67e8dc)" d="M 108 390.732671 
L 124.510685 391.23466 
L 141.93863 388.724288 
L 159.366575 390.000049 
L 175.87726 387.597002 
L 193.305205 388.463407 
L 210.733151 386.876982 
L 228.161096 385.796743 
L 244.671781 383.29212 
L 262.099726 381.996135 
L 279.527671 378.995523 
L 296.955616 377.093585 
L 313.466301 373.458491 
L 330.894247 368.709818 
L 348.322192 360.347572 
L 365.750137 357.507556 
L 382.260822 353.732697 
L 399.688767 349.393174 
L 417.116712 342.679231 
L 434.544658 337.579721 
L 451.055342 334.803685 
L 468.483288 328.520075 
L 485.911233 320.069468 
L 503.339178 314.273546 
L 519.849863 305.923889 
L 537.277808 296.190452 
L 554.705753 288.221313 
L 572.133699 280.367867 
L 588.644384 269.632604 
L 606.072329 261.942188 
L 623.500274 251.495845 
L 640.928219 239.926945 
L 657.438904 233.026918 
L 674.866849 220.960851 
L 692.294795 215.665097 
L 709.72274 208.435746 
L 726.233425 194.708156 
L 743.66137 181.066503 
L 761.089315 172.044893 
L 778.51726 152.912549 
" style="fill:none;stroke:#db5f57;stroke-linecap:round;stroke-width:1.5;"/>
   </g>
   <g id="line2d_19">
    <path clip-path="url(#p271c67e8dc)" d="M 108 375.62 
L 116.255342 373.424176 
L 125.427945 368.970977 
L 134.600548 365.99002 
L 143.773151 362.969388 
L 152.028493 361.2081 
L 161.201096 359.220876 
L 170.373699 356.263944 
L 179.546301 347.894814 
L 187.801644 349.420292 
L 196.974247 346.547204 
L 206.146849 332.162304 
L 215.319452 336.665258 
L 224.492055 332.961214 
L 232.747397 328.210115 
L 241.92 321.318436 
L 251.092603 315.36449 
L 260.265205 309.51489 
L 268.520548 302.792577 
L 277.693151 294.3824 
L 286.865753 288.412118 
L 296.038356 281.325625 
L 304.293699 272.991777 
L 313.466301 270.448069 
L 322.638904 258.343223 
L 331.811507 249.902266 
L 340.98411 238.255876 
L 349.239452 228.298315 
L 358.412055 218.476813 
L 367.584658 211.14293 
L 376.75726 200.262009 
L 385.012603 192.197474 
L 394.185205 183.336537 
L 403.357808 173.221653 
L 412.530411 156.225015 
L 420.785753 143.094225 
L 429.958356 127.961242 
L 439.130959 117.310679 
L 448.303562 101.033329 
L 457.476164 80.152609 
" style="fill:none;stroke:#91db57;stroke-linecap:round;stroke-width:1.5;"/>
   </g>
   <g id="line2d_20">
    <path clip-path="url(#p271c67e8dc)" d="M 108 423.645602 
L 124.510685 423.105037 
L 141.93863 422.54768 
L 159.366575 422.047504 
L 175.87726 421.421411 
L 193.305205 420.671545 
L 210.733151 419.948749 
L 228.161096 418.713147 
L 244.671781 418.225759 
L 262.099726 417.436784 
L 279.527671 415.750234 
L 296.955616 414.044044 
L 313.466301 412.356285 
L 330.894247 409.044324 
L 348.322192 407.391761 
L 365.750137 404.867536 
L 382.260822 403.16991 
L 399.688767 401.225894 
L 417.116712 397.862828 
L 434.544658 396.239969 
L 451.055342 393.468949 
L 468.483288 390.41316 
L 485.911233 386.856912 
L 503.339178 382.85585 
L 519.849863 378.848659 
L 537.277808 372.911421 
L 554.705753 365.906541 
L 572.133699 363.008903 
L 588.644384 356.666241 
L 606.072329 351.968401 
L 623.500274 348.058235 
L 640.928219 341.549064 
L 657.438904 348.374485 
L 674.866849 344.62516 
L 692.294795 338.229097 
L 709.72274 333.033736 
L 726.233425 327.571664 
L 743.66137 320.067888 
L 761.089315 315.957026 
L 778.51726 306.994437 
" style="fill:none;stroke:#57d3db;stroke-linecap:round;stroke-width:1.5;"/>
   </g>
   <g id="line2d_21">
    <path clip-path="url(#p271c67e8dc)" d="M 108 416.574329 
L 116.255342 415.585216 
L 125.427945 412.370835 
L 134.600548 410.857526 
L 143.773151 409.430094 
L 152.028493 408.650638 
L 161.201096 406.841813 
L 170.373699 405.229874 
L 179.546301 401.707257 
L 187.801644 402.569697 
L 196.974247 400.016927 
L 206.146849 397.563717 
L 215.319452 395.209678 
L 224.492055 392.045833 
L 232.747397 390.981044 
L 241.92 388.406628 
L 251.092603 385.590931 
L 260.265205 382.71004 
L 268.520548 378.826558 
L 277.693151 374.813386 
L 286.865753 371.706899 
L 296.038356 367.713922 
L 304.293699 364.941997 
L 313.466301 360.946356 
L 322.638904 355.148048 
L 331.811507 351.551016 
L 340.98411 346.912083 
L 349.239452 341.537329 
L 358.412055 336.389237 
L 367.584658 332.020135 
L 376.75726 326.895713 
L 385.012603 323.400976 
L 394.185205 318.114168 
L 403.357808 312.30964 
L 412.530411 305.320028 
L 420.785753 298.374181 
L 429.958356 292.019917 
L 439.130959 289.268522 
L 448.303562 282.854252 
L 457.476164 271.862525 
" style="fill:none;stroke:#a157db;stroke-linecap:round;stroke-width:1.5;"/>
   </g>
   <g id="line2d_22"/>
   <g id="line2d_23"/>
   <g id="line2d_24"/>
   <g id="line2d_25"/>
   <g id="patch_3">
    <path d="M 108 441 
L 108 60.48 
" style="fill:none;stroke:#ffffff;stroke-linecap:square;stroke-linejoin:miter;stroke-width:0.8;"/>
   </g>
   <g id="patch_4">
    <path d="M 777.6 441 
L 777.6 60.48 
" style="fill:none;stroke:#ffffff;stroke-linecap:square;stroke-linejoin:miter;stroke-width:0.8;"/>
   </g>
   <g id="patch_5">
    <path d="M 108 441 
L 777.6 441 
" style="fill:none;stroke:#ffffff;stroke-linecap:square;stroke-linejoin:miter;stroke-width:0.8;"/>
   </g>
   <g id="patch_6">
    <path d="M 108 60.48 
L 777.6 60.48 
" style="fill:none;stroke:#ffffff;stroke-linecap:square;stroke-linejoin:miter;stroke-width:0.8;"/>
   </g>
   <g id="text_20">
    <!-- Time performances comparison -->
    <g style="fill:#262626;" transform="translate(330.62375 54.48)scale(0.16 -0.16)">
     <defs>
      <path d="M 25.921875 0 
L 25.921875 63.140625 
L 2.34375 63.140625 
L 2.34375 71.578125 
L 59.078125 71.578125 
L 59.078125 63.140625 
L 35.40625 63.140625 
L 35.40625 0 
z
" id="ArialMT-84"/>
      <path d="M 6.59375 -19.875 
L 6.59375 51.859375 
L 14.59375 51.859375 
L 14.59375 45.125 
Q 17.4375 49.078125 21 51.046875 
Q 24.5625 53.03125 29.640625 53.03125 
Q 36.28125 53.03125 41.359375 49.609375 
Q 46.4375 46.1875 49.015625 39.953125 
Q 51.609375 33.734375 51.609375 26.3125 
Q 51.609375 18.359375 48.75 11.984375 
Q 45.90625 5.609375 40.453125 2.21875 
Q 35.015625 -1.171875 29 -1.171875 
Q 24.609375 -1.171875 21.109375 0.6875 
Q 17.625 2.546875 15.375 5.375 
L 15.375 -19.875 
z
M 14.546875 25.640625 
Q 14.546875 15.625 18.59375 10.84375 
Q 22.65625 6.0625 28.421875 6.0625 
Q 34.28125 6.0625 38.453125 11.015625 
Q 42.625 15.96875 42.625 26.375 
Q 42.625 36.28125 38.546875 41.203125 
Q 34.46875 46.140625 28.8125 46.140625 
Q 23.1875 46.140625 18.859375 40.890625 
Q 14.546875 35.640625 14.546875 25.640625 
z
" id="ArialMT-112"/>
      <path d="M 8.6875 0 
L 8.6875 45.015625 
L 0.921875 45.015625 
L 0.921875 51.859375 
L 8.6875 51.859375 
L 8.6875 57.375 
Q 8.6875 62.59375 9.625 65.140625 
Q 10.890625 68.5625 14.078125 70.671875 
Q 17.28125 72.796875 23.046875 72.796875 
Q 26.765625 72.796875 31.25 71.921875 
L 29.9375 64.265625 
Q 27.203125 64.75 24.75 64.75 
Q 20.75 64.75 19.09375 63.03125 
Q 17.4375 61.328125 17.4375 56.640625 
L 17.4375 51.859375 
L 27.546875 51.859375 
L 27.546875 45.015625 
L 17.4375 45.015625 
L 17.4375 0 
z
" id="ArialMT-102"/>
      <path d="M 6.59375 0 
L 6.59375 51.859375 
L 14.5 51.859375 
L 14.5 44.484375 
Q 20.21875 53.03125 31 53.03125 
Q 35.6875 53.03125 39.625 51.34375 
Q 43.5625 49.65625 45.515625 46.921875 
Q 47.46875 44.1875 48.25 40.4375 
Q 48.734375 37.984375 48.734375 31.890625 
L 48.734375 0 
L 39.9375 0 
L 39.9375 31.546875 
Q 39.9375 36.921875 38.90625 39.578125 
Q 37.890625 42.234375 35.28125 43.8125 
Q 32.671875 45.40625 29.15625 45.40625 
Q 23.53125 45.40625 19.453125 41.84375 
Q 15.375 38.28125 15.375 28.328125 
L 15.375 0 
z
" id="ArialMT-110"/>
     </defs>
     <use xlink:href="#ArialMT-84"/>
     <use x="57.333984" xlink:href="#ArialMT-105"/>
     <use x="79.550781" xlink:href="#ArialMT-109"/>
     <use x="162.851562" xlink:href="#ArialMT-101"/>
     <use x="218.466797" xlink:href="#ArialMT-32"/>
     <use x="246.25" xlink:href="#ArialMT-112"/>
     <use x="301.865234" xlink:href="#ArialMT-101"/>
     <use x="357.480469" xlink:href="#ArialMT-114"/>
     <use x="390.78125" xlink:href="#ArialMT-102"/>
     <use x="418.564453" xlink:href="#ArialMT-111"/>
     <use x="474.179688" xlink:href="#ArialMT-114"/>
     <use x="507.480469" xlink:href="#ArialMT-109"/>
     <use x="590.78125" xlink:href="#ArialMT-97"/>
     <use x="646.396484" xlink:href="#ArialMT-110"/>
     <use x="702.011719" xlink:href="#ArialMT-99"/>
     <use x="752.011719" xlink:href="#ArialMT-101"/>
     <use x="807.626953" xlink:href="#ArialMT-115"/>
     <use x="857.626953" xlink:href="#ArialMT-32"/>
     <use x="885.410156" xlink:href="#ArialMT-99"/>
     <use x="935.410156" xlink:href="#ArialMT-111"/>
     <use x="991.025391" xlink:href="#ArialMT-109"/>
     <use x="1074.326172" xlink:href="#ArialMT-112"/>
     <use x="1129.941406" xlink:href="#ArialMT-97"/>
     <use x="1185.556641" xlink:href="#ArialMT-114"/>
     <use x="1218.857422" xlink:href="#ArialMT-105"/>
     <use x="1241.074219" xlink:href="#ArialMT-115"/>
     <use x="1291.074219" xlink:href="#ArialMT-111"/>
     <use x="1346.689453" xlink:href="#ArialMT-110"/>
    </g>
   </g>
   <g id="legend_1">
    <g id="patch_7">
     <path d="M 116.4 139.125 
L 274.850625 139.125 
Q 277.250625 139.125 277.250625 136.725 
L 277.250625 68.88 
Q 277.250625 66.48 274.850625 66.48 
L 116.4 66.48 
Q 114 66.48 114 68.88 
L 114 136.725 
Q 114 139.125 116.4 139.125 
z
" style="fill:#eaeaf2;opacity:0.8;stroke:#cccccc;stroke-linejoin:miter;"/>
    </g>
    <g id="line2d_26">
     <path d="M 118.8 75.815625 
L 142.8 75.815625 
" style="fill:none;stroke:#db5f57;stroke-linecap:round;stroke-width:1.5;"/>
    </g>
    <g id="line2d_27"/>
    <g id="text_21">
     <!-- LLE (whole data set) -->
     <g style="fill:#262626;" transform="translate(152.4 80.015625)scale(0.12 -0.12)">
      <defs>
       <path d="M 7.328125 0 
L 7.328125 71.578125 
L 16.796875 71.578125 
L 16.796875 8.453125 
L 52.046875 8.453125 
L 52.046875 0 
z
" id="ArialMT-76"/>
       <path d="M 7.90625 0 
L 7.90625 71.578125 
L 59.671875 71.578125 
L 59.671875 63.140625 
L 17.390625 63.140625 
L 17.390625 41.21875 
L 56.984375 41.21875 
L 56.984375 32.8125 
L 17.390625 32.8125 
L 17.390625 8.453125 
L 61.328125 8.453125 
L 61.328125 0 
z
" id="ArialMT-69"/>
       <path d="M 23.390625 -21.046875 
Q 16.109375 -11.859375 11.078125 0.4375 
Q 6.0625 12.75 6.0625 25.921875 
Q 6.0625 37.546875 9.8125 48.1875 
Q 14.203125 60.546875 23.390625 72.796875 
L 29.6875 72.796875 
Q 23.78125 62.640625 21.875 58.296875 
Q 18.890625 51.5625 17.1875 44.234375 
Q 15.09375 35.109375 15.09375 25.875 
Q 15.09375 2.390625 29.6875 -21.046875 
z
" id="ArialMT-40"/>
       <path d="M 16.15625 0 
L 0.296875 51.859375 
L 9.375 51.859375 
L 17.625 21.921875 
L 20.703125 10.796875 
Q 20.90625 11.625 23.390625 21.484375 
L 31.640625 51.859375 
L 40.671875 51.859375 
L 48.4375 21.78125 
L 51.03125 11.859375 
L 54 21.875 
L 62.890625 51.859375 
L 71.4375 51.859375 
L 55.21875 0 
L 46.09375 0 
L 37.84375 31.0625 
L 35.84375 39.890625 
L 25.34375 0 
z
" id="ArialMT-119"/>
       <path d="M 40.234375 0 
L 40.234375 6.546875 
Q 35.296875 -1.171875 25.734375 -1.171875 
Q 19.53125 -1.171875 14.328125 2.25 
Q 9.125 5.671875 6.265625 11.796875 
Q 3.421875 17.921875 3.421875 25.875 
Q 3.421875 33.640625 6 39.96875 
Q 8.59375 46.296875 13.765625 49.65625 
Q 18.953125 53.03125 25.34375 53.03125 
Q 30.03125 53.03125 33.6875 51.046875 
Q 37.359375 49.078125 39.65625 45.90625 
L 39.65625 71.578125 
L 48.390625 71.578125 
L 48.390625 0 
z
M 12.453125 25.875 
Q 12.453125 15.921875 16.640625 10.984375 
Q 20.84375 6.0625 26.5625 6.0625 
Q 32.328125 6.0625 36.34375 10.765625 
Q 40.375 15.484375 40.375 25.140625 
Q 40.375 35.796875 36.265625 40.765625 
Q 32.171875 45.75 26.171875 45.75 
Q 20.3125 45.75 16.375 40.96875 
Q 12.453125 36.1875 12.453125 25.875 
z
" id="ArialMT-100"/>
       <path d="M 12.359375 -21.046875 
L 6.0625 -21.046875 
Q 20.65625 2.390625 20.65625 25.875 
Q 20.65625 35.0625 18.5625 44.09375 
Q 16.890625 51.421875 13.921875 58.15625 
Q 12.015625 62.546875 6.0625 72.796875 
L 12.359375 72.796875 
Q 21.53125 60.546875 25.921875 48.1875 
Q 29.6875 37.546875 29.6875 25.921875 
Q 29.6875 12.75 24.625 0.4375 
Q 19.578125 -11.859375 12.359375 -21.046875 
z
" id="ArialMT-41"/>
      </defs>
      <use xlink:href="#ArialMT-76"/>
      <use x="55.615234" xlink:href="#ArialMT-76"/>
      <use x="111.230469" xlink:href="#ArialMT-69"/>
      <use x="177.929688" xlink:href="#ArialMT-32"/>
      <use x="205.712891" xlink:href="#ArialMT-40"/>
      <use x="239.013672" xlink:href="#ArialMT-119"/>
      <use x="311.230469" xlink:href="#ArialMT-104"/>
      <use x="366.845703" xlink:href="#ArialMT-111"/>
      <use x="422.460938" xlink:href="#ArialMT-108"/>
      <use x="444.677734" xlink:href="#ArialMT-101"/>
      <use x="500.292969" xlink:href="#ArialMT-32"/>
      <use x="528.076172" xlink:href="#ArialMT-100"/>
      <use x="583.691406" xlink:href="#ArialMT-97"/>
      <use x="639.306641" xlink:href="#ArialMT-116"/>
      <use x="667.089844" xlink:href="#ArialMT-97"/>
      <use x="722.705078" xlink:href="#ArialMT-32"/>
      <use x="750.488281" xlink:href="#ArialMT-115"/>
      <use x="800.488281" xlink:href="#ArialMT-101"/>
      <use x="856.103516" xlink:href="#ArialMT-116"/>
      <use x="883.886719" xlink:href="#ArialMT-41"/>
     </g>
    </g>
    <g id="line2d_28">
     <path d="M 118.8 93.076875 
L 142.8 93.076875 
" style="fill:none;stroke:#91db57;stroke-linecap:round;stroke-width:1.5;"/>
    </g>
    <g id="line2d_29"/>
    <g id="text_22">
     <!-- MLLE (whole data set) -->
     <g style="fill:#262626;" transform="translate(152.4 97.276875)scale(0.12 -0.12)">
      <defs>
       <path d="M 7.421875 0 
L 7.421875 71.578125 
L 21.6875 71.578125 
L 38.625 20.90625 
Q 40.96875 13.8125 42.046875 10.296875 
Q 43.265625 14.203125 45.84375 21.78125 
L 62.984375 71.578125 
L 75.734375 71.578125 
L 75.734375 0 
L 66.609375 0 
L 66.609375 59.90625 
L 45.796875 0 
L 37.25 0 
L 16.546875 60.9375 
L 16.546875 0 
z
" id="ArialMT-77"/>
      </defs>
      <use xlink:href="#ArialMT-77"/>
      <use x="83.300781" xlink:href="#ArialMT-76"/>
      <use x="138.916016" xlink:href="#ArialMT-76"/>
      <use x="194.53125" xlink:href="#ArialMT-69"/>
      <use x="261.230469" xlink:href="#ArialMT-32"/>
      <use x="289.013672" xlink:href="#ArialMT-40"/>
      <use x="322.314453" xlink:href="#ArialMT-119"/>
      <use x="394.53125" xlink:href="#ArialMT-104"/>
      <use x="450.146484" xlink:href="#ArialMT-111"/>
      <use x="505.761719" xlink:href="#ArialMT-108"/>
      <use x="527.978516" xlink:href="#ArialMT-101"/>
      <use x="583.59375" xlink:href="#ArialMT-32"/>
      <use x="611.376953" xlink:href="#ArialMT-100"/>
      <use x="666.992188" xlink:href="#ArialMT-97"/>
      <use x="722.607422" xlink:href="#ArialMT-116"/>
      <use x="750.390625" xlink:href="#ArialMT-97"/>
      <use x="806.005859" xlink:href="#ArialMT-32"/>
      <use x="833.789062" xlink:href="#ArialMT-115"/>
      <use x="883.789062" xlink:href="#ArialMT-101"/>
      <use x="939.404297" xlink:href="#ArialMT-116"/>
      <use x="967.1875" xlink:href="#ArialMT-41"/>
     </g>
    </g>
    <g id="line2d_30">
     <path d="M 118.8 110.338125 
L 142.8 110.338125 
" style="fill:none;stroke:#57d3db;stroke-linecap:round;stroke-width:1.5;"/>
    </g>
    <g id="line2d_31"/>
    <g id="text_23">
     <!-- LLE (semi data set) -->
     <g style="fill:#262626;" transform="translate(152.4 114.538125)scale(0.12 -0.12)">
      <use xlink:href="#ArialMT-76"/>
      <use x="55.615234" xlink:href="#ArialMT-76"/>
      <use x="111.230469" xlink:href="#ArialMT-69"/>
      <use x="177.929688" xlink:href="#ArialMT-32"/>
      <use x="205.712891" xlink:href="#ArialMT-40"/>
      <use x="239.013672" xlink:href="#ArialMT-115"/>
      <use x="289.013672" xlink:href="#ArialMT-101"/>
      <use x="344.628906" xlink:href="#ArialMT-109"/>
      <use x="427.929688" xlink:href="#ArialMT-105"/>
      <use x="450.146484" xlink:href="#ArialMT-32"/>
      <use x="477.929688" xlink:href="#ArialMT-100"/>
      <use x="533.544922" xlink:href="#ArialMT-97"/>
      <use x="589.160156" xlink:href="#ArialMT-116"/>
      <use x="616.943359" xlink:href="#ArialMT-97"/>
      <use x="672.558594" xlink:href="#ArialMT-32"/>
      <use x="700.341797" xlink:href="#ArialMT-115"/>
      <use x="750.341797" xlink:href="#ArialMT-101"/>
      <use x="805.957031" xlink:href="#ArialMT-116"/>
      <use x="833.740234" xlink:href="#ArialMT-41"/>
     </g>
    </g>
    <g id="line2d_32">
     <path d="M 118.8 127.599375 
L 142.8 127.599375 
" style="fill:none;stroke:#a157db;stroke-linecap:round;stroke-width:1.5;"/>
    </g>
    <g id="line2d_33"/>
    <g id="text_24">
     <!-- MLLE (semi data set) -->
     <g style="fill:#262626;" transform="translate(152.4 131.799375)scale(0.12 -0.12)">
      <use xlink:href="#ArialMT-77"/>
      <use x="83.300781" xlink:href="#ArialMT-76"/>
      <use x="138.916016" xlink:href="#ArialMT-76"/>
      <use x="194.53125" xlink:href="#ArialMT-69"/>
      <use x="261.230469" xlink:href="#ArialMT-32"/>
      <use x="289.013672" xlink:href="#ArialMT-40"/>
      <use x="322.314453" xlink:href="#ArialMT-115"/>
      <use x="372.314453" xlink:href="#ArialMT-101"/>
      <use x="427.929688" xlink:href="#ArialMT-109"/>
      <use x="511.230469" xlink:href="#ArialMT-105"/>
      <use x="533.447266" xlink:href="#ArialMT-32"/>
      <use x="561.230469" xlink:href="#ArialMT-100"/>
      <use x="616.845703" xlink:href="#ArialMT-97"/>
      <use x="672.460938" xlink:href="#ArialMT-116"/>
      <use x="700.244141" xlink:href="#ArialMT-97"/>
      <use x="755.859375" xlink:href="#ArialMT-32"/>
      <use x="783.642578" xlink:href="#ArialMT-115"/>
      <use x="833.642578" xlink:href="#ArialMT-101"/>
      <use x="889.257812" xlink:href="#ArialMT-116"/>
      <use x="917.041016" xlink:href="#ArialMT-41"/>
     </g>
    </g>
   </g>
  </g>
 </g>
 <defs>
  <clipPath id="p271c67e8dc">
   <rect height="380.52" width="669.6" x="108" y="60.48"/>
  </clipPath>
 </defs>
</svg>
