<?xml version="1.0" encoding="utf-8" standalone="no"?>
<!DOCTYPE svg PUBLIC "-//W3C//DTD SVG 1.1//EN"
  "http://www.w3.org/Graphics/SVG/1.1/DTD/svg11.dtd">
<!-- Created with matplotlib (https://matplotlib.org/) -->
<svg height="504pt" version="1.1" viewBox="0 0 864 504" width="864pt" xmlns="http://www.w3.org/2000/svg" xmlns:xlink="http://www.w3.org/1999/xlink">
 <metadata>
  <rdf:RDF xmlns:cc="http://creativecommons.org/ns#" xmlns:dc="http://purl.org/dc/elements/1.1/" xmlns:rdf="http://www.w3.org/1999/02/22-rdf-syntax-ns#">
   <cc:Work>
    <dc:type rdf:resource="http://purl.org/dc/dcmitype/StillImage"/>
    <dc:date>2021-05-22T10:08:52.746140</dc:date>
    <dc:format>image/svg+xml</dc:format>
    <dc:creator>
     <cc:Agent>
      <dc:title>Matplotlib v3.3.4, https://matplotlib.org/</dc:title>
     </cc:Agent>
    </dc:creator>
   </cc:Work>
  </rdf:RDF>
 </metadata>
 <defs>
  <style type="text/css">*{stroke-linecap:butt;stroke-linejoin:round;}</style>
 </defs>
 <g id="figure_1">
  <g id="patch_1">
   <path d="M 0 504 
L 864 504 
L 864 0 
L 0 0 
z
" style="fill:#ffffff;"/>
  </g>
  <g id="axes_1">
   <g id="patch_2">
    <path d="M 108 448.56 
L 777.6 448.56 
L 777.6 60.48 
L 108 60.48 
z
" style="fill:#eaeaf2;"/>
   </g>
   <g id="matplotlib.axis_1">
    <g id="xtick_1">
     <g id="line2d_1">
      <path clip-path="url(#p571fd9a14f)" d="M 176.676923 448.56 
L 176.676923 60.48 
" style="fill:none;stroke:#ffffff;stroke-linecap:round;stroke-width:0.8;"/>
     </g>
     <g id="text_1">
      <!-- 25 -->
      <g style="fill:#262626;" transform="translate(171.115986 462.717813)scale(0.1 -0.1)">
       <defs>
        <path d="M 50.34375 8.453125 
L 50.34375 0 
L 3.03125 0 
Q 2.9375 3.171875 4.046875 6.109375 
Q 5.859375 10.9375 9.828125 15.625 
Q 13.8125 20.3125 21.34375 26.46875 
Q 33.015625 36.03125 37.109375 41.625 
Q 41.21875 47.21875 41.21875 52.203125 
Q 41.21875 57.421875 37.46875 61 
Q 33.734375 64.59375 27.734375 64.59375 
Q 21.390625 64.59375 17.578125 60.78125 
Q 13.765625 56.984375 13.71875 50.25 
L 4.6875 51.171875 
Q 5.609375 61.28125 11.65625 66.578125 
Q 17.71875 71.875 27.9375 71.875 
Q 38.234375 71.875 44.234375 66.15625 
Q 50.25 60.453125 50.25 52 
Q 50.25 47.703125 48.484375 43.546875 
Q 46.734375 39.40625 42.65625 34.8125 
Q 38.578125 30.21875 29.109375 22.21875 
Q 21.1875 15.578125 18.9375 13.203125 
Q 16.703125 10.84375 15.234375 8.453125 
z
" id="ArialMT-50"/>
        <path d="M 4.15625 18.75 
L 13.375 19.53125 
Q 14.40625 12.796875 18.140625 9.390625 
Q 21.875 6 27.15625 6 
Q 33.5 6 37.890625 10.78125 
Q 42.28125 15.578125 42.28125 23.484375 
Q 42.28125 31 38.0625 35.34375 
Q 33.84375 39.703125 27 39.703125 
Q 22.75 39.703125 19.328125 37.765625 
Q 15.921875 35.84375 13.96875 32.765625 
L 5.71875 33.84375 
L 12.640625 70.609375 
L 48.25 70.609375 
L 48.25 62.203125 
L 19.671875 62.203125 
L 15.828125 42.96875 
Q 22.265625 47.46875 29.34375 47.46875 
Q 38.71875 47.46875 45.15625 40.96875 
Q 51.609375 34.46875 51.609375 24.265625 
Q 51.609375 14.546875 45.953125 7.46875 
Q 39.0625 -1.21875 27.15625 -1.21875 
Q 17.390625 -1.21875 11.203125 4.25 
Q 5.03125 9.71875 4.15625 18.75 
z
" id="ArialMT-53"/>
       </defs>
       <use xlink:href="#ArialMT-50"/>
       <use x="55.615234" xlink:href="#ArialMT-53"/>
      </g>
     </g>
    </g>
    <g id="xtick_2">
     <g id="line2d_2">
      <path clip-path="url(#p571fd9a14f)" d="M 262.523077 448.56 
L 262.523077 60.48 
" style="fill:none;stroke:#ffffff;stroke-linecap:round;stroke-width:0.8;"/>
     </g>
     <g id="text_2">
      <!-- 50 -->
      <g style="fill:#262626;" transform="translate(256.962139 462.717813)scale(0.1 -0.1)">
       <defs>
        <path d="M 4.15625 35.296875 
Q 4.15625 48 6.765625 55.734375 
Q 9.375 63.484375 14.515625 67.671875 
Q 19.671875 71.875 27.484375 71.875 
Q 33.25 71.875 37.59375 69.546875 
Q 41.9375 67.234375 44.765625 62.859375 
Q 47.609375 58.5 49.21875 52.21875 
Q 50.828125 45.953125 50.828125 35.296875 
Q 50.828125 22.703125 48.234375 14.96875 
Q 45.65625 7.234375 40.5 3 
Q 35.359375 -1.21875 27.484375 -1.21875 
Q 17.140625 -1.21875 11.234375 6.203125 
Q 4.15625 15.140625 4.15625 35.296875 
z
M 13.1875 35.296875 
Q 13.1875 17.671875 17.3125 11.828125 
Q 21.4375 6 27.484375 6 
Q 33.546875 6 37.671875 11.859375 
Q 41.796875 17.71875 41.796875 35.296875 
Q 41.796875 52.984375 37.671875 58.78125 
Q 33.546875 64.59375 27.390625 64.59375 
Q 21.34375 64.59375 17.71875 59.46875 
Q 13.1875 52.9375 13.1875 35.296875 
z
" id="ArialMT-48"/>
       </defs>
       <use xlink:href="#ArialMT-53"/>
       <use x="55.615234" xlink:href="#ArialMT-48"/>
      </g>
     </g>
    </g>
    <g id="xtick_3">
     <g id="line2d_3">
      <path clip-path="url(#p571fd9a14f)" d="M 348.369231 448.56 
L 348.369231 60.48 
" style="fill:none;stroke:#ffffff;stroke-linecap:round;stroke-width:0.8;"/>
     </g>
     <g id="text_3">
      <!-- 75 -->
      <g style="fill:#262626;" transform="translate(342.808293 462.717813)scale(0.1 -0.1)">
       <defs>
        <path d="M 4.734375 62.203125 
L 4.734375 70.65625 
L 51.078125 70.65625 
L 51.078125 63.8125 
Q 44.234375 56.546875 37.515625 44.484375 
Q 30.8125 32.421875 27.15625 19.671875 
Q 24.515625 10.6875 23.78125 0 
L 14.75 0 
Q 14.890625 8.453125 18.0625 20.40625 
Q 21.234375 32.375 27.171875 43.484375 
Q 33.109375 54.59375 39.796875 62.203125 
z
" id="ArialMT-55"/>
       </defs>
       <use xlink:href="#ArialMT-55"/>
       <use x="55.615234" xlink:href="#ArialMT-53"/>
      </g>
     </g>
    </g>
    <g id="xtick_4">
     <g id="line2d_4">
      <path clip-path="url(#p571fd9a14f)" d="M 434.215385 448.56 
L 434.215385 60.48 
" style="fill:none;stroke:#ffffff;stroke-linecap:round;stroke-width:0.8;"/>
     </g>
     <g id="text_4">
      <!-- 100 -->
      <g style="fill:#262626;" transform="translate(425.873978 462.717813)scale(0.1 -0.1)">
       <defs>
        <path d="M 37.25 0 
L 28.46875 0 
L 28.46875 56 
Q 25.296875 52.984375 20.140625 49.953125 
Q 14.984375 46.921875 10.890625 45.40625 
L 10.890625 53.90625 
Q 18.265625 57.375 23.78125 62.296875 
Q 29.296875 67.234375 31.59375 71.875 
L 37.25 71.875 
z
" id="ArialMT-49"/>
       </defs>
       <use xlink:href="#ArialMT-49"/>
       <use x="55.615234" xlink:href="#ArialMT-48"/>
       <use x="111.230469" xlink:href="#ArialMT-48"/>
      </g>
     </g>
    </g>
    <g id="xtick_5">
     <g id="line2d_5">
      <path clip-path="url(#p571fd9a14f)" d="M 520.061538 448.56 
L 520.061538 60.48 
" style="fill:none;stroke:#ffffff;stroke-linecap:round;stroke-width:0.8;"/>
     </g>
     <g id="text_5">
      <!-- 125 -->
      <g style="fill:#262626;" transform="translate(511.720132 462.717813)scale(0.1 -0.1)">
       <use xlink:href="#ArialMT-49"/>
       <use x="55.615234" xlink:href="#ArialMT-50"/>
       <use x="111.230469" xlink:href="#ArialMT-53"/>
      </g>
     </g>
    </g>
    <g id="xtick_6">
     <g id="line2d_6">
      <path clip-path="url(#p571fd9a14f)" d="M 605.907692 448.56 
L 605.907692 60.48 
" style="fill:none;stroke:#ffffff;stroke-linecap:round;stroke-width:0.8;"/>
     </g>
     <g id="text_6">
      <!-- 150 -->
      <g style="fill:#262626;" transform="translate(597.566286 462.717813)scale(0.1 -0.1)">
       <use xlink:href="#ArialMT-49"/>
       <use x="55.615234" xlink:href="#ArialMT-53"/>
       <use x="111.230469" xlink:href="#ArialMT-48"/>
      </g>
     </g>
    </g>
    <g id="xtick_7">
     <g id="line2d_7">
      <path clip-path="url(#p571fd9a14f)" d="M 691.753846 448.56 
L 691.753846 60.48 
" style="fill:none;stroke:#ffffff;stroke-linecap:round;stroke-width:0.8;"/>
     </g>
     <g id="text_7">
      <!-- 175 -->
      <g style="fill:#262626;" transform="translate(683.41244 462.717813)scale(0.1 -0.1)">
       <use xlink:href="#ArialMT-49"/>
       <use x="55.615234" xlink:href="#ArialMT-55"/>
       <use x="111.230469" xlink:href="#ArialMT-53"/>
      </g>
     </g>
    </g>
    <g id="xtick_8">
     <g id="line2d_8">
      <path clip-path="url(#p571fd9a14f)" d="M 777.6 448.56 
L 777.6 60.48 
" style="fill:none;stroke:#ffffff;stroke-linecap:round;stroke-width:0.8;"/>
     </g>
     <g id="text_8">
      <!-- 200 -->
      <g style="fill:#262626;" transform="translate(769.258594 462.717813)scale(0.1 -0.1)">
       <use xlink:href="#ArialMT-50"/>
       <use x="55.615234" xlink:href="#ArialMT-48"/>
       <use x="111.230469" xlink:href="#ArialMT-48"/>
      </g>
     </g>
    </g>
    <g id="text_9">
     <!-- Number of neighbors -->
     <g style="fill:#262626;" transform="translate(377.436406 478.896875)scale(0.14 -0.14)">
      <defs>
       <path d="M 7.625 0 
L 7.625 71.578125 
L 17.328125 71.578125 
L 54.9375 15.375 
L 54.9375 71.578125 
L 64.015625 71.578125 
L 64.015625 0 
L 54.296875 0 
L 16.703125 56.25 
L 16.703125 0 
z
" id="ArialMT-78"/>
       <path d="M 40.578125 0 
L 40.578125 7.625 
Q 34.515625 -1.171875 24.125 -1.171875 
Q 19.53125 -1.171875 15.546875 0.578125 
Q 11.578125 2.34375 9.640625 5 
Q 7.71875 7.671875 6.9375 11.53125 
Q 6.390625 14.109375 6.390625 19.734375 
L 6.390625 51.859375 
L 15.1875 51.859375 
L 15.1875 23.09375 
Q 15.1875 16.21875 15.71875 13.8125 
Q 16.546875 10.359375 19.234375 8.375 
Q 21.921875 6.390625 25.875 6.390625 
Q 29.828125 6.390625 33.296875 8.421875 
Q 36.765625 10.453125 38.203125 13.9375 
Q 39.65625 17.4375 39.65625 24.078125 
L 39.65625 51.859375 
L 48.4375 51.859375 
L 48.4375 0 
z
" id="ArialMT-117"/>
       <path d="M 6.59375 0 
L 6.59375 51.859375 
L 14.453125 51.859375 
L 14.453125 44.578125 
Q 16.890625 48.390625 20.9375 50.703125 
Q 25 53.03125 30.171875 53.03125 
Q 35.9375 53.03125 39.625 50.640625 
Q 43.3125 48.25 44.828125 43.953125 
Q 50.984375 53.03125 60.84375 53.03125 
Q 68.5625 53.03125 72.703125 48.75 
Q 76.859375 44.484375 76.859375 35.59375 
L 76.859375 0 
L 68.109375 0 
L 68.109375 32.671875 
Q 68.109375 37.9375 67.25 40.25 
Q 66.40625 42.578125 64.15625 43.984375 
Q 61.921875 45.40625 58.890625 45.40625 
Q 53.421875 45.40625 49.796875 41.765625 
Q 46.1875 38.140625 46.1875 30.125 
L 46.1875 0 
L 37.40625 0 
L 37.40625 33.6875 
Q 37.40625 39.546875 35.25 42.46875 
Q 33.109375 45.40625 28.21875 45.40625 
Q 24.515625 45.40625 21.359375 43.453125 
Q 18.21875 41.5 16.796875 37.734375 
Q 15.375 33.984375 15.375 26.90625 
L 15.375 0 
z
" id="ArialMT-109"/>
       <path d="M 14.703125 0 
L 6.546875 0 
L 6.546875 71.578125 
L 15.328125 71.578125 
L 15.328125 46.046875 
Q 20.90625 53.03125 29.546875 53.03125 
Q 34.328125 53.03125 38.59375 51.09375 
Q 42.875 49.171875 45.625 45.671875 
Q 48.390625 42.1875 49.953125 37.25 
Q 51.515625 32.328125 51.515625 26.703125 
Q 51.515625 13.375 44.921875 6.09375 
Q 38.328125 -1.171875 29.109375 -1.171875 
Q 19.921875 -1.171875 14.703125 6.5 
z
M 14.59375 26.3125 
Q 14.59375 17 17.140625 12.84375 
Q 21.296875 6.0625 28.375 6.0625 
Q 34.125 6.0625 38.328125 11.0625 
Q 42.53125 16.0625 42.53125 25.984375 
Q 42.53125 36.140625 38.5 40.96875 
Q 34.46875 45.796875 28.765625 45.796875 
Q 23 45.796875 18.796875 40.796875 
Q 14.59375 35.796875 14.59375 26.3125 
z
" id="ArialMT-98"/>
       <path d="M 42.09375 16.703125 
L 51.171875 15.578125 
Q 49.03125 7.625 43.21875 3.21875 
Q 37.40625 -1.171875 28.375 -1.171875 
Q 17 -1.171875 10.328125 5.828125 
Q 3.65625 12.84375 3.65625 25.484375 
Q 3.65625 38.578125 10.390625 45.796875 
Q 17.140625 53.03125 27.875 53.03125 
Q 38.28125 53.03125 44.875 45.953125 
Q 51.46875 38.875 51.46875 26.03125 
Q 51.46875 25.25 51.421875 23.6875 
L 12.75 23.6875 
Q 13.234375 15.140625 17.578125 10.59375 
Q 21.921875 6.0625 28.421875 6.0625 
Q 33.25 6.0625 36.671875 8.59375 
Q 40.09375 11.140625 42.09375 16.703125 
z
M 13.234375 30.90625 
L 42.1875 30.90625 
Q 41.609375 37.453125 38.875 40.71875 
Q 34.671875 45.796875 27.984375 45.796875 
Q 21.921875 45.796875 17.796875 41.75 
Q 13.671875 37.703125 13.234375 30.90625 
z
" id="ArialMT-101"/>
       <path d="M 6.5 0 
L 6.5 51.859375 
L 14.40625 51.859375 
L 14.40625 44 
Q 17.4375 49.515625 20 51.265625 
Q 22.5625 53.03125 25.640625 53.03125 
Q 30.078125 53.03125 34.671875 50.203125 
L 31.640625 42.046875 
Q 28.421875 43.953125 25.203125 43.953125 
Q 22.3125 43.953125 20.015625 42.21875 
Q 17.71875 40.484375 16.75 37.40625 
Q 15.28125 32.71875 15.28125 27.15625 
L 15.28125 0 
z
" id="ArialMT-114"/>
       <path id="ArialMT-32"/>
       <path d="M 3.328125 25.921875 
Q 3.328125 40.328125 11.328125 47.265625 
Q 18.015625 53.03125 27.640625 53.03125 
Q 38.328125 53.03125 45.109375 46.015625 
Q 51.90625 39.015625 51.90625 26.65625 
Q 51.90625 16.65625 48.90625 10.90625 
Q 45.90625 5.171875 40.15625 2 
Q 34.421875 -1.171875 27.640625 -1.171875 
Q 16.75 -1.171875 10.03125 5.8125 
Q 3.328125 12.796875 3.328125 25.921875 
z
M 12.359375 25.921875 
Q 12.359375 15.96875 16.703125 11.015625 
Q 21.046875 6.0625 27.640625 6.0625 
Q 34.1875 6.0625 38.53125 11.03125 
Q 42.875 16.015625 42.875 26.21875 
Q 42.875 35.84375 38.5 40.796875 
Q 34.125 45.75 27.640625 45.75 
Q 21.046875 45.75 16.703125 40.8125 
Q 12.359375 35.890625 12.359375 25.921875 
z
" id="ArialMT-111"/>
       <path d="M 8.6875 0 
L 8.6875 45.015625 
L 0.921875 45.015625 
L 0.921875 51.859375 
L 8.6875 51.859375 
L 8.6875 57.375 
Q 8.6875 62.59375 9.625 65.140625 
Q 10.890625 68.5625 14.078125 70.671875 
Q 17.28125 72.796875 23.046875 72.796875 
Q 26.765625 72.796875 31.25 71.921875 
L 29.9375 64.265625 
Q 27.203125 64.75 24.75 64.75 
Q 20.75 64.75 19.09375 63.03125 
Q 17.4375 61.328125 17.4375 56.640625 
L 17.4375 51.859375 
L 27.546875 51.859375 
L 27.546875 45.015625 
L 17.4375 45.015625 
L 17.4375 0 
z
" id="ArialMT-102"/>
       <path d="M 6.59375 0 
L 6.59375 51.859375 
L 14.5 51.859375 
L 14.5 44.484375 
Q 20.21875 53.03125 31 53.03125 
Q 35.6875 53.03125 39.625 51.34375 
Q 43.5625 49.65625 45.515625 46.921875 
Q 47.46875 44.1875 48.25 40.4375 
Q 48.734375 37.984375 48.734375 31.890625 
L 48.734375 0 
L 39.9375 0 
L 39.9375 31.546875 
Q 39.9375 36.921875 38.90625 39.578125 
Q 37.890625 42.234375 35.28125 43.8125 
Q 32.671875 45.40625 29.15625 45.40625 
Q 23.53125 45.40625 19.453125 41.84375 
Q 15.375 38.28125 15.375 28.328125 
L 15.375 0 
z
" id="ArialMT-110"/>
       <path d="M 6.640625 61.46875 
L 6.640625 71.578125 
L 15.4375 71.578125 
L 15.4375 61.46875 
z
M 6.640625 0 
L 6.640625 51.859375 
L 15.4375 51.859375 
L 15.4375 0 
z
" id="ArialMT-105"/>
       <path d="M 4.984375 -4.296875 
L 13.53125 -5.5625 
Q 14.0625 -9.515625 16.5 -11.328125 
Q 19.78125 -13.765625 25.4375 -13.765625 
Q 31.546875 -13.765625 34.859375 -11.328125 
Q 38.1875 -8.890625 39.359375 -4.5 
Q 40.046875 -1.8125 39.984375 6.78125 
Q 34.234375 0 25.640625 0 
Q 14.9375 0 9.078125 7.71875 
Q 3.21875 15.4375 3.21875 26.21875 
Q 3.21875 33.640625 5.90625 39.90625 
Q 8.59375 46.1875 13.6875 49.609375 
Q 18.796875 53.03125 25.6875 53.03125 
Q 34.859375 53.03125 40.828125 45.609375 
L 40.828125 51.859375 
L 48.921875 51.859375 
L 48.921875 7.03125 
Q 48.921875 -5.078125 46.453125 -10.125 
Q 44 -15.1875 38.640625 -18.109375 
Q 33.296875 -21.046875 25.484375 -21.046875 
Q 16.21875 -21.046875 10.5 -16.875 
Q 4.78125 -12.703125 4.984375 -4.296875 
z
M 12.25 26.859375 
Q 12.25 16.65625 16.296875 11.96875 
Q 20.359375 7.28125 26.46875 7.28125 
Q 32.515625 7.28125 36.609375 11.9375 
Q 40.71875 16.609375 40.71875 26.5625 
Q 40.71875 36.078125 36.5 40.90625 
Q 32.28125 45.75 26.3125 45.75 
Q 20.453125 45.75 16.34375 40.984375 
Q 12.25 36.234375 12.25 26.859375 
z
" id="ArialMT-103"/>
       <path d="M 6.59375 0 
L 6.59375 71.578125 
L 15.375 71.578125 
L 15.375 45.90625 
Q 21.53125 53.03125 30.90625 53.03125 
Q 36.671875 53.03125 40.921875 50.75 
Q 45.171875 48.484375 47 44.484375 
Q 48.828125 40.484375 48.828125 32.859375 
L 48.828125 0 
L 40.046875 0 
L 40.046875 32.859375 
Q 40.046875 39.453125 37.1875 42.453125 
Q 34.328125 45.453125 29.109375 45.453125 
Q 25.203125 45.453125 21.75 43.421875 
Q 18.3125 41.40625 16.84375 37.9375 
Q 15.375 34.46875 15.375 28.375 
L 15.375 0 
z
" id="ArialMT-104"/>
       <path d="M 3.078125 15.484375 
L 11.765625 16.84375 
Q 12.5 11.625 15.84375 8.84375 
Q 19.1875 6.0625 25.203125 6.0625 
Q 31.25 6.0625 34.171875 8.515625 
Q 37.109375 10.984375 37.109375 14.3125 
Q 37.109375 17.28125 34.515625 19 
Q 32.71875 20.171875 25.53125 21.96875 
Q 15.875 24.421875 12.140625 26.203125 
Q 8.40625 27.984375 6.46875 31.125 
Q 4.546875 34.28125 4.546875 38.09375 
Q 4.546875 41.546875 6.125 44.5 
Q 7.71875 47.46875 10.453125 49.421875 
Q 12.5 50.921875 16.03125 51.96875 
Q 19.578125 53.03125 23.640625 53.03125 
Q 29.734375 53.03125 34.34375 51.265625 
Q 38.96875 49.515625 41.15625 46.5 
Q 43.359375 43.5 44.1875 38.484375 
L 35.59375 37.3125 
Q 35.015625 41.3125 32.203125 43.546875 
Q 29.390625 45.796875 24.265625 45.796875 
Q 18.21875 45.796875 15.625 43.796875 
Q 13.03125 41.796875 13.03125 39.109375 
Q 13.03125 37.40625 14.109375 36.03125 
Q 15.1875 34.625 17.484375 33.6875 
Q 18.796875 33.203125 25.25 31.453125 
Q 34.578125 28.953125 38.25 27.359375 
Q 41.9375 25.78125 44.03125 22.75 
Q 46.140625 19.734375 46.140625 15.234375 
Q 46.140625 10.84375 43.578125 6.953125 
Q 41.015625 3.078125 36.171875 0.953125 
Q 31.34375 -1.171875 25.25 -1.171875 
Q 15.140625 -1.171875 9.84375 3.03125 
Q 4.546875 7.234375 3.078125 15.484375 
z
" id="ArialMT-115"/>
      </defs>
      <use xlink:href="#ArialMT-78"/>
      <use x="72.216797" xlink:href="#ArialMT-117"/>
      <use x="127.832031" xlink:href="#ArialMT-109"/>
      <use x="211.132812" xlink:href="#ArialMT-98"/>
      <use x="266.748047" xlink:href="#ArialMT-101"/>
      <use x="322.363281" xlink:href="#ArialMT-114"/>
      <use x="355.664062" xlink:href="#ArialMT-32"/>
      <use x="383.447266" xlink:href="#ArialMT-111"/>
      <use x="439.0625" xlink:href="#ArialMT-102"/>
      <use x="466.845703" xlink:href="#ArialMT-32"/>
      <use x="494.628906" xlink:href="#ArialMT-110"/>
      <use x="550.244141" xlink:href="#ArialMT-101"/>
      <use x="605.859375" xlink:href="#ArialMT-105"/>
      <use x="628.076172" xlink:href="#ArialMT-103"/>
      <use x="683.691406" xlink:href="#ArialMT-104"/>
      <use x="739.306641" xlink:href="#ArialMT-98"/>
      <use x="794.921875" xlink:href="#ArialMT-111"/>
      <use x="850.537109" xlink:href="#ArialMT-114"/>
      <use x="883.837891" xlink:href="#ArialMT-115"/>
     </g>
    </g>
   </g>
   <g id="matplotlib.axis_2">
    <g id="ytick_1">
     <g id="line2d_9">
      <path clip-path="url(#p571fd9a14f)" d="M 108 407.491441 
L 777.6 407.491441 
" style="fill:none;stroke:#ffffff;stroke-linecap:round;stroke-width:0.8;"/>
     </g>
     <g id="text_10">
      <!-- $\mathdefault{10^{-17}}$ -->
      <g style="fill:#262626;" transform="translate(77.3 412.647691)scale(0.1 -0.1)">
       <defs>
        <path d="M 52.828125 31.203125 
L 5.5625 31.203125 
L 5.5625 39.40625 
L 52.828125 39.40625 
z
" id="ArialMT-8722"/>
       </defs>
       <use transform="translate(0 0.99375)" xlink:href="#ArialMT-49"/>
       <use transform="translate(55.615234 0.99375)" xlink:href="#ArialMT-48"/>
       <use transform="translate(112.972813 70.6875)scale(0.7)" xlink:href="#ArialMT-8722"/>
       <use transform="translate(153.851719 70.6875)scale(0.7)" xlink:href="#ArialMT-49"/>
       <use transform="translate(192.782383 70.6875)scale(0.7)" xlink:href="#ArialMT-55"/>
      </g>
     </g>
    </g>
    <g id="ytick_2">
     <g id="line2d_10">
      <path clip-path="url(#p571fd9a14f)" d="M 108 351.321894 
L 777.6 351.321894 
" style="fill:none;stroke:#ffffff;stroke-linecap:round;stroke-width:0.8;"/>
     </g>
     <g id="text_11">
      <!-- $\mathdefault{10^{-15}}$ -->
      <g style="fill:#262626;" transform="translate(77.3 356.478144)scale(0.1 -0.1)">
       <use transform="translate(0 0.99375)" xlink:href="#ArialMT-49"/>
       <use transform="translate(55.615234 0.99375)" xlink:href="#ArialMT-48"/>
       <use transform="translate(112.972813 70.6875)scale(0.7)" xlink:href="#ArialMT-8722"/>
       <use transform="translate(153.851719 70.6875)scale(0.7)" xlink:href="#ArialMT-49"/>
       <use transform="translate(192.782383 70.6875)scale(0.7)" xlink:href="#ArialMT-53"/>
      </g>
     </g>
    </g>
    <g id="ytick_3">
     <g id="line2d_11">
      <path clip-path="url(#p571fd9a14f)" d="M 108 295.152347 
L 777.6 295.152347 
" style="fill:none;stroke:#ffffff;stroke-linecap:round;stroke-width:0.8;"/>
     </g>
     <g id="text_12">
      <!-- $\mathdefault{10^{-13}}$ -->
      <g style="fill:#262626;" transform="translate(77.3 300.308597)scale(0.1 -0.1)">
       <defs>
        <path d="M 4.203125 18.890625 
L 12.984375 20.0625 
Q 14.5 12.59375 18.140625 9.296875 
Q 21.78125 6 27 6 
Q 33.203125 6 37.46875 10.296875 
Q 41.75 14.59375 41.75 20.953125 
Q 41.75 27 37.796875 30.921875 
Q 33.84375 34.859375 27.734375 34.859375 
Q 25.25 34.859375 21.53125 33.890625 
L 22.515625 41.609375 
Q 23.390625 41.5 23.921875 41.5 
Q 29.546875 41.5 34.03125 44.421875 
Q 38.53125 47.359375 38.53125 53.46875 
Q 38.53125 58.296875 35.25 61.46875 
Q 31.984375 64.65625 26.8125 64.65625 
Q 21.6875 64.65625 18.265625 61.421875 
Q 14.84375 58.203125 13.875 51.765625 
L 5.078125 53.328125 
Q 6.6875 62.15625 12.390625 67.015625 
Q 18.109375 71.875 26.609375 71.875 
Q 32.46875 71.875 37.390625 69.359375 
Q 42.328125 66.84375 44.9375 62.5 
Q 47.5625 58.15625 47.5625 53.265625 
Q 47.5625 48.640625 45.0625 44.828125 
Q 42.578125 41.015625 37.703125 38.765625 
Q 44.046875 37.3125 47.5625 32.6875 
Q 51.078125 28.078125 51.078125 21.140625 
Q 51.078125 11.765625 44.234375 5.25 
Q 37.40625 -1.265625 26.953125 -1.265625 
Q 17.53125 -1.265625 11.296875 4.34375 
Q 5.078125 9.96875 4.203125 18.890625 
z
" id="ArialMT-51"/>
       </defs>
       <use transform="translate(0 0.99375)" xlink:href="#ArialMT-49"/>
       <use transform="translate(55.615234 0.99375)" xlink:href="#ArialMT-48"/>
       <use transform="translate(112.972813 70.6875)scale(0.7)" xlink:href="#ArialMT-8722"/>
       <use transform="translate(153.851719 70.6875)scale(0.7)" xlink:href="#ArialMT-49"/>
       <use transform="translate(192.782383 70.6875)scale(0.7)" xlink:href="#ArialMT-51"/>
      </g>
     </g>
    </g>
    <g id="ytick_4">
     <g id="line2d_12">
      <path clip-path="url(#p571fd9a14f)" d="M 108 238.9828 
L 777.6 238.9828 
" style="fill:none;stroke:#ffffff;stroke-linecap:round;stroke-width:0.8;"/>
     </g>
     <g id="text_13">
      <!-- $\mathdefault{10^{-11}}$ -->
      <g style="fill:#262626;" transform="translate(77.3 244.13905)scale(0.1 -0.1)">
       <use transform="translate(0 0.99375)" xlink:href="#ArialMT-49"/>
       <use transform="translate(55.615234 0.99375)" xlink:href="#ArialMT-48"/>
       <use transform="translate(112.972813 70.6875)scale(0.7)" xlink:href="#ArialMT-8722"/>
       <use transform="translate(153.851719 70.6875)scale(0.7)" xlink:href="#ArialMT-49"/>
       <use transform="translate(192.782383 70.6875)scale(0.7)" xlink:href="#ArialMT-49"/>
      </g>
     </g>
    </g>
    <g id="ytick_5">
     <g id="line2d_13">
      <path clip-path="url(#p571fd9a14f)" d="M 108 182.813253 
L 777.6 182.813253 
" style="fill:none;stroke:#ffffff;stroke-linecap:round;stroke-width:0.8;"/>
     </g>
     <g id="text_14">
      <!-- $\mathdefault{10^{-9}}$ -->
      <g style="fill:#262626;" transform="translate(81.2 187.969503)scale(0.1 -0.1)">
       <defs>
        <path d="M 5.46875 16.546875 
L 13.921875 17.328125 
Q 14.984375 11.375 18.015625 8.6875 
Q 21.046875 6 25.78125 6 
Q 29.828125 6 32.875 7.859375 
Q 35.9375 9.71875 37.890625 12.8125 
Q 39.84375 15.921875 41.15625 21.1875 
Q 42.484375 26.46875 42.484375 31.9375 
Q 42.484375 32.515625 42.4375 33.6875 
Q 39.796875 29.5 35.234375 26.875 
Q 30.671875 24.265625 25.34375 24.265625 
Q 16.453125 24.265625 10.296875 30.703125 
Q 4.15625 37.15625 4.15625 47.703125 
Q 4.15625 58.59375 10.578125 65.234375 
Q 17 71.875 26.65625 71.875 
Q 33.640625 71.875 39.421875 68.109375 
Q 45.21875 64.359375 48.21875 57.390625 
Q 51.21875 50.4375 51.21875 37.25 
Q 51.21875 23.53125 48.234375 15.40625 
Q 45.265625 7.28125 39.375 3.03125 
Q 33.5 -1.21875 25.59375 -1.21875 
Q 17.1875 -1.21875 11.859375 3.4375 
Q 6.546875 8.109375 5.46875 16.546875 
z
M 41.453125 48.140625 
Q 41.453125 55.71875 37.421875 60.15625 
Q 33.40625 64.59375 27.734375 64.59375 
Q 21.875 64.59375 17.53125 59.8125 
Q 13.1875 55.03125 13.1875 47.40625 
Q 13.1875 40.578125 17.3125 36.296875 
Q 21.4375 32.03125 27.484375 32.03125 
Q 33.59375 32.03125 37.515625 36.296875 
Q 41.453125 40.578125 41.453125 48.140625 
z
" id="ArialMT-57"/>
       </defs>
       <use transform="translate(0 0.99375)" xlink:href="#ArialMT-49"/>
       <use transform="translate(55.615234 0.99375)" xlink:href="#ArialMT-48"/>
       <use transform="translate(112.972813 70.6875)scale(0.7)" xlink:href="#ArialMT-8722"/>
       <use transform="translate(153.851719 70.6875)scale(0.7)" xlink:href="#ArialMT-57"/>
      </g>
     </g>
    </g>
    <g id="ytick_6">
     <g id="line2d_14">
      <path clip-path="url(#p571fd9a14f)" d="M 108 126.643706 
L 777.6 126.643706 
" style="fill:none;stroke:#ffffff;stroke-linecap:round;stroke-width:0.8;"/>
     </g>
     <g id="text_15">
      <!-- $\mathdefault{10^{-7}}$ -->
      <g style="fill:#262626;" transform="translate(81.2 131.749956)scale(0.1 -0.1)">
       <use transform="translate(0 0.846875)" xlink:href="#ArialMT-49"/>
       <use transform="translate(55.615234 0.846875)" xlink:href="#ArialMT-48"/>
       <use transform="translate(112.972813 70.540625)scale(0.7)" xlink:href="#ArialMT-8722"/>
       <use transform="translate(153.851719 70.540625)scale(0.7)" xlink:href="#ArialMT-55"/>
      </g>
     </g>
    </g>
    <g id="ytick_7">
     <g id="line2d_15">
      <path clip-path="url(#p571fd9a14f)" d="M 108 70.474159 
L 777.6 70.474159 
" style="fill:none;stroke:#ffffff;stroke-linecap:round;stroke-width:0.8;"/>
     </g>
     <g id="text_16">
      <!-- $\mathdefault{10^{-5}}$ -->
      <g style="fill:#262626;" transform="translate(81.2 75.580409)scale(0.1 -0.1)">
       <use transform="translate(0 0.879688)" xlink:href="#ArialMT-49"/>
       <use transform="translate(55.615234 0.879688)" xlink:href="#ArialMT-48"/>
       <use transform="translate(112.972813 70.573438)scale(0.7)" xlink:href="#ArialMT-8722"/>
       <use transform="translate(153.851719 70.573438)scale(0.7)" xlink:href="#ArialMT-53"/>
      </g>
     </g>
    </g>
    <g id="text_17">
     <!-- Reconstruction error -->
     <g style="fill:#262626;" transform="translate(70.5175 317.929062)rotate(-90)scale(0.14 -0.14)">
      <defs>
       <path d="M 7.859375 0 
L 7.859375 71.578125 
L 39.59375 71.578125 
Q 49.171875 71.578125 54.140625 69.640625 
Q 59.125 67.71875 62.109375 62.828125 
Q 65.09375 57.953125 65.09375 52.046875 
Q 65.09375 44.4375 60.15625 39.203125 
Q 55.21875 33.984375 44.921875 32.5625 
Q 48.6875 30.765625 50.640625 29 
Q 54.78125 25.203125 58.5 19.484375 
L 70.953125 0 
L 59.03125 0 
L 49.5625 14.890625 
Q 45.40625 21.34375 42.71875 24.75 
Q 40.046875 28.171875 37.921875 29.53125 
Q 35.796875 30.90625 33.59375 31.453125 
Q 31.984375 31.78125 28.328125 31.78125 
L 17.328125 31.78125 
L 17.328125 0 
z
M 17.328125 39.984375 
L 37.703125 39.984375 
Q 44.1875 39.984375 47.84375 41.328125 
Q 51.515625 42.671875 53.421875 45.625 
Q 55.328125 48.578125 55.328125 52.046875 
Q 55.328125 57.125 51.640625 60.390625 
Q 47.953125 63.671875 39.984375 63.671875 
L 17.328125 63.671875 
z
" id="ArialMT-82"/>
       <path d="M 40.4375 19 
L 49.078125 17.875 
Q 47.65625 8.9375 41.8125 3.875 
Q 35.984375 -1.171875 27.484375 -1.171875 
Q 16.84375 -1.171875 10.375 5.78125 
Q 3.90625 12.75 3.90625 25.734375 
Q 3.90625 34.125 6.6875 40.421875 
Q 9.46875 46.734375 15.15625 49.875 
Q 20.84375 53.03125 27.546875 53.03125 
Q 35.984375 53.03125 41.359375 48.75 
Q 46.734375 44.484375 48.25 36.625 
L 39.703125 35.296875 
Q 38.484375 40.53125 35.375 43.15625 
Q 32.28125 45.796875 27.875 45.796875 
Q 21.234375 45.796875 17.078125 41.03125 
Q 12.9375 36.28125 12.9375 25.984375 
Q 12.9375 15.53125 16.9375 10.796875 
Q 20.953125 6.0625 27.390625 6.0625 
Q 32.5625 6.0625 36.03125 9.234375 
Q 39.5 12.40625 40.4375 19 
z
" id="ArialMT-99"/>
       <path d="M 25.78125 7.859375 
L 27.046875 0.09375 
Q 23.34375 -0.6875 20.40625 -0.6875 
Q 15.625 -0.6875 12.984375 0.828125 
Q 10.359375 2.34375 9.28125 4.8125 
Q 8.203125 7.28125 8.203125 15.1875 
L 8.203125 45.015625 
L 1.765625 45.015625 
L 1.765625 51.859375 
L 8.203125 51.859375 
L 8.203125 64.703125 
L 16.9375 69.96875 
L 16.9375 51.859375 
L 25.78125 51.859375 
L 25.78125 45.015625 
L 16.9375 45.015625 
L 16.9375 14.703125 
Q 16.9375 10.9375 17.40625 9.859375 
Q 17.875 8.796875 18.921875 8.15625 
Q 19.96875 7.515625 21.921875 7.515625 
Q 23.390625 7.515625 25.78125 7.859375 
z
" id="ArialMT-116"/>
      </defs>
      <use xlink:href="#ArialMT-82"/>
      <use x="72.216797" xlink:href="#ArialMT-101"/>
      <use x="127.832031" xlink:href="#ArialMT-99"/>
      <use x="177.832031" xlink:href="#ArialMT-111"/>
      <use x="233.447266" xlink:href="#ArialMT-110"/>
      <use x="289.0625" xlink:href="#ArialMT-115"/>
      <use x="339.0625" xlink:href="#ArialMT-116"/>
      <use x="366.845703" xlink:href="#ArialMT-114"/>
      <use x="400.146484" xlink:href="#ArialMT-117"/>
      <use x="455.761719" xlink:href="#ArialMT-99"/>
      <use x="505.761719" xlink:href="#ArialMT-116"/>
      <use x="533.544922" xlink:href="#ArialMT-105"/>
      <use x="555.761719" xlink:href="#ArialMT-111"/>
      <use x="611.376953" xlink:href="#ArialMT-110"/>
      <use x="666.992188" xlink:href="#ArialMT-32"/>
      <use x="694.775391" xlink:href="#ArialMT-101"/>
      <use x="750.390625" xlink:href="#ArialMT-114"/>
      <use x="783.691406" xlink:href="#ArialMT-114"/>
      <use x="816.992188" xlink:href="#ArialMT-111"/>
      <use x="872.607422" xlink:href="#ArialMT-114"/>
     </g>
    </g>
   </g>
   <g id="line2d_16">
    <path clip-path="url(#p571fd9a14f)" d="M 108 406.512848 
L 111.433846 416.450599 
L 118.301538 410.807941 
L 125.169231 426.734171 
L 132.036923 385.090276 
L 138.904615 383.724161 
L 145.772308 382.747943 
L 152.64 383.80112 
L 159.507692 391.964132 
L 166.375385 386.316415 
L 173.243077 430.92 
L 180.110769 380.880204 
L 186.978462 359.195908 
L 193.846154 384.438141 
L 200.713846 375.545594 
L 207.581538 386.399859 
L 214.449231 290.966037 
L 221.316923 386.721881 
L 228.184615 291.73868 
L 235.052308 366.042449 
L 241.92 258.201183 
L 248.787692 254.871864 
L 255.655385 404.92122 
L 262.523077 211.348919 
L 269.390769 238.181807 
L 276.258462 231.689171 
L 283.126154 210.542371 
L 289.993846 208.222947 
L 296.861538 261.28041 
L 303.729231 360.368065 
L 310.596923 412.70776 
L 317.464615 223.607456 
L 324.332308 243.316805 
L 331.2 375.683189 
L 334.633846 201.781727 
L 341.501538 267.929284 
L 348.369231 252.161422 
L 355.236923 280.508335 
L 362.104615 216.466579 
L 368.972308 206.682195 
L 375.84 210.907616 
L 382.707692 204.251758 
L 389.575385 199.193951 
L 396.443077 181.960692 
L 403.310769 179.253098 
L 410.178462 157.476179 
L 417.046154 144.772466 
L 423.913846 143.412497 
L 430.781538 140.015693 
L 437.649231 136.724466 
L 444.516923 135.034733 
L 451.384615 127.895371 
L 458.252308 131.563631 
L 465.12 126.923246 
L 471.987692 134.501785 
L 478.855385 128.917478 
L 485.723077 122.412792 
L 492.590769 119.722236 
L 499.458462 122.938657 
L 506.326154 122.726157 
L 513.193846 124.365859 
L 520.061538 135.924696 
L 526.929231 132.625897 
L 533.796923 126.418106 
L 540.664615 121.522603 
L 547.532308 125.488003 
L 554.4 122.273696 
L 557.833846 126.036621 
L 564.701538 128.883872 
L 571.569231 126.038467 
L 578.436923 126.005217 
L 585.304615 122.240577 
L 592.172308 124.719397 
L 599.04 121.253876 
L 605.907692 119.786221 
L 612.775385 114.627797 
L 619.643077 111.946635 
L 626.510769 114.237771 
L 633.378462 114.74996 
L 640.246154 111.363089 
L 647.113846 109.737581 
L 653.981538 107.446254 
L 660.849231 107.962964 
L 667.716923 106.604542 
L 674.584615 107.079571 
L 681.452308 105.462227 
L 688.32 105.129143 
L 695.187692 107.578868 
L 702.055385 109.319024 
L 708.923077 112.325666 
L 715.790769 114.931655 
L 722.658462 113.356015 
L 729.526154 112.160711 
L 736.393846 111.519556 
L 743.261538 112.572539 
L 750.129231 112.319555 
L 756.996923 109.49329 
L 763.864615 110.246782 
L 770.732308 109.89302 
L 777.6 109.94118 
" style="fill:none;stroke:#db5f57;stroke-linecap:round;stroke-width:1.5;"/>
   </g>
   <g id="line2d_17">
    <path clip-path="url(#p571fd9a14f)" d="M 108 401.859809 
L 111.433846 400.969524 
L 118.301538 407.938393 
L 125.169231 413.521741 
L 132.036923 378.295614 
L 138.904615 373.568748 
L 145.772308 375.137752 
L 152.64 362.996954 
L 159.507692 372.315628 
L 166.375385 354.643507 
L 173.243077 348.064098 
L 180.110769 367.052041 
L 186.978462 343.053511 
L 193.846154 271.540631 
L 200.713846 262.454386 
L 207.581538 266.556061 
L 214.449231 172.550906 
L 221.316923 172.204718 
L 228.184615 165.334164 
L 235.052308 159.993127 
L 241.92 162.736329 
L 248.787692 158.102414 
L 255.655385 184.424868 
L 262.523077 173.898504 
L 269.390769 161.754873 
L 276.258462 173.478879 
L 283.126154 169.169566 
L 289.993846 175.675775 
L 296.861538 188.186425 
L 303.729231 175.570276 
L 310.596923 165.398096 
L 317.464615 169.078187 
L 324.332308 173.310876 
L 331.2 170.099917 
L 334.633846 162.209659 
L 341.501538 171.488887 
L 348.369231 183.537134 
L 355.236923 187.344859 
L 362.104615 108.664903 
L 368.972308 109.383551 
L 375.84 109.553876 
L 382.707692 154.909723 
L 389.575385 168.447849 
L 396.443077 103.241161 
L 403.310769 99.610535 
L 410.178462 100.338215 
L 417.046154 96.394978 
L 423.913846 95.538655 
L 430.781538 96.088496 
L 437.649231 113.95404 
L 444.516923 96.254053 
L 451.384615 93.979544 
L 458.252308 95.396016 
L 465.12 95.956513 
L 471.987692 97.971554 
L 478.855385 97.216418 
L 485.723077 91.183349 
L 492.590769 92.760885 
L 499.458462 93.472323 
L 506.326154 92.934784 
L 513.193846 90.350864 
L 520.061538 89.391436 
L 526.929231 90.809499 
L 533.796923 91.766762 
L 540.664615 93.051663 
L 547.532308 90.537108 
L 554.4 90.623003 
L 557.833846 88.880803 
L 564.701538 87.168958 
L 571.569231 87.331594 
L 578.436923 86.490801 
L 585.304615 86.43048 
L 592.172308 86.575063 
L 599.04 86.984563 
L 605.907692 86.02278 
L 612.775385 86.675948 
L 619.643077 84.362087 
L 626.510769 84.632946 
L 633.378462 83.576662 
L 640.246154 82.361002 
L 647.113846 82.404649 
L 653.981538 81.342606 
L 660.849231 79.682655 
L 667.716923 80.390335 
L 674.584615 80.588297 
L 681.452308 80.873606 
L 688.32 80.797982 
L 695.187692 81.071534 
L 702.055385 79.045511 
L 708.923077 79.211881 
L 715.790769 79.028111 
L 722.658462 78.75874 
L 729.526154 79.134952 
L 736.393846 79.026791 
L 743.261538 78.555694 
L 750.129231 78.12 
L 756.996923 78.476154 
L 763.864615 78.50673 
L 770.732308 79.355425 
L 777.6 79.105042 
" style="fill:none;stroke:#57d3db;stroke-linecap:round;stroke-width:1.5;"/>
   </g>
   <g id="line2d_18"/>
   <g id="line2d_19"/>
   <g id="patch_3">
    <path d="M 108 448.56 
L 108 60.48 
" style="fill:none;stroke:#ffffff;stroke-linecap:square;stroke-linejoin:miter;stroke-width:0.8;"/>
   </g>
   <g id="patch_4">
    <path d="M 777.6 448.56 
L 777.6 60.48 
" style="fill:none;stroke:#ffffff;stroke-linecap:square;stroke-linejoin:miter;stroke-width:0.8;"/>
   </g>
   <g id="patch_5">
    <path d="M 108 448.56 
L 777.6 448.56 
" style="fill:none;stroke:#ffffff;stroke-linecap:square;stroke-linejoin:miter;stroke-width:0.8;"/>
   </g>
   <g id="patch_6">
    <path d="M 108 60.48 
L 777.6 60.48 
" style="fill:none;stroke:#ffffff;stroke-linecap:square;stroke-linejoin:miter;stroke-width:0.8;"/>
   </g>
   <g id="text_18">
    <!-- LLE reconstruction error -->
    <g style="fill:#262626;" transform="translate(356.99 54.48)scale(0.16 -0.16)">
     <defs>
      <path d="M 7.328125 0 
L 7.328125 71.578125 
L 16.796875 71.578125 
L 16.796875 8.453125 
L 52.046875 8.453125 
L 52.046875 0 
z
" id="ArialMT-76"/>
      <path d="M 7.90625 0 
L 7.90625 71.578125 
L 59.671875 71.578125 
L 59.671875 63.140625 
L 17.390625 63.140625 
L 17.390625 41.21875 
L 56.984375 41.21875 
L 56.984375 32.8125 
L 17.390625 32.8125 
L 17.390625 8.453125 
L 61.328125 8.453125 
L 61.328125 0 
z
" id="ArialMT-69"/>
     </defs>
     <use xlink:href="#ArialMT-76"/>
     <use x="55.615234" xlink:href="#ArialMT-76"/>
     <use x="111.230469" xlink:href="#ArialMT-69"/>
     <use x="177.929688" xlink:href="#ArialMT-32"/>
     <use x="205.712891" xlink:href="#ArialMT-114"/>
     <use x="239.013672" xlink:href="#ArialMT-101"/>
     <use x="294.628906" xlink:href="#ArialMT-99"/>
     <use x="344.628906" xlink:href="#ArialMT-111"/>
     <use x="400.244141" xlink:href="#ArialMT-110"/>
     <use x="455.859375" xlink:href="#ArialMT-115"/>
     <use x="505.859375" xlink:href="#ArialMT-116"/>
     <use x="533.642578" xlink:href="#ArialMT-114"/>
     <use x="566.943359" xlink:href="#ArialMT-117"/>
     <use x="622.558594" xlink:href="#ArialMT-99"/>
     <use x="672.558594" xlink:href="#ArialMT-116"/>
     <use x="700.341797" xlink:href="#ArialMT-105"/>
     <use x="722.558594" xlink:href="#ArialMT-111"/>
     <use x="778.173828" xlink:href="#ArialMT-110"/>
     <use x="833.789062" xlink:href="#ArialMT-32"/>
     <use x="861.572266" xlink:href="#ArialMT-101"/>
     <use x="917.1875" xlink:href="#ArialMT-114"/>
     <use x="950.488281" xlink:href="#ArialMT-114"/>
     <use x="983.789062" xlink:href="#ArialMT-111"/>
     <use x="1039.404297" xlink:href="#ArialMT-114"/>
    </g>
   </g>
   <g id="legend_1">
    <g id="patch_7">
     <path d="M 116.4 121.156875 
L 215.248125 121.156875 
Q 217.648125 121.156875 217.648125 118.756875 
L 217.648125 68.88 
Q 217.648125 66.48 215.248125 66.48 
L 116.4 66.48 
Q 114 66.48 114 68.88 
L 114 118.756875 
Q 114 121.156875 116.4 121.156875 
z
" style="fill:#eaeaf2;opacity:0.8;stroke:#cccccc;stroke-linejoin:miter;"/>
    </g>
    <g id="text_19">
     <!-- Output dimension -->
     <g style="fill:#262626;" transform="translate(118.8 80.023125)scale(0.12 -0.12)">
      <defs>
       <path d="M 4.828125 34.859375 
Q 4.828125 52.6875 14.390625 62.765625 
Q 23.96875 72.859375 39.109375 72.859375 
Q 49.03125 72.859375 56.984375 68.109375 
Q 64.9375 63.375 69.109375 54.90625 
Q 73.296875 46.4375 73.296875 35.6875 
Q 73.296875 24.8125 68.890625 16.21875 
Q 64.5 7.625 56.4375 3.203125 
Q 48.390625 -1.21875 39.0625 -1.21875 
Q 28.953125 -1.21875 20.984375 3.65625 
Q 13.03125 8.546875 8.921875 16.984375 
Q 4.828125 25.4375 4.828125 34.859375 
z
M 14.59375 34.71875 
Q 14.59375 21.78125 21.546875 14.328125 
Q 28.515625 6.890625 39.015625 6.890625 
Q 49.703125 6.890625 56.609375 14.40625 
Q 63.53125 21.921875 63.53125 35.75 
Q 63.53125 44.484375 60.578125 51 
Q 57.625 57.515625 51.921875 61.109375 
Q 46.234375 64.703125 39.15625 64.703125 
Q 29.109375 64.703125 21.84375 57.78125 
Q 14.59375 50.875 14.59375 34.71875 
z
" id="ArialMT-79"/>
       <path d="M 6.59375 -19.875 
L 6.59375 51.859375 
L 14.59375 51.859375 
L 14.59375 45.125 
Q 17.4375 49.078125 21 51.046875 
Q 24.5625 53.03125 29.640625 53.03125 
Q 36.28125 53.03125 41.359375 49.609375 
Q 46.4375 46.1875 49.015625 39.953125 
Q 51.609375 33.734375 51.609375 26.3125 
Q 51.609375 18.359375 48.75 11.984375 
Q 45.90625 5.609375 40.453125 2.21875 
Q 35.015625 -1.171875 29 -1.171875 
Q 24.609375 -1.171875 21.109375 0.6875 
Q 17.625 2.546875 15.375 5.375 
L 15.375 -19.875 
z
M 14.546875 25.640625 
Q 14.546875 15.625 18.59375 10.84375 
Q 22.65625 6.0625 28.421875 6.0625 
Q 34.28125 6.0625 38.453125 11.015625 
Q 42.625 15.96875 42.625 26.375 
Q 42.625 36.28125 38.546875 41.203125 
Q 34.46875 46.140625 28.8125 46.140625 
Q 23.1875 46.140625 18.859375 40.890625 
Q 14.546875 35.640625 14.546875 25.640625 
z
" id="ArialMT-112"/>
       <path d="M 40.234375 0 
L 40.234375 6.546875 
Q 35.296875 -1.171875 25.734375 -1.171875 
Q 19.53125 -1.171875 14.328125 2.25 
Q 9.125 5.671875 6.265625 11.796875 
Q 3.421875 17.921875 3.421875 25.875 
Q 3.421875 33.640625 6 39.96875 
Q 8.59375 46.296875 13.765625 49.65625 
Q 18.953125 53.03125 25.34375 53.03125 
Q 30.03125 53.03125 33.6875 51.046875 
Q 37.359375 49.078125 39.65625 45.90625 
L 39.65625 71.578125 
L 48.390625 71.578125 
L 48.390625 0 
z
M 12.453125 25.875 
Q 12.453125 15.921875 16.640625 10.984375 
Q 20.84375 6.0625 26.5625 6.0625 
Q 32.328125 6.0625 36.34375 10.765625 
Q 40.375 15.484375 40.375 25.140625 
Q 40.375 35.796875 36.265625 40.765625 
Q 32.171875 45.75 26.171875 45.75 
Q 20.3125 45.75 16.375 40.96875 
Q 12.453125 36.1875 12.453125 25.875 
z
" id="ArialMT-100"/>
      </defs>
      <use xlink:href="#ArialMT-79"/>
      <use x="77.783203" xlink:href="#ArialMT-117"/>
      <use x="133.398438" xlink:href="#ArialMT-116"/>
      <use x="161.181641" xlink:href="#ArialMT-112"/>
      <use x="216.796875" xlink:href="#ArialMT-117"/>
      <use x="272.412109" xlink:href="#ArialMT-116"/>
      <use x="300.195312" xlink:href="#ArialMT-32"/>
      <use x="327.978516" xlink:href="#ArialMT-100"/>
      <use x="383.59375" xlink:href="#ArialMT-105"/>
      <use x="405.810547" xlink:href="#ArialMT-109"/>
      <use x="489.111328" xlink:href="#ArialMT-101"/>
      <use x="544.726562" xlink:href="#ArialMT-110"/>
      <use x="600.341797" xlink:href="#ArialMT-115"/>
      <use x="650.341797" xlink:href="#ArialMT-105"/>
      <use x="672.558594" xlink:href="#ArialMT-111"/>
      <use x="728.173828" xlink:href="#ArialMT-110"/>
     </g>
    </g>
    <g id="line2d_20">
     <path d="M 140.684062 92.7975 
L 164.684062 92.7975 
" style="fill:none;stroke:#db5f57;stroke-linecap:round;stroke-width:1.5;"/>
    </g>
    <g id="line2d_21"/>
    <g id="text_20">
     <!-- 2.0 -->
     <g style="fill:#262626;" transform="translate(174.284062 96.9975)scale(0.12 -0.12)">
      <defs>
       <path d="M 9.078125 0 
L 9.078125 10.015625 
L 19.09375 10.015625 
L 19.09375 0 
z
" id="ArialMT-46"/>
      </defs>
      <use xlink:href="#ArialMT-50"/>
      <use x="55.615234" xlink:href="#ArialMT-46"/>
      <use x="83.398438" xlink:href="#ArialMT-48"/>
     </g>
    </g>
    <g id="line2d_22">
     <path d="M 140.684062 109.771875 
L 164.684062 109.771875 
" style="fill:none;stroke:#57d3db;stroke-linecap:round;stroke-width:1.5;"/>
    </g>
    <g id="line2d_23"/>
    <g id="text_21">
     <!-- 4.0 -->
     <g style="fill:#262626;" transform="translate(174.284062 113.971875)scale(0.12 -0.12)">
      <defs>
       <path d="M 32.328125 0 
L 32.328125 17.140625 
L 1.265625 17.140625 
L 1.265625 25.203125 
L 33.9375 71.578125 
L 41.109375 71.578125 
L 41.109375 25.203125 
L 50.78125 25.203125 
L 50.78125 17.140625 
L 41.109375 17.140625 
L 41.109375 0 
z
M 32.328125 25.203125 
L 32.328125 57.46875 
L 9.90625 25.203125 
z
" id="ArialMT-52"/>
      </defs>
      <use xlink:href="#ArialMT-52"/>
      <use x="55.615234" xlink:href="#ArialMT-46"/>
      <use x="83.398438" xlink:href="#ArialMT-48"/>
     </g>
    </g>
   </g>
  </g>
 </g>
 <defs>
  <clipPath id="p571fd9a14f">
   <rect height="388.08" width="669.6" x="108" y="60.48"/>
  </clipPath>
 </defs>
</svg>
