<?xml version="1.0" encoding="utf-8" standalone="no"?>
<!DOCTYPE svg PUBLIC "-//W3C//DTD SVG 1.1//EN"
  "http://www.w3.org/Graphics/SVG/1.1/DTD/svg11.dtd">
<!-- Created with matplotlib (https://matplotlib.org/) -->
<svg height="504pt" version="1.1" viewBox="0 0 864 504" width="864pt" xmlns="http://www.w3.org/2000/svg" xmlns:xlink="http://www.w3.org/1999/xlink">
 <metadata>
  <rdf:RDF xmlns:cc="http://creativecommons.org/ns#" xmlns:dc="http://purl.org/dc/elements/1.1/" xmlns:rdf="http://www.w3.org/1999/02/22-rdf-syntax-ns#">
   <cc:Work>
    <dc:type rdf:resource="http://purl.org/dc/dcmitype/StillImage"/>
    <dc:date>2021-05-23T03:35:55.068004</dc:date>
    <dc:format>image/svg+xml</dc:format>
    <dc:creator>
     <cc:Agent>
      <dc:title>Matplotlib v3.3.2, https://matplotlib.org/</dc:title>
     </cc:Agent>
    </dc:creator>
   </cc:Work>
  </rdf:RDF>
 </metadata>
 <defs>
  <style type="text/css">*{stroke-linecap:butt;stroke-linejoin:round;}</style>
 </defs>
 <g id="figure_1">
  <g id="patch_1">
   <path d="M 0 504 
L 864 504 
L 864 0 
L 0 0 
z
" style="fill:#ffffff;"/>
  </g>
  <g id="axes_1">
   <g id="patch_2">
    <path d="M 108 448.56 
L 777.6 448.56 
L 777.6 60.48 
L 108 60.48 
z
" style="fill:#eaeaf2;"/>
   </g>
   <g id="matplotlib.axis_1">
    <g id="xtick_1">
     <g id="line2d_1">
      <path clip-path="url(#p75d29a4bf5)" d="M 176.676923 448.56 
L 176.676923 60.48 
" style="fill:none;stroke:#ffffff;stroke-linecap:round;stroke-width:0.8;"/>
     </g>
     <g id="text_1">
      <!-- 25 -->
      <g style="fill:#262626;" transform="translate(170.314423 463.158437)scale(0.1 -0.1)">
       <defs>
        <path d="M 19.1875 8.296875 
L 53.609375 8.296875 
L 53.609375 0 
L 7.328125 0 
L 7.328125 8.296875 
Q 12.9375 14.109375 22.625 23.890625 
Q 32.328125 33.6875 34.8125 36.53125 
Q 39.546875 41.84375 41.421875 45.53125 
Q 43.3125 49.21875 43.3125 52.78125 
Q 43.3125 58.59375 39.234375 62.25 
Q 35.15625 65.921875 28.609375 65.921875 
Q 23.96875 65.921875 18.8125 64.3125 
Q 13.671875 62.703125 7.8125 59.421875 
L 7.8125 69.390625 
Q 13.765625 71.78125 18.9375 73 
Q 24.125 74.21875 28.421875 74.21875 
Q 39.75 74.21875 46.484375 68.546875 
Q 53.21875 62.890625 53.21875 53.421875 
Q 53.21875 48.921875 51.53125 44.890625 
Q 49.859375 40.875 45.40625 35.40625 
Q 44.1875 33.984375 37.640625 27.21875 
Q 31.109375 20.453125 19.1875 8.296875 
z
" id="DejaVuSans-50"/>
        <path d="M 10.796875 72.90625 
L 49.515625 72.90625 
L 49.515625 64.59375 
L 19.828125 64.59375 
L 19.828125 46.734375 
Q 21.96875 47.46875 24.109375 47.828125 
Q 26.265625 48.1875 28.421875 48.1875 
Q 40.625 48.1875 47.75 41.5 
Q 54.890625 34.8125 54.890625 23.390625 
Q 54.890625 11.625 47.5625 5.09375 
Q 40.234375 -1.421875 26.90625 -1.421875 
Q 22.3125 -1.421875 17.546875 -0.640625 
Q 12.796875 0.140625 7.71875 1.703125 
L 7.71875 11.625 
Q 12.109375 9.234375 16.796875 8.0625 
Q 21.484375 6.890625 26.703125 6.890625 
Q 35.15625 6.890625 40.078125 11.328125 
Q 45.015625 15.765625 45.015625 23.390625 
Q 45.015625 31 40.078125 35.4375 
Q 35.15625 39.890625 26.703125 39.890625 
Q 22.75 39.890625 18.8125 39.015625 
Q 14.890625 38.140625 10.796875 36.28125 
z
" id="DejaVuSans-53"/>
       </defs>
       <use xlink:href="#DejaVuSans-50"/>
       <use x="63.623047" xlink:href="#DejaVuSans-53"/>
      </g>
     </g>
    </g>
    <g id="xtick_2">
     <g id="line2d_2">
      <path clip-path="url(#p75d29a4bf5)" d="M 262.523077 448.56 
L 262.523077 60.48 
" style="fill:none;stroke:#ffffff;stroke-linecap:round;stroke-width:0.8;"/>
     </g>
     <g id="text_2">
      <!-- 50 -->
      <g style="fill:#262626;" transform="translate(256.160577 463.158437)scale(0.1 -0.1)">
       <defs>
        <path d="M 31.78125 66.40625 
Q 24.171875 66.40625 20.328125 58.90625 
Q 16.5 51.421875 16.5 36.375 
Q 16.5 21.390625 20.328125 13.890625 
Q 24.171875 6.390625 31.78125 6.390625 
Q 39.453125 6.390625 43.28125 13.890625 
Q 47.125 21.390625 47.125 36.375 
Q 47.125 51.421875 43.28125 58.90625 
Q 39.453125 66.40625 31.78125 66.40625 
z
M 31.78125 74.21875 
Q 44.046875 74.21875 50.515625 64.515625 
Q 56.984375 54.828125 56.984375 36.375 
Q 56.984375 17.96875 50.515625 8.265625 
Q 44.046875 -1.421875 31.78125 -1.421875 
Q 19.53125 -1.421875 13.0625 8.265625 
Q 6.59375 17.96875 6.59375 36.375 
Q 6.59375 54.828125 13.0625 64.515625 
Q 19.53125 74.21875 31.78125 74.21875 
z
" id="DejaVuSans-48"/>
       </defs>
       <use xlink:href="#DejaVuSans-53"/>
       <use x="63.623047" xlink:href="#DejaVuSans-48"/>
      </g>
     </g>
    </g>
    <g id="xtick_3">
     <g id="line2d_3">
      <path clip-path="url(#p75d29a4bf5)" d="M 348.369231 448.56 
L 348.369231 60.48 
" style="fill:none;stroke:#ffffff;stroke-linecap:round;stroke-width:0.8;"/>
     </g>
     <g id="text_3">
      <!-- 75 -->
      <g style="fill:#262626;" transform="translate(342.006731 463.158437)scale(0.1 -0.1)">
       <defs>
        <path d="M 8.203125 72.90625 
L 55.078125 72.90625 
L 55.078125 68.703125 
L 28.609375 0 
L 18.3125 0 
L 43.21875 64.59375 
L 8.203125 64.59375 
z
" id="DejaVuSans-55"/>
       </defs>
       <use xlink:href="#DejaVuSans-55"/>
       <use x="63.623047" xlink:href="#DejaVuSans-53"/>
      </g>
     </g>
    </g>
    <g id="xtick_4">
     <g id="line2d_4">
      <path clip-path="url(#p75d29a4bf5)" d="M 434.215385 448.56 
L 434.215385 60.48 
" style="fill:none;stroke:#ffffff;stroke-linecap:round;stroke-width:0.8;"/>
     </g>
     <g id="text_4">
      <!-- 100 -->
      <g style="fill:#262626;" transform="translate(424.671635 463.158437)scale(0.1 -0.1)">
       <defs>
        <path d="M 12.40625 8.296875 
L 28.515625 8.296875 
L 28.515625 63.921875 
L 10.984375 60.40625 
L 10.984375 69.390625 
L 28.421875 72.90625 
L 38.28125 72.90625 
L 38.28125 8.296875 
L 54.390625 8.296875 
L 54.390625 0 
L 12.40625 0 
z
" id="DejaVuSans-49"/>
       </defs>
       <use xlink:href="#DejaVuSans-49"/>
       <use x="63.623047" xlink:href="#DejaVuSans-48"/>
       <use x="127.246094" xlink:href="#DejaVuSans-48"/>
      </g>
     </g>
    </g>
    <g id="xtick_5">
     <g id="line2d_5">
      <path clip-path="url(#p75d29a4bf5)" d="M 520.061538 448.56 
L 520.061538 60.48 
" style="fill:none;stroke:#ffffff;stroke-linecap:round;stroke-width:0.8;"/>
     </g>
     <g id="text_5">
      <!-- 125 -->
      <g style="fill:#262626;" transform="translate(510.517788 463.158437)scale(0.1 -0.1)">
       <use xlink:href="#DejaVuSans-49"/>
       <use x="63.623047" xlink:href="#DejaVuSans-50"/>
       <use x="127.246094" xlink:href="#DejaVuSans-53"/>
      </g>
     </g>
    </g>
    <g id="xtick_6">
     <g id="line2d_6">
      <path clip-path="url(#p75d29a4bf5)" d="M 605.907692 448.56 
L 605.907692 60.48 
" style="fill:none;stroke:#ffffff;stroke-linecap:round;stroke-width:0.8;"/>
     </g>
     <g id="text_6">
      <!-- 150 -->
      <g style="fill:#262626;" transform="translate(596.363942 463.158437)scale(0.1 -0.1)">
       <use xlink:href="#DejaVuSans-49"/>
       <use x="63.623047" xlink:href="#DejaVuSans-53"/>
       <use x="127.246094" xlink:href="#DejaVuSans-48"/>
      </g>
     </g>
    </g>
    <g id="xtick_7">
     <g id="line2d_7">
      <path clip-path="url(#p75d29a4bf5)" d="M 691.753846 448.56 
L 691.753846 60.48 
" style="fill:none;stroke:#ffffff;stroke-linecap:round;stroke-width:0.8;"/>
     </g>
     <g id="text_7">
      <!-- 175 -->
      <g style="fill:#262626;" transform="translate(682.210096 463.158437)scale(0.1 -0.1)">
       <use xlink:href="#DejaVuSans-49"/>
       <use x="63.623047" xlink:href="#DejaVuSans-55"/>
       <use x="127.246094" xlink:href="#DejaVuSans-53"/>
      </g>
     </g>
    </g>
    <g id="xtick_8">
     <g id="line2d_8">
      <path clip-path="url(#p75d29a4bf5)" d="M 777.6 448.56 
L 777.6 60.48 
" style="fill:none;stroke:#ffffff;stroke-linecap:round;stroke-width:0.8;"/>
     </g>
     <g id="text_8">
      <!-- 200 -->
      <g style="fill:#262626;" transform="translate(768.05625 463.158437)scale(0.1 -0.1)">
       <use xlink:href="#DejaVuSans-50"/>
       <use x="63.623047" xlink:href="#DejaVuSans-48"/>
       <use x="127.246094" xlink:href="#DejaVuSans-48"/>
      </g>
     </g>
    </g>
    <g id="text_9">
     <!-- Number of neighbors -->
     <g style="fill:#262626;" transform="translate(368.663437 479.875938)scale(0.14 -0.14)">
      <defs>
       <path d="M 9.8125 72.90625 
L 23.09375 72.90625 
L 55.421875 11.921875 
L 55.421875 72.90625 
L 64.984375 72.90625 
L 64.984375 0 
L 51.703125 0 
L 19.390625 60.984375 
L 19.390625 0 
L 9.8125 0 
z
" id="DejaVuSans-78"/>
       <path d="M 8.5 21.578125 
L 8.5 54.6875 
L 17.484375 54.6875 
L 17.484375 21.921875 
Q 17.484375 14.15625 20.5 10.265625 
Q 23.53125 6.390625 29.59375 6.390625 
Q 36.859375 6.390625 41.078125 11.03125 
Q 45.3125 15.671875 45.3125 23.6875 
L 45.3125 54.6875 
L 54.296875 54.6875 
L 54.296875 0 
L 45.3125 0 
L 45.3125 8.40625 
Q 42.046875 3.421875 37.71875 1 
Q 33.40625 -1.421875 27.6875 -1.421875 
Q 18.265625 -1.421875 13.375 4.4375 
Q 8.5 10.296875 8.5 21.578125 
z
M 31.109375 56 
z
" id="DejaVuSans-117"/>
       <path d="M 52 44.1875 
Q 55.375 50.25 60.0625 53.125 
Q 64.75 56 71.09375 56 
Q 79.640625 56 84.28125 50.015625 
Q 88.921875 44.046875 88.921875 33.015625 
L 88.921875 0 
L 79.890625 0 
L 79.890625 32.71875 
Q 79.890625 40.578125 77.09375 44.375 
Q 74.3125 48.1875 68.609375 48.1875 
Q 61.625 48.1875 57.5625 43.546875 
Q 53.515625 38.921875 53.515625 30.90625 
L 53.515625 0 
L 44.484375 0 
L 44.484375 32.71875 
Q 44.484375 40.625 41.703125 44.40625 
Q 38.921875 48.1875 33.109375 48.1875 
Q 26.21875 48.1875 22.15625 43.53125 
Q 18.109375 38.875 18.109375 30.90625 
L 18.109375 0 
L 9.078125 0 
L 9.078125 54.6875 
L 18.109375 54.6875 
L 18.109375 46.1875 
Q 21.1875 51.21875 25.484375 53.609375 
Q 29.78125 56 35.6875 56 
Q 41.65625 56 45.828125 52.96875 
Q 50 49.953125 52 44.1875 
z
" id="DejaVuSans-109"/>
       <path d="M 48.6875 27.296875 
Q 48.6875 37.203125 44.609375 42.84375 
Q 40.53125 48.484375 33.40625 48.484375 
Q 26.265625 48.484375 22.1875 42.84375 
Q 18.109375 37.203125 18.109375 27.296875 
Q 18.109375 17.390625 22.1875 11.75 
Q 26.265625 6.109375 33.40625 6.109375 
Q 40.53125 6.109375 44.609375 11.75 
Q 48.6875 17.390625 48.6875 27.296875 
z
M 18.109375 46.390625 
Q 20.953125 51.265625 25.265625 53.625 
Q 29.59375 56 35.59375 56 
Q 45.5625 56 51.78125 48.09375 
Q 58.015625 40.1875 58.015625 27.296875 
Q 58.015625 14.40625 51.78125 6.484375 
Q 45.5625 -1.421875 35.59375 -1.421875 
Q 29.59375 -1.421875 25.265625 0.953125 
Q 20.953125 3.328125 18.109375 8.203125 
L 18.109375 0 
L 9.078125 0 
L 9.078125 75.984375 
L 18.109375 75.984375 
z
" id="DejaVuSans-98"/>
       <path d="M 56.203125 29.59375 
L 56.203125 25.203125 
L 14.890625 25.203125 
Q 15.484375 15.921875 20.484375 11.0625 
Q 25.484375 6.203125 34.421875 6.203125 
Q 39.59375 6.203125 44.453125 7.46875 
Q 49.3125 8.734375 54.109375 11.28125 
L 54.109375 2.78125 
Q 49.265625 0.734375 44.1875 -0.34375 
Q 39.109375 -1.421875 33.890625 -1.421875 
Q 20.796875 -1.421875 13.15625 6.1875 
Q 5.515625 13.8125 5.515625 26.8125 
Q 5.515625 40.234375 12.765625 48.109375 
Q 20.015625 56 32.328125 56 
Q 43.359375 56 49.78125 48.890625 
Q 56.203125 41.796875 56.203125 29.59375 
z
M 47.21875 32.234375 
Q 47.125 39.59375 43.09375 43.984375 
Q 39.0625 48.390625 32.421875 48.390625 
Q 24.90625 48.390625 20.390625 44.140625 
Q 15.875 39.890625 15.1875 32.171875 
z
" id="DejaVuSans-101"/>
       <path d="M 41.109375 46.296875 
Q 39.59375 47.171875 37.8125 47.578125 
Q 36.03125 48 33.890625 48 
Q 26.265625 48 22.1875 43.046875 
Q 18.109375 38.09375 18.109375 28.8125 
L 18.109375 0 
L 9.078125 0 
L 9.078125 54.6875 
L 18.109375 54.6875 
L 18.109375 46.1875 
Q 20.953125 51.171875 25.484375 53.578125 
Q 30.03125 56 36.53125 56 
Q 37.453125 56 38.578125 55.875 
Q 39.703125 55.765625 41.0625 55.515625 
z
" id="DejaVuSans-114"/>
       <path id="DejaVuSans-32"/>
       <path d="M 30.609375 48.390625 
Q 23.390625 48.390625 19.1875 42.75 
Q 14.984375 37.109375 14.984375 27.296875 
Q 14.984375 17.484375 19.15625 11.84375 
Q 23.34375 6.203125 30.609375 6.203125 
Q 37.796875 6.203125 41.984375 11.859375 
Q 46.1875 17.53125 46.1875 27.296875 
Q 46.1875 37.015625 41.984375 42.703125 
Q 37.796875 48.390625 30.609375 48.390625 
z
M 30.609375 56 
Q 42.328125 56 49.015625 48.375 
Q 55.71875 40.765625 55.71875 27.296875 
Q 55.71875 13.875 49.015625 6.21875 
Q 42.328125 -1.421875 30.609375 -1.421875 
Q 18.84375 -1.421875 12.171875 6.21875 
Q 5.515625 13.875 5.515625 27.296875 
Q 5.515625 40.765625 12.171875 48.375 
Q 18.84375 56 30.609375 56 
z
" id="DejaVuSans-111"/>
       <path d="M 37.109375 75.984375 
L 37.109375 68.5 
L 28.515625 68.5 
Q 23.6875 68.5 21.796875 66.546875 
Q 19.921875 64.59375 19.921875 59.515625 
L 19.921875 54.6875 
L 34.71875 54.6875 
L 34.71875 47.703125 
L 19.921875 47.703125 
L 19.921875 0 
L 10.890625 0 
L 10.890625 47.703125 
L 2.296875 47.703125 
L 2.296875 54.6875 
L 10.890625 54.6875 
L 10.890625 58.5 
Q 10.890625 67.625 15.140625 71.796875 
Q 19.390625 75.984375 28.609375 75.984375 
z
" id="DejaVuSans-102"/>
       <path d="M 54.890625 33.015625 
L 54.890625 0 
L 45.90625 0 
L 45.90625 32.71875 
Q 45.90625 40.484375 42.875 44.328125 
Q 39.84375 48.1875 33.796875 48.1875 
Q 26.515625 48.1875 22.3125 43.546875 
Q 18.109375 38.921875 18.109375 30.90625 
L 18.109375 0 
L 9.078125 0 
L 9.078125 54.6875 
L 18.109375 54.6875 
L 18.109375 46.1875 
Q 21.34375 51.125 25.703125 53.5625 
Q 30.078125 56 35.796875 56 
Q 45.21875 56 50.046875 50.171875 
Q 54.890625 44.34375 54.890625 33.015625 
z
" id="DejaVuSans-110"/>
       <path d="M 9.421875 54.6875 
L 18.40625 54.6875 
L 18.40625 0 
L 9.421875 0 
z
M 9.421875 75.984375 
L 18.40625 75.984375 
L 18.40625 64.59375 
L 9.421875 64.59375 
z
" id="DejaVuSans-105"/>
       <path d="M 45.40625 27.984375 
Q 45.40625 37.75 41.375 43.109375 
Q 37.359375 48.484375 30.078125 48.484375 
Q 22.859375 48.484375 18.828125 43.109375 
Q 14.796875 37.75 14.796875 27.984375 
Q 14.796875 18.265625 18.828125 12.890625 
Q 22.859375 7.515625 30.078125 7.515625 
Q 37.359375 7.515625 41.375 12.890625 
Q 45.40625 18.265625 45.40625 27.984375 
z
M 54.390625 6.78125 
Q 54.390625 -7.171875 48.1875 -13.984375 
Q 42 -20.796875 29.203125 -20.796875 
Q 24.46875 -20.796875 20.265625 -20.09375 
Q 16.0625 -19.390625 12.109375 -17.921875 
L 12.109375 -9.1875 
Q 16.0625 -11.328125 19.921875 -12.34375 
Q 23.78125 -13.375 27.78125 -13.375 
Q 36.625 -13.375 41.015625 -8.765625 
Q 45.40625 -4.15625 45.40625 5.171875 
L 45.40625 9.625 
Q 42.625 4.78125 38.28125 2.390625 
Q 33.9375 0 27.875 0 
Q 17.828125 0 11.671875 7.65625 
Q 5.515625 15.328125 5.515625 27.984375 
Q 5.515625 40.671875 11.671875 48.328125 
Q 17.828125 56 27.875 56 
Q 33.9375 56 38.28125 53.609375 
Q 42.625 51.21875 45.40625 46.390625 
L 45.40625 54.6875 
L 54.390625 54.6875 
z
" id="DejaVuSans-103"/>
       <path d="M 54.890625 33.015625 
L 54.890625 0 
L 45.90625 0 
L 45.90625 32.71875 
Q 45.90625 40.484375 42.875 44.328125 
Q 39.84375 48.1875 33.796875 48.1875 
Q 26.515625 48.1875 22.3125 43.546875 
Q 18.109375 38.921875 18.109375 30.90625 
L 18.109375 0 
L 9.078125 0 
L 9.078125 75.984375 
L 18.109375 75.984375 
L 18.109375 46.1875 
Q 21.34375 51.125 25.703125 53.5625 
Q 30.078125 56 35.796875 56 
Q 45.21875 56 50.046875 50.171875 
Q 54.890625 44.34375 54.890625 33.015625 
z
" id="DejaVuSans-104"/>
       <path d="M 44.28125 53.078125 
L 44.28125 44.578125 
Q 40.484375 46.53125 36.375 47.5 
Q 32.28125 48.484375 27.875 48.484375 
Q 21.1875 48.484375 17.84375 46.4375 
Q 14.5 44.390625 14.5 40.28125 
Q 14.5 37.15625 16.890625 35.375 
Q 19.28125 33.59375 26.515625 31.984375 
L 29.59375 31.296875 
Q 39.15625 29.25 43.1875 25.515625 
Q 47.21875 21.78125 47.21875 15.09375 
Q 47.21875 7.46875 41.1875 3.015625 
Q 35.15625 -1.421875 24.609375 -1.421875 
Q 20.21875 -1.421875 15.453125 -0.5625 
Q 10.6875 0.296875 5.421875 2 
L 5.421875 11.28125 
Q 10.40625 8.6875 15.234375 7.390625 
Q 20.0625 6.109375 24.8125 6.109375 
Q 31.15625 6.109375 34.5625 8.28125 
Q 37.984375 10.453125 37.984375 14.40625 
Q 37.984375 18.0625 35.515625 20.015625 
Q 33.0625 21.96875 24.703125 23.78125 
L 21.578125 24.515625 
Q 13.234375 26.265625 9.515625 29.90625 
Q 5.8125 33.546875 5.8125 39.890625 
Q 5.8125 47.609375 11.28125 51.796875 
Q 16.75 56 26.8125 56 
Q 31.78125 56 36.171875 55.265625 
Q 40.578125 54.546875 44.28125 53.078125 
z
" id="DejaVuSans-115"/>
      </defs>
      <use xlink:href="#DejaVuSans-78"/>
      <use x="74.804688" xlink:href="#DejaVuSans-117"/>
      <use x="138.183594" xlink:href="#DejaVuSans-109"/>
      <use x="235.595703" xlink:href="#DejaVuSans-98"/>
      <use x="299.072266" xlink:href="#DejaVuSans-101"/>
      <use x="360.595703" xlink:href="#DejaVuSans-114"/>
      <use x="401.708984" xlink:href="#DejaVuSans-32"/>
      <use x="433.496094" xlink:href="#DejaVuSans-111"/>
      <use x="494.677734" xlink:href="#DejaVuSans-102"/>
      <use x="529.882812" xlink:href="#DejaVuSans-32"/>
      <use x="561.669922" xlink:href="#DejaVuSans-110"/>
      <use x="625.048828" xlink:href="#DejaVuSans-101"/>
      <use x="686.572266" xlink:href="#DejaVuSans-105"/>
      <use x="714.355469" xlink:href="#DejaVuSans-103"/>
      <use x="777.832031" xlink:href="#DejaVuSans-104"/>
      <use x="841.210938" xlink:href="#DejaVuSans-98"/>
      <use x="904.6875" xlink:href="#DejaVuSans-111"/>
      <use x="965.869141" xlink:href="#DejaVuSans-114"/>
      <use x="1006.982422" xlink:href="#DejaVuSans-115"/>
     </g>
    </g>
   </g>
   <g id="matplotlib.axis_2">
    <g id="ytick_1">
     <g id="line2d_9">
      <path clip-path="url(#p75d29a4bf5)" d="M 108 433.783714 
L 777.6 433.783714 
" style="fill:none;stroke:#ffffff;stroke-linecap:round;stroke-width:0.8;"/>
     </g>
     <g id="text_10">
      <!-- 0.2 -->
      <g style="fill:#262626;" transform="translate(85.096875 437.582933)scale(0.1 -0.1)">
       <defs>
        <path d="M 10.6875 12.40625 
L 21 12.40625 
L 21 0 
L 10.6875 0 
z
" id="DejaVuSans-46"/>
       </defs>
       <use xlink:href="#DejaVuSans-48"/>
       <use x="63.623047" xlink:href="#DejaVuSans-46"/>
       <use x="95.410156" xlink:href="#DejaVuSans-50"/>
      </g>
     </g>
    </g>
    <g id="ytick_2">
     <g id="line2d_10">
      <path clip-path="url(#p75d29a4bf5)" d="M 108 351.49928 
L 777.6 351.49928 
" style="fill:none;stroke:#ffffff;stroke-linecap:round;stroke-width:0.8;"/>
     </g>
     <g id="text_11">
      <!-- 0.4 -->
      <g style="fill:#262626;" transform="translate(85.096875 355.298498)scale(0.1 -0.1)">
       <defs>
        <path d="M 37.796875 64.3125 
L 12.890625 25.390625 
L 37.796875 25.390625 
z
M 35.203125 72.90625 
L 47.609375 72.90625 
L 47.609375 25.390625 
L 58.015625 25.390625 
L 58.015625 17.1875 
L 47.609375 17.1875 
L 47.609375 0 
L 37.796875 0 
L 37.796875 17.1875 
L 4.890625 17.1875 
L 4.890625 26.703125 
z
" id="DejaVuSans-52"/>
       </defs>
       <use xlink:href="#DejaVuSans-48"/>
       <use x="63.623047" xlink:href="#DejaVuSans-46"/>
       <use x="95.410156" xlink:href="#DejaVuSans-52"/>
      </g>
     </g>
    </g>
    <g id="ytick_3">
     <g id="line2d_11">
      <path clip-path="url(#p75d29a4bf5)" d="M 108 269.214845 
L 777.6 269.214845 
" style="fill:none;stroke:#ffffff;stroke-linecap:round;stroke-width:0.8;"/>
     </g>
     <g id="text_12">
      <!-- 0.6 -->
      <g style="fill:#262626;" transform="translate(85.096875 273.014064)scale(0.1 -0.1)">
       <defs>
        <path d="M 33.015625 40.375 
Q 26.375 40.375 22.484375 35.828125 
Q 18.609375 31.296875 18.609375 23.390625 
Q 18.609375 15.53125 22.484375 10.953125 
Q 26.375 6.390625 33.015625 6.390625 
Q 39.65625 6.390625 43.53125 10.953125 
Q 47.40625 15.53125 47.40625 23.390625 
Q 47.40625 31.296875 43.53125 35.828125 
Q 39.65625 40.375 33.015625 40.375 
z
M 52.59375 71.296875 
L 52.59375 62.3125 
Q 48.875 64.0625 45.09375 64.984375 
Q 41.3125 65.921875 37.59375 65.921875 
Q 27.828125 65.921875 22.671875 59.328125 
Q 17.53125 52.734375 16.796875 39.40625 
Q 19.671875 43.65625 24.015625 45.921875 
Q 28.375 48.1875 33.59375 48.1875 
Q 44.578125 48.1875 50.953125 41.515625 
Q 57.328125 34.859375 57.328125 23.390625 
Q 57.328125 12.15625 50.6875 5.359375 
Q 44.046875 -1.421875 33.015625 -1.421875 
Q 20.359375 -1.421875 13.671875 8.265625 
Q 6.984375 17.96875 6.984375 36.375 
Q 6.984375 53.65625 15.1875 63.9375 
Q 23.390625 74.21875 37.203125 74.21875 
Q 40.921875 74.21875 44.703125 73.484375 
Q 48.484375 72.75 52.59375 71.296875 
z
" id="DejaVuSans-54"/>
       </defs>
       <use xlink:href="#DejaVuSans-48"/>
       <use x="63.623047" xlink:href="#DejaVuSans-46"/>
       <use x="95.410156" xlink:href="#DejaVuSans-54"/>
      </g>
     </g>
    </g>
    <g id="ytick_4">
     <g id="line2d_12">
      <path clip-path="url(#p75d29a4bf5)" d="M 108 186.93041 
L 777.6 186.93041 
" style="fill:none;stroke:#ffffff;stroke-linecap:round;stroke-width:0.8;"/>
     </g>
     <g id="text_13">
      <!-- 0.8 -->
      <g style="fill:#262626;" transform="translate(85.096875 190.729629)scale(0.1 -0.1)">
       <defs>
        <path d="M 31.78125 34.625 
Q 24.75 34.625 20.71875 30.859375 
Q 16.703125 27.09375 16.703125 20.515625 
Q 16.703125 13.921875 20.71875 10.15625 
Q 24.75 6.390625 31.78125 6.390625 
Q 38.8125 6.390625 42.859375 10.171875 
Q 46.921875 13.96875 46.921875 20.515625 
Q 46.921875 27.09375 42.890625 30.859375 
Q 38.875 34.625 31.78125 34.625 
z
M 21.921875 38.8125 
Q 15.578125 40.375 12.03125 44.71875 
Q 8.5 49.078125 8.5 55.328125 
Q 8.5 64.0625 14.71875 69.140625 
Q 20.953125 74.21875 31.78125 74.21875 
Q 42.671875 74.21875 48.875 69.140625 
Q 55.078125 64.0625 55.078125 55.328125 
Q 55.078125 49.078125 51.53125 44.71875 
Q 48 40.375 41.703125 38.8125 
Q 48.828125 37.15625 52.796875 32.3125 
Q 56.78125 27.484375 56.78125 20.515625 
Q 56.78125 9.90625 50.3125 4.234375 
Q 43.84375 -1.421875 31.78125 -1.421875 
Q 19.734375 -1.421875 13.25 4.234375 
Q 6.78125 9.90625 6.78125 20.515625 
Q 6.78125 27.484375 10.78125 32.3125 
Q 14.796875 37.15625 21.921875 38.8125 
z
M 18.3125 54.390625 
Q 18.3125 48.734375 21.84375 45.5625 
Q 25.390625 42.390625 31.78125 42.390625 
Q 38.140625 42.390625 41.71875 45.5625 
Q 45.3125 48.734375 45.3125 54.390625 
Q 45.3125 60.0625 41.71875 63.234375 
Q 38.140625 66.40625 31.78125 66.40625 
Q 25.390625 66.40625 21.84375 63.234375 
Q 18.3125 60.0625 18.3125 54.390625 
z
" id="DejaVuSans-56"/>
       </defs>
       <use xlink:href="#DejaVuSans-48"/>
       <use x="63.623047" xlink:href="#DejaVuSans-46"/>
       <use x="95.410156" xlink:href="#DejaVuSans-56"/>
      </g>
     </g>
    </g>
    <g id="ytick_5">
     <g id="line2d_13">
      <path clip-path="url(#p75d29a4bf5)" d="M 108 104.645975 
L 777.6 104.645975 
" style="fill:none;stroke:#ffffff;stroke-linecap:round;stroke-width:0.8;"/>
     </g>
     <g id="text_14">
      <!-- 1.0 -->
      <g style="fill:#262626;" transform="translate(85.096875 108.445194)scale(0.1 -0.1)">
       <use xlink:href="#DejaVuSans-49"/>
       <use x="63.623047" xlink:href="#DejaVuSans-46"/>
       <use x="95.410156" xlink:href="#DejaVuSans-48"/>
      </g>
     </g>
    </g>
    <g id="text_15">
     <!-- Residual variance -->
     <g style="fill:#262626;" transform="translate(78.185312 316.44375)rotate(-90)scale(0.14 -0.14)">
      <defs>
       <path d="M 44.390625 34.1875 
Q 47.5625 33.109375 50.5625 29.59375 
Q 53.5625 26.078125 56.59375 19.921875 
L 66.609375 0 
L 56 0 
L 46.6875 18.703125 
Q 43.0625 26.03125 39.671875 28.421875 
Q 36.28125 30.8125 30.421875 30.8125 
L 19.671875 30.8125 
L 19.671875 0 
L 9.8125 0 
L 9.8125 72.90625 
L 32.078125 72.90625 
Q 44.578125 72.90625 50.734375 67.671875 
Q 56.890625 62.453125 56.890625 51.90625 
Q 56.890625 45.015625 53.6875 40.46875 
Q 50.484375 35.9375 44.390625 34.1875 
z
M 19.671875 64.796875 
L 19.671875 38.921875 
L 32.078125 38.921875 
Q 39.203125 38.921875 42.84375 42.21875 
Q 46.484375 45.515625 46.484375 51.90625 
Q 46.484375 58.296875 42.84375 61.546875 
Q 39.203125 64.796875 32.078125 64.796875 
z
" id="DejaVuSans-82"/>
       <path d="M 45.40625 46.390625 
L 45.40625 75.984375 
L 54.390625 75.984375 
L 54.390625 0 
L 45.40625 0 
L 45.40625 8.203125 
Q 42.578125 3.328125 38.25 0.953125 
Q 33.9375 -1.421875 27.875 -1.421875 
Q 17.96875 -1.421875 11.734375 6.484375 
Q 5.515625 14.40625 5.515625 27.296875 
Q 5.515625 40.1875 11.734375 48.09375 
Q 17.96875 56 27.875 56 
Q 33.9375 56 38.25 53.625 
Q 42.578125 51.265625 45.40625 46.390625 
z
M 14.796875 27.296875 
Q 14.796875 17.390625 18.875 11.75 
Q 22.953125 6.109375 30.078125 6.109375 
Q 37.203125 6.109375 41.296875 11.75 
Q 45.40625 17.390625 45.40625 27.296875 
Q 45.40625 37.203125 41.296875 42.84375 
Q 37.203125 48.484375 30.078125 48.484375 
Q 22.953125 48.484375 18.875 42.84375 
Q 14.796875 37.203125 14.796875 27.296875 
z
" id="DejaVuSans-100"/>
       <path d="M 34.28125 27.484375 
Q 23.390625 27.484375 19.1875 25 
Q 14.984375 22.515625 14.984375 16.5 
Q 14.984375 11.71875 18.140625 8.90625 
Q 21.296875 6.109375 26.703125 6.109375 
Q 34.1875 6.109375 38.703125 11.40625 
Q 43.21875 16.703125 43.21875 25.484375 
L 43.21875 27.484375 
z
M 52.203125 31.203125 
L 52.203125 0 
L 43.21875 0 
L 43.21875 8.296875 
Q 40.140625 3.328125 35.546875 0.953125 
Q 30.953125 -1.421875 24.3125 -1.421875 
Q 15.921875 -1.421875 10.953125 3.296875 
Q 6 8.015625 6 15.921875 
Q 6 25.140625 12.171875 29.828125 
Q 18.359375 34.515625 30.609375 34.515625 
L 43.21875 34.515625 
L 43.21875 35.40625 
Q 43.21875 41.609375 39.140625 45 
Q 35.0625 48.390625 27.6875 48.390625 
Q 23 48.390625 18.546875 47.265625 
Q 14.109375 46.140625 10.015625 43.890625 
L 10.015625 52.203125 
Q 14.9375 54.109375 19.578125 55.046875 
Q 24.21875 56 28.609375 56 
Q 40.484375 56 46.34375 49.84375 
Q 52.203125 43.703125 52.203125 31.203125 
z
" id="DejaVuSans-97"/>
       <path d="M 9.421875 75.984375 
L 18.40625 75.984375 
L 18.40625 0 
L 9.421875 0 
z
" id="DejaVuSans-108"/>
       <path d="M 2.984375 54.6875 
L 12.5 54.6875 
L 29.59375 8.796875 
L 46.6875 54.6875 
L 56.203125 54.6875 
L 35.6875 0 
L 23.484375 0 
z
" id="DejaVuSans-118"/>
       <path d="M 48.78125 52.59375 
L 48.78125 44.1875 
Q 44.96875 46.296875 41.140625 47.34375 
Q 37.3125 48.390625 33.40625 48.390625 
Q 24.65625 48.390625 19.8125 42.84375 
Q 14.984375 37.3125 14.984375 27.296875 
Q 14.984375 17.28125 19.8125 11.734375 
Q 24.65625 6.203125 33.40625 6.203125 
Q 37.3125 6.203125 41.140625 7.25 
Q 44.96875 8.296875 48.78125 10.40625 
L 48.78125 2.09375 
Q 45.015625 0.34375 40.984375 -0.53125 
Q 36.96875 -1.421875 32.421875 -1.421875 
Q 20.0625 -1.421875 12.78125 6.34375 
Q 5.515625 14.109375 5.515625 27.296875 
Q 5.515625 40.671875 12.859375 48.328125 
Q 20.21875 56 33.015625 56 
Q 37.15625 56 41.109375 55.140625 
Q 45.0625 54.296875 48.78125 52.59375 
z
" id="DejaVuSans-99"/>
      </defs>
      <use xlink:href="#DejaVuSans-82"/>
      <use x="64.982422" xlink:href="#DejaVuSans-101"/>
      <use x="126.505859" xlink:href="#DejaVuSans-115"/>
      <use x="178.605469" xlink:href="#DejaVuSans-105"/>
      <use x="206.388672" xlink:href="#DejaVuSans-100"/>
      <use x="269.865234" xlink:href="#DejaVuSans-117"/>
      <use x="333.244141" xlink:href="#DejaVuSans-97"/>
      <use x="394.523438" xlink:href="#DejaVuSans-108"/>
      <use x="422.306641" xlink:href="#DejaVuSans-32"/>
      <use x="454.09375" xlink:href="#DejaVuSans-118"/>
      <use x="513.273438" xlink:href="#DejaVuSans-97"/>
      <use x="574.552734" xlink:href="#DejaVuSans-114"/>
      <use x="615.666016" xlink:href="#DejaVuSans-105"/>
      <use x="643.449219" xlink:href="#DejaVuSans-97"/>
      <use x="704.728516" xlink:href="#DejaVuSans-110"/>
      <use x="768.107422" xlink:href="#DejaVuSans-99"/>
      <use x="823.087891" xlink:href="#DejaVuSans-101"/>
     </g>
    </g>
   </g>
   <g id="PolyCollection_1">
    <defs>
     <path d="M 108 -412.463861 
L 108 -350.94516 
L 111.433846 -338.428992 
L 118.301538 -315.818583 
L 125.169231 -232.297072 
L 132.036923 -172.753706 
L 138.904615 -202.238802 
L 145.772308 -232.477082 
L 152.64 -272.827963 
L 159.507692 -220.342687 
L 166.375385 -297.543144 
L 173.243077 -204.919889 
L 180.110769 -210.163335 
L 186.978462 -231.764749 
L 193.846154 -316.899138 
L 200.713846 -239.506657 
L 207.581538 -180.203924 
L 214.449231 -227.079023 
L 221.316923 -204.580258 
L 228.184615 -134.323653 
L 235.052308 -124.777377 
L 241.92 -92.214465 
L 248.787692 -197.532634 
L 255.655385 -183.185725 
L 262.523077 -252.687611 
L 269.390769 -271.885832 
L 276.258462 -267.188607 
L 283.126154 -238.23274 
L 289.993846 -185.951596 
L 296.861538 -178.865288 
L 303.729231 -156.389659 
L 310.596923 -132.382576 
L 317.464615 -137.025085 
L 324.332308 -145.385879 
L 331.2 -123.996776 
L 334.633846 -124.470115 
L 341.501538 -117.724214 
L 348.369231 -141.969212 
L 355.236923 -150.250896 
L 362.104615 -136.836808 
L 368.972308 -131.808407 
L 375.84 -126.928711 
L 382.707692 -126.660163 
L 389.575385 -114.368788 
L 396.443077 -129.11644 
L 403.310769 -136.995898 
L 410.178462 -134.420295 
L 417.046154 -118.386894 
L 423.913846 -140.155482 
L 430.781538 -109.895236 
L 437.649231 -141.120779 
L 444.516923 -106.664808 
L 451.384615 -109.481287 
L 458.252308 -106.126083 
L 465.12 -73.08 
L 471.987692 -96.326768 
L 478.855385 -93.093971 
L 485.723077 -114.346722 
L 492.590769 -111.413316 
L 499.458462 -99.039353 
L 506.326154 -103.946078 
L 513.193846 -105.323992 
L 520.061538 -106.745289 
L 526.929231 -104.861106 
L 533.796923 -105.242024 
L 540.664615 -101.30047 
L 547.532308 -100.656138 
L 554.4 -100.256184 
L 557.833846 -98.434744 
L 564.701538 -99.939599 
L 571.569231 -101.617684 
L 578.436923 -100.612999 
L 585.304615 -100.146472 
L 592.172308 -98.767843 
L 599.04 -97.054365 
L 605.907692 -98.357733 
L 612.775385 -99.405201 
L 619.643077 -98.971172 
L 626.510769 -97.656265 
L 633.378462 -98.275068 
L 640.246154 -98.600443 
L 647.113846 -97.018896 
L 653.981538 -99.297922 
L 660.849231 -98.877791 
L 667.716923 -101.434991 
L 674.584615 -101.574544 
L 681.452308 -102.452055 
L 688.32 -102.078406 
L 695.187692 -98.543947 
L 702.055385 -100.078292 
L 708.923077 -84.795847 
L 715.790769 -84.925091 
L 722.658462 -86.44579 
L 729.526154 -89.642182 
L 736.393846 -93.508706 
L 743.261538 -90.881301 
L 750.129231 -88.565864 
L 756.996923 -86.764711 
L 763.864615 -84.592445 
L 770.732308 -86.126277 
L 777.6 -86.826441 
L 777.6 -146.683535 
L 777.6 -146.683535 
L 770.732308 -145.929892 
L 763.864615 -145.384409 
L 756.996923 -145.393068 
L 750.129231 -147.545547 
L 743.261538 -147.854328 
L 736.393846 -145.967271 
L 729.526154 -149.414787 
L 722.658462 -147.302167 
L 715.790769 -146.764741 
L 708.923077 -144.501595 
L 702.055385 -145.142532 
L 695.187692 -146.648918 
L 688.32 -147.982513 
L 681.452308 -162.196633 
L 674.584615 -161.394193 
L 667.716923 -158.215863 
L 660.849231 -155.681384 
L 653.981538 -154.276745 
L 647.113846 -150.693117 
L 640.246154 -154.738796 
L 633.378462 -154.58957 
L 626.510769 -155.771807 
L 619.643077 -152.263709 
L 612.775385 -152.535455 
L 605.907692 -152.556277 
L 599.04 -151.475933 
L 592.172308 -154.466173 
L 585.304615 -165.83936 
L 578.436923 -168.338389 
L 571.569231 -178.556173 
L 564.701538 -193.167077 
L 557.833846 -196.416807 
L 554.4 -197.619382 
L 547.532308 -193.1653 
L 540.664615 -188.433863 
L 533.796923 -173.382268 
L 526.929231 -171.856038 
L 520.061538 -165.676682 
L 513.193846 -176.255887 
L 506.326154 -169.413591 
L 499.458462 -177.828149 
L 492.590769 -169.583126 
L 485.723077 -168.223461 
L 478.855385 -159.480875 
L 471.987692 -179.206668 
L 465.12 -278.104543 
L 458.252308 -203.063473 
L 451.384615 -215.301875 
L 444.516923 -189.554622 
L 437.649231 -178.70942 
L 430.781538 -181.196591 
L 423.913846 -204.117821 
L 417.046154 -196.269866 
L 410.178462 -249.165637 
L 403.310769 -259.704332 
L 396.443077 -240.662456 
L 389.575385 -217.694936 
L 382.707692 -208.02108 
L 375.84 -247.794832 
L 368.972308 -271.647905 
L 362.104615 -273.173586 
L 355.236923 -261.128126 
L 348.369231 -251.894661 
L 341.501538 -237.370556 
L 334.633846 -240.865734 
L 331.2 -236.425279 
L 324.332308 -243.451099 
L 317.464615 -250.326013 
L 310.596923 -267.241164 
L 303.729231 -297.689447 
L 296.861538 -325.991048 
L 289.993846 -332.731174 
L 283.126154 -325.434049 
L 276.258462 -286.451421 
L 269.390769 -297.171452 
L 262.523077 -318.346861 
L 255.655385 -289.560501 
L 248.787692 -305.748381 
L 241.92 -235.02494 
L 235.052308 -300.651934 
L 228.184615 -337.029161 
L 221.316923 -382.3356 
L 214.449231 -390.228829 
L 207.581538 -380.916631 
L 200.713846 -362.071847 
L 193.846154 -425.88 
L 186.978462 -399.473191 
L 180.110769 -391.266526 
L 173.243077 -347.357684 
L 166.375385 -390.050226 
L 159.507692 -341.591 
L 152.64 -354.63095 
L 145.772308 -369.102824 
L 138.904615 -367.326471 
L 132.036923 -347.901438 
L 125.169231 -365.167248 
L 118.301538 -391.843263 
L 111.433846 -392.136004 
L 108 -412.463861 
z
" id="m81c253786b" style="stroke:#db5f57;stroke-opacity:0.2;"/>
    </defs>
    <g clip-path="url(#p75d29a4bf5)">
     <use style="fill:#db5f57;fill-opacity:0.2;stroke:#db5f57;stroke-opacity:0.2;" x="0" xlink:href="#m81c253786b" y="504"/>
    </g>
   </g>
   <g id="PolyCollection_2">
    <defs>
     <path d="M 108 -399.146953 
L 108 -347.596781 
L 111.433846 -273.419509 
L 118.301538 -284.53497 
L 125.169231 -239.126102 
L 132.036923 -203.908277 
L 138.904615 -223.616003 
L 145.772308 -241.4294 
L 152.64 -267.902145 
L 159.507692 -231.386887 
L 166.375385 -232.596999 
L 173.243077 -214.642491 
L 180.110769 -200.741129 
L 186.978462 -138.399487 
L 193.846154 -199.485031 
L 200.713846 -154.70815 
L 207.581538 -160.321756 
L 214.449231 -157.570069 
L 221.316923 -169.572474 
L 228.184615 -135.895485 
L 235.052308 -104.418006 
L 241.92 -100.568618 
L 248.787692 -133.738525 
L 255.655385 -135.365058 
L 262.523077 -182.739829 
L 269.390769 -231.602987 
L 276.258462 -192.056821 
L 283.126154 -167.067882 
L 289.993846 -100.713876 
L 296.861538 -98.564981 
L 303.729231 -80.875676 
L 310.596923 -88.199809 
L 317.464615 -84.618926 
L 324.332308 -87.033675 
L 331.2 -84.712812 
L 334.633846 -87.288606 
L 341.501538 -93.540998 
L 348.369231 -90.878006 
L 355.236923 -96.348163 
L 362.104615 -99.057447 
L 368.972308 -102.090181 
L 375.84 -99.548609 
L 382.707692 -103.820027 
L 389.575385 -109.406177 
L 396.443077 -105.994309 
L 403.310769 -101.1045 
L 410.178462 -100.770606 
L 417.046154 -99.89662 
L 423.913846 -102.054799 
L 430.781538 -102.386602 
L 437.649231 -102.241848 
L 444.516923 -99.348341 
L 451.384615 -91.855999 
L 458.252308 -96.38351 
L 465.12 -95.463508 
L 471.987692 -96.08997 
L 478.855385 -97.434443 
L 485.723077 -98.429912 
L 492.590769 -100.1642 
L 499.458462 -97.789047 
L 506.326154 -94.963571 
L 513.193846 -95.578982 
L 520.061538 -95.900707 
L 526.929231 -97.472496 
L 533.796923 -93.670922 
L 540.664615 -90.824952 
L 547.532308 -93.168978 
L 554.4 -94.15289 
L 557.833846 -94.149936 
L 564.701538 -96.430465 
L 571.569231 -96.464816 
L 578.436923 -96.239018 
L 585.304615 -96.228197 
L 592.172308 -91.017906 
L 599.04 -94.091049 
L 605.907692 -94.562542 
L 612.775385 -95.869876 
L 619.643077 -94.639455 
L 626.510769 -94.393684 
L 633.378462 -95.800802 
L 640.246154 -97.370579 
L 647.113846 -96.227807 
L 653.981538 -96.919011 
L 660.849231 -98.659554 
L 667.716923 -98.205487 
L 674.584615 -97.153058 
L 681.452308 -96.98669 
L 688.32 -96.023286 
L 695.187692 -96.177352 
L 702.055385 -96.499566 
L 708.923077 -96.487047 
L 715.790769 -96.031778 
L 722.658462 -96.649834 
L 729.526154 -96.916556 
L 736.393846 -96.310885 
L 743.261538 -95.586412 
L 750.129231 -95.389294 
L 756.996923 -94.974682 
L 763.864615 -94.335611 
L 770.732308 -93.517299 
L 777.6 -93.086299 
L 777.6 -120.105427 
L 777.6 -120.105427 
L 770.732308 -119.904963 
L 763.864615 -120.098202 
L 756.996923 -119.425752 
L 750.129231 -119.622594 
L 743.261538 -119.831134 
L 736.393846 -119.680501 
L 729.526154 -119.465626 
L 722.658462 -120.280783 
L 715.790769 -120.199281 
L 708.923077 -119.39076 
L 702.055385 -119.556509 
L 695.187692 -118.633706 
L 688.32 -118.348217 
L 681.452308 -119.015385 
L 674.584615 -119.655333 
L 667.716923 -119.246551 
L 660.849231 -120.941637 
L 653.981538 -120.793243 
L 647.113846 -121.522455 
L 640.246154 -121.942439 
L 633.378462 -122.42122 
L 626.510769 -122.295779 
L 619.643077 -121.506271 
L 612.775385 -122.000449 
L 605.907692 -123.135903 
L 599.04 -121.46689 
L 592.172308 -132.692083 
L 585.304615 -122.347519 
L 578.436923 -121.826355 
L 571.569231 -122.220138 
L 564.701538 -123.441771 
L 557.833846 -124.569641 
L 554.4 -125.20786 
L 547.532308 -126.552954 
L 540.664615 -124.880173 
L 533.796923 -124.650555 
L 526.929231 -126.417611 
L 520.061538 -126.667459 
L 513.193846 -127.804203 
L 506.326154 -127.981969 
L 499.458462 -129.145109 
L 492.590769 -128.822506 
L 485.723077 -128.614152 
L 478.855385 -121.993833 
L 471.987692 -121.507006 
L 465.12 -131.235604 
L 458.252308 -129.328397 
L 451.384615 -124.092269 
L 444.516923 -127.584924 
L 437.649231 -128.250981 
L 430.781538 -129.049991 
L 423.913846 -131.145741 
L 417.046154 -132.940234 
L 410.178462 -143.601924 
L 403.310769 -143.010514 
L 396.443077 -138.517811 
L 389.575385 -149.766767 
L 382.707692 -145.363035 
L 375.84 -161.772194 
L 368.972308 -170.168916 
L 362.104615 -163.852637 
L 355.236923 -194.995103 
L 348.369231 -164.950448 
L 341.501538 -146.479842 
L 334.633846 -162.147092 
L 331.2 -184.892289 
L 324.332308 -175.000506 
L 317.464615 -187.441217 
L 310.596923 -198.154906 
L 303.729231 -194.959602 
L 296.861538 -259.940223 
L 289.993846 -229.11064 
L 283.126154 -311.130947 
L 276.258462 -294.042319 
L 269.390769 -282.421349 
L 262.523077 -278.707998 
L 255.655385 -267.418984 
L 248.787692 -237.334707 
L 241.92 -182.122498 
L 235.052308 -230.579259 
L 228.184615 -278.498815 
L 221.316923 -280.221881 
L 214.449231 -269.56201 
L 207.581538 -272.634006 
L 200.713846 -264.976243 
L 193.846154 -321.203167 
L 186.978462 -291.933746 
L 180.110769 -344.96101 
L 173.243077 -307.564729 
L 166.375385 -347.165382 
L 159.507692 -350.123287 
L 152.64 -337.300852 
L 145.772308 -355.562092 
L 138.904615 -347.570292 
L 132.036923 -310.473833 
L 125.169231 -307.865425 
L 118.301538 -382.039171 
L 111.433846 -394.769411 
L 108 -399.146953 
z
" id="mac94f5f8aa" style="stroke:#57d3db;stroke-opacity:0.2;"/>
    </defs>
    <g clip-path="url(#p75d29a4bf5)">
     <use style="fill:#57d3db;fill-opacity:0.2;stroke:#57d3db;stroke-opacity:0.2;" x="0" xlink:href="#mac94f5f8aa" y="504"/>
    </g>
   </g>
   <g id="line2d_14">
    <path clip-path="url(#p75d29a4bf5)" d="M 108 122.295489 
L 111.433846 138.717502 
L 118.301538 150.169077 
L 125.169231 205.26784 
L 132.036923 243.672428 
L 138.904615 219.217364 
L 145.772308 203.210047 
L 152.64 190.270544 
L 159.507692 223.033156 
L 166.375385 160.203315 
L 173.243077 227.861214 
L 180.110769 203.285069 
L 186.978462 188.38103 
L 193.846154 132.610431 
L 200.713846 203.210748 
L 207.581538 223.439722 
L 214.449231 195.346074 
L 221.316923 210.542071 
L 228.184615 268.323593 
L 235.052308 291.285345 
L 241.92 340.380298 
L 248.787692 252.359492 
L 255.655385 267.626887 
L 262.523077 218.482764 
L 269.390769 219.471358 
L 276.258462 227.179986 
L 283.126154 222.166605 
L 289.993846 244.658615 
L 296.861538 251.571832 
L 303.729231 276.960447 
L 310.596923 304.18813 
L 317.464615 310.324451 
L 324.332308 309.581511 
L 331.2 323.788973 
L 334.633846 321.332076 
L 341.501538 326.452615 
L 348.369231 307.068063 
L 355.236923 298.310489 
L 362.104615 298.994803 
L 368.972308 302.271844 
L 375.84 316.638228 
L 382.707692 336.659379 
L 389.575385 337.968138 
L 396.443077 319.110552 
L 403.310769 305.649885 
L 410.178462 312.207034 
L 417.046154 346.67162 
L 423.913846 331.863349 
L 430.781538 358.454087 
L 437.649231 344.0849 
L 444.516923 355.890285 
L 451.384615 341.608419 
L 458.252308 349.405222 
L 465.12 328.407728 
L 471.987692 366.233282 
L 478.855385 377.712577 
L 485.723077 362.714908 
L 492.590769 363.501779 
L 499.458462 365.566249 
L 506.326154 367.320165 
L 513.193846 363.21006 
L 520.061538 367.789015 
L 526.929231 365.641428 
L 533.796923 364.687854 
L 540.664615 359.132833 
L 547.532308 357.089281 
L 554.4 355.062217 
L 557.833846 356.574225 
L 564.701538 357.446662 
L 571.569231 363.913072 
L 578.436923 369.524306 
L 585.304615 371.007084 
L 592.172308 377.382992 
L 599.04 379.734851 
L 605.907692 378.542995 
L 612.775385 378.029672 
L 619.643077 378.38256 
L 626.510769 377.285964 
L 633.378462 377.567681 
L 640.246154 377.33038 
L 647.113846 380.143993 
L 653.981538 377.212666 
L 660.849231 376.720413 
L 667.716923 374.174573 
L 674.584615 372.515631 
L 681.452308 371.675656 
L 688.32 378.969541 
L 695.187692 381.403568 
L 702.055385 381.389588 
L 708.923077 389.351279 
L 715.790769 388.155084 
L 722.658462 387.126021 
L 729.526154 384.471515 
L 736.393846 384.262012 
L 743.261538 384.632186 
L 750.129231 385.944295 
L 756.996923 387.92111 
L 763.864615 389.011573 
L 770.732308 387.971915 
L 777.6 387.245012 
" style="fill:none;stroke:#db5f57;stroke-linecap:round;stroke-width:1.5;"/>
   </g>
   <g id="line2d_15">
    <path clip-path="url(#p75d29a4bf5)" d="M 108 130.628133 
L 111.433846 169.90554 
L 118.301538 170.712929 
L 125.169231 230.504237 
L 132.036923 246.808945 
L 138.904615 218.406853 
L 145.772308 205.504254 
L 152.64 201.398501 
L 159.507692 213.244913 
L 166.375385 214.118809 
L 173.243077 242.89639 
L 180.110769 231.14893 
L 186.978462 288.833384 
L 193.846154 243.655901 
L 200.713846 294.157804 
L 207.581538 287.522119 
L 214.449231 290.43396 
L 221.316923 279.102822 
L 228.184615 296.80285 
L 235.052308 336.501367 
L 241.92 362.654442 
L 248.787692 318.463384 
L 255.655385 302.607979 
L 262.523077 273.276086 
L 269.390769 246.987832 
L 276.258462 260.95043 
L 283.126154 264.900585 
L 289.993846 339.087742 
L 296.861538 324.747398 
L 303.729231 366.082361 
L 310.596923 360.822643 
L 317.464615 367.969929 
L 324.332308 372.98291 
L 331.2 369.197449 
L 334.633846 379.282151 
L 341.501538 383.98958 
L 348.369231 376.085773 
L 355.236923 358.328367 
L 362.104615 372.544958 
L 368.972308 367.870451 
L 375.84 373.339598 
L 382.707692 379.408469 
L 389.575385 374.413528 
L 396.443077 381.74394 
L 403.310769 381.942493 
L 410.178462 381.813735 
L 417.046154 387.581573 
L 423.913846 387.39973 
L 430.781538 388.281703 
L 437.649231 388.753585 
L 444.516923 390.533368 
L 451.384615 396.025866 
L 458.252308 391.144047 
L 465.12 390.650444 
L 471.987692 395.201512 
L 478.855385 394.285862 
L 485.723077 390.477968 
L 492.590769 389.506647 
L 499.458462 390.532922 
L 506.326154 392.52723 
L 513.193846 392.308408 
L 520.061538 392.715917 
L 526.929231 392.054946 
L 533.796923 394.839262 
L 540.664615 396.147437 
L 547.532308 394.139034 
L 554.4 394.319625 
L 557.833846 394.640212 
L 564.701538 394.063882 
L 571.569231 394.657523 
L 578.436923 394.967313 
L 585.304615 394.712142 
L 592.172308 392.145006 
L 599.04 396.221031 
L 605.907692 395.150777 
L 612.775385 395.064838 
L 619.643077 395.927137 
L 626.510769 395.655269 
L 633.378462 394.888989 
L 640.246154 394.343491 
L 647.113846 395.124869 
L 653.981538 395.143873 
L 660.849231 394.199404 
L 667.716923 395.273981 
L 674.584615 395.595804 
L 681.452308 395.998962 
L 688.32 396.814249 
L 695.187692 396.594471 
L 702.055385 395.971962 
L 708.923077 396.061096 
L 715.790769 395.884471 
L 722.658462 395.534691 
L 729.526154 395.808909 
L 736.393846 396.004307 
L 743.261538 396.291227 
L 750.129231 396.494056 
L 756.996923 396.799783 
L 763.864615 396.783093 
L 770.732308 397.288869 
L 777.6 397.404137 
" style="fill:none;stroke:#57d3db;stroke-linecap:round;stroke-width:1.5;"/>
   </g>
   <g id="line2d_16"/>
   <g id="line2d_17"/>
   <g id="patch_3">
    <path d="M 108 448.56 
L 108 60.48 
" style="fill:none;stroke:#ffffff;stroke-linecap:square;stroke-linejoin:miter;stroke-width:0.8;"/>
   </g>
   <g id="patch_4">
    <path d="M 777.6 448.56 
L 777.6 60.48 
" style="fill:none;stroke:#ffffff;stroke-linecap:square;stroke-linejoin:miter;stroke-width:0.8;"/>
   </g>
   <g id="patch_5">
    <path d="M 108 448.56 
L 777.6 448.56 
" style="fill:none;stroke:#ffffff;stroke-linecap:square;stroke-linejoin:miter;stroke-width:0.8;"/>
   </g>
   <g id="patch_6">
    <path d="M 108 60.48 
L 777.6 60.48 
" style="fill:none;stroke:#ffffff;stroke-linecap:square;stroke-linejoin:miter;stroke-width:0.8;"/>
   </g>
   <g id="text_16">
    <!-- LLE residual variance -->
    <g style="fill:#262626;" transform="translate(357.6075 54.48)scale(0.16 -0.16)">
     <defs>
      <path d="M 9.8125 72.90625 
L 19.671875 72.90625 
L 19.671875 8.296875 
L 55.171875 8.296875 
L 55.171875 0 
L 9.8125 0 
z
" id="DejaVuSans-76"/>
      <path d="M 9.8125 72.90625 
L 55.90625 72.90625 
L 55.90625 64.59375 
L 19.671875 64.59375 
L 19.671875 43.015625 
L 54.390625 43.015625 
L 54.390625 34.71875 
L 19.671875 34.71875 
L 19.671875 8.296875 
L 56.78125 8.296875 
L 56.78125 0 
L 9.8125 0 
z
" id="DejaVuSans-69"/>
     </defs>
     <use xlink:href="#DejaVuSans-76"/>
     <use x="55.712891" xlink:href="#DejaVuSans-76"/>
     <use x="111.425781" xlink:href="#DejaVuSans-69"/>
     <use x="174.609375" xlink:href="#DejaVuSans-32"/>
     <use x="206.396484" xlink:href="#DejaVuSans-114"/>
     <use x="245.259766" xlink:href="#DejaVuSans-101"/>
     <use x="306.783203" xlink:href="#DejaVuSans-115"/>
     <use x="358.882812" xlink:href="#DejaVuSans-105"/>
     <use x="386.666016" xlink:href="#DejaVuSans-100"/>
     <use x="450.142578" xlink:href="#DejaVuSans-117"/>
     <use x="513.521484" xlink:href="#DejaVuSans-97"/>
     <use x="574.800781" xlink:href="#DejaVuSans-108"/>
     <use x="602.583984" xlink:href="#DejaVuSans-32"/>
     <use x="634.371094" xlink:href="#DejaVuSans-118"/>
     <use x="693.550781" xlink:href="#DejaVuSans-97"/>
     <use x="754.830078" xlink:href="#DejaVuSans-114"/>
     <use x="795.943359" xlink:href="#DejaVuSans-105"/>
     <use x="823.726562" xlink:href="#DejaVuSans-97"/>
     <use x="885.005859" xlink:href="#DejaVuSans-110"/>
     <use x="948.384766" xlink:href="#DejaVuSans-99"/>
     <use x="1003.365234" xlink:href="#DejaVuSans-101"/>
    </g>
   </g>
   <g id="legend_1">
    <g id="patch_7">
     <path d="M 656.74125 122.92125 
L 769.2 122.92125 
Q 771.6 122.92125 771.6 120.52125 
L 771.6 68.88 
Q 771.6 66.48 769.2 66.48 
L 656.74125 66.48 
Q 654.34125 66.48 654.34125 68.88 
L 654.34125 120.52125 
Q 654.34125 122.92125 656.74125 122.92125 
z
" style="fill:#eaeaf2;opacity:0.8;stroke:#cccccc;stroke-linejoin:miter;"/>
    </g>
    <g id="text_17">
     <!-- Output dimension -->
     <g style="fill:#262626;" transform="translate(659.14125 80.398125)scale(0.12 -0.12)">
      <defs>
       <path d="M 39.40625 66.21875 
Q 28.65625 66.21875 22.328125 58.203125 
Q 16.015625 50.203125 16.015625 36.375 
Q 16.015625 22.609375 22.328125 14.59375 
Q 28.65625 6.59375 39.40625 6.59375 
Q 50.140625 6.59375 56.421875 14.59375 
Q 62.703125 22.609375 62.703125 36.375 
Q 62.703125 50.203125 56.421875 58.203125 
Q 50.140625 66.21875 39.40625 66.21875 
z
M 39.40625 74.21875 
Q 54.734375 74.21875 63.90625 63.9375 
Q 73.09375 53.65625 73.09375 36.375 
Q 73.09375 19.140625 63.90625 8.859375 
Q 54.734375 -1.421875 39.40625 -1.421875 
Q 24.03125 -1.421875 14.8125 8.828125 
Q 5.609375 19.09375 5.609375 36.375 
Q 5.609375 53.65625 14.8125 63.9375 
Q 24.03125 74.21875 39.40625 74.21875 
z
" id="DejaVuSans-79"/>
       <path d="M 18.3125 70.21875 
L 18.3125 54.6875 
L 36.8125 54.6875 
L 36.8125 47.703125 
L 18.3125 47.703125 
L 18.3125 18.015625 
Q 18.3125 11.328125 20.140625 9.421875 
Q 21.96875 7.515625 27.59375 7.515625 
L 36.8125 7.515625 
L 36.8125 0 
L 27.59375 0 
Q 17.1875 0 13.234375 3.875 
Q 9.28125 7.765625 9.28125 18.015625 
L 9.28125 47.703125 
L 2.6875 47.703125 
L 2.6875 54.6875 
L 9.28125 54.6875 
L 9.28125 70.21875 
z
" id="DejaVuSans-116"/>
       <path d="M 18.109375 8.203125 
L 18.109375 -20.796875 
L 9.078125 -20.796875 
L 9.078125 54.6875 
L 18.109375 54.6875 
L 18.109375 46.390625 
Q 20.953125 51.265625 25.265625 53.625 
Q 29.59375 56 35.59375 56 
Q 45.5625 56 51.78125 48.09375 
Q 58.015625 40.1875 58.015625 27.296875 
Q 58.015625 14.40625 51.78125 6.484375 
Q 45.5625 -1.421875 35.59375 -1.421875 
Q 29.59375 -1.421875 25.265625 0.953125 
Q 20.953125 3.328125 18.109375 8.203125 
z
M 48.6875 27.296875 
Q 48.6875 37.203125 44.609375 42.84375 
Q 40.53125 48.484375 33.40625 48.484375 
Q 26.265625 48.484375 22.1875 42.84375 
Q 18.109375 37.203125 18.109375 27.296875 
Q 18.109375 17.390625 22.1875 11.75 
Q 26.265625 6.109375 33.40625 6.109375 
Q 40.53125 6.109375 44.609375 11.75 
Q 48.6875 17.390625 48.6875 27.296875 
z
" id="DejaVuSans-112"/>
      </defs>
      <use xlink:href="#DejaVuSans-79"/>
      <use x="78.710938" xlink:href="#DejaVuSans-117"/>
      <use x="142.089844" xlink:href="#DejaVuSans-116"/>
      <use x="181.298828" xlink:href="#DejaVuSans-112"/>
      <use x="244.775391" xlink:href="#DejaVuSans-117"/>
      <use x="308.154297" xlink:href="#DejaVuSans-116"/>
      <use x="347.363281" xlink:href="#DejaVuSans-32"/>
      <use x="379.150391" xlink:href="#DejaVuSans-100"/>
      <use x="442.626953" xlink:href="#DejaVuSans-105"/>
      <use x="470.410156" xlink:href="#DejaVuSans-109"/>
      <use x="567.822266" xlink:href="#DejaVuSans-101"/>
      <use x="629.345703" xlink:href="#DejaVuSans-110"/>
      <use x="692.724609" xlink:href="#DejaVuSans-115"/>
      <use x="744.824219" xlink:href="#DejaVuSans-105"/>
      <use x="772.607422" xlink:href="#DejaVuSans-111"/>
      <use x="833.789062" xlink:href="#DejaVuSans-110"/>
     </g>
    </g>
    <g id="line2d_18">
     <path d="M 686.62875 93.811875 
L 710.62875 93.811875 
" style="fill:none;stroke:#db5f57;stroke-linecap:round;stroke-width:1.5;"/>
    </g>
    <g id="line2d_19"/>
    <g id="text_18">
     <!-- 2.0 -->
     <g style="fill:#262626;" transform="translate(720.22875 98.011875)scale(0.12 -0.12)">
      <use xlink:href="#DejaVuSans-50"/>
      <use x="63.623047" xlink:href="#DejaVuSans-46"/>
      <use x="95.410156" xlink:href="#DejaVuSans-48"/>
     </g>
    </g>
    <g id="line2d_20">
     <path d="M 686.62875 111.425625 
L 710.62875 111.425625 
" style="fill:none;stroke:#57d3db;stroke-linecap:round;stroke-width:1.5;"/>
    </g>
    <g id="line2d_21"/>
    <g id="text_19">
     <!-- 4.0 -->
     <g style="fill:#262626;" transform="translate(720.22875 115.625625)scale(0.12 -0.12)">
      <use xlink:href="#DejaVuSans-52"/>
      <use x="63.623047" xlink:href="#DejaVuSans-46"/>
      <use x="95.410156" xlink:href="#DejaVuSans-48"/>
     </g>
    </g>
   </g>
  </g>
 </g>
 <defs>
  <clipPath id="p75d29a4bf5">
   <rect height="388.08" width="669.6" x="108" y="60.48"/>
  </clipPath>
 </defs>
</svg>
