<?xml version="1.0" encoding="utf-8" standalone="no"?>
<!DOCTYPE svg PUBLIC "-//W3C//DTD SVG 1.1//EN"
  "http://www.w3.org/Graphics/SVG/1.1/DTD/svg11.dtd">
<!-- Created with matplotlib (https://matplotlib.org/) -->
<svg height="504pt" version="1.1" viewBox="0 0 864 504" width="864pt" xmlns="http://www.w3.org/2000/svg" xmlns:xlink="http://www.w3.org/1999/xlink">
 <metadata>
  <rdf:RDF xmlns:cc="http://creativecommons.org/ns#" xmlns:dc="http://purl.org/dc/elements/1.1/" xmlns:rdf="http://www.w3.org/1999/02/22-rdf-syntax-ns#">
   <cc:Work>
    <dc:type rdf:resource="http://purl.org/dc/dcmitype/StillImage"/>
    <dc:date>2021-05-23T03:35:55.820452</dc:date>
    <dc:format>image/svg+xml</dc:format>
    <dc:creator>
     <cc:Agent>
      <dc:title>Matplotlib v3.3.2, https://matplotlib.org/</dc:title>
     </cc:Agent>
    </dc:creator>
   </cc:Work>
  </rdf:RDF>
 </metadata>
 <defs>
  <style type="text/css">*{stroke-linecap:butt;stroke-linejoin:round;}</style>
 </defs>
 <g id="figure_1">
  <g id="patch_1">
   <path d="M 0 504 
L 864 504 
L 864 0 
L 0 0 
z
" style="fill:#ffffff;"/>
  </g>
  <g id="axes_1">
   <g id="patch_2">
    <path d="M 108 448.56 
L 777.6 448.56 
L 777.6 60.48 
L 108 60.48 
z
" style="fill:#eaeaf2;"/>
   </g>
   <g id="matplotlib.axis_1">
    <g id="xtick_1">
     <g id="line2d_1">
      <path clip-path="url(#pd2de6e5d27)" d="M 176.676923 448.56 
L 176.676923 60.48 
" style="fill:none;stroke:#ffffff;stroke-linecap:round;stroke-width:0.8;"/>
     </g>
     <g id="text_1">
      <!-- 25 -->
      <g style="fill:#262626;" transform="translate(170.314423 463.158437)scale(0.1 -0.1)">
       <defs>
        <path d="M 19.1875 8.296875 
L 53.609375 8.296875 
L 53.609375 0 
L 7.328125 0 
L 7.328125 8.296875 
Q 12.9375 14.109375 22.625 23.890625 
Q 32.328125 33.6875 34.8125 36.53125 
Q 39.546875 41.84375 41.421875 45.53125 
Q 43.3125 49.21875 43.3125 52.78125 
Q 43.3125 58.59375 39.234375 62.25 
Q 35.15625 65.921875 28.609375 65.921875 
Q 23.96875 65.921875 18.8125 64.3125 
Q 13.671875 62.703125 7.8125 59.421875 
L 7.8125 69.390625 
Q 13.765625 71.78125 18.9375 73 
Q 24.125 74.21875 28.421875 74.21875 
Q 39.75 74.21875 46.484375 68.546875 
Q 53.21875 62.890625 53.21875 53.421875 
Q 53.21875 48.921875 51.53125 44.890625 
Q 49.859375 40.875 45.40625 35.40625 
Q 44.1875 33.984375 37.640625 27.21875 
Q 31.109375 20.453125 19.1875 8.296875 
z
" id="DejaVuSans-50"/>
        <path d="M 10.796875 72.90625 
L 49.515625 72.90625 
L 49.515625 64.59375 
L 19.828125 64.59375 
L 19.828125 46.734375 
Q 21.96875 47.46875 24.109375 47.828125 
Q 26.265625 48.1875 28.421875 48.1875 
Q 40.625 48.1875 47.75 41.5 
Q 54.890625 34.8125 54.890625 23.390625 
Q 54.890625 11.625 47.5625 5.09375 
Q 40.234375 -1.421875 26.90625 -1.421875 
Q 22.3125 -1.421875 17.546875 -0.640625 
Q 12.796875 0.140625 7.71875 1.703125 
L 7.71875 11.625 
Q 12.109375 9.234375 16.796875 8.0625 
Q 21.484375 6.890625 26.703125 6.890625 
Q 35.15625 6.890625 40.078125 11.328125 
Q 45.015625 15.765625 45.015625 23.390625 
Q 45.015625 31 40.078125 35.4375 
Q 35.15625 39.890625 26.703125 39.890625 
Q 22.75 39.890625 18.8125 39.015625 
Q 14.890625 38.140625 10.796875 36.28125 
z
" id="DejaVuSans-53"/>
       </defs>
       <use xlink:href="#DejaVuSans-50"/>
       <use x="63.623047" xlink:href="#DejaVuSans-53"/>
      </g>
     </g>
    </g>
    <g id="xtick_2">
     <g id="line2d_2">
      <path clip-path="url(#pd2de6e5d27)" d="M 262.523077 448.56 
L 262.523077 60.48 
" style="fill:none;stroke:#ffffff;stroke-linecap:round;stroke-width:0.8;"/>
     </g>
     <g id="text_2">
      <!-- 50 -->
      <g style="fill:#262626;" transform="translate(256.160577 463.158437)scale(0.1 -0.1)">
       <defs>
        <path d="M 31.78125 66.40625 
Q 24.171875 66.40625 20.328125 58.90625 
Q 16.5 51.421875 16.5 36.375 
Q 16.5 21.390625 20.328125 13.890625 
Q 24.171875 6.390625 31.78125 6.390625 
Q 39.453125 6.390625 43.28125 13.890625 
Q 47.125 21.390625 47.125 36.375 
Q 47.125 51.421875 43.28125 58.90625 
Q 39.453125 66.40625 31.78125 66.40625 
z
M 31.78125 74.21875 
Q 44.046875 74.21875 50.515625 64.515625 
Q 56.984375 54.828125 56.984375 36.375 
Q 56.984375 17.96875 50.515625 8.265625 
Q 44.046875 -1.421875 31.78125 -1.421875 
Q 19.53125 -1.421875 13.0625 8.265625 
Q 6.59375 17.96875 6.59375 36.375 
Q 6.59375 54.828125 13.0625 64.515625 
Q 19.53125 74.21875 31.78125 74.21875 
z
" id="DejaVuSans-48"/>
       </defs>
       <use xlink:href="#DejaVuSans-53"/>
       <use x="63.623047" xlink:href="#DejaVuSans-48"/>
      </g>
     </g>
    </g>
    <g id="xtick_3">
     <g id="line2d_3">
      <path clip-path="url(#pd2de6e5d27)" d="M 348.369231 448.56 
L 348.369231 60.48 
" style="fill:none;stroke:#ffffff;stroke-linecap:round;stroke-width:0.8;"/>
     </g>
     <g id="text_3">
      <!-- 75 -->
      <g style="fill:#262626;" transform="translate(342.006731 463.158437)scale(0.1 -0.1)">
       <defs>
        <path d="M 8.203125 72.90625 
L 55.078125 72.90625 
L 55.078125 68.703125 
L 28.609375 0 
L 18.3125 0 
L 43.21875 64.59375 
L 8.203125 64.59375 
z
" id="DejaVuSans-55"/>
       </defs>
       <use xlink:href="#DejaVuSans-55"/>
       <use x="63.623047" xlink:href="#DejaVuSans-53"/>
      </g>
     </g>
    </g>
    <g id="xtick_4">
     <g id="line2d_4">
      <path clip-path="url(#pd2de6e5d27)" d="M 434.215385 448.56 
L 434.215385 60.48 
" style="fill:none;stroke:#ffffff;stroke-linecap:round;stroke-width:0.8;"/>
     </g>
     <g id="text_4">
      <!-- 100 -->
      <g style="fill:#262626;" transform="translate(424.671635 463.158437)scale(0.1 -0.1)">
       <defs>
        <path d="M 12.40625 8.296875 
L 28.515625 8.296875 
L 28.515625 63.921875 
L 10.984375 60.40625 
L 10.984375 69.390625 
L 28.421875 72.90625 
L 38.28125 72.90625 
L 38.28125 8.296875 
L 54.390625 8.296875 
L 54.390625 0 
L 12.40625 0 
z
" id="DejaVuSans-49"/>
       </defs>
       <use xlink:href="#DejaVuSans-49"/>
       <use x="63.623047" xlink:href="#DejaVuSans-48"/>
       <use x="127.246094" xlink:href="#DejaVuSans-48"/>
      </g>
     </g>
    </g>
    <g id="xtick_5">
     <g id="line2d_5">
      <path clip-path="url(#pd2de6e5d27)" d="M 520.061538 448.56 
L 520.061538 60.48 
" style="fill:none;stroke:#ffffff;stroke-linecap:round;stroke-width:0.8;"/>
     </g>
     <g id="text_5">
      <!-- 125 -->
      <g style="fill:#262626;" transform="translate(510.517788 463.158437)scale(0.1 -0.1)">
       <use xlink:href="#DejaVuSans-49"/>
       <use x="63.623047" xlink:href="#DejaVuSans-50"/>
       <use x="127.246094" xlink:href="#DejaVuSans-53"/>
      </g>
     </g>
    </g>
    <g id="xtick_6">
     <g id="line2d_6">
      <path clip-path="url(#pd2de6e5d27)" d="M 605.907692 448.56 
L 605.907692 60.48 
" style="fill:none;stroke:#ffffff;stroke-linecap:round;stroke-width:0.8;"/>
     </g>
     <g id="text_6">
      <!-- 150 -->
      <g style="fill:#262626;" transform="translate(596.363942 463.158437)scale(0.1 -0.1)">
       <use xlink:href="#DejaVuSans-49"/>
       <use x="63.623047" xlink:href="#DejaVuSans-53"/>
       <use x="127.246094" xlink:href="#DejaVuSans-48"/>
      </g>
     </g>
    </g>
    <g id="xtick_7">
     <g id="line2d_7">
      <path clip-path="url(#pd2de6e5d27)" d="M 691.753846 448.56 
L 691.753846 60.48 
" style="fill:none;stroke:#ffffff;stroke-linecap:round;stroke-width:0.8;"/>
     </g>
     <g id="text_7">
      <!-- 175 -->
      <g style="fill:#262626;" transform="translate(682.210096 463.158437)scale(0.1 -0.1)">
       <use xlink:href="#DejaVuSans-49"/>
       <use x="63.623047" xlink:href="#DejaVuSans-55"/>
       <use x="127.246094" xlink:href="#DejaVuSans-53"/>
      </g>
     </g>
    </g>
    <g id="xtick_8">
     <g id="line2d_8">
      <path clip-path="url(#pd2de6e5d27)" d="M 777.6 448.56 
L 777.6 60.48 
" style="fill:none;stroke:#ffffff;stroke-linecap:round;stroke-width:0.8;"/>
     </g>
     <g id="text_8">
      <!-- 200 -->
      <g style="fill:#262626;" transform="translate(768.05625 463.158437)scale(0.1 -0.1)">
       <use xlink:href="#DejaVuSans-50"/>
       <use x="63.623047" xlink:href="#DejaVuSans-48"/>
       <use x="127.246094" xlink:href="#DejaVuSans-48"/>
      </g>
     </g>
    </g>
    <g id="text_9">
     <!-- Number of neighbors -->
     <g style="fill:#262626;" transform="translate(368.663437 479.875938)scale(0.14 -0.14)">
      <defs>
       <path d="M 9.8125 72.90625 
L 23.09375 72.90625 
L 55.421875 11.921875 
L 55.421875 72.90625 
L 64.984375 72.90625 
L 64.984375 0 
L 51.703125 0 
L 19.390625 60.984375 
L 19.390625 0 
L 9.8125 0 
z
" id="DejaVuSans-78"/>
       <path d="M 8.5 21.578125 
L 8.5 54.6875 
L 17.484375 54.6875 
L 17.484375 21.921875 
Q 17.484375 14.15625 20.5 10.265625 
Q 23.53125 6.390625 29.59375 6.390625 
Q 36.859375 6.390625 41.078125 11.03125 
Q 45.3125 15.671875 45.3125 23.6875 
L 45.3125 54.6875 
L 54.296875 54.6875 
L 54.296875 0 
L 45.3125 0 
L 45.3125 8.40625 
Q 42.046875 3.421875 37.71875 1 
Q 33.40625 -1.421875 27.6875 -1.421875 
Q 18.265625 -1.421875 13.375 4.4375 
Q 8.5 10.296875 8.5 21.578125 
z
M 31.109375 56 
z
" id="DejaVuSans-117"/>
       <path d="M 52 44.1875 
Q 55.375 50.25 60.0625 53.125 
Q 64.75 56 71.09375 56 
Q 79.640625 56 84.28125 50.015625 
Q 88.921875 44.046875 88.921875 33.015625 
L 88.921875 0 
L 79.890625 0 
L 79.890625 32.71875 
Q 79.890625 40.578125 77.09375 44.375 
Q 74.3125 48.1875 68.609375 48.1875 
Q 61.625 48.1875 57.5625 43.546875 
Q 53.515625 38.921875 53.515625 30.90625 
L 53.515625 0 
L 44.484375 0 
L 44.484375 32.71875 
Q 44.484375 40.625 41.703125 44.40625 
Q 38.921875 48.1875 33.109375 48.1875 
Q 26.21875 48.1875 22.15625 43.53125 
Q 18.109375 38.875 18.109375 30.90625 
L 18.109375 0 
L 9.078125 0 
L 9.078125 54.6875 
L 18.109375 54.6875 
L 18.109375 46.1875 
Q 21.1875 51.21875 25.484375 53.609375 
Q 29.78125 56 35.6875 56 
Q 41.65625 56 45.828125 52.96875 
Q 50 49.953125 52 44.1875 
z
" id="DejaVuSans-109"/>
       <path d="M 48.6875 27.296875 
Q 48.6875 37.203125 44.609375 42.84375 
Q 40.53125 48.484375 33.40625 48.484375 
Q 26.265625 48.484375 22.1875 42.84375 
Q 18.109375 37.203125 18.109375 27.296875 
Q 18.109375 17.390625 22.1875 11.75 
Q 26.265625 6.109375 33.40625 6.109375 
Q 40.53125 6.109375 44.609375 11.75 
Q 48.6875 17.390625 48.6875 27.296875 
z
M 18.109375 46.390625 
Q 20.953125 51.265625 25.265625 53.625 
Q 29.59375 56 35.59375 56 
Q 45.5625 56 51.78125 48.09375 
Q 58.015625 40.1875 58.015625 27.296875 
Q 58.015625 14.40625 51.78125 6.484375 
Q 45.5625 -1.421875 35.59375 -1.421875 
Q 29.59375 -1.421875 25.265625 0.953125 
Q 20.953125 3.328125 18.109375 8.203125 
L 18.109375 0 
L 9.078125 0 
L 9.078125 75.984375 
L 18.109375 75.984375 
z
" id="DejaVuSans-98"/>
       <path d="M 56.203125 29.59375 
L 56.203125 25.203125 
L 14.890625 25.203125 
Q 15.484375 15.921875 20.484375 11.0625 
Q 25.484375 6.203125 34.421875 6.203125 
Q 39.59375 6.203125 44.453125 7.46875 
Q 49.3125 8.734375 54.109375 11.28125 
L 54.109375 2.78125 
Q 49.265625 0.734375 44.1875 -0.34375 
Q 39.109375 -1.421875 33.890625 -1.421875 
Q 20.796875 -1.421875 13.15625 6.1875 
Q 5.515625 13.8125 5.515625 26.8125 
Q 5.515625 40.234375 12.765625 48.109375 
Q 20.015625 56 32.328125 56 
Q 43.359375 56 49.78125 48.890625 
Q 56.203125 41.796875 56.203125 29.59375 
z
M 47.21875 32.234375 
Q 47.125 39.59375 43.09375 43.984375 
Q 39.0625 48.390625 32.421875 48.390625 
Q 24.90625 48.390625 20.390625 44.140625 
Q 15.875 39.890625 15.1875 32.171875 
z
" id="DejaVuSans-101"/>
       <path d="M 41.109375 46.296875 
Q 39.59375 47.171875 37.8125 47.578125 
Q 36.03125 48 33.890625 48 
Q 26.265625 48 22.1875 43.046875 
Q 18.109375 38.09375 18.109375 28.8125 
L 18.109375 0 
L 9.078125 0 
L 9.078125 54.6875 
L 18.109375 54.6875 
L 18.109375 46.1875 
Q 20.953125 51.171875 25.484375 53.578125 
Q 30.03125 56 36.53125 56 
Q 37.453125 56 38.578125 55.875 
Q 39.703125 55.765625 41.0625 55.515625 
z
" id="DejaVuSans-114"/>
       <path id="DejaVuSans-32"/>
       <path d="M 30.609375 48.390625 
Q 23.390625 48.390625 19.1875 42.75 
Q 14.984375 37.109375 14.984375 27.296875 
Q 14.984375 17.484375 19.15625 11.84375 
Q 23.34375 6.203125 30.609375 6.203125 
Q 37.796875 6.203125 41.984375 11.859375 
Q 46.1875 17.53125 46.1875 27.296875 
Q 46.1875 37.015625 41.984375 42.703125 
Q 37.796875 48.390625 30.609375 48.390625 
z
M 30.609375 56 
Q 42.328125 56 49.015625 48.375 
Q 55.71875 40.765625 55.71875 27.296875 
Q 55.71875 13.875 49.015625 6.21875 
Q 42.328125 -1.421875 30.609375 -1.421875 
Q 18.84375 -1.421875 12.171875 6.21875 
Q 5.515625 13.875 5.515625 27.296875 
Q 5.515625 40.765625 12.171875 48.375 
Q 18.84375 56 30.609375 56 
z
" id="DejaVuSans-111"/>
       <path d="M 37.109375 75.984375 
L 37.109375 68.5 
L 28.515625 68.5 
Q 23.6875 68.5 21.796875 66.546875 
Q 19.921875 64.59375 19.921875 59.515625 
L 19.921875 54.6875 
L 34.71875 54.6875 
L 34.71875 47.703125 
L 19.921875 47.703125 
L 19.921875 0 
L 10.890625 0 
L 10.890625 47.703125 
L 2.296875 47.703125 
L 2.296875 54.6875 
L 10.890625 54.6875 
L 10.890625 58.5 
Q 10.890625 67.625 15.140625 71.796875 
Q 19.390625 75.984375 28.609375 75.984375 
z
" id="DejaVuSans-102"/>
       <path d="M 54.890625 33.015625 
L 54.890625 0 
L 45.90625 0 
L 45.90625 32.71875 
Q 45.90625 40.484375 42.875 44.328125 
Q 39.84375 48.1875 33.796875 48.1875 
Q 26.515625 48.1875 22.3125 43.546875 
Q 18.109375 38.921875 18.109375 30.90625 
L 18.109375 0 
L 9.078125 0 
L 9.078125 54.6875 
L 18.109375 54.6875 
L 18.109375 46.1875 
Q 21.34375 51.125 25.703125 53.5625 
Q 30.078125 56 35.796875 56 
Q 45.21875 56 50.046875 50.171875 
Q 54.890625 44.34375 54.890625 33.015625 
z
" id="DejaVuSans-110"/>
       <path d="M 9.421875 54.6875 
L 18.40625 54.6875 
L 18.40625 0 
L 9.421875 0 
z
M 9.421875 75.984375 
L 18.40625 75.984375 
L 18.40625 64.59375 
L 9.421875 64.59375 
z
" id="DejaVuSans-105"/>
       <path d="M 45.40625 27.984375 
Q 45.40625 37.75 41.375 43.109375 
Q 37.359375 48.484375 30.078125 48.484375 
Q 22.859375 48.484375 18.828125 43.109375 
Q 14.796875 37.75 14.796875 27.984375 
Q 14.796875 18.265625 18.828125 12.890625 
Q 22.859375 7.515625 30.078125 7.515625 
Q 37.359375 7.515625 41.375 12.890625 
Q 45.40625 18.265625 45.40625 27.984375 
z
M 54.390625 6.78125 
Q 54.390625 -7.171875 48.1875 -13.984375 
Q 42 -20.796875 29.203125 -20.796875 
Q 24.46875 -20.796875 20.265625 -20.09375 
Q 16.0625 -19.390625 12.109375 -17.921875 
L 12.109375 -9.1875 
Q 16.0625 -11.328125 19.921875 -12.34375 
Q 23.78125 -13.375 27.78125 -13.375 
Q 36.625 -13.375 41.015625 -8.765625 
Q 45.40625 -4.15625 45.40625 5.171875 
L 45.40625 9.625 
Q 42.625 4.78125 38.28125 2.390625 
Q 33.9375 0 27.875 0 
Q 17.828125 0 11.671875 7.65625 
Q 5.515625 15.328125 5.515625 27.984375 
Q 5.515625 40.671875 11.671875 48.328125 
Q 17.828125 56 27.875 56 
Q 33.9375 56 38.28125 53.609375 
Q 42.625 51.21875 45.40625 46.390625 
L 45.40625 54.6875 
L 54.390625 54.6875 
z
" id="DejaVuSans-103"/>
       <path d="M 54.890625 33.015625 
L 54.890625 0 
L 45.90625 0 
L 45.90625 32.71875 
Q 45.90625 40.484375 42.875 44.328125 
Q 39.84375 48.1875 33.796875 48.1875 
Q 26.515625 48.1875 22.3125 43.546875 
Q 18.109375 38.921875 18.109375 30.90625 
L 18.109375 0 
L 9.078125 0 
L 9.078125 75.984375 
L 18.109375 75.984375 
L 18.109375 46.1875 
Q 21.34375 51.125 25.703125 53.5625 
Q 30.078125 56 35.796875 56 
Q 45.21875 56 50.046875 50.171875 
Q 54.890625 44.34375 54.890625 33.015625 
z
" id="DejaVuSans-104"/>
       <path d="M 44.28125 53.078125 
L 44.28125 44.578125 
Q 40.484375 46.53125 36.375 47.5 
Q 32.28125 48.484375 27.875 48.484375 
Q 21.1875 48.484375 17.84375 46.4375 
Q 14.5 44.390625 14.5 40.28125 
Q 14.5 37.15625 16.890625 35.375 
Q 19.28125 33.59375 26.515625 31.984375 
L 29.59375 31.296875 
Q 39.15625 29.25 43.1875 25.515625 
Q 47.21875 21.78125 47.21875 15.09375 
Q 47.21875 7.46875 41.1875 3.015625 
Q 35.15625 -1.421875 24.609375 -1.421875 
Q 20.21875 -1.421875 15.453125 -0.5625 
Q 10.6875 0.296875 5.421875 2 
L 5.421875 11.28125 
Q 10.40625 8.6875 15.234375 7.390625 
Q 20.0625 6.109375 24.8125 6.109375 
Q 31.15625 6.109375 34.5625 8.28125 
Q 37.984375 10.453125 37.984375 14.40625 
Q 37.984375 18.0625 35.515625 20.015625 
Q 33.0625 21.96875 24.703125 23.78125 
L 21.578125 24.515625 
Q 13.234375 26.265625 9.515625 29.90625 
Q 5.8125 33.546875 5.8125 39.890625 
Q 5.8125 47.609375 11.28125 51.796875 
Q 16.75 56 26.8125 56 
Q 31.78125 56 36.171875 55.265625 
Q 40.578125 54.546875 44.28125 53.078125 
z
" id="DejaVuSans-115"/>
      </defs>
      <use xlink:href="#DejaVuSans-78"/>
      <use x="74.804688" xlink:href="#DejaVuSans-117"/>
      <use x="138.183594" xlink:href="#DejaVuSans-109"/>
      <use x="235.595703" xlink:href="#DejaVuSans-98"/>
      <use x="299.072266" xlink:href="#DejaVuSans-101"/>
      <use x="360.595703" xlink:href="#DejaVuSans-114"/>
      <use x="401.708984" xlink:href="#DejaVuSans-32"/>
      <use x="433.496094" xlink:href="#DejaVuSans-111"/>
      <use x="494.677734" xlink:href="#DejaVuSans-102"/>
      <use x="529.882812" xlink:href="#DejaVuSans-32"/>
      <use x="561.669922" xlink:href="#DejaVuSans-110"/>
      <use x="625.048828" xlink:href="#DejaVuSans-101"/>
      <use x="686.572266" xlink:href="#DejaVuSans-105"/>
      <use x="714.355469" xlink:href="#DejaVuSans-103"/>
      <use x="777.832031" xlink:href="#DejaVuSans-104"/>
      <use x="841.210938" xlink:href="#DejaVuSans-98"/>
      <use x="904.6875" xlink:href="#DejaVuSans-111"/>
      <use x="965.869141" xlink:href="#DejaVuSans-114"/>
      <use x="1006.982422" xlink:href="#DejaVuSans-115"/>
     </g>
    </g>
   </g>
   <g id="matplotlib.axis_2">
    <g id="ytick_1">
     <g id="line2d_9">
      <path clip-path="url(#pd2de6e5d27)" d="M 108 376.560282 
L 777.6 376.560282 
" style="fill:none;stroke:#ffffff;stroke-linecap:round;stroke-width:0.8;"/>
     </g>
     <g id="text_10">
      <!-- 0.4 -->
      <g style="fill:#262626;" transform="translate(85.096875 380.359501)scale(0.1 -0.1)">
       <defs>
        <path d="M 10.6875 12.40625 
L 21 12.40625 
L 21 0 
L 10.6875 0 
z
" id="DejaVuSans-46"/>
        <path d="M 37.796875 64.3125 
L 12.890625 25.390625 
L 37.796875 25.390625 
z
M 35.203125 72.90625 
L 47.609375 72.90625 
L 47.609375 25.390625 
L 58.015625 25.390625 
L 58.015625 17.1875 
L 47.609375 17.1875 
L 47.609375 0 
L 37.796875 0 
L 37.796875 17.1875 
L 4.890625 17.1875 
L 4.890625 26.703125 
z
" id="DejaVuSans-52"/>
       </defs>
       <use xlink:href="#DejaVuSans-48"/>
       <use x="63.623047" xlink:href="#DejaVuSans-46"/>
       <use x="95.410156" xlink:href="#DejaVuSans-52"/>
      </g>
     </g>
    </g>
    <g id="ytick_2">
     <g id="line2d_10">
      <path clip-path="url(#pd2de6e5d27)" d="M 108 291.090588 
L 777.6 291.090588 
" style="fill:none;stroke:#ffffff;stroke-linecap:round;stroke-width:0.8;"/>
     </g>
     <g id="text_11">
      <!-- 0.6 -->
      <g style="fill:#262626;" transform="translate(85.096875 294.889807)scale(0.1 -0.1)">
       <defs>
        <path d="M 33.015625 40.375 
Q 26.375 40.375 22.484375 35.828125 
Q 18.609375 31.296875 18.609375 23.390625 
Q 18.609375 15.53125 22.484375 10.953125 
Q 26.375 6.390625 33.015625 6.390625 
Q 39.65625 6.390625 43.53125 10.953125 
Q 47.40625 15.53125 47.40625 23.390625 
Q 47.40625 31.296875 43.53125 35.828125 
Q 39.65625 40.375 33.015625 40.375 
z
M 52.59375 71.296875 
L 52.59375 62.3125 
Q 48.875 64.0625 45.09375 64.984375 
Q 41.3125 65.921875 37.59375 65.921875 
Q 27.828125 65.921875 22.671875 59.328125 
Q 17.53125 52.734375 16.796875 39.40625 
Q 19.671875 43.65625 24.015625 45.921875 
Q 28.375 48.1875 33.59375 48.1875 
Q 44.578125 48.1875 50.953125 41.515625 
Q 57.328125 34.859375 57.328125 23.390625 
Q 57.328125 12.15625 50.6875 5.359375 
Q 44.046875 -1.421875 33.015625 -1.421875 
Q 20.359375 -1.421875 13.671875 8.265625 
Q 6.984375 17.96875 6.984375 36.375 
Q 6.984375 53.65625 15.1875 63.9375 
Q 23.390625 74.21875 37.203125 74.21875 
Q 40.921875 74.21875 44.703125 73.484375 
Q 48.484375 72.75 52.59375 71.296875 
z
" id="DejaVuSans-54"/>
       </defs>
       <use xlink:href="#DejaVuSans-48"/>
       <use x="63.623047" xlink:href="#DejaVuSans-46"/>
       <use x="95.410156" xlink:href="#DejaVuSans-54"/>
      </g>
     </g>
    </g>
    <g id="ytick_3">
     <g id="line2d_11">
      <path clip-path="url(#pd2de6e5d27)" d="M 108 205.620894 
L 777.6 205.620894 
" style="fill:none;stroke:#ffffff;stroke-linecap:round;stroke-width:0.8;"/>
     </g>
     <g id="text_12">
      <!-- 0.8 -->
      <g style="fill:#262626;" transform="translate(85.096875 209.420113)scale(0.1 -0.1)">
       <defs>
        <path d="M 31.78125 34.625 
Q 24.75 34.625 20.71875 30.859375 
Q 16.703125 27.09375 16.703125 20.515625 
Q 16.703125 13.921875 20.71875 10.15625 
Q 24.75 6.390625 31.78125 6.390625 
Q 38.8125 6.390625 42.859375 10.171875 
Q 46.921875 13.96875 46.921875 20.515625 
Q 46.921875 27.09375 42.890625 30.859375 
Q 38.875 34.625 31.78125 34.625 
z
M 21.921875 38.8125 
Q 15.578125 40.375 12.03125 44.71875 
Q 8.5 49.078125 8.5 55.328125 
Q 8.5 64.0625 14.71875 69.140625 
Q 20.953125 74.21875 31.78125 74.21875 
Q 42.671875 74.21875 48.875 69.140625 
Q 55.078125 64.0625 55.078125 55.328125 
Q 55.078125 49.078125 51.53125 44.71875 
Q 48 40.375 41.703125 38.8125 
Q 48.828125 37.15625 52.796875 32.3125 
Q 56.78125 27.484375 56.78125 20.515625 
Q 56.78125 9.90625 50.3125 4.234375 
Q 43.84375 -1.421875 31.78125 -1.421875 
Q 19.734375 -1.421875 13.25 4.234375 
Q 6.78125 9.90625 6.78125 20.515625 
Q 6.78125 27.484375 10.78125 32.3125 
Q 14.796875 37.15625 21.921875 38.8125 
z
M 18.3125 54.390625 
Q 18.3125 48.734375 21.84375 45.5625 
Q 25.390625 42.390625 31.78125 42.390625 
Q 38.140625 42.390625 41.71875 45.5625 
Q 45.3125 48.734375 45.3125 54.390625 
Q 45.3125 60.0625 41.71875 63.234375 
Q 38.140625 66.40625 31.78125 66.40625 
Q 25.390625 66.40625 21.84375 63.234375 
Q 18.3125 60.0625 18.3125 54.390625 
z
" id="DejaVuSans-56"/>
       </defs>
       <use xlink:href="#DejaVuSans-48"/>
       <use x="63.623047" xlink:href="#DejaVuSans-46"/>
       <use x="95.410156" xlink:href="#DejaVuSans-56"/>
      </g>
     </g>
    </g>
    <g id="ytick_4">
     <g id="line2d_12">
      <path clip-path="url(#pd2de6e5d27)" d="M 108 120.1512 
L 777.6 120.1512 
" style="fill:none;stroke:#ffffff;stroke-linecap:round;stroke-width:0.8;"/>
     </g>
     <g id="text_13">
      <!-- 1.0 -->
      <g style="fill:#262626;" transform="translate(85.096875 123.950419)scale(0.1 -0.1)">
       <use xlink:href="#DejaVuSans-49"/>
       <use x="63.623047" xlink:href="#DejaVuSans-46"/>
       <use x="95.410156" xlink:href="#DejaVuSans-48"/>
      </g>
     </g>
    </g>
    <g id="text_14">
     <!-- Residual variance -->
     <g style="fill:#262626;" transform="translate(78.185312 316.44375)rotate(-90)scale(0.14 -0.14)">
      <defs>
       <path d="M 44.390625 34.1875 
Q 47.5625 33.109375 50.5625 29.59375 
Q 53.5625 26.078125 56.59375 19.921875 
L 66.609375 0 
L 56 0 
L 46.6875 18.703125 
Q 43.0625 26.03125 39.671875 28.421875 
Q 36.28125 30.8125 30.421875 30.8125 
L 19.671875 30.8125 
L 19.671875 0 
L 9.8125 0 
L 9.8125 72.90625 
L 32.078125 72.90625 
Q 44.578125 72.90625 50.734375 67.671875 
Q 56.890625 62.453125 56.890625 51.90625 
Q 56.890625 45.015625 53.6875 40.46875 
Q 50.484375 35.9375 44.390625 34.1875 
z
M 19.671875 64.796875 
L 19.671875 38.921875 
L 32.078125 38.921875 
Q 39.203125 38.921875 42.84375 42.21875 
Q 46.484375 45.515625 46.484375 51.90625 
Q 46.484375 58.296875 42.84375 61.546875 
Q 39.203125 64.796875 32.078125 64.796875 
z
" id="DejaVuSans-82"/>
       <path d="M 45.40625 46.390625 
L 45.40625 75.984375 
L 54.390625 75.984375 
L 54.390625 0 
L 45.40625 0 
L 45.40625 8.203125 
Q 42.578125 3.328125 38.25 0.953125 
Q 33.9375 -1.421875 27.875 -1.421875 
Q 17.96875 -1.421875 11.734375 6.484375 
Q 5.515625 14.40625 5.515625 27.296875 
Q 5.515625 40.1875 11.734375 48.09375 
Q 17.96875 56 27.875 56 
Q 33.9375 56 38.25 53.625 
Q 42.578125 51.265625 45.40625 46.390625 
z
M 14.796875 27.296875 
Q 14.796875 17.390625 18.875 11.75 
Q 22.953125 6.109375 30.078125 6.109375 
Q 37.203125 6.109375 41.296875 11.75 
Q 45.40625 17.390625 45.40625 27.296875 
Q 45.40625 37.203125 41.296875 42.84375 
Q 37.203125 48.484375 30.078125 48.484375 
Q 22.953125 48.484375 18.875 42.84375 
Q 14.796875 37.203125 14.796875 27.296875 
z
" id="DejaVuSans-100"/>
       <path d="M 34.28125 27.484375 
Q 23.390625 27.484375 19.1875 25 
Q 14.984375 22.515625 14.984375 16.5 
Q 14.984375 11.71875 18.140625 8.90625 
Q 21.296875 6.109375 26.703125 6.109375 
Q 34.1875 6.109375 38.703125 11.40625 
Q 43.21875 16.703125 43.21875 25.484375 
L 43.21875 27.484375 
z
M 52.203125 31.203125 
L 52.203125 0 
L 43.21875 0 
L 43.21875 8.296875 
Q 40.140625 3.328125 35.546875 0.953125 
Q 30.953125 -1.421875 24.3125 -1.421875 
Q 15.921875 -1.421875 10.953125 3.296875 
Q 6 8.015625 6 15.921875 
Q 6 25.140625 12.171875 29.828125 
Q 18.359375 34.515625 30.609375 34.515625 
L 43.21875 34.515625 
L 43.21875 35.40625 
Q 43.21875 41.609375 39.140625 45 
Q 35.0625 48.390625 27.6875 48.390625 
Q 23 48.390625 18.546875 47.265625 
Q 14.109375 46.140625 10.015625 43.890625 
L 10.015625 52.203125 
Q 14.9375 54.109375 19.578125 55.046875 
Q 24.21875 56 28.609375 56 
Q 40.484375 56 46.34375 49.84375 
Q 52.203125 43.703125 52.203125 31.203125 
z
" id="DejaVuSans-97"/>
       <path d="M 9.421875 75.984375 
L 18.40625 75.984375 
L 18.40625 0 
L 9.421875 0 
z
" id="DejaVuSans-108"/>
       <path d="M 2.984375 54.6875 
L 12.5 54.6875 
L 29.59375 8.796875 
L 46.6875 54.6875 
L 56.203125 54.6875 
L 35.6875 0 
L 23.484375 0 
z
" id="DejaVuSans-118"/>
       <path d="M 48.78125 52.59375 
L 48.78125 44.1875 
Q 44.96875 46.296875 41.140625 47.34375 
Q 37.3125 48.390625 33.40625 48.390625 
Q 24.65625 48.390625 19.8125 42.84375 
Q 14.984375 37.3125 14.984375 27.296875 
Q 14.984375 17.28125 19.8125 11.734375 
Q 24.65625 6.203125 33.40625 6.203125 
Q 37.3125 6.203125 41.140625 7.25 
Q 44.96875 8.296875 48.78125 10.40625 
L 48.78125 2.09375 
Q 45.015625 0.34375 40.984375 -0.53125 
Q 36.96875 -1.421875 32.421875 -1.421875 
Q 20.0625 -1.421875 12.78125 6.34375 
Q 5.515625 14.109375 5.515625 27.296875 
Q 5.515625 40.671875 12.859375 48.328125 
Q 20.21875 56 33.015625 56 
Q 37.15625 56 41.109375 55.140625 
Q 45.0625 54.296875 48.78125 52.59375 
z
" id="DejaVuSans-99"/>
      </defs>
      <use xlink:href="#DejaVuSans-82"/>
      <use x="64.982422" xlink:href="#DejaVuSans-101"/>
      <use x="126.505859" xlink:href="#DejaVuSans-115"/>
      <use x="178.605469" xlink:href="#DejaVuSans-105"/>
      <use x="206.388672" xlink:href="#DejaVuSans-100"/>
      <use x="269.865234" xlink:href="#DejaVuSans-117"/>
      <use x="333.244141" xlink:href="#DejaVuSans-97"/>
      <use x="394.523438" xlink:href="#DejaVuSans-108"/>
      <use x="422.306641" xlink:href="#DejaVuSans-32"/>
      <use x="454.09375" xlink:href="#DejaVuSans-118"/>
      <use x="513.273438" xlink:href="#DejaVuSans-97"/>
      <use x="574.552734" xlink:href="#DejaVuSans-114"/>
      <use x="615.666016" xlink:href="#DejaVuSans-105"/>
      <use x="643.449219" xlink:href="#DejaVuSans-97"/>
      <use x="704.728516" xlink:href="#DejaVuSans-110"/>
      <use x="768.107422" xlink:href="#DejaVuSans-99"/>
      <use x="823.087891" xlink:href="#DejaVuSans-101"/>
     </g>
    </g>
   </g>
   <g id="PolyCollection_1">
    <defs>
     <path d="M 108 -362.100583 
L 108 -334.436755 
L 111.433846 -321.673326 
L 118.301538 -333.346789 
L 125.169231 -348.32805 
L 132.036923 -353.411164 
L 138.904615 -359.148394 
L 145.772308 -363.1406 
L 152.64 -351.716972 
L 159.507692 -353.860731 
L 166.375385 -359.155947 
L 173.243077 -290.714446 
L 180.110769 -361.366245 
L 186.978462 -356.323577 
L 193.846154 -291.753796 
L 200.713846 -287.084923 
L 207.581538 -276.552552 
L 214.449231 -253.965576 
L 221.316923 -251.056427 
L 228.184615 -251.571969 
L 235.052308 -252.329909 
L 241.92 -225.102361 
L 248.787692 -215.989898 
L 255.655385 -215.435132 
L 262.523077 -189.87547 
L 269.390769 -172.663716 
L 276.258462 -168.176519 
L 283.126154 -169.020718 
L 289.993846 -167.515366 
L 296.861538 -174.608549 
L 303.729231 -175.90665 
L 310.596923 -174.72313 
L 317.464615 -178.5718 
L 324.332308 -175.314921 
L 331.2 -212.885345 
L 334.633846 -172.944401 
L 341.501538 -194.147345 
L 348.369231 -259.645916 
L 355.236923 -287.583572 
L 362.104615 -282.920603 
L 368.972308 -283.924259 
L 375.84 -285.092485 
L 382.707692 -287.061068 
L 389.575385 -288.523077 
L 396.443077 -289.37767 
L 403.310769 -288.43779 
L 410.178462 -288.407858 
L 417.046154 -283.140563 
L 423.913846 -268.983082 
L 430.781538 -198.741894 
L 437.649231 -202.392527 
L 444.516923 -188.238452 
L 451.384615 -169.453748 
L 458.252308 -163.259744 
L 465.12 -160.415209 
L 471.987692 -213.167057 
L 478.855385 -167.161084 
L 485.723077 -188.40602 
L 492.590769 -166.914057 
L 499.458462 -166.225114 
L 506.326154 -165.384858 
L 513.193846 -162.836296 
L 520.061538 -158.521629 
L 526.929231 -151.656996 
L 533.796923 -145.683406 
L 540.664615 -143.768182 
L 547.532308 -143.982084 
L 554.4 -150.517515 
L 557.833846 -150.305815 
L 564.701538 -150.464342 
L 571.569231 -150.127313 
L 578.436923 -147.923818 
L 585.304615 -147.120049 
L 592.172308 -142.779053 
L 599.04 -142.45502 
L 605.907692 -142.4224 
L 612.775385 -141.644974 
L 619.643077 -141.020857 
L 626.510769 -140.397566 
L 633.378462 -140.077521 
L 640.246154 -139.932224 
L 647.113846 -140.084866 
L 653.981538 -140.127072 
L 660.849231 -139.913997 
L 667.716923 -139.856018 
L 674.584615 -139.760665 
L 681.452308 -139.335623 
L 688.32 -139.365787 
L 695.187692 -139.118455 
L 702.055385 -140.480162 
L 708.923077 -138.804822 
L 715.790769 -136.07422 
L 722.658462 -135.086496 
L 729.526154 -134.191319 
L 736.393846 -133.010413 
L 743.261538 -131.946203 
L 750.129231 -134.952242 
L 756.996923 -160.756417 
L 763.864615 -183.615689 
L 770.732308 -190.702098 
L 777.6 -198.296516 
L 777.6 -280.443662 
L 777.6 -280.443662 
L 770.732308 -279.215424 
L 763.864615 -279.466274 
L 756.996923 -284.338879 
L 750.129231 -292.172694 
L 743.261538 -293.185901 
L 736.393846 -292.788271 
L 729.526154 -292.384658 
L 722.658462 -292.016158 
L 715.790769 -292.785378 
L 708.923077 -291.932639 
L 702.055385 -291.52554 
L 695.187692 -292.178502 
L 688.32 -292.071639 
L 681.452308 -292.046028 
L 674.584615 -291.50584 
L 667.716923 -291.366687 
L 660.849231 -291.394593 
L 653.981538 -291.178978 
L 647.113846 -290.989255 
L 640.246154 -290.688763 
L 633.378462 -290.441521 
L 626.510769 -290.092971 
L 619.643077 -289.503424 
L 612.775385 -289.202644 
L 605.907692 -290.058433 
L 599.04 -288.340408 
L 592.172308 -287.956735 
L 585.304615 -285.98196 
L 578.436923 -285.19571 
L 571.569231 -283.757771 
L 564.701538 -282.841011 
L 557.833846 -282.268876 
L 554.4 -281.778137 
L 547.532308 -277.930774 
L 540.664615 -276.967283 
L 533.796923 -276.472854 
L 526.929231 -278.251809 
L 520.061538 -281.15209 
L 513.193846 -285.822894 
L 506.326154 -288.5715 
L 499.458462 -290.771686 
L 492.590769 -298.760757 
L 485.723077 -324.538942 
L 478.855385 -300.558412 
L 471.987692 -296.801469 
L 465.12 -338.68313 
L 458.252308 -309.406475 
L 451.384615 -309.192796 
L 444.516923 -323.506075 
L 437.649231 -368.827618 
L 430.781538 -367.727353 
L 423.913846 -345.773452 
L 417.046154 -343.204254 
L 410.178462 -329.3459 
L 403.310769 -332.526337 
L 396.443077 -333.505967 
L 389.575385 -333.58392 
L 382.707692 -334.82998 
L 375.84 -335.983173 
L 368.972308 -336.973042 
L 362.104615 -335.931322 
L 355.236923 -335.450313 
L 348.369231 -339.047359 
L 341.501538 -345.171285 
L 334.633846 -341.356799 
L 331.2 -343.490034 
L 324.332308 -342.676185 
L 317.464615 -338.066718 
L 310.596923 -317.301259 
L 303.729231 -317.03767 
L 296.861538 -319.931316 
L 289.993846 -319.75633 
L 283.126154 -326.377872 
L 276.258462 -319.226427 
L 269.390769 -317.752702 
L 262.523077 -314.949309 
L 255.655385 -338.639481 
L 248.787692 -337.830669 
L 241.92 -314.42725 
L 235.052308 -330.527227 
L 228.184615 -325.876273 
L 221.316923 -326.914757 
L 214.449231 -328.055039 
L 207.581538 -381.82284 
L 200.713846 -405.088505 
L 193.846154 -411.604382 
L 186.978462 -386.650233 
L 180.110769 -380.33764 
L 173.243077 -408.904229 
L 166.375385 -377.417932 
L 159.507692 -377.957011 
L 152.64 -371.364736 
L 145.772308 -376.222143 
L 138.904615 -362.7905 
L 132.036923 -360.578466 
L 125.169231 -362.283144 
L 118.301538 -355.187958 
L 111.433846 -361.949448 
L 108 -362.100583 
z
" id="m5332ded639" style="stroke:#db5f57;stroke-opacity:0.2;"/>
    </defs>
    <g clip-path="url(#pd2de6e5d27)">
     <use style="fill:#db5f57;fill-opacity:0.2;stroke:#db5f57;stroke-opacity:0.2;" x="0" xlink:href="#m5332ded639" y="504"/>
    </g>
   </g>
   <g id="PolyCollection_2">
    <defs>
     <path d="M 108 -341.204069 
L 108 -330.153396 
L 111.433846 -312.408123 
L 118.301538 -329.190455 
L 125.169231 -343.030374 
L 132.036923 -348.99666 
L 138.904615 -353.359815 
L 145.772308 -358.54956 
L 152.64 -286.117743 
L 159.507692 -287.46964 
L 166.375385 -275.6678 
L 173.243077 -288.430316 
L 180.110769 -269.667026 
L 186.978462 -245.595274 
L 193.846154 -282.043604 
L 200.713846 -266.883152 
L 207.581538 -207.107734 
L 214.449231 -133.580831 
L 221.316923 -127.230379 
L 228.184615 -129.251431 
L 235.052308 -133.912458 
L 241.92 -159.315785 
L 248.787692 -110.751402 
L 255.655385 -114.996649 
L 262.523077 -106.991402 
L 269.390769 -107.551718 
L 276.258462 -109.711878 
L 283.126154 -109.69624 
L 289.993846 -108.904742 
L 296.861538 -109.861445 
L 303.729231 -108.152554 
L 310.596923 -90.726403 
L 317.464615 -80.914234 
L 324.332308 -77.463814 
L 331.2 -74.616084 
L 334.633846 -73.867359 
L 341.501538 -73.477126 
L 348.369231 -73.08 
L 355.236923 -75.575507 
L 362.104615 -80.368786 
L 368.972308 -83.614741 
L 375.84 -99.031101 
L 382.707692 -97.639936 
L 389.575385 -94.646307 
L 396.443077 -93.801224 
L 403.310769 -96.70747 
L 410.178462 -95.524604 
L 417.046154 -97.289086 
L 423.913846 -99.896337 
L 430.781538 -99.265506 
L 437.649231 -102.239819 
L 444.516923 -103.003957 
L 451.384615 -103.876879 
L 458.252308 -104.714021 
L 465.12 -104.232641 
L 471.987692 -103.075501 
L 478.855385 -103.270165 
L 485.723077 -103.781107 
L 492.590769 -103.200581 
L 499.458462 -86.096175 
L 506.326154 -102.884963 
L 513.193846 -103.53543 
L 520.061538 -103.544318 
L 526.929231 -103.901992 
L 533.796923 -103.536979 
L 540.664615 -103.354492 
L 547.532308 -103.5312 
L 554.4 -104.660046 
L 557.833846 -103.694998 
L 564.701538 -104.066238 
L 571.569231 -104.199524 
L 578.436923 -103.981569 
L 585.304615 -103.784017 
L 592.172308 -103.728761 
L 599.04 -105.658741 
L 605.907692 -103.781956 
L 612.775385 -103.446289 
L 619.643077 -103.375363 
L 626.510769 -103.399749 
L 633.378462 -102.675783 
L 640.246154 -102.822509 
L 647.113846 -103.157482 
L 653.981538 -102.881714 
L 660.849231 -101.96918 
L 667.716923 -104.03448 
L 674.584615 -105.293232 
L 681.452308 -104.620862 
L 688.32 -103.900312 
L 695.187692 -104.14194 
L 702.055385 -104.051255 
L 708.923077 -103.811153 
L 715.790769 -103.767511 
L 722.658462 -104.006054 
L 729.526154 -103.030698 
L 736.393846 -102.992274 
L 743.261538 -103.150308 
L 750.129231 -102.736259 
L 756.996923 -94.538031 
L 763.864615 -100.124958 
L 770.732308 -100.434892 
L 777.6 -100.259763 
L 777.6 -145.035021 
L 777.6 -145.035021 
L 770.732308 -144.695798 
L 763.864615 -145.244475 
L 756.996923 -193.959836 
L 750.129231 -159.224993 
L 743.261538 -155.377458 
L 736.393846 -158.644181 
L 729.526154 -159.396766 
L 722.658462 -157.31899 
L 715.790769 -159.951797 
L 708.923077 -159.325085 
L 702.055385 -159.668561 
L 695.187692 -158.866826 
L 688.32 -158.774439 
L 681.452308 -157.124838 
L 674.584615 -150.536876 
L 667.716923 -146.027164 
L 660.849231 -143.893439 
L 653.981538 -143.710054 
L 647.113846 -144.237835 
L 640.246154 -144.014796 
L 633.378462 -144.275239 
L 626.510769 -144.616559 
L 619.643077 -144.100967 
L 612.775385 -143.786472 
L 605.907692 -143.851427 
L 599.04 -155.774252 
L 592.172308 -143.35401 
L 585.304615 -142.97256 
L 578.436923 -142.685412 
L 571.569231 -142.390842 
L 564.701538 -141.955563 
L 557.833846 -142.051621 
L 554.4 -156.967313 
L 547.532308 -143.262947 
L 540.664615 -143.311895 
L 533.796923 -143.610882 
L 526.929231 -143.020811 
L 520.061538 -142.470494 
L 513.193846 -142.978239 
L 506.326154 -142.541858 
L 499.458462 -216.158491 
L 492.590769 -142.487845 
L 485.723077 -142.54044 
L 478.855385 -142.083017 
L 471.987692 -141.803576 
L 465.12 -156.072593 
L 458.252308 -152.036126 
L 451.384615 -142.522431 
L 444.516923 -159.114737 
L 437.649231 -160.877186 
L 430.781538 -170.52714 
L 423.913846 -168.124251 
L 417.046154 -176.57917 
L 410.178462 -179.922098 
L 403.310769 -175.332393 
L 396.443077 -180.531922 
L 389.575385 -177.659066 
L 382.707692 -167.83218 
L 375.84 -163.367416 
L 368.972308 -228.874937 
L 362.104615 -222.895077 
L 355.236923 -218.778162 
L 348.369231 -216.914184 
L 341.501538 -215.072241 
L 334.633846 -214.679199 
L 331.2 -211.65664 
L 324.332308 -206.481652 
L 317.464615 -198.259222 
L 310.596923 -176.561153 
L 303.729231 -132.490253 
L 296.861538 -136.175 
L 289.993846 -138.494518 
L 283.126154 -138.610524 
L 276.258462 -139.22039 
L 269.390769 -138.471558 
L 262.523077 -137.617295 
L 255.655385 -176.751459 
L 248.787692 -187.131365 
L 241.92 -190.46291 
L 235.052308 -203.174929 
L 228.184615 -196.123753 
L 221.316923 -192.699111 
L 214.449231 -220.087723 
L 207.581538 -303.187148 
L 200.713846 -379.235911 
L 193.846154 -406.279281 
L 186.978462 -425.88 
L 180.110769 -413.323029 
L 173.243077 -405.385362 
L 166.375385 -405.608686 
L 159.507692 -398.287601 
L 152.64 -392.950201 
L 145.772308 -362.888848 
L 138.904615 -359.286 
L 132.036923 -355.689245 
L 125.169231 -351.603226 
L 118.301538 -352.154199 
L 111.433846 -357.999909 
L 108 -341.204069 
z
" id="mc02b90318d" style="stroke:#57d3db;stroke-opacity:0.2;"/>
    </defs>
    <g clip-path="url(#pd2de6e5d27)">
     <use style="fill:#57d3db;fill-opacity:0.2;stroke:#57d3db;stroke-opacity:0.2;" x="0" xlink:href="#mc02b90318d" y="504"/>
    </g>
   </g>
   <g id="line2d_13">
    <path clip-path="url(#pd2de6e5d27)" d="M 108 155.731331 
L 111.433846 162.188613 
L 118.301538 159.732626 
L 125.169231 148.694403 
L 132.036923 147.005185 
L 138.904615 143.030553 
L 145.772308 134.318628 
L 152.64 142.459146 
L 159.507692 138.091129 
L 166.375385 135.713061 
L 173.243077 154.190662 
L 180.110769 133.148057 
L 186.978462 132.513095 
L 193.846154 152.320911 
L 200.713846 157.913286 
L 207.581538 174.812304 
L 214.449231 212.989692 
L 221.316923 215.014408 
L 228.184615 215.275879 
L 235.052308 212.571432 
L 241.92 234.235195 
L 248.787692 227.089717 
L 255.655385 226.962694 
L 262.523077 251.58761 
L 269.390769 258.791791 
L 276.258462 260.298527 
L 283.126154 256.300705 
L 289.993846 260.364152 
L 296.861538 256.730068 
L 303.729231 257.52784 
L 310.596923 257.987806 
L 317.464615 245.680741 
L 324.332308 245.004447 
L 331.2 225.81231 
L 334.633846 246.8494 
L 341.501538 234.340685 
L 348.369231 204.653362 
L 355.236923 192.483057 
L 362.104615 194.574037 
L 368.972308 193.55135 
L 375.84 193.462171 
L 382.707692 193.054476 
L 389.575385 192.946502 
L 396.443077 192.558181 
L 403.310769 193.517936 
L 410.178462 195.123121 
L 417.046154 190.827592 
L 423.913846 196.621733 
L 430.781538 220.765376 
L 437.649231 218.389928 
L 444.516923 248.127736 
L 451.384615 264.676728 
L 458.252308 267.666891 
L 465.12 254.450831 
L 471.987692 249.015737 
L 478.855385 270.140252 
L 485.723077 247.527519 
L 492.590769 271.162593 
L 499.458462 275.5016 
L 506.326154 277.021821 
L 513.193846 279.670405 
L 520.061538 284.16314 
L 526.929231 289.045598 
L 533.796923 292.92187 
L 540.664615 293.632267 
L 547.532308 293.043571 
L 554.4 287.852174 
L 557.833846 287.712655 
L 564.701538 287.347324 
L 571.569231 287.057458 
L 578.436923 287.440236 
L 585.304615 287.448996 
L 592.172308 288.632106 
L 599.04 288.602286 
L 605.907692 287.759583 
L 612.775385 288.576191 
L 619.643077 288.737859 
L 626.510769 288.754731 
L 633.378462 288.740479 
L 640.246154 288.689506 
L 647.113846 288.462939 
L 653.981538 288.346975 
L 660.849231 288.345705 
L 667.716923 288.388647 
L 674.584615 288.366748 
L 681.452308 288.309175 
L 688.32 288.281287 
L 695.187692 288.351522 
L 702.055385 287.997149 
L 708.923077 288.63127 
L 715.790769 289.570201 
L 722.658462 290.448673 
L 729.526154 290.712011 
L 736.393846 291.100658 
L 743.261538 291.433948 
L 750.129231 290.437532 
L 756.996923 281.452352 
L 763.864615 272.459019 
L 770.732308 269.041239 
L 777.6 264.629911 
" style="fill:none;stroke:#db5f57;stroke-linecap:round;stroke-width:1.5;"/>
   </g>
   <g id="line2d_14">
    <path clip-path="url(#pd2de6e5d27)" d="M 108 168.321268 
L 111.433846 168.795984 
L 118.301538 163.327673 
L 125.169231 156.6832 
L 132.036923 151.657047 
L 138.904615 147.677093 
L 145.772308 143.280796 
L 152.64 164.466028 
L 159.507692 161.121379 
L 166.375385 163.361757 
L 173.243077 157.092161 
L 180.110769 162.504973 
L 186.978462 168.262363 
L 193.846154 159.838558 
L 200.713846 180.940469 
L 207.581538 248.852559 
L 214.449231 327.165723 
L 221.316923 344.035255 
L 228.184615 341.312408 
L 235.052308 335.456307 
L 241.92 329.110653 
L 248.787692 355.058616 
L 255.655385 358.125946 
L 262.523077 381.695652 
L 269.390769 380.988362 
L 276.258462 379.533866 
L 283.126154 379.846618 
L 289.993846 380.30037 
L 296.861538 380.981777 
L 303.729231 383.678597 
L 310.596923 370.356222 
L 317.464615 364.413272 
L 324.332308 362.027267 
L 331.2 360.863638 
L 334.633846 359.726721 
L 341.501538 359.725316 
L 348.369231 359.002908 
L 355.236923 356.823165 
L 362.104615 352.368068 
L 368.972308 347.755161 
L 375.84 372.800741 
L 382.707692 371.263942 
L 389.575385 367.847313 
L 396.443077 366.833427 
L 403.310769 367.980068 
L 410.178462 366.276649 
L 417.046154 367.065872 
L 423.913846 369.989706 
L 430.781538 369.103677 
L 437.649231 372.441498 
L 444.516923 372.940653 
L 451.384615 380.800345 
L 458.252308 375.624927 
L 465.12 373.847383 
L 471.987692 381.560462 
L 478.855385 381.323409 
L 485.723077 380.839226 
L 492.590769 381.155787 
L 499.458462 352.872667 
L 506.326154 381.28659 
L 513.193846 380.743165 
L 520.061538 380.992594 
L 526.929231 380.538598 
L 533.796923 380.42607 
L 540.664615 380.666807 
L 547.532308 380.602926 
L 554.4 373.18632 
L 557.833846 381.12669 
L 564.701538 380.9891 
L 571.569231 380.704817 
L 578.436923 380.66651 
L 585.304615 380.621711 
L 592.172308 380.458615 
L 599.04 373.283503 
L 605.907692 380.183308 
L 612.775385 380.383619 
L 619.643077 380.261835 
L 626.510769 379.991846 
L 633.378462 380.524489 
L 640.246154 380.581347 
L 647.113846 380.302341 
L 653.981538 380.704116 
L 660.849231 381.06869 
L 667.716923 378.969178 
L 674.584615 376.084946 
L 681.452308 373.12715 
L 688.32 372.662624 
L 695.187692 372.495617 
L 702.055385 372.140092 
L 708.923077 372.431881 
L 715.790769 372.140346 
L 722.658462 373.337478 
L 729.526154 372.786268 
L 736.393846 373.181773 
L 743.261538 374.736117 
L 750.129231 373.019374 
L 756.996923 359.751066 
L 763.864615 381.315283 
L 770.732308 381.434655 
L 777.6 381.352608 
" style="fill:none;stroke:#57d3db;stroke-linecap:round;stroke-width:1.5;"/>
   </g>
   <g id="line2d_15"/>
   <g id="line2d_16"/>
   <g id="patch_3">
    <path d="M 108 448.56 
L 108 60.48 
" style="fill:none;stroke:#ffffff;stroke-linecap:square;stroke-linejoin:miter;stroke-width:0.8;"/>
   </g>
   <g id="patch_4">
    <path d="M 777.6 448.56 
L 777.6 60.48 
" style="fill:none;stroke:#ffffff;stroke-linecap:square;stroke-linejoin:miter;stroke-width:0.8;"/>
   </g>
   <g id="patch_5">
    <path d="M 108 448.56 
L 777.6 448.56 
" style="fill:none;stroke:#ffffff;stroke-linecap:square;stroke-linejoin:miter;stroke-width:0.8;"/>
   </g>
   <g id="patch_6">
    <path d="M 108 60.48 
L 777.6 60.48 
" style="fill:none;stroke:#ffffff;stroke-linecap:square;stroke-linejoin:miter;stroke-width:0.8;"/>
   </g>
   <g id="text_15">
    <!-- MLLE residual variance -->
    <g style="fill:#262626;" transform="translate(350.705 54.48)scale(0.16 -0.16)">
     <defs>
      <path d="M 9.8125 72.90625 
L 24.515625 72.90625 
L 43.109375 23.296875 
L 61.8125 72.90625 
L 76.515625 72.90625 
L 76.515625 0 
L 66.890625 0 
L 66.890625 64.015625 
L 48.09375 14.015625 
L 38.1875 14.015625 
L 19.390625 64.015625 
L 19.390625 0 
L 9.8125 0 
z
" id="DejaVuSans-77"/>
      <path d="M 9.8125 72.90625 
L 19.671875 72.90625 
L 19.671875 8.296875 
L 55.171875 8.296875 
L 55.171875 0 
L 9.8125 0 
z
" id="DejaVuSans-76"/>
      <path d="M 9.8125 72.90625 
L 55.90625 72.90625 
L 55.90625 64.59375 
L 19.671875 64.59375 
L 19.671875 43.015625 
L 54.390625 43.015625 
L 54.390625 34.71875 
L 19.671875 34.71875 
L 19.671875 8.296875 
L 56.78125 8.296875 
L 56.78125 0 
L 9.8125 0 
z
" id="DejaVuSans-69"/>
     </defs>
     <use xlink:href="#DejaVuSans-77"/>
     <use x="86.279297" xlink:href="#DejaVuSans-76"/>
     <use x="141.992188" xlink:href="#DejaVuSans-76"/>
     <use x="197.705078" xlink:href="#DejaVuSans-69"/>
     <use x="260.888672" xlink:href="#DejaVuSans-32"/>
     <use x="292.675781" xlink:href="#DejaVuSans-114"/>
     <use x="331.539062" xlink:href="#DejaVuSans-101"/>
     <use x="393.0625" xlink:href="#DejaVuSans-115"/>
     <use x="445.162109" xlink:href="#DejaVuSans-105"/>
     <use x="472.945312" xlink:href="#DejaVuSans-100"/>
     <use x="536.421875" xlink:href="#DejaVuSans-117"/>
     <use x="599.800781" xlink:href="#DejaVuSans-97"/>
     <use x="661.080078" xlink:href="#DejaVuSans-108"/>
     <use x="688.863281" xlink:href="#DejaVuSans-32"/>
     <use x="720.650391" xlink:href="#DejaVuSans-118"/>
     <use x="779.830078" xlink:href="#DejaVuSans-97"/>
     <use x="841.109375" xlink:href="#DejaVuSans-114"/>
     <use x="882.222656" xlink:href="#DejaVuSans-105"/>
     <use x="910.005859" xlink:href="#DejaVuSans-97"/>
     <use x="971.285156" xlink:href="#DejaVuSans-110"/>
     <use x="1034.664062" xlink:href="#DejaVuSans-99"/>
     <use x="1089.644531" xlink:href="#DejaVuSans-101"/>
    </g>
   </g>
   <g id="legend_1">
    <g id="patch_7">
     <path d="M 656.74125 122.92125 
L 769.2 122.92125 
Q 771.6 122.92125 771.6 120.52125 
L 771.6 68.88 
Q 771.6 66.48 769.2 66.48 
L 656.74125 66.48 
Q 654.34125 66.48 654.34125 68.88 
L 654.34125 120.52125 
Q 654.34125 122.92125 656.74125 122.92125 
z
" style="fill:#eaeaf2;opacity:0.8;stroke:#cccccc;stroke-linejoin:miter;"/>
    </g>
    <g id="text_16">
     <!-- Output dimension -->
     <g style="fill:#262626;" transform="translate(659.14125 80.398125)scale(0.12 -0.12)">
      <defs>
       <path d="M 39.40625 66.21875 
Q 28.65625 66.21875 22.328125 58.203125 
Q 16.015625 50.203125 16.015625 36.375 
Q 16.015625 22.609375 22.328125 14.59375 
Q 28.65625 6.59375 39.40625 6.59375 
Q 50.140625 6.59375 56.421875 14.59375 
Q 62.703125 22.609375 62.703125 36.375 
Q 62.703125 50.203125 56.421875 58.203125 
Q 50.140625 66.21875 39.40625 66.21875 
z
M 39.40625 74.21875 
Q 54.734375 74.21875 63.90625 63.9375 
Q 73.09375 53.65625 73.09375 36.375 
Q 73.09375 19.140625 63.90625 8.859375 
Q 54.734375 -1.421875 39.40625 -1.421875 
Q 24.03125 -1.421875 14.8125 8.828125 
Q 5.609375 19.09375 5.609375 36.375 
Q 5.609375 53.65625 14.8125 63.9375 
Q 24.03125 74.21875 39.40625 74.21875 
z
" id="DejaVuSans-79"/>
       <path d="M 18.3125 70.21875 
L 18.3125 54.6875 
L 36.8125 54.6875 
L 36.8125 47.703125 
L 18.3125 47.703125 
L 18.3125 18.015625 
Q 18.3125 11.328125 20.140625 9.421875 
Q 21.96875 7.515625 27.59375 7.515625 
L 36.8125 7.515625 
L 36.8125 0 
L 27.59375 0 
Q 17.1875 0 13.234375 3.875 
Q 9.28125 7.765625 9.28125 18.015625 
L 9.28125 47.703125 
L 2.6875 47.703125 
L 2.6875 54.6875 
L 9.28125 54.6875 
L 9.28125 70.21875 
z
" id="DejaVuSans-116"/>
       <path d="M 18.109375 8.203125 
L 18.109375 -20.796875 
L 9.078125 -20.796875 
L 9.078125 54.6875 
L 18.109375 54.6875 
L 18.109375 46.390625 
Q 20.953125 51.265625 25.265625 53.625 
Q 29.59375 56 35.59375 56 
Q 45.5625 56 51.78125 48.09375 
Q 58.015625 40.1875 58.015625 27.296875 
Q 58.015625 14.40625 51.78125 6.484375 
Q 45.5625 -1.421875 35.59375 -1.421875 
Q 29.59375 -1.421875 25.265625 0.953125 
Q 20.953125 3.328125 18.109375 8.203125 
z
M 48.6875 27.296875 
Q 48.6875 37.203125 44.609375 42.84375 
Q 40.53125 48.484375 33.40625 48.484375 
Q 26.265625 48.484375 22.1875 42.84375 
Q 18.109375 37.203125 18.109375 27.296875 
Q 18.109375 17.390625 22.1875 11.75 
Q 26.265625 6.109375 33.40625 6.109375 
Q 40.53125 6.109375 44.609375 11.75 
Q 48.6875 17.390625 48.6875 27.296875 
z
" id="DejaVuSans-112"/>
      </defs>
      <use xlink:href="#DejaVuSans-79"/>
      <use x="78.710938" xlink:href="#DejaVuSans-117"/>
      <use x="142.089844" xlink:href="#DejaVuSans-116"/>
      <use x="181.298828" xlink:href="#DejaVuSans-112"/>
      <use x="244.775391" xlink:href="#DejaVuSans-117"/>
      <use x="308.154297" xlink:href="#DejaVuSans-116"/>
      <use x="347.363281" xlink:href="#DejaVuSans-32"/>
      <use x="379.150391" xlink:href="#DejaVuSans-100"/>
      <use x="442.626953" xlink:href="#DejaVuSans-105"/>
      <use x="470.410156" xlink:href="#DejaVuSans-109"/>
      <use x="567.822266" xlink:href="#DejaVuSans-101"/>
      <use x="629.345703" xlink:href="#DejaVuSans-110"/>
      <use x="692.724609" xlink:href="#DejaVuSans-115"/>
      <use x="744.824219" xlink:href="#DejaVuSans-105"/>
      <use x="772.607422" xlink:href="#DejaVuSans-111"/>
      <use x="833.789062" xlink:href="#DejaVuSans-110"/>
     </g>
    </g>
    <g id="line2d_17">
     <path d="M 686.62875 93.811875 
L 710.62875 93.811875 
" style="fill:none;stroke:#db5f57;stroke-linecap:round;stroke-width:1.5;"/>
    </g>
    <g id="line2d_18"/>
    <g id="text_17">
     <!-- 2.0 -->
     <g style="fill:#262626;" transform="translate(720.22875 98.011875)scale(0.12 -0.12)">
      <use xlink:href="#DejaVuSans-50"/>
      <use x="63.623047" xlink:href="#DejaVuSans-46"/>
      <use x="95.410156" xlink:href="#DejaVuSans-48"/>
     </g>
    </g>
    <g id="line2d_19">
     <path d="M 686.62875 111.425625 
L 710.62875 111.425625 
" style="fill:none;stroke:#57d3db;stroke-linecap:round;stroke-width:1.5;"/>
    </g>
    <g id="line2d_20"/>
    <g id="text_18">
     <!-- 4.0 -->
     <g style="fill:#262626;" transform="translate(720.22875 115.625625)scale(0.12 -0.12)">
      <use xlink:href="#DejaVuSans-52"/>
      <use x="63.623047" xlink:href="#DejaVuSans-46"/>
      <use x="95.410156" xlink:href="#DejaVuSans-48"/>
     </g>
    </g>
   </g>
  </g>
 </g>
 <defs>
  <clipPath id="pd2de6e5d27">
   <rect height="388.08" width="669.6" x="108" y="60.48"/>
  </clipPath>
 </defs>
</svg>
