<?xml version="1.0" encoding="utf-8" standalone="no"?>
<!DOCTYPE svg PUBLIC "-//W3C//DTD SVG 1.1//EN"
  "http://www.w3.org/Graphics/SVG/1.1/DTD/svg11.dtd">
<!-- Created with matplotlib (https://matplotlib.org/) -->
<svg height="504pt" version="1.1" viewBox="0 0 864 504" width="864pt" xmlns="http://www.w3.org/2000/svg" xmlns:xlink="http://www.w3.org/1999/xlink">
 <metadata>
  <rdf:RDF xmlns:cc="http://creativecommons.org/ns#" xmlns:dc="http://purl.org/dc/elements/1.1/" xmlns:rdf="http://www.w3.org/1999/02/22-rdf-syntax-ns#">
   <cc:Work>
    <dc:type rdf:resource="http://purl.org/dc/dcmitype/StillImage"/>
    <dc:date>2021-05-23T03:35:58.555341</dc:date>
    <dc:format>image/svg+xml</dc:format>
    <dc:creator>
     <cc:Agent>
      <dc:title>Matplotlib v3.3.2, https://matplotlib.org/</dc:title>
     </cc:Agent>
    </dc:creator>
   </cc:Work>
  </rdf:RDF>
 </metadata>
 <defs>
  <style type="text/css">*{stroke-linecap:butt;stroke-linejoin:round;}</style>
 </defs>
 <g id="figure_1">
  <g id="patch_1">
   <path d="M 0 504 
L 864 504 
L 864 0 
L 0 0 
z
" style="fill:#ffffff;"/>
  </g>
  <g id="axes_1">
   <g id="patch_2">
    <path d="M 108 448.56 
L 777.6 448.56 
L 777.6 60.48 
L 108 60.48 
z
" style="fill:#eaeaf2;"/>
   </g>
   <g id="matplotlib.axis_1">
    <g id="xtick_1">
     <g id="line2d_1">
      <path clip-path="url(#pcf9addc425)" d="M 176.676923 448.56 
L 176.676923 60.48 
" style="fill:none;stroke:#ffffff;stroke-linecap:round;stroke-width:0.8;"/>
     </g>
     <g id="text_1">
      <!-- 25 -->
      <g style="fill:#262626;" transform="translate(170.314423 463.158437)scale(0.1 -0.1)">
       <defs>
        <path d="M 19.1875 8.296875 
L 53.609375 8.296875 
L 53.609375 0 
L 7.328125 0 
L 7.328125 8.296875 
Q 12.9375 14.109375 22.625 23.890625 
Q 32.328125 33.6875 34.8125 36.53125 
Q 39.546875 41.84375 41.421875 45.53125 
Q 43.3125 49.21875 43.3125 52.78125 
Q 43.3125 58.59375 39.234375 62.25 
Q 35.15625 65.921875 28.609375 65.921875 
Q 23.96875 65.921875 18.8125 64.3125 
Q 13.671875 62.703125 7.8125 59.421875 
L 7.8125 69.390625 
Q 13.765625 71.78125 18.9375 73 
Q 24.125 74.21875 28.421875 74.21875 
Q 39.75 74.21875 46.484375 68.546875 
Q 53.21875 62.890625 53.21875 53.421875 
Q 53.21875 48.921875 51.53125 44.890625 
Q 49.859375 40.875 45.40625 35.40625 
Q 44.1875 33.984375 37.640625 27.21875 
Q 31.109375 20.453125 19.1875 8.296875 
z
" id="DejaVuSans-50"/>
        <path d="M 10.796875 72.90625 
L 49.515625 72.90625 
L 49.515625 64.59375 
L 19.828125 64.59375 
L 19.828125 46.734375 
Q 21.96875 47.46875 24.109375 47.828125 
Q 26.265625 48.1875 28.421875 48.1875 
Q 40.625 48.1875 47.75 41.5 
Q 54.890625 34.8125 54.890625 23.390625 
Q 54.890625 11.625 47.5625 5.09375 
Q 40.234375 -1.421875 26.90625 -1.421875 
Q 22.3125 -1.421875 17.546875 -0.640625 
Q 12.796875 0.140625 7.71875 1.703125 
L 7.71875 11.625 
Q 12.109375 9.234375 16.796875 8.0625 
Q 21.484375 6.890625 26.703125 6.890625 
Q 35.15625 6.890625 40.078125 11.328125 
Q 45.015625 15.765625 45.015625 23.390625 
Q 45.015625 31 40.078125 35.4375 
Q 35.15625 39.890625 26.703125 39.890625 
Q 22.75 39.890625 18.8125 39.015625 
Q 14.890625 38.140625 10.796875 36.28125 
z
" id="DejaVuSans-53"/>
       </defs>
       <use xlink:href="#DejaVuSans-50"/>
       <use x="63.623047" xlink:href="#DejaVuSans-53"/>
      </g>
     </g>
    </g>
    <g id="xtick_2">
     <g id="line2d_2">
      <path clip-path="url(#pcf9addc425)" d="M 262.523077 448.56 
L 262.523077 60.48 
" style="fill:none;stroke:#ffffff;stroke-linecap:round;stroke-width:0.8;"/>
     </g>
     <g id="text_2">
      <!-- 50 -->
      <g style="fill:#262626;" transform="translate(256.160577 463.158437)scale(0.1 -0.1)">
       <defs>
        <path d="M 31.78125 66.40625 
Q 24.171875 66.40625 20.328125 58.90625 
Q 16.5 51.421875 16.5 36.375 
Q 16.5 21.390625 20.328125 13.890625 
Q 24.171875 6.390625 31.78125 6.390625 
Q 39.453125 6.390625 43.28125 13.890625 
Q 47.125 21.390625 47.125 36.375 
Q 47.125 51.421875 43.28125 58.90625 
Q 39.453125 66.40625 31.78125 66.40625 
z
M 31.78125 74.21875 
Q 44.046875 74.21875 50.515625 64.515625 
Q 56.984375 54.828125 56.984375 36.375 
Q 56.984375 17.96875 50.515625 8.265625 
Q 44.046875 -1.421875 31.78125 -1.421875 
Q 19.53125 -1.421875 13.0625 8.265625 
Q 6.59375 17.96875 6.59375 36.375 
Q 6.59375 54.828125 13.0625 64.515625 
Q 19.53125 74.21875 31.78125 74.21875 
z
" id="DejaVuSans-48"/>
       </defs>
       <use xlink:href="#DejaVuSans-53"/>
       <use x="63.623047" xlink:href="#DejaVuSans-48"/>
      </g>
     </g>
    </g>
    <g id="xtick_3">
     <g id="line2d_3">
      <path clip-path="url(#pcf9addc425)" d="M 348.369231 448.56 
L 348.369231 60.48 
" style="fill:none;stroke:#ffffff;stroke-linecap:round;stroke-width:0.8;"/>
     </g>
     <g id="text_3">
      <!-- 75 -->
      <g style="fill:#262626;" transform="translate(342.006731 463.158437)scale(0.1 -0.1)">
       <defs>
        <path d="M 8.203125 72.90625 
L 55.078125 72.90625 
L 55.078125 68.703125 
L 28.609375 0 
L 18.3125 0 
L 43.21875 64.59375 
L 8.203125 64.59375 
z
" id="DejaVuSans-55"/>
       </defs>
       <use xlink:href="#DejaVuSans-55"/>
       <use x="63.623047" xlink:href="#DejaVuSans-53"/>
      </g>
     </g>
    </g>
    <g id="xtick_4">
     <g id="line2d_4">
      <path clip-path="url(#pcf9addc425)" d="M 434.215385 448.56 
L 434.215385 60.48 
" style="fill:none;stroke:#ffffff;stroke-linecap:round;stroke-width:0.8;"/>
     </g>
     <g id="text_4">
      <!-- 100 -->
      <g style="fill:#262626;" transform="translate(424.671635 463.158437)scale(0.1 -0.1)">
       <defs>
        <path d="M 12.40625 8.296875 
L 28.515625 8.296875 
L 28.515625 63.921875 
L 10.984375 60.40625 
L 10.984375 69.390625 
L 28.421875 72.90625 
L 38.28125 72.90625 
L 38.28125 8.296875 
L 54.390625 8.296875 
L 54.390625 0 
L 12.40625 0 
z
" id="DejaVuSans-49"/>
       </defs>
       <use xlink:href="#DejaVuSans-49"/>
       <use x="63.623047" xlink:href="#DejaVuSans-48"/>
       <use x="127.246094" xlink:href="#DejaVuSans-48"/>
      </g>
     </g>
    </g>
    <g id="xtick_5">
     <g id="line2d_5">
      <path clip-path="url(#pcf9addc425)" d="M 520.061538 448.56 
L 520.061538 60.48 
" style="fill:none;stroke:#ffffff;stroke-linecap:round;stroke-width:0.8;"/>
     </g>
     <g id="text_5">
      <!-- 125 -->
      <g style="fill:#262626;" transform="translate(510.517788 463.158437)scale(0.1 -0.1)">
       <use xlink:href="#DejaVuSans-49"/>
       <use x="63.623047" xlink:href="#DejaVuSans-50"/>
       <use x="127.246094" xlink:href="#DejaVuSans-53"/>
      </g>
     </g>
    </g>
    <g id="xtick_6">
     <g id="line2d_6">
      <path clip-path="url(#pcf9addc425)" d="M 605.907692 448.56 
L 605.907692 60.48 
" style="fill:none;stroke:#ffffff;stroke-linecap:round;stroke-width:0.8;"/>
     </g>
     <g id="text_6">
      <!-- 150 -->
      <g style="fill:#262626;" transform="translate(596.363942 463.158437)scale(0.1 -0.1)">
       <use xlink:href="#DejaVuSans-49"/>
       <use x="63.623047" xlink:href="#DejaVuSans-53"/>
       <use x="127.246094" xlink:href="#DejaVuSans-48"/>
      </g>
     </g>
    </g>
    <g id="xtick_7">
     <g id="line2d_7">
      <path clip-path="url(#pcf9addc425)" d="M 691.753846 448.56 
L 691.753846 60.48 
" style="fill:none;stroke:#ffffff;stroke-linecap:round;stroke-width:0.8;"/>
     </g>
     <g id="text_7">
      <!-- 175 -->
      <g style="fill:#262626;" transform="translate(682.210096 463.158437)scale(0.1 -0.1)">
       <use xlink:href="#DejaVuSans-49"/>
       <use x="63.623047" xlink:href="#DejaVuSans-55"/>
       <use x="127.246094" xlink:href="#DejaVuSans-53"/>
      </g>
     </g>
    </g>
    <g id="xtick_8">
     <g id="line2d_8">
      <path clip-path="url(#pcf9addc425)" d="M 777.6 448.56 
L 777.6 60.48 
" style="fill:none;stroke:#ffffff;stroke-linecap:round;stroke-width:0.8;"/>
     </g>
     <g id="text_8">
      <!-- 200 -->
      <g style="fill:#262626;" transform="translate(768.05625 463.158437)scale(0.1 -0.1)">
       <use xlink:href="#DejaVuSans-50"/>
       <use x="63.623047" xlink:href="#DejaVuSans-48"/>
       <use x="127.246094" xlink:href="#DejaVuSans-48"/>
      </g>
     </g>
    </g>
    <g id="text_9">
     <!-- Number of neighbors -->
     <g style="fill:#262626;" transform="translate(368.663437 479.875938)scale(0.14 -0.14)">
      <defs>
       <path d="M 9.8125 72.90625 
L 23.09375 72.90625 
L 55.421875 11.921875 
L 55.421875 72.90625 
L 64.984375 72.90625 
L 64.984375 0 
L 51.703125 0 
L 19.390625 60.984375 
L 19.390625 0 
L 9.8125 0 
z
" id="DejaVuSans-78"/>
       <path d="M 8.5 21.578125 
L 8.5 54.6875 
L 17.484375 54.6875 
L 17.484375 21.921875 
Q 17.484375 14.15625 20.5 10.265625 
Q 23.53125 6.390625 29.59375 6.390625 
Q 36.859375 6.390625 41.078125 11.03125 
Q 45.3125 15.671875 45.3125 23.6875 
L 45.3125 54.6875 
L 54.296875 54.6875 
L 54.296875 0 
L 45.3125 0 
L 45.3125 8.40625 
Q 42.046875 3.421875 37.71875 1 
Q 33.40625 -1.421875 27.6875 -1.421875 
Q 18.265625 -1.421875 13.375 4.4375 
Q 8.5 10.296875 8.5 21.578125 
z
M 31.109375 56 
z
" id="DejaVuSans-117"/>
       <path d="M 52 44.1875 
Q 55.375 50.25 60.0625 53.125 
Q 64.75 56 71.09375 56 
Q 79.640625 56 84.28125 50.015625 
Q 88.921875 44.046875 88.921875 33.015625 
L 88.921875 0 
L 79.890625 0 
L 79.890625 32.71875 
Q 79.890625 40.578125 77.09375 44.375 
Q 74.3125 48.1875 68.609375 48.1875 
Q 61.625 48.1875 57.5625 43.546875 
Q 53.515625 38.921875 53.515625 30.90625 
L 53.515625 0 
L 44.484375 0 
L 44.484375 32.71875 
Q 44.484375 40.625 41.703125 44.40625 
Q 38.921875 48.1875 33.109375 48.1875 
Q 26.21875 48.1875 22.15625 43.53125 
Q 18.109375 38.875 18.109375 30.90625 
L 18.109375 0 
L 9.078125 0 
L 9.078125 54.6875 
L 18.109375 54.6875 
L 18.109375 46.1875 
Q 21.1875 51.21875 25.484375 53.609375 
Q 29.78125 56 35.6875 56 
Q 41.65625 56 45.828125 52.96875 
Q 50 49.953125 52 44.1875 
z
" id="DejaVuSans-109"/>
       <path d="M 48.6875 27.296875 
Q 48.6875 37.203125 44.609375 42.84375 
Q 40.53125 48.484375 33.40625 48.484375 
Q 26.265625 48.484375 22.1875 42.84375 
Q 18.109375 37.203125 18.109375 27.296875 
Q 18.109375 17.390625 22.1875 11.75 
Q 26.265625 6.109375 33.40625 6.109375 
Q 40.53125 6.109375 44.609375 11.75 
Q 48.6875 17.390625 48.6875 27.296875 
z
M 18.109375 46.390625 
Q 20.953125 51.265625 25.265625 53.625 
Q 29.59375 56 35.59375 56 
Q 45.5625 56 51.78125 48.09375 
Q 58.015625 40.1875 58.015625 27.296875 
Q 58.015625 14.40625 51.78125 6.484375 
Q 45.5625 -1.421875 35.59375 -1.421875 
Q 29.59375 -1.421875 25.265625 0.953125 
Q 20.953125 3.328125 18.109375 8.203125 
L 18.109375 0 
L 9.078125 0 
L 9.078125 75.984375 
L 18.109375 75.984375 
z
" id="DejaVuSans-98"/>
       <path d="M 56.203125 29.59375 
L 56.203125 25.203125 
L 14.890625 25.203125 
Q 15.484375 15.921875 20.484375 11.0625 
Q 25.484375 6.203125 34.421875 6.203125 
Q 39.59375 6.203125 44.453125 7.46875 
Q 49.3125 8.734375 54.109375 11.28125 
L 54.109375 2.78125 
Q 49.265625 0.734375 44.1875 -0.34375 
Q 39.109375 -1.421875 33.890625 -1.421875 
Q 20.796875 -1.421875 13.15625 6.1875 
Q 5.515625 13.8125 5.515625 26.8125 
Q 5.515625 40.234375 12.765625 48.109375 
Q 20.015625 56 32.328125 56 
Q 43.359375 56 49.78125 48.890625 
Q 56.203125 41.796875 56.203125 29.59375 
z
M 47.21875 32.234375 
Q 47.125 39.59375 43.09375 43.984375 
Q 39.0625 48.390625 32.421875 48.390625 
Q 24.90625 48.390625 20.390625 44.140625 
Q 15.875 39.890625 15.1875 32.171875 
z
" id="DejaVuSans-101"/>
       <path d="M 41.109375 46.296875 
Q 39.59375 47.171875 37.8125 47.578125 
Q 36.03125 48 33.890625 48 
Q 26.265625 48 22.1875 43.046875 
Q 18.109375 38.09375 18.109375 28.8125 
L 18.109375 0 
L 9.078125 0 
L 9.078125 54.6875 
L 18.109375 54.6875 
L 18.109375 46.1875 
Q 20.953125 51.171875 25.484375 53.578125 
Q 30.03125 56 36.53125 56 
Q 37.453125 56 38.578125 55.875 
Q 39.703125 55.765625 41.0625 55.515625 
z
" id="DejaVuSans-114"/>
       <path id="DejaVuSans-32"/>
       <path d="M 30.609375 48.390625 
Q 23.390625 48.390625 19.1875 42.75 
Q 14.984375 37.109375 14.984375 27.296875 
Q 14.984375 17.484375 19.15625 11.84375 
Q 23.34375 6.203125 30.609375 6.203125 
Q 37.796875 6.203125 41.984375 11.859375 
Q 46.1875 17.53125 46.1875 27.296875 
Q 46.1875 37.015625 41.984375 42.703125 
Q 37.796875 48.390625 30.609375 48.390625 
z
M 30.609375 56 
Q 42.328125 56 49.015625 48.375 
Q 55.71875 40.765625 55.71875 27.296875 
Q 55.71875 13.875 49.015625 6.21875 
Q 42.328125 -1.421875 30.609375 -1.421875 
Q 18.84375 -1.421875 12.171875 6.21875 
Q 5.515625 13.875 5.515625 27.296875 
Q 5.515625 40.765625 12.171875 48.375 
Q 18.84375 56 30.609375 56 
z
" id="DejaVuSans-111"/>
       <path d="M 37.109375 75.984375 
L 37.109375 68.5 
L 28.515625 68.5 
Q 23.6875 68.5 21.796875 66.546875 
Q 19.921875 64.59375 19.921875 59.515625 
L 19.921875 54.6875 
L 34.71875 54.6875 
L 34.71875 47.703125 
L 19.921875 47.703125 
L 19.921875 0 
L 10.890625 0 
L 10.890625 47.703125 
L 2.296875 47.703125 
L 2.296875 54.6875 
L 10.890625 54.6875 
L 10.890625 58.5 
Q 10.890625 67.625 15.140625 71.796875 
Q 19.390625 75.984375 28.609375 75.984375 
z
" id="DejaVuSans-102"/>
       <path d="M 54.890625 33.015625 
L 54.890625 0 
L 45.90625 0 
L 45.90625 32.71875 
Q 45.90625 40.484375 42.875 44.328125 
Q 39.84375 48.1875 33.796875 48.1875 
Q 26.515625 48.1875 22.3125 43.546875 
Q 18.109375 38.921875 18.109375 30.90625 
L 18.109375 0 
L 9.078125 0 
L 9.078125 54.6875 
L 18.109375 54.6875 
L 18.109375 46.1875 
Q 21.34375 51.125 25.703125 53.5625 
Q 30.078125 56 35.796875 56 
Q 45.21875 56 50.046875 50.171875 
Q 54.890625 44.34375 54.890625 33.015625 
z
" id="DejaVuSans-110"/>
       <path d="M 9.421875 54.6875 
L 18.40625 54.6875 
L 18.40625 0 
L 9.421875 0 
z
M 9.421875 75.984375 
L 18.40625 75.984375 
L 18.40625 64.59375 
L 9.421875 64.59375 
z
" id="DejaVuSans-105"/>
       <path d="M 45.40625 27.984375 
Q 45.40625 37.75 41.375 43.109375 
Q 37.359375 48.484375 30.078125 48.484375 
Q 22.859375 48.484375 18.828125 43.109375 
Q 14.796875 37.75 14.796875 27.984375 
Q 14.796875 18.265625 18.828125 12.890625 
Q 22.859375 7.515625 30.078125 7.515625 
Q 37.359375 7.515625 41.375 12.890625 
Q 45.40625 18.265625 45.40625 27.984375 
z
M 54.390625 6.78125 
Q 54.390625 -7.171875 48.1875 -13.984375 
Q 42 -20.796875 29.203125 -20.796875 
Q 24.46875 -20.796875 20.265625 -20.09375 
Q 16.0625 -19.390625 12.109375 -17.921875 
L 12.109375 -9.1875 
Q 16.0625 -11.328125 19.921875 -12.34375 
Q 23.78125 -13.375 27.78125 -13.375 
Q 36.625 -13.375 41.015625 -8.765625 
Q 45.40625 -4.15625 45.40625 5.171875 
L 45.40625 9.625 
Q 42.625 4.78125 38.28125 2.390625 
Q 33.9375 0 27.875 0 
Q 17.828125 0 11.671875 7.65625 
Q 5.515625 15.328125 5.515625 27.984375 
Q 5.515625 40.671875 11.671875 48.328125 
Q 17.828125 56 27.875 56 
Q 33.9375 56 38.28125 53.609375 
Q 42.625 51.21875 45.40625 46.390625 
L 45.40625 54.6875 
L 54.390625 54.6875 
z
" id="DejaVuSans-103"/>
       <path d="M 54.890625 33.015625 
L 54.890625 0 
L 45.90625 0 
L 45.90625 32.71875 
Q 45.90625 40.484375 42.875 44.328125 
Q 39.84375 48.1875 33.796875 48.1875 
Q 26.515625 48.1875 22.3125 43.546875 
Q 18.109375 38.921875 18.109375 30.90625 
L 18.109375 0 
L 9.078125 0 
L 9.078125 75.984375 
L 18.109375 75.984375 
L 18.109375 46.1875 
Q 21.34375 51.125 25.703125 53.5625 
Q 30.078125 56 35.796875 56 
Q 45.21875 56 50.046875 50.171875 
Q 54.890625 44.34375 54.890625 33.015625 
z
" id="DejaVuSans-104"/>
       <path d="M 44.28125 53.078125 
L 44.28125 44.578125 
Q 40.484375 46.53125 36.375 47.5 
Q 32.28125 48.484375 27.875 48.484375 
Q 21.1875 48.484375 17.84375 46.4375 
Q 14.5 44.390625 14.5 40.28125 
Q 14.5 37.15625 16.890625 35.375 
Q 19.28125 33.59375 26.515625 31.984375 
L 29.59375 31.296875 
Q 39.15625 29.25 43.1875 25.515625 
Q 47.21875 21.78125 47.21875 15.09375 
Q 47.21875 7.46875 41.1875 3.015625 
Q 35.15625 -1.421875 24.609375 -1.421875 
Q 20.21875 -1.421875 15.453125 -0.5625 
Q 10.6875 0.296875 5.421875 2 
L 5.421875 11.28125 
Q 10.40625 8.6875 15.234375 7.390625 
Q 20.0625 6.109375 24.8125 6.109375 
Q 31.15625 6.109375 34.5625 8.28125 
Q 37.984375 10.453125 37.984375 14.40625 
Q 37.984375 18.0625 35.515625 20.015625 
Q 33.0625 21.96875 24.703125 23.78125 
L 21.578125 24.515625 
Q 13.234375 26.265625 9.515625 29.90625 
Q 5.8125 33.546875 5.8125 39.890625 
Q 5.8125 47.609375 11.28125 51.796875 
Q 16.75 56 26.8125 56 
Q 31.78125 56 36.171875 55.265625 
Q 40.578125 54.546875 44.28125 53.078125 
z
" id="DejaVuSans-115"/>
      </defs>
      <use xlink:href="#DejaVuSans-78"/>
      <use x="74.804688" xlink:href="#DejaVuSans-117"/>
      <use x="138.183594" xlink:href="#DejaVuSans-109"/>
      <use x="235.595703" xlink:href="#DejaVuSans-98"/>
      <use x="299.072266" xlink:href="#DejaVuSans-101"/>
      <use x="360.595703" xlink:href="#DejaVuSans-114"/>
      <use x="401.708984" xlink:href="#DejaVuSans-32"/>
      <use x="433.496094" xlink:href="#DejaVuSans-111"/>
      <use x="494.677734" xlink:href="#DejaVuSans-102"/>
      <use x="529.882812" xlink:href="#DejaVuSans-32"/>
      <use x="561.669922" xlink:href="#DejaVuSans-110"/>
      <use x="625.048828" xlink:href="#DejaVuSans-101"/>
      <use x="686.572266" xlink:href="#DejaVuSans-105"/>
      <use x="714.355469" xlink:href="#DejaVuSans-103"/>
      <use x="777.832031" xlink:href="#DejaVuSans-104"/>
      <use x="841.210938" xlink:href="#DejaVuSans-98"/>
      <use x="904.6875" xlink:href="#DejaVuSans-111"/>
      <use x="965.869141" xlink:href="#DejaVuSans-114"/>
      <use x="1006.982422" xlink:href="#DejaVuSans-115"/>
     </g>
    </g>
   </g>
   <g id="matplotlib.axis_2">
    <g id="ytick_1">
     <g id="line2d_9">
      <path clip-path="url(#pcf9addc425)" d="M 108 404.246383 
L 777.6 404.246383 
" style="fill:none;stroke:#ffffff;stroke-linecap:round;stroke-width:0.8;"/>
     </g>
     <g id="text_10">
      <!-- $\mathdefault{10^{-14}}$ -->
      <g style="fill:#262626;" transform="translate(73.1 408.045602)scale(0.1 -0.1)">
       <defs>
        <path d="M 10.59375 35.5 
L 73.1875 35.5 
L 73.1875 27.203125 
L 10.59375 27.203125 
z
" id="DejaVuSans-8722"/>
        <path d="M 37.796875 64.3125 
L 12.890625 25.390625 
L 37.796875 25.390625 
z
M 35.203125 72.90625 
L 47.609375 72.90625 
L 47.609375 25.390625 
L 58.015625 25.390625 
L 58.015625 17.1875 
L 47.609375 17.1875 
L 47.609375 0 
L 37.796875 0 
L 37.796875 17.1875 
L 4.890625 17.1875 
L 4.890625 26.703125 
z
" id="DejaVuSans-52"/>
       </defs>
       <use transform="translate(0 0.684375)" xlink:href="#DejaVuSans-49"/>
       <use transform="translate(63.623047 0.684375)" xlink:href="#DejaVuSans-48"/>
       <use transform="translate(128.203125 38.965625)scale(0.7)" xlink:href="#DejaVuSans-8722"/>
       <use transform="translate(186.855469 38.965625)scale(0.7)" xlink:href="#DejaVuSans-49"/>
       <use transform="translate(231.391602 38.965625)scale(0.7)" xlink:href="#DejaVuSans-52"/>
      </g>
     </g>
    </g>
    <g id="ytick_2">
     <g id="line2d_10">
      <path clip-path="url(#pcf9addc425)" d="M 108 359.894382 
L 777.6 359.894382 
" style="fill:none;stroke:#ffffff;stroke-linecap:round;stroke-width:0.8;"/>
     </g>
     <g id="text_11">
      <!-- $\mathdefault{10^{-12}}$ -->
      <g style="fill:#262626;" transform="translate(73.1 363.693601)scale(0.1 -0.1)">
       <use transform="translate(0 0.765625)" xlink:href="#DejaVuSans-49"/>
       <use transform="translate(63.623047 0.765625)" xlink:href="#DejaVuSans-48"/>
       <use transform="translate(128.203125 39.046875)scale(0.7)" xlink:href="#DejaVuSans-8722"/>
       <use transform="translate(186.855469 39.046875)scale(0.7)" xlink:href="#DejaVuSans-49"/>
       <use transform="translate(231.391602 39.046875)scale(0.7)" xlink:href="#DejaVuSans-50"/>
      </g>
     </g>
    </g>
    <g id="ytick_3">
     <g id="line2d_11">
      <path clip-path="url(#pcf9addc425)" d="M 108 315.54238 
L 777.6 315.54238 
" style="fill:none;stroke:#ffffff;stroke-linecap:round;stroke-width:0.8;"/>
     </g>
     <g id="text_12">
      <!-- $\mathdefault{10^{-10}}$ -->
      <g style="fill:#262626;" transform="translate(73.1 319.341599)scale(0.1 -0.1)">
       <use transform="translate(0 0.765625)" xlink:href="#DejaVuSans-49"/>
       <use transform="translate(63.623047 0.765625)" xlink:href="#DejaVuSans-48"/>
       <use transform="translate(128.203125 39.046875)scale(0.7)" xlink:href="#DejaVuSans-8722"/>
       <use transform="translate(186.855469 39.046875)scale(0.7)" xlink:href="#DejaVuSans-49"/>
       <use transform="translate(231.391602 39.046875)scale(0.7)" xlink:href="#DejaVuSans-48"/>
      </g>
     </g>
    </g>
    <g id="ytick_4">
     <g id="line2d_12">
      <path clip-path="url(#pcf9addc425)" d="M 108 271.190379 
L 777.6 271.190379 
" style="fill:none;stroke:#ffffff;stroke-linecap:round;stroke-width:0.8;"/>
     </g>
     <g id="text_13">
      <!-- $\mathdefault{10^{-8}}$ -->
      <g style="fill:#262626;" transform="translate(77.5 274.989598)scale(0.1 -0.1)">
       <defs>
        <path d="M 31.78125 34.625 
Q 24.75 34.625 20.71875 30.859375 
Q 16.703125 27.09375 16.703125 20.515625 
Q 16.703125 13.921875 20.71875 10.15625 
Q 24.75 6.390625 31.78125 6.390625 
Q 38.8125 6.390625 42.859375 10.171875 
Q 46.921875 13.96875 46.921875 20.515625 
Q 46.921875 27.09375 42.890625 30.859375 
Q 38.875 34.625 31.78125 34.625 
z
M 21.921875 38.8125 
Q 15.578125 40.375 12.03125 44.71875 
Q 8.5 49.078125 8.5 55.328125 
Q 8.5 64.0625 14.71875 69.140625 
Q 20.953125 74.21875 31.78125 74.21875 
Q 42.671875 74.21875 48.875 69.140625 
Q 55.078125 64.0625 55.078125 55.328125 
Q 55.078125 49.078125 51.53125 44.71875 
Q 48 40.375 41.703125 38.8125 
Q 48.828125 37.15625 52.796875 32.3125 
Q 56.78125 27.484375 56.78125 20.515625 
Q 56.78125 9.90625 50.3125 4.234375 
Q 43.84375 -1.421875 31.78125 -1.421875 
Q 19.734375 -1.421875 13.25 4.234375 
Q 6.78125 9.90625 6.78125 20.515625 
Q 6.78125 27.484375 10.78125 32.3125 
Q 14.796875 37.15625 21.921875 38.8125 
z
M 18.3125 54.390625 
Q 18.3125 48.734375 21.84375 45.5625 
Q 25.390625 42.390625 31.78125 42.390625 
Q 38.140625 42.390625 41.71875 45.5625 
Q 45.3125 48.734375 45.3125 54.390625 
Q 45.3125 60.0625 41.71875 63.234375 
Q 38.140625 66.40625 31.78125 66.40625 
Q 25.390625 66.40625 21.84375 63.234375 
Q 18.3125 60.0625 18.3125 54.390625 
z
" id="DejaVuSans-56"/>
       </defs>
       <use transform="translate(0 0.765625)" xlink:href="#DejaVuSans-49"/>
       <use transform="translate(63.623047 0.765625)" xlink:href="#DejaVuSans-48"/>
       <use transform="translate(128.203125 39.046875)scale(0.7)" xlink:href="#DejaVuSans-8722"/>
       <use transform="translate(186.855469 39.046875)scale(0.7)" xlink:href="#DejaVuSans-56"/>
      </g>
     </g>
    </g>
    <g id="ytick_5">
     <g id="line2d_13">
      <path clip-path="url(#pcf9addc425)" d="M 108 226.838378 
L 777.6 226.838378 
" style="fill:none;stroke:#ffffff;stroke-linecap:round;stroke-width:0.8;"/>
     </g>
     <g id="text_14">
      <!-- $\mathdefault{10^{-6}}$ -->
      <g style="fill:#262626;" transform="translate(77.5 230.637596)scale(0.1 -0.1)">
       <defs>
        <path d="M 33.015625 40.375 
Q 26.375 40.375 22.484375 35.828125 
Q 18.609375 31.296875 18.609375 23.390625 
Q 18.609375 15.53125 22.484375 10.953125 
Q 26.375 6.390625 33.015625 6.390625 
Q 39.65625 6.390625 43.53125 10.953125 
Q 47.40625 15.53125 47.40625 23.390625 
Q 47.40625 31.296875 43.53125 35.828125 
Q 39.65625 40.375 33.015625 40.375 
z
M 52.59375 71.296875 
L 52.59375 62.3125 
Q 48.875 64.0625 45.09375 64.984375 
Q 41.3125 65.921875 37.59375 65.921875 
Q 27.828125 65.921875 22.671875 59.328125 
Q 17.53125 52.734375 16.796875 39.40625 
Q 19.671875 43.65625 24.015625 45.921875 
Q 28.375 48.1875 33.59375 48.1875 
Q 44.578125 48.1875 50.953125 41.515625 
Q 57.328125 34.859375 57.328125 23.390625 
Q 57.328125 12.15625 50.6875 5.359375 
Q 44.046875 -1.421875 33.015625 -1.421875 
Q 20.359375 -1.421875 13.671875 8.265625 
Q 6.984375 17.96875 6.984375 36.375 
Q 6.984375 53.65625 15.1875 63.9375 
Q 23.390625 74.21875 37.203125 74.21875 
Q 40.921875 74.21875 44.703125 73.484375 
Q 48.484375 72.75 52.59375 71.296875 
z
" id="DejaVuSans-54"/>
       </defs>
       <use transform="translate(0 0.765625)" xlink:href="#DejaVuSans-49"/>
       <use transform="translate(63.623047 0.765625)" xlink:href="#DejaVuSans-48"/>
       <use transform="translate(128.203125 39.046875)scale(0.7)" xlink:href="#DejaVuSans-8722"/>
       <use transform="translate(186.855469 39.046875)scale(0.7)" xlink:href="#DejaVuSans-54"/>
      </g>
     </g>
    </g>
    <g id="ytick_6">
     <g id="line2d_14">
      <path clip-path="url(#pcf9addc425)" d="M 108 182.486376 
L 777.6 182.486376 
" style="fill:none;stroke:#ffffff;stroke-linecap:round;stroke-width:0.8;"/>
     </g>
     <g id="text_15">
      <!-- $\mathdefault{10^{-4}}$ -->
      <g style="fill:#262626;" transform="translate(77.5 186.285595)scale(0.1 -0.1)">
       <use transform="translate(0 0.684375)" xlink:href="#DejaVuSans-49"/>
       <use transform="translate(63.623047 0.684375)" xlink:href="#DejaVuSans-48"/>
       <use transform="translate(128.203125 38.965625)scale(0.7)" xlink:href="#DejaVuSans-8722"/>
       <use transform="translate(186.855469 38.965625)scale(0.7)" xlink:href="#DejaVuSans-52"/>
      </g>
     </g>
    </g>
    <g id="ytick_7">
     <g id="line2d_15">
      <path clip-path="url(#pcf9addc425)" d="M 108 138.134375 
L 777.6 138.134375 
" style="fill:none;stroke:#ffffff;stroke-linecap:round;stroke-width:0.8;"/>
     </g>
     <g id="text_16">
      <!-- $\mathdefault{10^{-2}}$ -->
      <g style="fill:#262626;" transform="translate(77.5 141.933594)scale(0.1 -0.1)">
       <use transform="translate(0 0.765625)" xlink:href="#DejaVuSans-49"/>
       <use transform="translate(63.623047 0.765625)" xlink:href="#DejaVuSans-48"/>
       <use transform="translate(128.203125 39.046875)scale(0.7)" xlink:href="#DejaVuSans-8722"/>
       <use transform="translate(186.855469 39.046875)scale(0.7)" xlink:href="#DejaVuSans-50"/>
      </g>
     </g>
    </g>
    <g id="ytick_8">
     <g id="line2d_16">
      <path clip-path="url(#pcf9addc425)" d="M 108 93.782373 
L 777.6 93.782373 
" style="fill:none;stroke:#ffffff;stroke-linecap:round;stroke-width:0.8;"/>
     </g>
     <g id="text_17">
      <!-- $\mathdefault{10^{0}}$ -->
      <g style="fill:#262626;" transform="translate(83.4 97.581592)scale(0.1 -0.1)">
       <use transform="translate(0 0.765625)" xlink:href="#DejaVuSans-49"/>
       <use transform="translate(63.623047 0.765625)" xlink:href="#DejaVuSans-48"/>
       <use transform="translate(128.203125 39.046875)scale(0.7)" xlink:href="#DejaVuSans-48"/>
      </g>
     </g>
    </g>
    <g id="text_18">
     <!-- Reconstruction error -->
     <g style="fill:#262626;" transform="translate(66.188437 326.074219)rotate(-90)scale(0.14 -0.14)">
      <defs>
       <path d="M 44.390625 34.1875 
Q 47.5625 33.109375 50.5625 29.59375 
Q 53.5625 26.078125 56.59375 19.921875 
L 66.609375 0 
L 56 0 
L 46.6875 18.703125 
Q 43.0625 26.03125 39.671875 28.421875 
Q 36.28125 30.8125 30.421875 30.8125 
L 19.671875 30.8125 
L 19.671875 0 
L 9.8125 0 
L 9.8125 72.90625 
L 32.078125 72.90625 
Q 44.578125 72.90625 50.734375 67.671875 
Q 56.890625 62.453125 56.890625 51.90625 
Q 56.890625 45.015625 53.6875 40.46875 
Q 50.484375 35.9375 44.390625 34.1875 
z
M 19.671875 64.796875 
L 19.671875 38.921875 
L 32.078125 38.921875 
Q 39.203125 38.921875 42.84375 42.21875 
Q 46.484375 45.515625 46.484375 51.90625 
Q 46.484375 58.296875 42.84375 61.546875 
Q 39.203125 64.796875 32.078125 64.796875 
z
" id="DejaVuSans-82"/>
       <path d="M 48.78125 52.59375 
L 48.78125 44.1875 
Q 44.96875 46.296875 41.140625 47.34375 
Q 37.3125 48.390625 33.40625 48.390625 
Q 24.65625 48.390625 19.8125 42.84375 
Q 14.984375 37.3125 14.984375 27.296875 
Q 14.984375 17.28125 19.8125 11.734375 
Q 24.65625 6.203125 33.40625 6.203125 
Q 37.3125 6.203125 41.140625 7.25 
Q 44.96875 8.296875 48.78125 10.40625 
L 48.78125 2.09375 
Q 45.015625 0.34375 40.984375 -0.53125 
Q 36.96875 -1.421875 32.421875 -1.421875 
Q 20.0625 -1.421875 12.78125 6.34375 
Q 5.515625 14.109375 5.515625 27.296875 
Q 5.515625 40.671875 12.859375 48.328125 
Q 20.21875 56 33.015625 56 
Q 37.15625 56 41.109375 55.140625 
Q 45.0625 54.296875 48.78125 52.59375 
z
" id="DejaVuSans-99"/>
       <path d="M 18.3125 70.21875 
L 18.3125 54.6875 
L 36.8125 54.6875 
L 36.8125 47.703125 
L 18.3125 47.703125 
L 18.3125 18.015625 
Q 18.3125 11.328125 20.140625 9.421875 
Q 21.96875 7.515625 27.59375 7.515625 
L 36.8125 7.515625 
L 36.8125 0 
L 27.59375 0 
Q 17.1875 0 13.234375 3.875 
Q 9.28125 7.765625 9.28125 18.015625 
L 9.28125 47.703125 
L 2.6875 47.703125 
L 2.6875 54.6875 
L 9.28125 54.6875 
L 9.28125 70.21875 
z
" id="DejaVuSans-116"/>
      </defs>
      <use xlink:href="#DejaVuSans-82"/>
      <use x="64.982422" xlink:href="#DejaVuSans-101"/>
      <use x="126.505859" xlink:href="#DejaVuSans-99"/>
      <use x="181.486328" xlink:href="#DejaVuSans-111"/>
      <use x="242.667969" xlink:href="#DejaVuSans-110"/>
      <use x="306.046875" xlink:href="#DejaVuSans-115"/>
      <use x="358.146484" xlink:href="#DejaVuSans-116"/>
      <use x="397.355469" xlink:href="#DejaVuSans-114"/>
      <use x="438.46875" xlink:href="#DejaVuSans-117"/>
      <use x="501.847656" xlink:href="#DejaVuSans-99"/>
      <use x="556.828125" xlink:href="#DejaVuSans-116"/>
      <use x="596.037109" xlink:href="#DejaVuSans-105"/>
      <use x="623.820312" xlink:href="#DejaVuSans-111"/>
      <use x="685.001953" xlink:href="#DejaVuSans-110"/>
      <use x="748.380859" xlink:href="#DejaVuSans-32"/>
      <use x="780.167969" xlink:href="#DejaVuSans-101"/>
      <use x="841.691406" xlink:href="#DejaVuSans-114"/>
      <use x="881.054688" xlink:href="#DejaVuSans-114"/>
      <use x="919.917969" xlink:href="#DejaVuSans-111"/>
      <use x="981.099609" xlink:href="#DejaVuSans-114"/>
     </g>
    </g>
   </g>
   <g id="PolyCollection_1">
    <path clip-path="url(#pcf9addc425)" d="M 108 390.343749 
L 108 22269.783073 
L 111.433846 403.271612 
L 118.301538 418.871311 
L 125.169231 22269.783073 
L 132.036923 22269.783073 
L 138.904615 430.92 
L 145.772308 411.046421 
L 152.64 22269.783073 
L 159.507692 22269.783073 
L 166.375385 22269.783073 
L 173.243077 22269.783073 
L 180.110769 22269.783073 
L 186.978462 22269.783073 
L 193.846154 22269.783073 
L 200.713846 22269.783073 
L 207.581538 22269.783073 
L 214.449231 132.748436 
L 221.316923 132.061616 
L 228.184615 131.189654 
L 235.052308 125.965198 
L 241.92 127.23106 
L 248.787692 124.966876 
L 255.655385 123.749332 
L 262.523077 114.667351 
L 269.390769 114.187687 
L 276.258462 113.903974 
L 283.126154 112.440687 
L 289.993846 112.083287 
L 296.861538 112.207113 
L 303.729231 111.570925 
L 310.596923 110.627736 
L 317.464615 109.471333 
L 324.332308 108.430382 
L 331.2 108.055777 
L 334.633846 107.751454 
L 341.501538 107.473683 
L 348.369231 107.242546 
L 355.236923 105.744356 
L 362.104615 105.257334 
L 368.972308 104.206137 
L 375.84 103.751679 
L 382.707692 103.186925 
L 389.575385 102.731474 
L 396.443077 102.351111 
L 403.310769 101.883489 
L 410.178462 101.130269 
L 417.046154 100.765165 
L 423.913846 100.515219 
L 430.781538 100.286899 
L 437.649231 101.040343 
L 444.516923 99.618737 
L 451.384615 99.349713 
L 458.252308 99.330194 
L 465.12 99.99253 
L 471.987692 101.287326 
L 478.855385 99.258535 
L 485.723077 103.116354 
L 492.590769 99.384765 
L 499.458462 99.465929 
L 506.326154 99.295776 
L 513.193846 99.174535 
L 520.061538 99.565266 
L 526.929231 99.428437 
L 533.796923 99.307503 
L 540.664615 99.139112 
L 547.532308 99.008133 
L 554.4 98.87161 
L 557.833846 98.790676 
L 564.701538 98.707956 
L 571.569231 98.456244 
L 578.436923 98.266633 
L 585.304615 98.124345 
L 592.172308 97.926765 
L 599.04 97.771509 
L 605.907692 97.644671 
L 612.775385 97.347363 
L 619.643077 97.254989 
L 626.510769 97.12316 
L 633.378462 96.9769 
L 640.246154 96.853052 
L 647.113846 96.727342 
L 653.981538 96.558444 
L 660.849231 96.444095 
L 667.716923 96.275475 
L 674.584615 96.176232 
L 681.452308 96.042257 
L 688.32 95.921319 
L 695.187692 95.777867 
L 702.055385 95.585947 
L 708.923077 95.449688 
L 715.790769 95.270454 
L 722.658462 94.335245 
L 729.526154 94.215006 
L 736.393846 94.097311 
L 743.261538 93.959664 
L 750.129231 93.807764 
L 756.996923 93.688135 
L 763.864615 93.999429 
L 770.732308 93.88662 
L 777.6 93.790641 
L 777.6 91.331484 
L 777.6 91.331484 
L 770.732308 91.366758 
L 763.864615 91.184233 
L 756.996923 91.333951 
L 750.129231 91.397738 
L 743.261538 91.480207 
L 736.393846 91.565396 
L 729.526154 91.632988 
L 722.658462 91.721319 
L 715.790769 91.740024 
L 708.923077 91.908232 
L 702.055385 92.007853 
L 695.187692 92.121557 
L 688.32 92.177831 
L 681.452308 92.247962 
L 674.584615 92.361425 
L 667.716923 92.468708 
L 660.849231 92.55774 
L 653.981538 92.617825 
L 647.113846 92.683954 
L 640.246154 92.748531 
L 633.378462 92.814846 
L 626.510769 92.875048 
L 619.643077 92.923302 
L 612.775385 92.989123 
L 605.907692 93.515653 
L 599.04 93.577585 
L 592.172308 93.614389 
L 585.304615 93.68635 
L 578.436923 93.761265 
L 571.569231 93.792842 
L 564.701538 93.846455 
L 557.833846 93.984299 
L 554.4 94.015447 
L 547.532308 94.06987 
L 540.664615 94.166699 
L 533.796923 94.211877 
L 526.929231 94.285706 
L 520.061538 94.367084 
L 513.193846 95.545216 
L 506.326154 95.852965 
L 499.458462 95.978724 
L 492.590769 96.405652 
L 485.723077 96.011722 
L 478.855385 97.112249 
L 471.987692 96.92277 
L 465.12 98.001048 
L 458.252308 97.860798 
L 451.384615 97.998285 
L 444.516923 98.237817 
L 437.649231 98.203982 
L 430.781538 98.442066 
L 423.913846 98.47787 
L 417.046154 98.579517 
L 410.178462 98.684186 
L 403.310769 98.741733 
L 396.443077 98.873409 
L 389.575385 98.946852 
L 382.707692 99.119761 
L 375.84 99.302506 
L 368.972308 99.552568 
L 362.104615 99.998641 
L 355.236923 100.380516 
L 348.369231 99.763642 
L 341.501538 100.493334 
L 334.633846 101.382742 
L 331.2 101.905333 
L 324.332308 102.748391 
L 317.464615 103.633275 
L 310.596923 104.502138 
L 303.729231 105.463179 
L 296.861538 106.363885 
L 289.993846 107.713449 
L 283.126154 109.33548 
L 276.258462 108.689027 
L 269.390769 109.636719 
L 262.523077 110.305451 
L 255.655385 110.722566 
L 248.787692 111.646261 
L 241.92 116.133681 
L 235.052308 118.917703 
L 228.184615 120.940639 
L 221.316923 121.279116 
L 214.449231 125.17759 
L 207.581538 128.662406 
L 200.713846 135.443303 
L 193.846154 136.073423 
L 186.978462 202.668712 
L 180.110769 206.394393 
L 173.243077 138.812881 
L 166.375385 215.441656 
L 159.507692 221.116661 
L 152.64 227.970646 
L 145.772308 389.240844 
L 138.904615 394.538285 
L 132.036923 393.311733 
L 125.169231 394.059906 
L 118.301538 397.130309 
L 111.433846 394.535046 
L 108 390.343749 
z
" style="fill:#db5f57;fill-opacity:0.2;stroke:#db5f57;stroke-opacity:0.2;"/>
   </g>
   <g id="PolyCollection_2">
    <path clip-path="url(#pcf9addc425)" d="M 108 386.070532 
L 108 413.302911 
L 111.433846 406.567918 
L 118.301538 412.195669 
L 125.169231 415.452086 
L 132.036923 22269.783073 
L 138.904615 424.244359 
L 145.772308 417.106184 
L 152.64 22269.783073 
L 159.507692 22269.783073 
L 166.375385 22269.783073 
L 173.243077 22269.783073 
L 180.110769 22269.783073 
L 186.978462 22269.783073 
L 193.846154 22269.783073 
L 200.713846 22269.783073 
L 207.581538 119.915605 
L 214.449231 115.770761 
L 221.316923 114.589848 
L 228.184615 113.756198 
L 235.052308 111.735786 
L 241.92 111.167057 
L 248.787692 110.114132 
L 255.655385 109.525693 
L 262.523077 105.211312 
L 269.390769 104.655973 
L 276.258462 104.069082 
L 283.126154 103.376611 
L 289.993846 102.449669 
L 296.861538 101.902787 
L 303.729231 101.148276 
L 310.596923 101.028344 
L 317.464615 99.981411 
L 324.332308 99.418473 
L 331.2 98.736932 
L 334.633846 98.275997 
L 341.501538 97.792158 
L 348.369231 97.513926 
L 355.236923 96.804589 
L 362.104615 95.464716 
L 368.972308 94.961548 
L 375.84 95.456905 
L 382.707692 95.130392 
L 389.575385 95.464566 
L 396.443077 95.209934 
L 403.310769 94.950868 
L 410.178462 95.263852 
L 417.046154 95.038018 
L 423.913846 95.432698 
L 430.781538 95.16753 
L 437.649231 94.72318 
L 444.516923 94.206334 
L 451.384615 93.762974 
L 458.252308 93.540485 
L 465.12 93.158746 
L 471.987692 92.731556 
L 478.855385 92.275158 
L 485.723077 91.93658 
L 492.590769 91.688798 
L 499.458462 90.206921 
L 506.326154 90.215941 
L 513.193846 90.342244 
L 520.061538 90.020771 
L 526.929231 89.822931 
L 533.796923 89.495803 
L 540.664615 88.939973 
L 547.532308 88.771707 
L 554.4 89.234942 
L 557.833846 88.384891 
L 564.701538 87.735353 
L 571.569231 87.815236 
L 578.436923 87.579651 
L 585.304615 87.45507 
L 592.172308 87.21488 
L 599.04 88.139418 
L 605.907692 86.996946 
L 612.775385 86.565478 
L 619.643077 86.384935 
L 626.510769 86.145698 
L 633.378462 85.933187 
L 640.246154 85.786973 
L 647.113846 85.59721 
L 653.981538 85.364687 
L 660.849231 85.199707 
L 667.716923 85.063642 
L 674.584615 84.936778 
L 681.452308 84.732665 
L 688.32 84.668314 
L 695.187692 84.506625 
L 702.055385 84.451532 
L 708.923077 84.2746 
L 715.790769 84.164479 
L 722.658462 83.960366 
L 729.526154 83.866646 
L 736.393846 83.72304 
L 743.261538 83.585292 
L 750.129231 83.491348 
L 756.996923 83.510404 
L 763.864615 83.191482 
L 770.732308 83.057794 
L 777.6 82.848739 
L 777.6 78.12 
L 777.6 78.12 
L 770.732308 78.278168 
L 763.864615 78.416951 
L 756.996923 80.858865 
L 750.129231 78.900053 
L 743.261538 79.072124 
L 736.393846 79.244092 
L 729.526154 79.428933 
L 722.658462 79.668156 
L 715.790769 79.84746 
L 708.923077 80.016751 
L 702.055385 80.153242 
L 695.187692 80.264315 
L 688.32 80.424718 
L 681.452308 80.620839 
L 674.584615 80.807578 
L 667.716923 81.005946 
L 660.849231 81.162207 
L 653.981538 81.322754 
L 647.113846 81.549998 
L 640.246154 81.702483 
L 633.378462 81.854341 
L 626.510769 81.946955 
L 619.643077 82.097047 
L 612.775385 82.299027 
L 605.907692 82.497403 
L 599.04 82.646532 
L 592.172308 82.871406 
L 585.304615 83.038346 
L 578.436923 83.2599 
L 571.569231 83.428228 
L 564.701538 83.613459 
L 557.833846 83.714451 
L 554.4 83.772089 
L 547.532308 84.238616 
L 540.664615 84.427788 
L 533.796923 84.872931 
L 526.929231 85.10876 
L 520.061538 85.296505 
L 513.193846 85.847123 
L 506.326154 86.207161 
L 499.458462 88.837891 
L 492.590769 86.962122 
L 485.723077 87.219301 
L 478.855385 87.607836 
L 471.987692 87.848802 
L 465.12 88.186824 
L 458.252308 88.474368 
L 451.384615 88.715115 
L 444.516923 89.022694 
L 437.649231 89.308503 
L 430.781538 89.587133 
L 423.913846 89.872536 
L 417.046154 90.007223 
L 410.178462 90.300632 
L 403.310769 90.431696 
L 396.443077 90.691626 
L 389.575385 90.9516 
L 382.707692 91.080401 
L 375.84 91.498235 
L 368.972308 91.900742 
L 362.104615 92.344452 
L 355.236923 91.362315 
L 348.369231 91.759322 
L 341.501538 92.253983 
L 334.633846 92.912121 
L 331.2 93.210759 
L 324.332308 93.658317 
L 317.464615 94.231445 
L 310.596923 94.962618 
L 303.729231 96.400163 
L 296.861538 97.402451 
L 289.993846 98.073204 
L 283.126154 98.697941 
L 276.258462 99.426738 
L 269.390769 100.085125 
L 262.523077 100.647314 
L 255.655385 101.381784 
L 248.787692 102.673462 
L 241.92 106.093669 
L 235.052308 109.10399 
L 228.184615 109.667793 
L 221.316923 110.459848 
L 214.449231 111.243584 
L 207.581538 110.584535 
L 200.713846 113.225543 
L 193.846154 115.595015 
L 186.978462 122.302808 
L 180.110769 126.732537 
L 173.243077 120.315095 
L 166.375385 127.879204 
L 159.507692 133.228186 
L 152.64 139.773595 
L 145.772308 384.672372 
L 138.904615 387.862643 
L 132.036923 386.636092 
L 125.169231 390.230141 
L 118.301538 390.454668 
L 111.433846 389.938057 
L 108 386.070532 
z
" style="fill:#57d3db;fill-opacity:0.2;stroke:#57d3db;stroke-opacity:0.2;"/>
   </g>
   <g id="line2d_17">
    <path clip-path="url(#pcf9addc425)" d="M 108 397.250028 
L 111.433846 397.944883 
L 118.301538 402.847659 
L 125.169231 400.985173 
L 132.036923 401.56555 
L 138.904615 400.996077 
L 145.772308 394.964292 
L 152.64 239.280797 
L 159.507692 232.426812 
L 166.375385 226.751807 
L 173.243077 150.123033 
L 180.110769 217.704544 
L 186.978462 213.978863 
L 193.846154 147.383574 
L 200.713846 146.701 
L 207.581538 135.56024 
L 214.449231 128.237485 
L 221.316923 125.234186 
L 228.184615 124.761656 
L 235.052308 121.810707 
L 241.92 120.165289 
L 248.787692 116.166685 
L 255.655385 115.183347 
L 262.523077 112.241542 
L 269.390769 111.645855 
L 276.258462 110.947756 
L 283.126154 110.763474 
L 289.993846 109.652624 
L 296.861538 108.848986 
L 303.729231 108.040778 
L 310.596923 107.085919 
L 317.464615 106.116552 
L 324.332308 105.176297 
L 331.2 104.497707 
L 334.633846 104.049983 
L 341.501538 103.364477 
L 348.369231 102.794664 
L 355.236923 102.693748 
L 362.104615 102.273439 
L 368.972308 101.600975 
L 375.84 101.272423 
L 382.707692 100.940222 
L 389.575385 100.654444 
L 396.443077 100.456132 
L 403.310769 100.185064 
L 410.178462 99.829778 
L 417.046154 99.610472 
L 423.913846 99.442771 
L 430.781538 99.320377 
L 437.649231 99.518122 
L 444.516923 98.903548 
L 451.384615 98.650314 
L 458.252308 98.5675 
L 465.12 98.945405 
L 471.987692 98.859893 
L 478.855385 98.125727 
L 485.723077 98.923248 
L 492.590769 97.780475 
L 499.458462 97.565349 
L 506.326154 97.421343 
L 513.193846 97.189918 
L 520.061538 96.619643 
L 526.929231 96.517809 
L 533.796923 96.426543 
L 540.664615 96.335503 
L 547.532308 96.225897 
L 554.4 96.140641 
L 557.833846 96.090716 
L 564.701538 95.973659 
L 571.569231 95.844999 
L 578.436923 95.752864 
L 585.304615 95.651945 
L 592.172308 95.531201 
L 599.04 95.44804 
L 605.907692 95.36056 
L 612.775385 94.923791 
L 619.643077 94.847639 
L 626.510769 94.766753 
L 633.378462 94.672769 
L 640.246154 94.583767 
L 647.113846 94.494994 
L 653.981538 94.38798 
L 660.849231 94.306201 
L 667.716923 94.185218 
L 674.584615 94.08117 
L 681.452308 93.95945 
L 688.32 93.868824 
L 695.187692 93.777232 
L 702.055385 93.63168 
L 708.923077 93.517087 
L 715.790769 93.344367 
L 722.658462 92.939872 
L 729.526154 92.837726 
L 736.393846 92.748389 
L 743.261538 92.640363 
L 750.129231 92.527562 
L 756.996923 92.439289 
L 763.864615 92.489332 
L 770.732308 92.54451 
L 777.6 92.482785 
" style="fill:none;stroke:#db5f57;stroke-linecap:round;stroke-width:1.5;"/>
   </g>
   <g id="line2d_18">
    <path clip-path="url(#pcf9addc425)" d="M 108 392.192674 
L 111.433846 395.037064 
L 118.301538 396.172017 
L 125.169231 396.228222 
L 132.036923 394.889909 
L 138.904615 394.320435 
L 145.772308 391.021633 
L 152.64 151.083746 
L 159.507692 144.538337 
L 166.375385 139.189355 
L 173.243077 131.625246 
L 180.110769 138.042688 
L 186.978462 133.612959 
L 193.846154 126.899667 
L 200.713846 121.731219 
L 207.581538 114.161617 
L 214.449231 113.243576 
L 221.316923 112.305141 
L 228.184615 111.49666 
L 235.052308 110.330268 
L 241.92 108.300085 
L 248.787692 105.692422 
L 255.655385 104.617413 
L 262.523077 102.661451 
L 269.390769 102.10189 
L 276.258462 101.470861 
L 283.126154 100.755916 
L 289.993846 100.014953 
L 296.861538 99.392111 
L 303.729231 98.484529 
L 310.596923 97.525633 
L 317.464615 96.68354 
L 324.332308 96.114028 
L 331.2 95.582805 
L 334.633846 95.225366 
L 341.501538 94.630352 
L 348.369231 94.213063 
L 355.236923 93.704043 
L 362.104615 93.778769 
L 368.972308 93.310059 
L 375.84 93.275591 
L 382.707692 92.894059 
L 389.575385 92.946124 
L 396.443077 92.688207 
L 403.310769 92.428609 
L 410.178462 92.465999 
L 417.046154 92.197803 
L 423.913846 92.256817 
L 430.781538 91.978684 
L 437.649231 91.640221 
L 444.516923 91.269896 
L 451.384615 90.912045 
L 458.252308 90.678084 
L 465.12 90.355444 
L 471.987692 89.984 
L 478.855385 89.661487 
L 485.723077 89.291964 
L 492.590769 89.038353 
L 499.458462 89.498101 
L 506.326154 88.004462 
L 513.193846 87.834774 
L 520.061538 87.371821 
L 526.929231 87.180241 
L 533.796923 86.909615 
L 540.664615 86.422012 
L 547.532308 86.240883 
L 554.4 86.121269 
L 557.833846 85.76929 
L 564.701538 85.455555 
L 571.569231 85.37407 
L 578.436923 85.179587 
L 585.304615 84.995708 
L 592.172308 84.800331 
L 599.04 85.006569 
L 605.907692 84.486758 
L 612.775385 84.197907 
L 619.643077 84.004304 
L 626.510769 83.819303 
L 633.378462 83.679427 
L 640.246154 83.529801 
L 647.113846 83.362554 
L 653.981538 83.133217 
L 660.849231 82.970912 
L 667.716923 82.822658 
L 674.584615 82.652556 
L 681.452308 82.458961 
L 688.32 82.314655 
L 695.187692 82.153748 
L 702.055385 82.064559 
L 708.923077 81.912267 
L 715.790769 81.766082 
L 722.658462 81.5771 
L 729.526154 81.394419 
L 736.393846 81.225507 
L 743.261538 81.066726 
L 750.129231 80.924655 
L 756.996923 82.09367 
L 763.864615 80.511325 
L 770.732308 80.374471 
L 777.6 80.197015 
" style="fill:none;stroke:#57d3db;stroke-linecap:round;stroke-width:1.5;"/>
   </g>
   <g id="line2d_19"/>
   <g id="line2d_20"/>
   <g id="patch_3">
    <path d="M 108 448.56 
L 108 60.48 
" style="fill:none;stroke:#ffffff;stroke-linecap:square;stroke-linejoin:miter;stroke-width:0.8;"/>
   </g>
   <g id="patch_4">
    <path d="M 777.6 448.56 
L 777.6 60.48 
" style="fill:none;stroke:#ffffff;stroke-linecap:square;stroke-linejoin:miter;stroke-width:0.8;"/>
   </g>
   <g id="patch_5">
    <path d="M 108 448.56 
L 777.6 448.56 
" style="fill:none;stroke:#ffffff;stroke-linecap:square;stroke-linejoin:miter;stroke-width:0.8;"/>
   </g>
   <g id="patch_6">
    <path d="M 108 60.48 
L 777.6 60.48 
" style="fill:none;stroke:#ffffff;stroke-linecap:square;stroke-linejoin:miter;stroke-width:0.8;"/>
   </g>
   <g id="text_19">
    <!-- MLLE reconstruction error -->
    <g style="fill:#262626;" transform="translate(339.69875 54.48)scale(0.16 -0.16)">
     <defs>
      <path d="M 9.8125 72.90625 
L 24.515625 72.90625 
L 43.109375 23.296875 
L 61.8125 72.90625 
L 76.515625 72.90625 
L 76.515625 0 
L 66.890625 0 
L 66.890625 64.015625 
L 48.09375 14.015625 
L 38.1875 14.015625 
L 19.390625 64.015625 
L 19.390625 0 
L 9.8125 0 
z
" id="DejaVuSans-77"/>
      <path d="M 9.8125 72.90625 
L 19.671875 72.90625 
L 19.671875 8.296875 
L 55.171875 8.296875 
L 55.171875 0 
L 9.8125 0 
z
" id="DejaVuSans-76"/>
      <path d="M 9.8125 72.90625 
L 55.90625 72.90625 
L 55.90625 64.59375 
L 19.671875 64.59375 
L 19.671875 43.015625 
L 54.390625 43.015625 
L 54.390625 34.71875 
L 19.671875 34.71875 
L 19.671875 8.296875 
L 56.78125 8.296875 
L 56.78125 0 
L 9.8125 0 
z
" id="DejaVuSans-69"/>
     </defs>
     <use xlink:href="#DejaVuSans-77"/>
     <use x="86.279297" xlink:href="#DejaVuSans-76"/>
     <use x="141.992188" xlink:href="#DejaVuSans-76"/>
     <use x="197.705078" xlink:href="#DejaVuSans-69"/>
     <use x="260.888672" xlink:href="#DejaVuSans-32"/>
     <use x="292.675781" xlink:href="#DejaVuSans-114"/>
     <use x="331.539062" xlink:href="#DejaVuSans-101"/>
     <use x="393.0625" xlink:href="#DejaVuSans-99"/>
     <use x="448.042969" xlink:href="#DejaVuSans-111"/>
     <use x="509.224609" xlink:href="#DejaVuSans-110"/>
     <use x="572.603516" xlink:href="#DejaVuSans-115"/>
     <use x="624.703125" xlink:href="#DejaVuSans-116"/>
     <use x="663.912109" xlink:href="#DejaVuSans-114"/>
     <use x="705.025391" xlink:href="#DejaVuSans-117"/>
     <use x="768.404297" xlink:href="#DejaVuSans-99"/>
     <use x="823.384766" xlink:href="#DejaVuSans-116"/>
     <use x="862.59375" xlink:href="#DejaVuSans-105"/>
     <use x="890.376953" xlink:href="#DejaVuSans-111"/>
     <use x="951.558594" xlink:href="#DejaVuSans-110"/>
     <use x="1014.9375" xlink:href="#DejaVuSans-32"/>
     <use x="1046.724609" xlink:href="#DejaVuSans-101"/>
     <use x="1108.248047" xlink:href="#DejaVuSans-114"/>
     <use x="1147.611328" xlink:href="#DejaVuSans-114"/>
     <use x="1186.474609" xlink:href="#DejaVuSans-111"/>
     <use x="1247.65625" xlink:href="#DejaVuSans-114"/>
    </g>
   </g>
   <g id="legend_1">
    <g id="patch_7">
     <path d="M 656.74125 442.56 
L 769.2 442.56 
Q 771.6 442.56 771.6 440.16 
L 771.6 388.51875 
Q 771.6 386.11875 769.2 386.11875 
L 656.74125 386.11875 
Q 654.34125 386.11875 654.34125 388.51875 
L 654.34125 440.16 
Q 654.34125 442.56 656.74125 442.56 
z
" style="fill:#eaeaf2;opacity:0.8;stroke:#cccccc;stroke-linejoin:miter;"/>
    </g>
    <g id="text_20">
     <!-- Output dimension -->
     <g style="fill:#262626;" transform="translate(659.14125 400.036875)scale(0.12 -0.12)">
      <defs>
       <path d="M 39.40625 66.21875 
Q 28.65625 66.21875 22.328125 58.203125 
Q 16.015625 50.203125 16.015625 36.375 
Q 16.015625 22.609375 22.328125 14.59375 
Q 28.65625 6.59375 39.40625 6.59375 
Q 50.140625 6.59375 56.421875 14.59375 
Q 62.703125 22.609375 62.703125 36.375 
Q 62.703125 50.203125 56.421875 58.203125 
Q 50.140625 66.21875 39.40625 66.21875 
z
M 39.40625 74.21875 
Q 54.734375 74.21875 63.90625 63.9375 
Q 73.09375 53.65625 73.09375 36.375 
Q 73.09375 19.140625 63.90625 8.859375 
Q 54.734375 -1.421875 39.40625 -1.421875 
Q 24.03125 -1.421875 14.8125 8.828125 
Q 5.609375 19.09375 5.609375 36.375 
Q 5.609375 53.65625 14.8125 63.9375 
Q 24.03125 74.21875 39.40625 74.21875 
z
" id="DejaVuSans-79"/>
       <path d="M 18.109375 8.203125 
L 18.109375 -20.796875 
L 9.078125 -20.796875 
L 9.078125 54.6875 
L 18.109375 54.6875 
L 18.109375 46.390625 
Q 20.953125 51.265625 25.265625 53.625 
Q 29.59375 56 35.59375 56 
Q 45.5625 56 51.78125 48.09375 
Q 58.015625 40.1875 58.015625 27.296875 
Q 58.015625 14.40625 51.78125 6.484375 
Q 45.5625 -1.421875 35.59375 -1.421875 
Q 29.59375 -1.421875 25.265625 0.953125 
Q 20.953125 3.328125 18.109375 8.203125 
z
M 48.6875 27.296875 
Q 48.6875 37.203125 44.609375 42.84375 
Q 40.53125 48.484375 33.40625 48.484375 
Q 26.265625 48.484375 22.1875 42.84375 
Q 18.109375 37.203125 18.109375 27.296875 
Q 18.109375 17.390625 22.1875 11.75 
Q 26.265625 6.109375 33.40625 6.109375 
Q 40.53125 6.109375 44.609375 11.75 
Q 48.6875 17.390625 48.6875 27.296875 
z
" id="DejaVuSans-112"/>
       <path d="M 45.40625 46.390625 
L 45.40625 75.984375 
L 54.390625 75.984375 
L 54.390625 0 
L 45.40625 0 
L 45.40625 8.203125 
Q 42.578125 3.328125 38.25 0.953125 
Q 33.9375 -1.421875 27.875 -1.421875 
Q 17.96875 -1.421875 11.734375 6.484375 
Q 5.515625 14.40625 5.515625 27.296875 
Q 5.515625 40.1875 11.734375 48.09375 
Q 17.96875 56 27.875 56 
Q 33.9375 56 38.25 53.625 
Q 42.578125 51.265625 45.40625 46.390625 
z
M 14.796875 27.296875 
Q 14.796875 17.390625 18.875 11.75 
Q 22.953125 6.109375 30.078125 6.109375 
Q 37.203125 6.109375 41.296875 11.75 
Q 45.40625 17.390625 45.40625 27.296875 
Q 45.40625 37.203125 41.296875 42.84375 
Q 37.203125 48.484375 30.078125 48.484375 
Q 22.953125 48.484375 18.875 42.84375 
Q 14.796875 37.203125 14.796875 27.296875 
z
" id="DejaVuSans-100"/>
      </defs>
      <use xlink:href="#DejaVuSans-79"/>
      <use x="78.710938" xlink:href="#DejaVuSans-117"/>
      <use x="142.089844" xlink:href="#DejaVuSans-116"/>
      <use x="181.298828" xlink:href="#DejaVuSans-112"/>
      <use x="244.775391" xlink:href="#DejaVuSans-117"/>
      <use x="308.154297" xlink:href="#DejaVuSans-116"/>
      <use x="347.363281" xlink:href="#DejaVuSans-32"/>
      <use x="379.150391" xlink:href="#DejaVuSans-100"/>
      <use x="442.626953" xlink:href="#DejaVuSans-105"/>
      <use x="470.410156" xlink:href="#DejaVuSans-109"/>
      <use x="567.822266" xlink:href="#DejaVuSans-101"/>
      <use x="629.345703" xlink:href="#DejaVuSans-110"/>
      <use x="692.724609" xlink:href="#DejaVuSans-115"/>
      <use x="744.824219" xlink:href="#DejaVuSans-105"/>
      <use x="772.607422" xlink:href="#DejaVuSans-111"/>
      <use x="833.789062" xlink:href="#DejaVuSans-110"/>
     </g>
    </g>
    <g id="line2d_21">
     <path d="M 686.62875 413.450625 
L 710.62875 413.450625 
" style="fill:none;stroke:#db5f57;stroke-linecap:round;stroke-width:1.5;"/>
    </g>
    <g id="line2d_22"/>
    <g id="text_21">
     <!-- 2.0 -->
     <g style="fill:#262626;" transform="translate(720.22875 417.650625)scale(0.12 -0.12)">
      <defs>
       <path d="M 10.6875 12.40625 
L 21 12.40625 
L 21 0 
L 10.6875 0 
z
" id="DejaVuSans-46"/>
      </defs>
      <use xlink:href="#DejaVuSans-50"/>
      <use x="63.623047" xlink:href="#DejaVuSans-46"/>
      <use x="95.410156" xlink:href="#DejaVuSans-48"/>
     </g>
    </g>
    <g id="line2d_23">
     <path d="M 686.62875 431.064375 
L 710.62875 431.064375 
" style="fill:none;stroke:#57d3db;stroke-linecap:round;stroke-width:1.5;"/>
    </g>
    <g id="line2d_24"/>
    <g id="text_22">
     <!-- 4.0 -->
     <g style="fill:#262626;" transform="translate(720.22875 435.264375)scale(0.12 -0.12)">
      <use xlink:href="#DejaVuSans-52"/>
      <use x="63.623047" xlink:href="#DejaVuSans-46"/>
      <use x="95.410156" xlink:href="#DejaVuSans-48"/>
     </g>
    </g>
   </g>
  </g>
 </g>
 <defs>
  <clipPath id="pcf9addc425">
   <rect height="388.08" width="669.6" x="108" y="60.48"/>
  </clipPath>
 </defs>
</svg>
