<?xml version="1.0" encoding="utf-8" standalone="no"?>
<!DOCTYPE svg PUBLIC "-//W3C//DTD SVG 1.1//EN"
  "http://www.w3.org/Graphics/SVG/1.1/DTD/svg11.dtd">
<!-- Created with matplotlib (https://matplotlib.org/) -->
<svg height="504pt" version="1.1" viewBox="0 0 864 504" width="864pt" xmlns="http://www.w3.org/2000/svg" xmlns:xlink="http://www.w3.org/1999/xlink">
 <metadata>
  <rdf:RDF xmlns:cc="http://creativecommons.org/ns#" xmlns:dc="http://purl.org/dc/elements/1.1/" xmlns:rdf="http://www.w3.org/1999/02/22-rdf-syntax-ns#">
   <cc:Work>
    <dc:type rdf:resource="http://purl.org/dc/dcmitype/StillImage"/>
    <dc:date>2021-05-23T03:36:14.336044</dc:date>
    <dc:format>image/svg+xml</dc:format>
    <dc:creator>
     <cc:Agent>
      <dc:title>Matplotlib v3.3.2, https://matplotlib.org/</dc:title>
     </cc:Agent>
    </dc:creator>
   </cc:Work>
  </rdf:RDF>
 </metadata>
 <defs>
  <style type="text/css">*{stroke-linecap:butt;stroke-linejoin:round;}</style>
 </defs>
 <g id="figure_1">
  <g id="patch_1">
   <path d="M 0 504 
L 864 504 
L 864 0 
L 0 0 
z
" style="fill:#ffffff;"/>
  </g>
  <g id="axes_1">
   <g id="patch_2">
    <path d="M 108 448.56 
L 777.6 448.56 
L 777.6 60.48 
L 108 60.48 
z
" style="fill:#eaeaf2;"/>
   </g>
   <g id="matplotlib.axis_1">
    <g id="xtick_1">
     <g id="line2d_1">
      <path clip-path="url(#pfedaf5240a)" d="M 176.676923 448.56 
L 176.676923 60.48 
" style="fill:none;stroke:#ffffff;stroke-linecap:round;stroke-width:0.8;"/>
     </g>
     <g id="text_1">
      <!-- 25 -->
      <g style="fill:#262626;" transform="translate(170.314423 463.158437)scale(0.1 -0.1)">
       <defs>
        <path d="M 19.1875 8.296875 
L 53.609375 8.296875 
L 53.609375 0 
L 7.328125 0 
L 7.328125 8.296875 
Q 12.9375 14.109375 22.625 23.890625 
Q 32.328125 33.6875 34.8125 36.53125 
Q 39.546875 41.84375 41.421875 45.53125 
Q 43.3125 49.21875 43.3125 52.78125 
Q 43.3125 58.59375 39.234375 62.25 
Q 35.15625 65.921875 28.609375 65.921875 
Q 23.96875 65.921875 18.8125 64.3125 
Q 13.671875 62.703125 7.8125 59.421875 
L 7.8125 69.390625 
Q 13.765625 71.78125 18.9375 73 
Q 24.125 74.21875 28.421875 74.21875 
Q 39.75 74.21875 46.484375 68.546875 
Q 53.21875 62.890625 53.21875 53.421875 
Q 53.21875 48.921875 51.53125 44.890625 
Q 49.859375 40.875 45.40625 35.40625 
Q 44.1875 33.984375 37.640625 27.21875 
Q 31.109375 20.453125 19.1875 8.296875 
z
" id="DejaVuSans-50"/>
        <path d="M 10.796875 72.90625 
L 49.515625 72.90625 
L 49.515625 64.59375 
L 19.828125 64.59375 
L 19.828125 46.734375 
Q 21.96875 47.46875 24.109375 47.828125 
Q 26.265625 48.1875 28.421875 48.1875 
Q 40.625 48.1875 47.75 41.5 
Q 54.890625 34.8125 54.890625 23.390625 
Q 54.890625 11.625 47.5625 5.09375 
Q 40.234375 -1.421875 26.90625 -1.421875 
Q 22.3125 -1.421875 17.546875 -0.640625 
Q 12.796875 0.140625 7.71875 1.703125 
L 7.71875 11.625 
Q 12.109375 9.234375 16.796875 8.0625 
Q 21.484375 6.890625 26.703125 6.890625 
Q 35.15625 6.890625 40.078125 11.328125 
Q 45.015625 15.765625 45.015625 23.390625 
Q 45.015625 31 40.078125 35.4375 
Q 35.15625 39.890625 26.703125 39.890625 
Q 22.75 39.890625 18.8125 39.015625 
Q 14.890625 38.140625 10.796875 36.28125 
z
" id="DejaVuSans-53"/>
       </defs>
       <use xlink:href="#DejaVuSans-50"/>
       <use x="63.623047" xlink:href="#DejaVuSans-53"/>
      </g>
     </g>
    </g>
    <g id="xtick_2">
     <g id="line2d_2">
      <path clip-path="url(#pfedaf5240a)" d="M 262.523077 448.56 
L 262.523077 60.48 
" style="fill:none;stroke:#ffffff;stroke-linecap:round;stroke-width:0.8;"/>
     </g>
     <g id="text_2">
      <!-- 50 -->
      <g style="fill:#262626;" transform="translate(256.160577 463.158437)scale(0.1 -0.1)">
       <defs>
        <path d="M 31.78125 66.40625 
Q 24.171875 66.40625 20.328125 58.90625 
Q 16.5 51.421875 16.5 36.375 
Q 16.5 21.390625 20.328125 13.890625 
Q 24.171875 6.390625 31.78125 6.390625 
Q 39.453125 6.390625 43.28125 13.890625 
Q 47.125 21.390625 47.125 36.375 
Q 47.125 51.421875 43.28125 58.90625 
Q 39.453125 66.40625 31.78125 66.40625 
z
M 31.78125 74.21875 
Q 44.046875 74.21875 50.515625 64.515625 
Q 56.984375 54.828125 56.984375 36.375 
Q 56.984375 17.96875 50.515625 8.265625 
Q 44.046875 -1.421875 31.78125 -1.421875 
Q 19.53125 -1.421875 13.0625 8.265625 
Q 6.59375 17.96875 6.59375 36.375 
Q 6.59375 54.828125 13.0625 64.515625 
Q 19.53125 74.21875 31.78125 74.21875 
z
" id="DejaVuSans-48"/>
       </defs>
       <use xlink:href="#DejaVuSans-53"/>
       <use x="63.623047" xlink:href="#DejaVuSans-48"/>
      </g>
     </g>
    </g>
    <g id="xtick_3">
     <g id="line2d_3">
      <path clip-path="url(#pfedaf5240a)" d="M 348.369231 448.56 
L 348.369231 60.48 
" style="fill:none;stroke:#ffffff;stroke-linecap:round;stroke-width:0.8;"/>
     </g>
     <g id="text_3">
      <!-- 75 -->
      <g style="fill:#262626;" transform="translate(342.006731 463.158437)scale(0.1 -0.1)">
       <defs>
        <path d="M 8.203125 72.90625 
L 55.078125 72.90625 
L 55.078125 68.703125 
L 28.609375 0 
L 18.3125 0 
L 43.21875 64.59375 
L 8.203125 64.59375 
z
" id="DejaVuSans-55"/>
       </defs>
       <use xlink:href="#DejaVuSans-55"/>
       <use x="63.623047" xlink:href="#DejaVuSans-53"/>
      </g>
     </g>
    </g>
    <g id="xtick_4">
     <g id="line2d_4">
      <path clip-path="url(#pfedaf5240a)" d="M 434.215385 448.56 
L 434.215385 60.48 
" style="fill:none;stroke:#ffffff;stroke-linecap:round;stroke-width:0.8;"/>
     </g>
     <g id="text_4">
      <!-- 100 -->
      <g style="fill:#262626;" transform="translate(424.671635 463.158437)scale(0.1 -0.1)">
       <defs>
        <path d="M 12.40625 8.296875 
L 28.515625 8.296875 
L 28.515625 63.921875 
L 10.984375 60.40625 
L 10.984375 69.390625 
L 28.421875 72.90625 
L 38.28125 72.90625 
L 38.28125 8.296875 
L 54.390625 8.296875 
L 54.390625 0 
L 12.40625 0 
z
" id="DejaVuSans-49"/>
       </defs>
       <use xlink:href="#DejaVuSans-49"/>
       <use x="63.623047" xlink:href="#DejaVuSans-48"/>
       <use x="127.246094" xlink:href="#DejaVuSans-48"/>
      </g>
     </g>
    </g>
    <g id="xtick_5">
     <g id="line2d_5">
      <path clip-path="url(#pfedaf5240a)" d="M 520.061538 448.56 
L 520.061538 60.48 
" style="fill:none;stroke:#ffffff;stroke-linecap:round;stroke-width:0.8;"/>
     </g>
     <g id="text_5">
      <!-- 125 -->
      <g style="fill:#262626;" transform="translate(510.517788 463.158437)scale(0.1 -0.1)">
       <use xlink:href="#DejaVuSans-49"/>
       <use x="63.623047" xlink:href="#DejaVuSans-50"/>
       <use x="127.246094" xlink:href="#DejaVuSans-53"/>
      </g>
     </g>
    </g>
    <g id="xtick_6">
     <g id="line2d_6">
      <path clip-path="url(#pfedaf5240a)" d="M 605.907692 448.56 
L 605.907692 60.48 
" style="fill:none;stroke:#ffffff;stroke-linecap:round;stroke-width:0.8;"/>
     </g>
     <g id="text_6">
      <!-- 150 -->
      <g style="fill:#262626;" transform="translate(596.363942 463.158437)scale(0.1 -0.1)">
       <use xlink:href="#DejaVuSans-49"/>
       <use x="63.623047" xlink:href="#DejaVuSans-53"/>
       <use x="127.246094" xlink:href="#DejaVuSans-48"/>
      </g>
     </g>
    </g>
    <g id="xtick_7">
     <g id="line2d_7">
      <path clip-path="url(#pfedaf5240a)" d="M 691.753846 448.56 
L 691.753846 60.48 
" style="fill:none;stroke:#ffffff;stroke-linecap:round;stroke-width:0.8;"/>
     </g>
     <g id="text_7">
      <!-- 175 -->
      <g style="fill:#262626;" transform="translate(682.210096 463.158437)scale(0.1 -0.1)">
       <use xlink:href="#DejaVuSans-49"/>
       <use x="63.623047" xlink:href="#DejaVuSans-55"/>
       <use x="127.246094" xlink:href="#DejaVuSans-53"/>
      </g>
     </g>
    </g>
    <g id="xtick_8">
     <g id="line2d_8">
      <path clip-path="url(#pfedaf5240a)" d="M 777.6 448.56 
L 777.6 60.48 
" style="fill:none;stroke:#ffffff;stroke-linecap:round;stroke-width:0.8;"/>
     </g>
     <g id="text_8">
      <!-- 200 -->
      <g style="fill:#262626;" transform="translate(768.05625 463.158437)scale(0.1 -0.1)">
       <use xlink:href="#DejaVuSans-50"/>
       <use x="63.623047" xlink:href="#DejaVuSans-48"/>
       <use x="127.246094" xlink:href="#DejaVuSans-48"/>
      </g>
     </g>
    </g>
    <g id="text_9">
     <!-- Neighbors -->
     <g style="fill:#262626;" transform="translate(407.179844 479.875938)scale(0.14 -0.14)">
      <defs>
       <path d="M 9.8125 72.90625 
L 23.09375 72.90625 
L 55.421875 11.921875 
L 55.421875 72.90625 
L 64.984375 72.90625 
L 64.984375 0 
L 51.703125 0 
L 19.390625 60.984375 
L 19.390625 0 
L 9.8125 0 
z
" id="DejaVuSans-78"/>
       <path d="M 56.203125 29.59375 
L 56.203125 25.203125 
L 14.890625 25.203125 
Q 15.484375 15.921875 20.484375 11.0625 
Q 25.484375 6.203125 34.421875 6.203125 
Q 39.59375 6.203125 44.453125 7.46875 
Q 49.3125 8.734375 54.109375 11.28125 
L 54.109375 2.78125 
Q 49.265625 0.734375 44.1875 -0.34375 
Q 39.109375 -1.421875 33.890625 -1.421875 
Q 20.796875 -1.421875 13.15625 6.1875 
Q 5.515625 13.8125 5.515625 26.8125 
Q 5.515625 40.234375 12.765625 48.109375 
Q 20.015625 56 32.328125 56 
Q 43.359375 56 49.78125 48.890625 
Q 56.203125 41.796875 56.203125 29.59375 
z
M 47.21875 32.234375 
Q 47.125 39.59375 43.09375 43.984375 
Q 39.0625 48.390625 32.421875 48.390625 
Q 24.90625 48.390625 20.390625 44.140625 
Q 15.875 39.890625 15.1875 32.171875 
z
" id="DejaVuSans-101"/>
       <path d="M 9.421875 54.6875 
L 18.40625 54.6875 
L 18.40625 0 
L 9.421875 0 
z
M 9.421875 75.984375 
L 18.40625 75.984375 
L 18.40625 64.59375 
L 9.421875 64.59375 
z
" id="DejaVuSans-105"/>
       <path d="M 45.40625 27.984375 
Q 45.40625 37.75 41.375 43.109375 
Q 37.359375 48.484375 30.078125 48.484375 
Q 22.859375 48.484375 18.828125 43.109375 
Q 14.796875 37.75 14.796875 27.984375 
Q 14.796875 18.265625 18.828125 12.890625 
Q 22.859375 7.515625 30.078125 7.515625 
Q 37.359375 7.515625 41.375 12.890625 
Q 45.40625 18.265625 45.40625 27.984375 
z
M 54.390625 6.78125 
Q 54.390625 -7.171875 48.1875 -13.984375 
Q 42 -20.796875 29.203125 -20.796875 
Q 24.46875 -20.796875 20.265625 -20.09375 
Q 16.0625 -19.390625 12.109375 -17.921875 
L 12.109375 -9.1875 
Q 16.0625 -11.328125 19.921875 -12.34375 
Q 23.78125 -13.375 27.78125 -13.375 
Q 36.625 -13.375 41.015625 -8.765625 
Q 45.40625 -4.15625 45.40625 5.171875 
L 45.40625 9.625 
Q 42.625 4.78125 38.28125 2.390625 
Q 33.9375 0 27.875 0 
Q 17.828125 0 11.671875 7.65625 
Q 5.515625 15.328125 5.515625 27.984375 
Q 5.515625 40.671875 11.671875 48.328125 
Q 17.828125 56 27.875 56 
Q 33.9375 56 38.28125 53.609375 
Q 42.625 51.21875 45.40625 46.390625 
L 45.40625 54.6875 
L 54.390625 54.6875 
z
" id="DejaVuSans-103"/>
       <path d="M 54.890625 33.015625 
L 54.890625 0 
L 45.90625 0 
L 45.90625 32.71875 
Q 45.90625 40.484375 42.875 44.328125 
Q 39.84375 48.1875 33.796875 48.1875 
Q 26.515625 48.1875 22.3125 43.546875 
Q 18.109375 38.921875 18.109375 30.90625 
L 18.109375 0 
L 9.078125 0 
L 9.078125 75.984375 
L 18.109375 75.984375 
L 18.109375 46.1875 
Q 21.34375 51.125 25.703125 53.5625 
Q 30.078125 56 35.796875 56 
Q 45.21875 56 50.046875 50.171875 
Q 54.890625 44.34375 54.890625 33.015625 
z
" id="DejaVuSans-104"/>
       <path d="M 48.6875 27.296875 
Q 48.6875 37.203125 44.609375 42.84375 
Q 40.53125 48.484375 33.40625 48.484375 
Q 26.265625 48.484375 22.1875 42.84375 
Q 18.109375 37.203125 18.109375 27.296875 
Q 18.109375 17.390625 22.1875 11.75 
Q 26.265625 6.109375 33.40625 6.109375 
Q 40.53125 6.109375 44.609375 11.75 
Q 48.6875 17.390625 48.6875 27.296875 
z
M 18.109375 46.390625 
Q 20.953125 51.265625 25.265625 53.625 
Q 29.59375 56 35.59375 56 
Q 45.5625 56 51.78125 48.09375 
Q 58.015625 40.1875 58.015625 27.296875 
Q 58.015625 14.40625 51.78125 6.484375 
Q 45.5625 -1.421875 35.59375 -1.421875 
Q 29.59375 -1.421875 25.265625 0.953125 
Q 20.953125 3.328125 18.109375 8.203125 
L 18.109375 0 
L 9.078125 0 
L 9.078125 75.984375 
L 18.109375 75.984375 
z
" id="DejaVuSans-98"/>
       <path d="M 30.609375 48.390625 
Q 23.390625 48.390625 19.1875 42.75 
Q 14.984375 37.109375 14.984375 27.296875 
Q 14.984375 17.484375 19.15625 11.84375 
Q 23.34375 6.203125 30.609375 6.203125 
Q 37.796875 6.203125 41.984375 11.859375 
Q 46.1875 17.53125 46.1875 27.296875 
Q 46.1875 37.015625 41.984375 42.703125 
Q 37.796875 48.390625 30.609375 48.390625 
z
M 30.609375 56 
Q 42.328125 56 49.015625 48.375 
Q 55.71875 40.765625 55.71875 27.296875 
Q 55.71875 13.875 49.015625 6.21875 
Q 42.328125 -1.421875 30.609375 -1.421875 
Q 18.84375 -1.421875 12.171875 6.21875 
Q 5.515625 13.875 5.515625 27.296875 
Q 5.515625 40.765625 12.171875 48.375 
Q 18.84375 56 30.609375 56 
z
" id="DejaVuSans-111"/>
       <path d="M 41.109375 46.296875 
Q 39.59375 47.171875 37.8125 47.578125 
Q 36.03125 48 33.890625 48 
Q 26.265625 48 22.1875 43.046875 
Q 18.109375 38.09375 18.109375 28.8125 
L 18.109375 0 
L 9.078125 0 
L 9.078125 54.6875 
L 18.109375 54.6875 
L 18.109375 46.1875 
Q 20.953125 51.171875 25.484375 53.578125 
Q 30.03125 56 36.53125 56 
Q 37.453125 56 38.578125 55.875 
Q 39.703125 55.765625 41.0625 55.515625 
z
" id="DejaVuSans-114"/>
       <path d="M 44.28125 53.078125 
L 44.28125 44.578125 
Q 40.484375 46.53125 36.375 47.5 
Q 32.28125 48.484375 27.875 48.484375 
Q 21.1875 48.484375 17.84375 46.4375 
Q 14.5 44.390625 14.5 40.28125 
Q 14.5 37.15625 16.890625 35.375 
Q 19.28125 33.59375 26.515625 31.984375 
L 29.59375 31.296875 
Q 39.15625 29.25 43.1875 25.515625 
Q 47.21875 21.78125 47.21875 15.09375 
Q 47.21875 7.46875 41.1875 3.015625 
Q 35.15625 -1.421875 24.609375 -1.421875 
Q 20.21875 -1.421875 15.453125 -0.5625 
Q 10.6875 0.296875 5.421875 2 
L 5.421875 11.28125 
Q 10.40625 8.6875 15.234375 7.390625 
Q 20.0625 6.109375 24.8125 6.109375 
Q 31.15625 6.109375 34.5625 8.28125 
Q 37.984375 10.453125 37.984375 14.40625 
Q 37.984375 18.0625 35.515625 20.015625 
Q 33.0625 21.96875 24.703125 23.78125 
L 21.578125 24.515625 
Q 13.234375 26.265625 9.515625 29.90625 
Q 5.8125 33.546875 5.8125 39.890625 
Q 5.8125 47.609375 11.28125 51.796875 
Q 16.75 56 26.8125 56 
Q 31.78125 56 36.171875 55.265625 
Q 40.578125 54.546875 44.28125 53.078125 
z
" id="DejaVuSans-115"/>
      </defs>
      <use xlink:href="#DejaVuSans-78"/>
      <use x="74.804688" xlink:href="#DejaVuSans-101"/>
      <use x="136.328125" xlink:href="#DejaVuSans-105"/>
      <use x="164.111328" xlink:href="#DejaVuSans-103"/>
      <use x="227.587891" xlink:href="#DejaVuSans-104"/>
      <use x="290.966797" xlink:href="#DejaVuSans-98"/>
      <use x="354.443359" xlink:href="#DejaVuSans-111"/>
      <use x="415.625" xlink:href="#DejaVuSans-114"/>
      <use x="456.738281" xlink:href="#DejaVuSans-115"/>
     </g>
    </g>
   </g>
   <g id="matplotlib.axis_2">
    <g id="ytick_1">
     <g id="line2d_9">
      <path clip-path="url(#pfedaf5240a)" d="M 108 440.882795 
L 777.6 440.882795 
" style="fill:none;stroke:#ffffff;stroke-linecap:round;stroke-width:0.8;"/>
     </g>
     <g id="text_10">
      <!-- 0 -->
      <g style="fill:#262626;" transform="translate(94.6375 444.682013)scale(0.1 -0.1)">
       <use xlink:href="#DejaVuSans-48"/>
      </g>
     </g>
    </g>
    <g id="ytick_2">
     <g id="line2d_10">
      <path clip-path="url(#pfedaf5240a)" d="M 108 359.330564 
L 777.6 359.330564 
" style="fill:none;stroke:#ffffff;stroke-linecap:round;stroke-width:0.8;"/>
     </g>
     <g id="text_11">
      <!-- 10 -->
      <g style="fill:#262626;" transform="translate(88.275 363.129783)scale(0.1 -0.1)">
       <use xlink:href="#DejaVuSans-49"/>
       <use x="63.623047" xlink:href="#DejaVuSans-48"/>
      </g>
     </g>
    </g>
    <g id="ytick_3">
     <g id="line2d_11">
      <path clip-path="url(#pfedaf5240a)" d="M 108 277.778334 
L 777.6 277.778334 
" style="fill:none;stroke:#ffffff;stroke-linecap:round;stroke-width:0.8;"/>
     </g>
     <g id="text_12">
      <!-- 20 -->
      <g style="fill:#262626;" transform="translate(88.275 281.577553)scale(0.1 -0.1)">
       <use xlink:href="#DejaVuSans-50"/>
       <use x="63.623047" xlink:href="#DejaVuSans-48"/>
      </g>
     </g>
    </g>
    <g id="ytick_4">
     <g id="line2d_12">
      <path clip-path="url(#pfedaf5240a)" d="M 108 196.226104 
L 777.6 196.226104 
" style="fill:none;stroke:#ffffff;stroke-linecap:round;stroke-width:0.8;"/>
     </g>
     <g id="text_13">
      <!-- 30 -->
      <g style="fill:#262626;" transform="translate(88.275 200.025323)scale(0.1 -0.1)">
       <defs>
        <path d="M 40.578125 39.3125 
Q 47.65625 37.796875 51.625 33 
Q 55.609375 28.21875 55.609375 21.1875 
Q 55.609375 10.40625 48.1875 4.484375 
Q 40.765625 -1.421875 27.09375 -1.421875 
Q 22.515625 -1.421875 17.65625 -0.515625 
Q 12.796875 0.390625 7.625 2.203125 
L 7.625 11.71875 
Q 11.71875 9.328125 16.59375 8.109375 
Q 21.484375 6.890625 26.8125 6.890625 
Q 36.078125 6.890625 40.9375 10.546875 
Q 45.796875 14.203125 45.796875 21.1875 
Q 45.796875 27.640625 41.28125 31.265625 
Q 36.765625 34.90625 28.71875 34.90625 
L 20.21875 34.90625 
L 20.21875 43.015625 
L 29.109375 43.015625 
Q 36.375 43.015625 40.234375 45.921875 
Q 44.09375 48.828125 44.09375 54.296875 
Q 44.09375 59.90625 40.109375 62.90625 
Q 36.140625 65.921875 28.71875 65.921875 
Q 24.65625 65.921875 20.015625 65.03125 
Q 15.375 64.15625 9.8125 62.3125 
L 9.8125 71.09375 
Q 15.4375 72.65625 20.34375 73.4375 
Q 25.25 74.21875 29.59375 74.21875 
Q 40.828125 74.21875 47.359375 69.109375 
Q 53.90625 64.015625 53.90625 55.328125 
Q 53.90625 49.265625 50.4375 45.09375 
Q 46.96875 40.921875 40.578125 39.3125 
z
" id="DejaVuSans-51"/>
       </defs>
       <use xlink:href="#DejaVuSans-51"/>
       <use x="63.623047" xlink:href="#DejaVuSans-48"/>
      </g>
     </g>
    </g>
    <g id="ytick_5">
     <g id="line2d_13">
      <path clip-path="url(#pfedaf5240a)" d="M 108 114.673874 
L 777.6 114.673874 
" style="fill:none;stroke:#ffffff;stroke-linecap:round;stroke-width:0.8;"/>
     </g>
     <g id="text_14">
      <!-- 40 -->
      <g style="fill:#262626;" transform="translate(88.275 118.473093)scale(0.1 -0.1)">
       <defs>
        <path d="M 37.796875 64.3125 
L 12.890625 25.390625 
L 37.796875 25.390625 
z
M 35.203125 72.90625 
L 47.609375 72.90625 
L 47.609375 25.390625 
L 58.015625 25.390625 
L 58.015625 17.1875 
L 47.609375 17.1875 
L 47.609375 0 
L 37.796875 0 
L 37.796875 17.1875 
L 4.890625 17.1875 
L 4.890625 26.703125 
z
" id="DejaVuSans-52"/>
       </defs>
       <use xlink:href="#DejaVuSans-52"/>
       <use x="63.623047" xlink:href="#DejaVuSans-48"/>
      </g>
     </g>
    </g>
    <g id="text_15">
     <!-- Wall clock time [s] -->
     <g style="fill:#262626;" transform="translate(81.363438 318.750469)rotate(-90)scale(0.14 -0.14)">
      <defs>
       <path d="M 3.328125 72.90625 
L 13.28125 72.90625 
L 28.609375 11.28125 
L 43.890625 72.90625 
L 54.984375 72.90625 
L 70.3125 11.28125 
L 85.59375 72.90625 
L 95.609375 72.90625 
L 77.296875 0 
L 64.890625 0 
L 49.515625 63.28125 
L 33.984375 0 
L 21.578125 0 
z
" id="DejaVuSans-87"/>
       <path d="M 34.28125 27.484375 
Q 23.390625 27.484375 19.1875 25 
Q 14.984375 22.515625 14.984375 16.5 
Q 14.984375 11.71875 18.140625 8.90625 
Q 21.296875 6.109375 26.703125 6.109375 
Q 34.1875 6.109375 38.703125 11.40625 
Q 43.21875 16.703125 43.21875 25.484375 
L 43.21875 27.484375 
z
M 52.203125 31.203125 
L 52.203125 0 
L 43.21875 0 
L 43.21875 8.296875 
Q 40.140625 3.328125 35.546875 0.953125 
Q 30.953125 -1.421875 24.3125 -1.421875 
Q 15.921875 -1.421875 10.953125 3.296875 
Q 6 8.015625 6 15.921875 
Q 6 25.140625 12.171875 29.828125 
Q 18.359375 34.515625 30.609375 34.515625 
L 43.21875 34.515625 
L 43.21875 35.40625 
Q 43.21875 41.609375 39.140625 45 
Q 35.0625 48.390625 27.6875 48.390625 
Q 23 48.390625 18.546875 47.265625 
Q 14.109375 46.140625 10.015625 43.890625 
L 10.015625 52.203125 
Q 14.9375 54.109375 19.578125 55.046875 
Q 24.21875 56 28.609375 56 
Q 40.484375 56 46.34375 49.84375 
Q 52.203125 43.703125 52.203125 31.203125 
z
" id="DejaVuSans-97"/>
       <path d="M 9.421875 75.984375 
L 18.40625 75.984375 
L 18.40625 0 
L 9.421875 0 
z
" id="DejaVuSans-108"/>
       <path id="DejaVuSans-32"/>
       <path d="M 48.78125 52.59375 
L 48.78125 44.1875 
Q 44.96875 46.296875 41.140625 47.34375 
Q 37.3125 48.390625 33.40625 48.390625 
Q 24.65625 48.390625 19.8125 42.84375 
Q 14.984375 37.3125 14.984375 27.296875 
Q 14.984375 17.28125 19.8125 11.734375 
Q 24.65625 6.203125 33.40625 6.203125 
Q 37.3125 6.203125 41.140625 7.25 
Q 44.96875 8.296875 48.78125 10.40625 
L 48.78125 2.09375 
Q 45.015625 0.34375 40.984375 -0.53125 
Q 36.96875 -1.421875 32.421875 -1.421875 
Q 20.0625 -1.421875 12.78125 6.34375 
Q 5.515625 14.109375 5.515625 27.296875 
Q 5.515625 40.671875 12.859375 48.328125 
Q 20.21875 56 33.015625 56 
Q 37.15625 56 41.109375 55.140625 
Q 45.0625 54.296875 48.78125 52.59375 
z
" id="DejaVuSans-99"/>
       <path d="M 9.078125 75.984375 
L 18.109375 75.984375 
L 18.109375 31.109375 
L 44.921875 54.6875 
L 56.390625 54.6875 
L 27.390625 29.109375 
L 57.625 0 
L 45.90625 0 
L 18.109375 26.703125 
L 18.109375 0 
L 9.078125 0 
z
" id="DejaVuSans-107"/>
       <path d="M 18.3125 70.21875 
L 18.3125 54.6875 
L 36.8125 54.6875 
L 36.8125 47.703125 
L 18.3125 47.703125 
L 18.3125 18.015625 
Q 18.3125 11.328125 20.140625 9.421875 
Q 21.96875 7.515625 27.59375 7.515625 
L 36.8125 7.515625 
L 36.8125 0 
L 27.59375 0 
Q 17.1875 0 13.234375 3.875 
Q 9.28125 7.765625 9.28125 18.015625 
L 9.28125 47.703125 
L 2.6875 47.703125 
L 2.6875 54.6875 
L 9.28125 54.6875 
L 9.28125 70.21875 
z
" id="DejaVuSans-116"/>
       <path d="M 52 44.1875 
Q 55.375 50.25 60.0625 53.125 
Q 64.75 56 71.09375 56 
Q 79.640625 56 84.28125 50.015625 
Q 88.921875 44.046875 88.921875 33.015625 
L 88.921875 0 
L 79.890625 0 
L 79.890625 32.71875 
Q 79.890625 40.578125 77.09375 44.375 
Q 74.3125 48.1875 68.609375 48.1875 
Q 61.625 48.1875 57.5625 43.546875 
Q 53.515625 38.921875 53.515625 30.90625 
L 53.515625 0 
L 44.484375 0 
L 44.484375 32.71875 
Q 44.484375 40.625 41.703125 44.40625 
Q 38.921875 48.1875 33.109375 48.1875 
Q 26.21875 48.1875 22.15625 43.53125 
Q 18.109375 38.875 18.109375 30.90625 
L 18.109375 0 
L 9.078125 0 
L 9.078125 54.6875 
L 18.109375 54.6875 
L 18.109375 46.1875 
Q 21.1875 51.21875 25.484375 53.609375 
Q 29.78125 56 35.6875 56 
Q 41.65625 56 45.828125 52.96875 
Q 50 49.953125 52 44.1875 
z
" id="DejaVuSans-109"/>
       <path d="M 8.59375 75.984375 
L 29.296875 75.984375 
L 29.296875 69 
L 17.578125 69 
L 17.578125 -6.203125 
L 29.296875 -6.203125 
L 29.296875 -13.1875 
L 8.59375 -13.1875 
z
" id="DejaVuSans-91"/>
       <path d="M 30.421875 75.984375 
L 30.421875 -13.1875 
L 9.71875 -13.1875 
L 9.71875 -6.203125 
L 21.390625 -6.203125 
L 21.390625 69 
L 9.71875 69 
L 9.71875 75.984375 
z
" id="DejaVuSans-93"/>
      </defs>
      <use xlink:href="#DejaVuSans-87"/>
      <use x="92.501953" xlink:href="#DejaVuSans-97"/>
      <use x="153.78125" xlink:href="#DejaVuSans-108"/>
      <use x="181.564453" xlink:href="#DejaVuSans-108"/>
      <use x="209.347656" xlink:href="#DejaVuSans-32"/>
      <use x="241.134766" xlink:href="#DejaVuSans-99"/>
      <use x="296.115234" xlink:href="#DejaVuSans-108"/>
      <use x="323.898438" xlink:href="#DejaVuSans-111"/>
      <use x="385.080078" xlink:href="#DejaVuSans-99"/>
      <use x="440.060547" xlink:href="#DejaVuSans-107"/>
      <use x="497.970703" xlink:href="#DejaVuSans-32"/>
      <use x="529.757812" xlink:href="#DejaVuSans-116"/>
      <use x="568.966797" xlink:href="#DejaVuSans-105"/>
      <use x="596.75" xlink:href="#DejaVuSans-109"/>
      <use x="694.162109" xlink:href="#DejaVuSans-101"/>
      <use x="755.685547" xlink:href="#DejaVuSans-32"/>
      <use x="787.472656" xlink:href="#DejaVuSans-91"/>
      <use x="826.486328" xlink:href="#DejaVuSans-115"/>
      <use x="878.585938" xlink:href="#DejaVuSans-93"/>
     </g>
    </g>
   </g>
   <g id="PolyCollection_1">
    <defs>
     <path d="M 108 -94.115529 
L 108 -93.475862 
L 111.433846 -101.458962 
L 118.301538 -113.80191 
L 125.169231 -126.382187 
L 132.036923 -129.354222 
L 138.904615 -133.272309 
L 145.772308 -139.434197 
L 152.64 -142.988275 
L 159.507692 -140.022969 
L 166.375385 -165.895609 
L 173.243077 -156.766434 
L 180.110769 -163.556247 
L 186.978462 -167.659914 
L 193.846154 -172.091032 
L 200.713846 -163.536172 
L 207.581538 -164.539849 
L 214.449231 -168.161439 
L 221.316923 -172.77507 
L 228.184615 -186.180667 
L 235.052308 -182.839958 
L 241.92 -178.751834 
L 248.787692 -184.803435 
L 255.655385 -181.889924 
L 262.523077 -191.350796 
L 269.390769 -188.550335 
L 276.258462 -194.303495 
L 283.126154 -187.328258 
L 289.993846 -189.064379 
L 296.861538 -196.186862 
L 303.729231 -193.454716 
L 310.596923 -194.081961 
L 317.464615 -194.270506 
L 324.332308 -198.582552 
L 331.2 -198.080899 
L 334.633846 -199.684784 
L 341.501538 -200.459305 
L 348.369231 -190.496332 
L 355.236923 -197.044866 
L 362.104615 -197.869341 
L 368.972308 -193.378947 
L 375.84 -193.198474 
L 382.707692 -192.29307 
L 389.575385 -197.245981 
L 396.443077 -201.275287 
L 403.310769 -203.544854 
L 410.178462 -201.666597 
L 417.046154 -198.802626 
L 423.913846 -205.797907 
L 430.781538 -202.743694 
L 437.649231 -207.158837 
L 444.516923 -209.146938 
L 451.384615 -209.645732 
L 458.252308 -208.384595 
L 465.12 -218.596689 
L 471.987692 -212.990952 
L 478.855385 -217.787264 
L 485.723077 -220.220911 
L 492.590769 -217.987022 
L 499.458462 -216.215273 
L 506.326154 -214.196014 
L 513.193846 -214.850258 
L 520.061538 -219.248308 
L 526.929231 -217.416503 
L 533.796923 -208.160268 
L 540.664615 -211.573499 
L 547.532308 -212.350175 
L 554.4 -209.923793 
L 557.833846 -213.891866 
L 564.701538 -225.813723 
L 571.569231 -223.237805 
L 578.436923 -225.605065 
L 585.304615 -221.998109 
L 592.172308 -223.877246 
L 599.04 -221.269143 
L 605.907692 -224.286704 
L 612.775385 -222.648862 
L 619.643077 -221.402407 
L 626.510769 -222.723525 
L 633.378462 -221.35502 
L 640.246154 -226.614737 
L 647.113846 -222.037684 
L 653.981538 -222.140408 
L 660.849231 -218.075439 
L 667.716923 -215.974428 
L 674.584615 -222.360686 
L 681.452308 -227.426122 
L 688.32 -233.194051 
L 695.187692 -224.767596 
L 702.055385 -223.688565 
L 708.923077 -224.23604 
L 715.790769 -228.70866 
L 722.658462 -230.234444 
L 729.526154 -231.231388 
L 736.393846 -220.876697 
L 743.261538 -226.198737 
L 750.129231 -228.641624 
L 756.996923 -231.583783 
L 763.864615 -235.554241 
L 770.732308 -232.193803 
L 777.6 -232.70033 
L 777.6 -233.850988 
L 777.6 -233.850988 
L 770.732308 -233.382959 
L 763.864615 -236.467482 
L 756.996923 -232.869374 
L 750.129231 -229.810226 
L 743.261538 -227.476511 
L 736.393846 -221.622 
L 729.526154 -232.154855 
L 722.658462 -231.179141 
L 715.790769 -230.277107 
L 708.923077 -225.907597 
L 702.055385 -224.524642 
L 695.187692 -225.768926 
L 688.32 -233.86448 
L 681.452308 -227.885189 
L 674.584615 -223.261445 
L 667.716923 -217.570081 
L 660.849231 -219.000365 
L 653.981538 -226.094379 
L 647.113846 -223.103201 
L 640.246154 -227.768328 
L 633.378462 -222.016468 
L 626.510769 -222.998461 
L 619.643077 -222.421915 
L 612.775385 -223.384076 
L 605.907692 -224.376677 
L 599.04 -222.154393 
L 592.172308 -224.985525 
L 585.304615 -222.523591 
L 578.436923 -226.461608 
L 571.569231 -224.598118 
L 564.701538 -226.418513 
L 557.833846 -214.302021 
L 554.4 -211.387405 
L 547.532308 -212.994578 
L 540.664615 -212.309194 
L 533.796923 -208.852958 
L 526.929231 -217.864476 
L 520.061538 -219.939517 
L 513.193846 -215.568576 
L 506.326154 -217.328757 
L 499.458462 -216.76967 
L 492.590769 -219.018859 
L 485.723077 -220.991143 
L 478.855385 -218.587739 
L 471.987692 -213.552224 
L 465.12 -219.389157 
L 458.252308 -208.797949 
L 451.384615 -210.188363 
L 444.516923 -210.273874 
L 437.649231 -207.619569 
L 430.781538 -203.362013 
L 423.913846 -206.213475 
L 417.046154 -199.167408 
L 410.178462 -202.330799 
L 403.310769 -203.921489 
L 396.443077 -201.57773 
L 389.575385 -197.491063 
L 382.707692 -192.561185 
L 375.84 -193.610828 
L 368.972308 -193.901671 
L 362.104615 -198.242342 
L 355.236923 -197.541079 
L 348.369231 -190.71732 
L 341.501538 -201.385753 
L 334.633846 -200.152686 
L 331.2 -198.598746 
L 324.332308 -198.863335 
L 317.464615 -194.646761 
L 310.596923 -194.47276 
L 303.729231 -193.968915 
L 296.861538 -196.650927 
L 289.993846 -189.365805 
L 283.126154 -187.694021 
L 276.258462 -194.585399 
L 269.390769 -188.917196 
L 262.523077 -191.961772 
L 255.655385 -182.172071 
L 248.787692 -185.173616 
L 241.92 -179.32134 
L 235.052308 -183.227714 
L 228.184615 -186.798987 
L 221.316923 -173.13695 
L 214.449231 -168.527911 
L 207.581538 -164.775036 
L 200.713846 -163.940393 
L 193.846154 -172.736251 
L 186.978462 -168.107297 
L 180.110769 -164.210285 
L 173.243077 -156.920387 
L 166.375385 -166.719716 
L 159.507692 -140.592449 
L 152.64 -144.001348 
L 145.772308 -139.902361 
L 138.904615 -133.548511 
L 132.036923 -129.603417 
L 125.169231 -129.170962 
L 118.301538 -114.094021 
L 111.433846 -102.915238 
L 108 -94.115529 
z
" id="m58eb6aee77" style="stroke:#db5f57;stroke-opacity:0.2;"/>
    </defs>
    <g clip-path="url(#pfedaf5240a)">
     <use style="fill:#db5f57;fill-opacity:0.2;stroke:#db5f57;stroke-opacity:0.2;" x="0" xlink:href="#m58eb6aee77" y="504"/>
    </g>
   </g>
   <g id="PolyCollection_2">
    <defs>
     <path d="M 108 -191.151145 
L 108 -190.450729 
L 111.433846 -191.396178 
L 118.301538 -192.112065 
L 125.169231 -193.238853 
L 132.036923 -194.893855 
L 138.904615 -194.712278 
L 145.772308 -195.736511 
L 152.64 -196.022975 
L 159.507692 -197.052773 
L 166.375385 -198.226109 
L 173.243077 -199.013336 
L 180.110769 -199.771275 
L 186.978462 -200.533014 
L 193.846154 -201.304915 
L 200.713846 -209.157181 
L 207.581538 -211.665414 
L 214.449231 -212.482529 
L 221.316923 -213.970191 
L 228.184615 -194.525503 
L 235.052308 -196.668468 
L 241.92 -198.988811 
L 248.787692 -209.858878 
L 255.655385 -207.25246 
L 262.523077 -209.900644 
L 269.390769 -214.45775 
L 276.258462 -221.207351 
L 283.126154 -216.848409 
L 331.2 -251.957693 
L 334.633846 -252.863045 
L 341.501538 -255.179104 
L 348.369231 -246.710516 
L 355.236923 -254.630419 
L 362.104615 -258.072552 
L 368.972308 -252.566199 
L 375.84 -253.439732 
L 382.707692 -264.047761 
L 389.575385 -270.471625 
L 396.443077 -275.145406 
L 403.310769 -279.939309 
L 410.178462 -280.517187 
L 417.046154 -279.464948 
L 423.913846 -286.853064 
L 430.781538 -287.069032 
L 437.649231 -291.053378 
L 444.516923 -296.175793 
L 451.384615 -297.776177 
L 458.252308 -295.531672 
L 465.12 -310.319812 
L 471.987692 -305.375239 
L 478.855385 -311.154181 
L 485.723077 -316.119747 
L 492.590769 -315.140918 
L 499.458462 -314.524871 
L 506.326154 -314.48437 
L 513.193846 -316.499744 
L 520.061538 -322.77328 
L 526.929231 -324.065391 
L 533.796923 -318.005163 
L 540.664615 -323.030174 
L 547.532308 -324.9619 
L 554.4 -326.417777 
L 557.833846 -327.564847 
L 564.701538 -341.361902 
L 571.569231 -340.835452 
L 578.436923 -345.538236 
L 585.304615 -355.723865 
L 592.172308 -361.143701 
L 599.04 -359.361039 
L 605.907692 -364.287318 
L 612.775385 -347.83742 
L 619.643077 -349.871011 
L 626.510769 -352.136551 
L 633.378462 -353.115404 
L 640.246154 -361.317825 
L 647.113846 -360.228369 
L 653.981538 -362.63972 
L 660.849231 -360.802638 
L 667.716923 -361.012793 
L 674.584615 -372.00889 
L 681.452308 -379.198402 
L 688.32 -387.335631 
L 695.187692 -382.38993 
L 702.055385 -384.617099 
L 708.923077 -389.178892 
L 715.790769 -396.35569 
L 722.658462 -400.004447 
L 729.526154 -405.380716 
L 736.393846 -397.071625 
L 743.261538 -405.515427 
L 750.129231 -410.094419 
L 756.996923 -415.762308 
L 763.864615 -421.148964 
L 770.732308 -422.595507 
L 777.6 -423.96945 
L 777.6 -425.88 
L 777.6 -425.88 
L 770.732308 -423.937109 
L 763.864615 -423.667449 
L 756.996923 -417.28307 
L 750.129231 -413.096197 
L 743.261538 -408.959975 
L 736.393846 -398.73166 
L 729.526154 -406.536643 
L 722.658462 -401.42345 
L 715.790769 -398.512286 
L 708.923077 -390.155473 
L 702.055385 -386.956181 
L 695.187692 -383.540959 
L 688.32 -393.056743 
L 681.452308 -379.497772 
L 674.584615 -377.066849 
L 667.716923 -362.974508 
L 660.849231 -361.482279 
L 653.981538 -363.61027 
L 647.113846 -365.559403 
L 640.246154 -362.82966 
L 633.378462 -354.393904 
L 626.510769 -353.101393 
L 619.643077 -350.502311 
L 612.775385 -349.034313 
L 605.907692 -366.893548 
L 599.04 -362.563656 
L 592.172308 -364.140654 
L 585.304615 -358.022137 
L 578.436923 -346.323363 
L 571.569231 -342.068078 
L 564.701538 -342.27867 
L 557.833846 -327.98652 
L 554.4 -327.333755 
L 547.532308 -334.450678 
L 540.664615 -325.530784 
L 533.796923 -318.338384 
L 526.929231 -324.307011 
L 520.061538 -323.294714 
L 513.193846 -317.15532 
L 506.326154 -318.171545 
L 499.458462 -314.629022 
L 492.590769 -315.72597 
L 485.723077 -316.804145 
L 478.855385 -312.157112 
L 471.987692 -306.844552 
L 465.12 -311.010431 
L 458.252308 -296.91995 
L 451.384615 -298.467473 
L 444.516923 -301.150664 
L 437.649231 -291.579596 
L 430.781538 -288.11596 
L 423.913846 -287.44024 
L 417.046154 -280.051238 
L 410.178462 -300.698828 
L 403.310769 -282.380926 
L 396.443077 -275.708249 
L 389.575385 -270.955487 
L 382.707692 -264.273909 
L 375.84 -253.805984 
L 368.972308 -252.853273 
L 362.104615 -258.876155 
L 355.236923 -255.224543 
L 348.369231 -247.521048 
L 341.501538 -255.67861 
L 334.633846 -253.919778 
L 331.2 -257.325846 
L 283.126154 -217.62067 
L 276.258462 -221.542004 
L 269.390769 -215.1052 
L 262.523077 -210.317081 
L 255.655385 -207.684596 
L 248.787692 -210.600833 
L 241.92 -199.358905 
L 235.052308 -196.874862 
L 228.184615 -195.314652 
L 221.316923 -214.227812 
L 214.449231 -212.635713 
L 207.581538 -212.073957 
L 200.713846 -210.529361 
L 193.846154 -201.93513 
L 186.978462 -201.533711 
L 180.110769 -200.705748 
L 173.243077 -199.625387 
L 166.375385 -199.539387 
L 159.507692 -198.1367 
L 152.64 -196.738766 
L 145.772308 -196.496029 
L 138.904615 -195.746549 
L 132.036923 -202.598806 
L 125.169231 -194.842106 
L 118.301538 -193.143451 
L 111.433846 -191.580588 
L 108 -191.151145 
z
" id="m53a3e6150d" style="stroke:#91db57;stroke-opacity:0.2;"/>
    </defs>
    <g clip-path="url(#pfedaf5240a)">
     <use style="fill:#91db57;fill-opacity:0.2;stroke:#91db57;stroke-opacity:0.2;" x="0" xlink:href="#m53a3e6150d" y="504"/>
    </g>
   </g>
   <g id="PolyCollection_3">
    <defs>
     <path d="M 108 -73.457386 
L 108 -73.08 
L 111.433846 -73.473871 
L 118.301538 -74.825269 
L 125.169231 -77.425424 
L 132.036923 -77.40961 
L 138.904615 -78.305573 
L 145.772308 -80.331473 
L 152.64 -80.268695 
L 159.507692 -80.341483 
L 166.375385 -81.267817 
L 173.243077 -81.171697 
L 180.110769 -82.138213 
L 186.978462 -82.762706 
L 193.846154 -83.239365 
L 200.713846 -84.892157 
L 207.581538 -85.934428 
L 214.449231 -86.224517 
L 221.316923 -86.503854 
L 228.184615 -86.672834 
L 235.052308 -87.196075 
L 241.92 -87.295709 
L 248.787692 -87.648979 
L 255.655385 -87.984304 
L 262.523077 -88.528576 
L 269.390769 -88.78604 
L 276.258462 -89.158305 
L 283.126154 -89.213815 
L 289.993846 -88.963042 
L 296.861538 -88.997093 
L 303.729231 -89.523261 
L 310.596923 -88.951291 
L 317.464615 -88.780374 
L 324.332308 -89.431923 
L 331.2 -89.096129 
L 334.633846 -89.341929 
L 341.501538 -89.658863 
L 348.369231 -89.952837 
L 355.236923 -89.679505 
L 362.104615 -90.647687 
L 368.972308 -91.236435 
L 375.84 -91.057797 
L 382.707692 -91.889176 
L 389.575385 -92.018501 
L 396.443077 -91.677511 
L 403.310769 -92.869895 
L 410.178462 -93.410603 
L 417.046154 -93.128816 
L 423.913846 -93.370946 
L 430.781538 -93.304353 
L 437.649231 -93.580265 
L 444.516923 -93.901648 
L 451.384615 -93.679454 
L 458.252308 -94.501262 
L 465.12 -95.295232 
L 471.987692 -95.654475 
L 478.855385 -95.802501 
L 485.723077 -95.853927 
L 492.590769 -96.664265 
L 499.458462 -96.659575 
L 506.326154 -96.858804 
L 513.193846 -97.441182 
L 520.061538 -98.189208 
L 526.929231 -98.331142 
L 533.796923 -97.416021 
L 540.664615 -97.369139 
L 547.532308 -97.885448 
L 554.4 -98.806026 
L 557.833846 -98.009243 
L 564.701538 -98.41844 
L 571.569231 -98.706903 
L 578.436923 -98.914804 
L 585.304615 -98.700142 
L 592.172308 -99.255013 
L 599.04 -99.344964 
L 605.907692 -100.226912 
L 612.775385 -99.222726 
L 619.643077 -99.707077 
L 626.510769 -99.691876 
L 633.378462 -100.052014 
L 640.246154 -101.025078 
L 647.113846 -100.60068 
L 653.981538 -100.591999 
L 660.849231 -100.895005 
L 667.716923 -100.916043 
L 674.584615 -101.766335 
L 681.452308 -101.789799 
L 688.32 -101.791555 
L 695.187692 -102.350274 
L 702.055385 -103.023913 
L 708.923077 -103.092881 
L 715.790769 -103.095945 
L 722.658462 -103.513359 
L 729.526154 -103.84268 
L 736.393846 -104.257487 
L 743.261538 -104.147683 
L 750.129231 -106.434955 
L 756.996923 -105.42234 
L 763.864615 -105.84809 
L 770.732308 -106.390182 
L 777.6 -106.713774 
L 777.6 -107.366851 
L 777.6 -107.366851 
L 770.732308 -106.773968 
L 763.864615 -106.469909 
L 756.996923 -106.135281 
L 750.129231 -106.904473 
L 743.261538 -104.870063 
L 736.393846 -104.87524 
L 729.526154 -104.371301 
L 722.658462 -104.328821 
L 715.790769 -103.773457 
L 708.923077 -103.666008 
L 702.055385 -103.826968 
L 695.187692 -103.130442 
L 688.32 -102.818847 
L 681.452308 -102.857575 
L 674.584615 -102.310922 
L 667.716923 -101.525919 
L 660.849231 -101.709119 
L 653.981538 -101.482006 
L 647.113846 -101.153324 
L 640.246154 -101.715009 
L 633.378462 -100.637037 
L 626.510769 -100.408801 
L 619.643077 -100.247378 
L 612.775385 -99.968486 
L 605.907692 -100.884641 
L 599.04 -100.634194 
L 592.172308 -100.863739 
L 585.304615 -99.96353 
L 578.436923 -99.831462 
L 571.569231 -99.745194 
L 564.701538 -99.65168 
L 557.833846 -99.226048 
L 554.4 -99.833592 
L 547.532308 -98.866773 
L 540.664615 -98.743524 
L 533.796923 -99.168667 
L 526.929231 -99.2339 
L 520.061538 -98.515503 
L 513.193846 -98.075897 
L 506.326154 -97.238514 
L 499.458462 -97.070596 
L 492.590769 -97.098332 
L 485.723077 -96.753219 
L 478.855385 -96.529405 
L 471.987692 -96.037808 
L 465.12 -96.160056 
L 458.252308 -95.488823 
L 451.384615 -94.378579 
L 444.516923 -94.680132 
L 437.649231 -94.24104 
L 430.781538 -94.040211 
L 423.913846 -93.631801 
L 417.046154 -93.96598 
L 410.178462 -94.015005 
L 403.310769 -93.309157 
L 396.443077 -92.181526 
L 389.575385 -92.700271 
L 382.707692 -92.646342 
L 375.84 -91.98456 
L 368.972308 -91.705529 
L 362.104615 -91.698424 
L 355.236923 -91.151654 
L 348.369231 -91.058236 
L 341.501538 -90.870959 
L 334.633846 -90.47118 
L 331.2 -90.026864 
L 324.332308 -90.417629 
L 317.464615 -89.899999 
L 310.596923 -89.892709 
L 303.729231 -90.09767 
L 296.861538 -89.668841 
L 289.993846 -90.03843 
L 283.126154 -90.416191 
L 276.258462 -89.853702 
L 269.390769 -89.341361 
L 262.523077 -89.044694 
L 255.655385 -88.460001 
L 248.787692 -88.331304 
L 241.92 -88.084184 
L 235.052308 -87.904397 
L 228.184615 -87.618731 
L 221.316923 -86.986182 
L 214.449231 -86.807057 
L 207.581538 -86.313883 
L 200.713846 -85.4387 
L 193.846154 -84.225807 
L 186.978462 -83.307741 
L 180.110769 -82.773867 
L 173.243077 -81.926897 
L 166.375385 -82.25795 
L 159.507692 -81.539093 
L 152.64 -81.013132 
L 145.772308 -81.106623 
L 138.904615 -79.316035 
L 132.036923 -77.729582 
L 125.169231 -78.985453 
L 118.301538 -75.1835 
L 111.433846 -73.67546 
L 108 -73.457386 
z
" id="m85b2839250" style="stroke:#57d3db;stroke-opacity:0.2;"/>
    </defs>
    <g clip-path="url(#pfedaf5240a)">
     <use style="fill:#57d3db;fill-opacity:0.2;stroke:#57d3db;stroke-opacity:0.2;" x="0" xlink:href="#m85b2839250" y="504"/>
    </g>
   </g>
   <g id="PolyCollection_4">
    <defs>
     <path d="M 108 -84.827042 
L 108 -84.551134 
L 111.433846 -84.726657 
L 118.301538 -85.062137 
L 125.169231 -85.128205 
L 132.036923 -85.833919 
L 138.904615 -86.108264 
L 145.772308 -86.421617 
L 152.64 -86.680713 
L 159.507692 -87.043309 
L 166.375385 -87.370445 
L 173.243077 -86.871602 
L 180.110769 -88.027624 
L 186.978462 -88.450573 
L 193.846154 -88.933506 
L 200.713846 -92.540835 
L 207.581538 -94.307468 
L 214.449231 -95.90494 
L 221.316923 -96.941525 
L 228.184615 -97.718749 
L 235.052308 -98.870004 
L 241.92 -99.657961 
L 248.787692 -100.727182 
L 255.655385 -101.722202 
L 262.523077 -102.8721 
L 269.390769 -103.702494 
L 276.258462 -104.216119 
L 283.126154 -105.067508 
L 289.993846 -112.069222 
L 296.861538 -112.709901 
L 303.729231 -113.724361 
L 310.596923 -113.91489 
L 317.464615 -114.353333 
L 324.332308 -115.50981 
L 331.2 -116.021732 
L 334.633846 -116.990639 
L 341.501538 -117.994686 
L 348.369231 -118.807832 
L 355.236923 -119.170052 
L 362.104615 -120.661943 
L 368.972308 -121.701121 
L 375.84 -122.072697 
L 382.707692 -129.22706 
L 389.575385 -130.119592 
L 396.443077 -130.386104 
L 403.310769 -132.226081 
L 410.178462 -133.764476 
L 417.046154 -134.322965 
L 423.913846 -135.297392 
L 430.781538 -136.257709 
L 437.649231 -137.213656 
L 444.516923 -138.343344 
L 451.384615 -138.607226 
L 458.252308 -140.366659 
L 465.12 -141.717465 
L 471.987692 -142.919179 
L 478.855385 -143.997912 
L 485.723077 -145.206638 
L 492.590769 -146.374512 
L 499.458462 -147.411566 
L 506.326154 -148.306488 
L 513.193846 -150.049911 
L 520.061538 -151.535983 
L 526.929231 -152.442436 
L 533.796923 -153.658214 
L 540.664615 -154.679013 
L 547.532308 -156.134872 
L 554.4 -158.226022 
L 557.833846 -156.174347 
L 564.701538 -157.978068 
L 571.569231 -159.127531 
L 578.436923 -160.441872 
L 585.304615 -167.254533 
L 592.172308 -169.605558 
L 599.04 -170.372163 
L 605.907692 -172.625184 
L 612.775385 -163.631954 
L 619.643077 -165.648888 
L 626.510769 -166.651843 
L 633.378462 -168.263671 
L 640.246154 -169.960664 
L 647.113846 -170.814069 
L 653.981538 -172.281907 
L 660.849231 -173.993761 
L 667.716923 -175.133324 
L 674.584615 -177.788333 
L 681.452308 -179.068602 
L 688.32 -180.600607 
L 695.187692 -181.933384 
L 702.055385 -184.824402 
L 708.923077 -186.268447 
L 715.790769 -188.315245 
L 722.658462 -189.51492 
L 729.526154 -191.94253 
L 736.393846 -193.633902 
L 743.261538 -194.804176 
L 750.129231 -198.187916 
L 756.996923 -198.867978 
L 763.864615 -200.318504 
L 770.732308 -202.417115 
L 777.6 -203.738368 
L 777.6 -204.407333 
L 777.6 -204.407333 
L 770.732308 -203.142885 
L 763.864615 -201.069358 
L 756.996923 -199.860956 
L 750.129231 -198.666206 
L 743.261538 -195.547129 
L 736.393846 -194.28582 
L 729.526154 -192.534822 
L 722.658462 -190.584962 
L 715.790769 -189.113689 
L 708.923077 -186.941901 
L 702.055385 -185.613302 
L 695.187692 -182.842099 
L 688.32 -181.720873 
L 681.452308 -180.200782 
L 674.584615 -178.446265 
L 667.716923 -175.589583 
L 660.849231 -174.759546 
L 653.981538 -173.136698 
L 647.113846 -171.563979 
L 640.246154 -170.723423 
L 633.378462 -168.793626 
L 626.510769 -167.359146 
L 619.643077 -166.801081 
L 612.775385 -164.538321 
L 605.907692 -173.517086 
L 599.04 -171.577167 
L 592.172308 -171.164872 
L 585.304615 -168.543005 
L 578.436923 -161.460291 
L 571.569231 -159.989914 
L 564.701538 -160.351329 
L 557.833846 -157.373275 
L 554.4 -159.313588 
L 547.532308 -157.15727 
L 540.664615 -156.005128 
L 533.796923 -154.51331 
L 526.929231 -152.927356 
L 520.061538 -151.951037 
L 513.193846 -150.758085 
L 506.326154 -148.762253 
L 499.458462 -147.7678 
L 492.590769 -146.953757 
L 485.723077 -146.154208 
L 478.855385 -144.874195 
L 471.987692 -143.519 
L 465.12 -142.338751 
L 458.252308 -141.398449 
L 451.384615 -139.418489 
L 444.516923 -139.255767 
L 437.649231 -137.998658 
L 430.781538 -137.196875 
L 423.913846 -135.891139 
L 417.046154 -135.152543 
L 410.178462 -134.346085 
L 403.310769 -132.803383 
L 396.443077 -131.115632 
L 389.575385 -130.849097 
L 382.707692 -130.108547 
L 375.84 -122.893312 
L 368.972308 -122.303968 
L 362.104615 -121.612535 
L 355.236923 -120.575254 
L 348.369231 -119.894334 
L 341.501538 -119.128586 
L 334.633846 -118.208184 
L 331.2 -116.902302 
L 324.332308 -116.340419 
L 317.464615 -115.462249 
L 310.596923 -114.79417 
L 303.729231 -114.318284 
L 296.861538 -113.340495 
L 289.993846 -113.141988 
L 283.126154 -106.359501 
L 276.258462 -105.195268 
L 269.390769 -104.243719 
L 262.523077 -103.454773 
L 255.655385 -102.343359 
L 248.787692 -101.335449 
L 241.92 -100.435105 
L 235.052308 -99.390037 
L 228.184615 -98.324002 
L 221.316923 -97.429798 
L 214.449231 -96.35484 
L 207.581538 -94.917565 
L 200.713846 -92.991859 
L 193.846154 -89.663896 
L 186.978462 -89.204035 
L 180.110769 -88.177842 
L 173.243077 -87.624886 
L 166.375385 -87.540686 
L 159.507692 -87.15833 
L 152.64 -86.800355 
L 145.772308 -86.528146 
L 138.904615 -86.253623 
L 132.036923 -86.435659 
L 125.169231 -85.374085 
L 118.301538 -85.386341 
L 111.433846 -85.053141 
L 108 -84.827042 
z
" id="m7f4f65e9dd" style="stroke:#a157db;stroke-opacity:0.2;"/>
    </defs>
    <g clip-path="url(#pfedaf5240a)">
     <use style="fill:#a157db;fill-opacity:0.2;stroke:#a157db;stroke-opacity:0.2;" x="0" xlink:href="#m7f4f65e9dd" y="504"/>
    </g>
   </g>
   <g id="line2d_14">
    <path clip-path="url(#pfedaf5240a)" d="M 108 410.195902 
L 111.433846 401.8129 
L 118.301538 390.037969 
L 125.169231 376.602289 
L 132.036923 374.546523 
L 138.904615 370.58959 
L 145.772308 364.286057 
L 152.64 360.599837 
L 159.507692 363.691722 
L 166.375385 337.692981 
L 173.243077 347.168051 
L 180.110769 340.049142 
L 186.978462 336.099975 
L 193.846154 331.575636 
L 200.713846 340.280821 
L 207.581538 339.363982 
L 214.449231 335.679615 
L 221.316923 331.04399 
L 228.184615 317.521622 
L 235.052308 320.954159 
L 241.92 324.965293 
L 248.787692 319.007728 
L 255.655385 321.959989 
L 262.523077 312.343716 
L 269.390769 315.256623 
L 276.258462 309.555553 
L 283.126154 316.466732 
L 289.993846 314.784908 
L 296.861538 307.606857 
L 303.729231 310.317148 
L 310.596923 309.727835 
L 317.464615 309.536568 
L 324.332308 305.277056 
L 331.2 305.610958 
L 334.633846 304.081265 
L 341.501538 303.141469 
L 348.369231 313.393948 
L 355.236923 306.707027 
L 362.104615 305.914589 
L 368.972308 310.342134 
L 375.84 310.561883 
L 382.707692 311.560623 
L 389.575385 306.631478 
L 396.443077 302.581439 
L 403.310769 300.288134 
L 410.178462 302.086789 
L 417.046154 305.014983 
L 423.913846 297.968855 
L 430.781538 300.916145 
L 437.649231 296.59273 
L 444.516923 294.40332 
L 451.384615 294.023754 
L 458.252308 295.43652 
L 465.12 285.007077 
L 471.987692 290.751041 
L 478.855385 285.813876 
L 485.723077 283.369615 
L 492.590769 285.407838 
L 499.458462 287.506859 
L 506.326154 288.540606 
L 513.193846 288.798539 
L 520.061538 284.437436 
L 526.929231 286.360118 
L 533.796923 295.503826 
L 540.664615 292.058654 
L 547.532308 291.400604 
L 554.4 293.438059 
L 557.833846 289.849181 
L 564.701538 277.883882 
L 571.569231 279.942212 
L 578.436923 278.03347 
L 585.304615 281.73915 
L 592.172308 279.568615 
L 599.04 282.277164 
L 605.907692 279.658904 
L 612.775385 280.983531 
L 619.643077 282.087839 
L 626.510769 281.139007 
L 633.378462 282.341755 
L 640.246154 276.796141 
L 647.113846 281.429557 
L 653.981538 280.321466 
L 660.849231 285.467533 
L 667.716923 287.211661 
L 674.584615 281.111817 
L 681.452308 276.325909 
L 688.32 270.442596 
L 695.187692 278.673795 
L 702.055385 279.84836 
L 708.923077 279.196976 
L 715.790769 274.707261 
L 722.658462 273.324276 
L 729.526154 272.393604 
L 736.393846 282.80184 
L 743.261538 277.172288 
L 750.129231 274.86337 
L 756.996923 271.837732 
L 763.864615 267.989679 
L 770.732308 271.33462 
L 777.6 270.822654 
" style="fill:none;stroke:#db5f57;stroke-linecap:round;stroke-width:1.5;"/>
   </g>
   <g id="line2d_15">
    <path clip-path="url(#pfedaf5240a)" d="M 108 313.160339 
L 111.433846 312.515907 
L 118.301538 311.372242 
L 125.169231 309.95952 
L 132.036923 306.147115 
L 138.904615 308.684927 
L 145.772308 307.875711 
L 152.64 307.628674 
L 159.507692 306.405264 
L 166.375385 305.181474 
L 173.243077 304.680638 
L 180.110769 303.761488 
L 186.978462 302.966694 
L 193.846154 302.373574 
L 200.713846 294.139324 
L 207.581538 292.130314 
L 214.449231 291.440986 
L 221.316923 289.900998 
L 228.184615 309.041636 
L 235.052308 307.228335 
L 241.92 304.826142 
L 248.787692 293.770145 
L 255.655385 296.52444 
L 262.523077 293.891137 
L 269.390769 289.239625 
L 276.258462 282.600271 
L 283.126154 286.760363 
L 331.2 250.165437 
L 334.633846 250.608588 
L 341.501538 248.624297 
L 348.369231 256.884218 
L 355.236923 249.065277 
L 362.104615 245.566835 
L 368.972308 251.286233 
L 375.84 250.377142 
L 382.707692 239.822 
L 389.575385 233.295986 
L 396.443077 228.537904 
L 403.310769 223.163012 
L 410.178462 215.115223 
L 417.046154 224.286503 
L 423.913846 216.853348 
L 430.781538 216.458549 
L 437.649231 212.743388 
L 444.516923 205.782424 
L 451.384615 205.870281 
L 458.252308 207.774189 
L 465.12 193.380366 
L 471.987692 197.87393 
L 478.855385 192.344353 
L 485.723077 187.602979 
L 492.590769 188.590994 
L 499.458462 189.425227 
L 506.326154 188.206069 
L 513.193846 187.198182 
L 520.061538 180.939157 
L 526.929231 179.80996 
L 533.796923 185.856566 
L 540.664615 180.118706 
L 547.532308 175.549734 
L 554.4 177.057126 
L 557.833846 176.226225 
L 564.701538 162.22755 
L 571.569231 162.401006 
L 578.436923 158.180714 
L 585.304615 147.230921 
L 592.172308 141.548317 
L 599.04 143.037652 
L 605.907692 138.53562 
L 612.775385 155.429351 
L 619.643077 153.876425 
L 626.510769 151.420543 
L 633.378462 150.303703 
L 640.246154 141.956257 
L 647.113846 141.77056 
L 653.981538 140.820449 
L 660.849231 142.91347 
L 667.716923 142.00635 
L 674.584615 130.08261 
L 681.452308 124.616135 
L 688.32 114.561275 
L 695.187692 121.036731 
L 702.055385 117.907005 
L 708.923077 114.322598 
L 715.790769 106.704851 
L 722.658462 103.316989 
L 729.526154 98.033621 
L 736.393846 106.189387 
L 743.261538 97.174762 
L 750.129231 92.404692 
L 756.996923 87.477311 
L 763.864615 81.591793 
L 770.732308 80.933648 
L 777.6 79.05299 
" style="fill:none;stroke:#91db57;stroke-linecap:round;stroke-width:1.5;"/>
   </g>
   <g id="line2d_16">
    <path clip-path="url(#pfedaf5240a)" d="M 108 430.741533 
L 111.433846 430.418211 
L 118.301538 428.996433 
L 125.169231 425.840364 
L 132.036923 426.413576 
L 138.904615 425.180926 
L 145.772308 423.262197 
L 152.64 423.362572 
L 159.507692 423.093112 
L 166.375385 422.241165 
L 173.243077 422.466765 
L 180.110769 421.537643 
L 186.978462 420.933678 
L 193.846154 420.273968 
L 200.713846 418.817926 
L 207.581538 417.869753 
L 214.449231 417.488138 
L 221.316923 417.240981 
L 228.184615 416.877471 
L 235.052308 416.457428 
L 241.92 416.33372 
L 248.787692 416.04907 
L 255.655385 415.780107 
L 262.523077 415.205879 
L 269.390769 414.932292 
L 276.258462 414.490922 
L 283.126154 414.206583 
L 289.993846 414.513449 
L 296.861538 414.649549 
L 303.729231 414.182293 
L 310.596923 414.570021 
L 317.464615 414.633091 
L 324.332308 414.095879 
L 331.2 414.416888 
L 334.633846 414.086631 
L 341.501538 413.716924 
L 348.369231 413.458412 
L 355.236923 413.587751 
L 362.104615 412.836818 
L 368.972308 412.537689 
L 375.84 412.469298 
L 382.707692 411.765209 
L 389.575385 411.631588 
L 396.443077 412.083891 
L 403.310769 410.899616 
L 410.178462 410.307189 
L 417.046154 410.464566 
L 423.913846 410.50253 
L 430.781538 410.330052 
L 437.649231 410.122702 
L 444.516923 409.692037 
L 451.384615 409.976318 
L 458.252308 409.006896 
L 465.12 408.322852 
L 471.987692 408.157831 
L 478.855385 407.850945 
L 485.723077 407.693065 
L 492.590769 407.121794 
L 499.458462 407.117268 
L 506.326154 406.948326 
L 513.193846 406.226947 
L 520.061538 405.644723 
L 526.929231 405.285195 
L 533.796923 405.836905 
L 540.664615 405.989769 
L 547.532308 405.656802 
L 554.4 404.670517 
L 557.833846 405.371816 
L 564.701538 404.992519 
L 571.569231 404.770727 
L 578.436923 404.63071 
L 585.304615 404.71265 
L 592.172308 404.069186 
L 599.04 404.068293 
L 605.907692 403.449199 
L 612.775385 404.394585 
L 619.643077 404.019221 
L 626.510769 403.932876 
L 633.378462 403.658373 
L 640.246154 402.643673 
L 647.113846 403.139383 
L 653.981538 402.931628 
L 660.849231 402.667989 
L 667.716923 402.775829 
L 674.584615 401.958335 
L 681.452308 401.680199 
L 688.32 401.68093 
L 695.187692 401.258517 
L 702.055385 400.578314 
L 708.923077 400.613978 
L 715.790769 400.540948 
L 722.658462 400.075513 
L 729.526154 399.895559 
L 736.393846 399.43263 
L 743.261538 399.510116 
L 750.129231 397.332954 
L 756.996923 398.212539 
L 763.864615 397.837904 
L 770.732308 397.418913 
L 777.6 396.944971 
" style="fill:none;stroke:#57d3db;stroke-linecap:round;stroke-width:1.5;"/>
   </g>
   <g id="line2d_17">
    <path clip-path="url(#pfedaf5240a)" d="M 108 419.312106 
L 111.433846 419.113881 
L 118.301538 418.785595 
L 125.169231 418.748253 
L 132.036923 417.934454 
L 138.904615 417.81679 
L 145.772308 417.523953 
L 152.64 417.261075 
L 159.507692 416.898629 
L 166.375385 416.549384 
L 173.243077 416.721662 
L 180.110769 415.896353 
L 186.978462 415.277393 
L 193.846154 414.737664 
L 200.713846 411.243109 
L 207.581538 409.396277 
L 214.449231 407.865006 
L 221.316923 406.824604 
L 228.184615 405.989073 
L 235.052308 404.894502 
L 241.92 403.967202 
L 248.787692 402.980937 
L 255.655385 402.008456 
L 262.523077 400.835239 
L 269.390769 400.00877 
L 276.258462 399.268891 
L 283.126154 398.302913 
L 289.993846 391.400046 
L 296.861538 390.960683 
L 303.729231 389.972468 
L 310.596923 389.606834 
L 317.464615 389.087973 
L 324.332308 388.067848 
L 331.2 387.537347 
L 334.633846 386.392487 
L 341.501538 385.423577 
L 348.369231 384.626964 
L 355.236923 384.12026 
L 362.104615 382.875642 
L 368.972308 381.978102 
L 375.84 381.510169 
L 382.707692 374.366806 
L 389.575385 373.495623 
L 396.443077 373.264834 
L 403.310769 371.488348 
L 410.178462 369.961278 
L 417.046154 369.265531 
L 423.913846 368.403861 
L 430.781538 367.280486 
L 437.649231 366.393277 
L 444.516923 365.193809 
L 451.384615 364.983077 
L 458.252308 363.123405 
L 465.12 361.981763 
L 471.987692 360.778445 
L 478.855385 359.572526 
L 485.723077 358.309283 
L 492.590769 357.342632 
L 499.458462 356.406626 
L 506.326154 355.471742 
L 513.193846 353.606238 
L 520.061538 352.255744 
L 526.929231 351.302512 
L 533.796923 349.944029 
L 540.664615 348.703927 
L 547.532308 347.363776 
L 554.4 345.230052 
L 557.833846 347.232785 
L 564.701538 345.033176 
L 571.569231 344.441722 
L 578.436923 343.065813 
L 585.304615 336.099934 
L 592.172308 333.688298 
L 599.04 333.057269 
L 605.907692 330.964503 
L 612.775385 339.910993 
L 619.643077 337.847798 
L 626.510769 336.995816 
L 633.378462 335.471683 
L 640.246154 333.674181 
L 647.113846 332.805968 
L 653.981538 331.302134 
L 660.849231 329.606765 
L 667.716923 328.633078 
L 674.584615 325.906729 
L 681.452308 324.366789 
L 688.32 322.815249 
L 695.187692 321.617861 
L 702.055385 318.770842 
L 708.923077 317.386038 
L 715.790769 315.267273 
L 722.658462 313.928772 
L 729.526154 311.774456 
L 736.393846 310.037642 
L 743.261538 308.797965 
L 750.129231 305.572027 
L 756.996923 304.665718 
L 763.864615 303.296914 
L 770.732308 301.225439 
L 777.6 299.904794 
" style="fill:none;stroke:#a157db;stroke-linecap:round;stroke-width:1.5;"/>
   </g>
   <g id="line2d_18"/>
   <g id="line2d_19"/>
   <g id="line2d_20"/>
   <g id="line2d_21"/>
   <g id="patch_3">
    <path d="M 108 448.56 
L 108 60.48 
" style="fill:none;stroke:#ffffff;stroke-linecap:square;stroke-linejoin:miter;stroke-width:0.8;"/>
   </g>
   <g id="patch_4">
    <path d="M 777.6 448.56 
L 777.6 60.48 
" style="fill:none;stroke:#ffffff;stroke-linecap:square;stroke-linejoin:miter;stroke-width:0.8;"/>
   </g>
   <g id="patch_5">
    <path d="M 108 448.56 
L 777.6 448.56 
" style="fill:none;stroke:#ffffff;stroke-linecap:square;stroke-linejoin:miter;stroke-width:0.8;"/>
   </g>
   <g id="patch_6">
    <path d="M 108 60.48 
L 777.6 60.48 
" style="fill:none;stroke:#ffffff;stroke-linecap:square;stroke-linejoin:miter;stroke-width:0.8;"/>
   </g>
   <g id="text_16">
    <!-- Time performances comparison -->
    <g style="fill:#262626;" transform="translate(316.02625 54.48)scale(0.16 -0.16)">
     <defs>
      <path d="M -0.296875 72.90625 
L 61.375 72.90625 
L 61.375 64.59375 
L 35.5 64.59375 
L 35.5 0 
L 25.59375 0 
L 25.59375 64.59375 
L -0.296875 64.59375 
z
" id="DejaVuSans-84"/>
      <path d="M 18.109375 8.203125 
L 18.109375 -20.796875 
L 9.078125 -20.796875 
L 9.078125 54.6875 
L 18.109375 54.6875 
L 18.109375 46.390625 
Q 20.953125 51.265625 25.265625 53.625 
Q 29.59375 56 35.59375 56 
Q 45.5625 56 51.78125 48.09375 
Q 58.015625 40.1875 58.015625 27.296875 
Q 58.015625 14.40625 51.78125 6.484375 
Q 45.5625 -1.421875 35.59375 -1.421875 
Q 29.59375 -1.421875 25.265625 0.953125 
Q 20.953125 3.328125 18.109375 8.203125 
z
M 48.6875 27.296875 
Q 48.6875 37.203125 44.609375 42.84375 
Q 40.53125 48.484375 33.40625 48.484375 
Q 26.265625 48.484375 22.1875 42.84375 
Q 18.109375 37.203125 18.109375 27.296875 
Q 18.109375 17.390625 22.1875 11.75 
Q 26.265625 6.109375 33.40625 6.109375 
Q 40.53125 6.109375 44.609375 11.75 
Q 48.6875 17.390625 48.6875 27.296875 
z
" id="DejaVuSans-112"/>
      <path d="M 37.109375 75.984375 
L 37.109375 68.5 
L 28.515625 68.5 
Q 23.6875 68.5 21.796875 66.546875 
Q 19.921875 64.59375 19.921875 59.515625 
L 19.921875 54.6875 
L 34.71875 54.6875 
L 34.71875 47.703125 
L 19.921875 47.703125 
L 19.921875 0 
L 10.890625 0 
L 10.890625 47.703125 
L 2.296875 47.703125 
L 2.296875 54.6875 
L 10.890625 54.6875 
L 10.890625 58.5 
Q 10.890625 67.625 15.140625 71.796875 
Q 19.390625 75.984375 28.609375 75.984375 
z
" id="DejaVuSans-102"/>
      <path d="M 54.890625 33.015625 
L 54.890625 0 
L 45.90625 0 
L 45.90625 32.71875 
Q 45.90625 40.484375 42.875 44.328125 
Q 39.84375 48.1875 33.796875 48.1875 
Q 26.515625 48.1875 22.3125 43.546875 
Q 18.109375 38.921875 18.109375 30.90625 
L 18.109375 0 
L 9.078125 0 
L 9.078125 54.6875 
L 18.109375 54.6875 
L 18.109375 46.1875 
Q 21.34375 51.125 25.703125 53.5625 
Q 30.078125 56 35.796875 56 
Q 45.21875 56 50.046875 50.171875 
Q 54.890625 44.34375 54.890625 33.015625 
z
" id="DejaVuSans-110"/>
     </defs>
     <use xlink:href="#DejaVuSans-84"/>
     <use x="57.958984" xlink:href="#DejaVuSans-105"/>
     <use x="85.742188" xlink:href="#DejaVuSans-109"/>
     <use x="183.154297" xlink:href="#DejaVuSans-101"/>
     <use x="244.677734" xlink:href="#DejaVuSans-32"/>
     <use x="276.464844" xlink:href="#DejaVuSans-112"/>
     <use x="339.941406" xlink:href="#DejaVuSans-101"/>
     <use x="401.464844" xlink:href="#DejaVuSans-114"/>
     <use x="442.578125" xlink:href="#DejaVuSans-102"/>
     <use x="477.783203" xlink:href="#DejaVuSans-111"/>
     <use x="538.964844" xlink:href="#DejaVuSans-114"/>
     <use x="578.328125" xlink:href="#DejaVuSans-109"/>
     <use x="675.740234" xlink:href="#DejaVuSans-97"/>
     <use x="737.019531" xlink:href="#DejaVuSans-110"/>
     <use x="800.398438" xlink:href="#DejaVuSans-99"/>
     <use x="855.378906" xlink:href="#DejaVuSans-101"/>
     <use x="916.902344" xlink:href="#DejaVuSans-115"/>
     <use x="969.001953" xlink:href="#DejaVuSans-32"/>
     <use x="1000.789062" xlink:href="#DejaVuSans-99"/>
     <use x="1055.769531" xlink:href="#DejaVuSans-111"/>
     <use x="1116.951172" xlink:href="#DejaVuSans-109"/>
     <use x="1214.363281" xlink:href="#DejaVuSans-112"/>
     <use x="1277.839844" xlink:href="#DejaVuSans-97"/>
     <use x="1339.119141" xlink:href="#DejaVuSans-114"/>
     <use x="1380.232422" xlink:href="#DejaVuSans-105"/>
     <use x="1408.015625" xlink:href="#DejaVuSans-115"/>
     <use x="1460.115234" xlink:href="#DejaVuSans-111"/>
     <use x="1521.296875" xlink:href="#DejaVuSans-110"/>
    </g>
   </g>
   <g id="legend_1">
    <g id="patch_7">
     <path d="M 116.4 140.535 
L 287.761875 140.535 
Q 290.161875 140.535 290.161875 138.135 
L 290.161875 68.88 
Q 290.161875 66.48 287.761875 66.48 
L 116.4 66.48 
Q 114 66.48 114 68.88 
L 114 138.135 
Q 114 140.535 116.4 140.535 
z
" style="fill:#eaeaf2;opacity:0.8;stroke:#cccccc;stroke-linejoin:miter;"/>
    </g>
    <g id="line2d_22">
     <path d="M 118.8 76.198125 
L 142.8 76.198125 
" style="fill:none;stroke:#db5f57;stroke-linecap:round;stroke-width:1.5;"/>
    </g>
    <g id="line2d_23"/>
    <g id="text_17">
     <!-- LLE (whole data set) -->
     <g style="fill:#262626;" transform="translate(152.4 80.398125)scale(0.12 -0.12)">
      <defs>
       <path d="M 9.8125 72.90625 
L 19.671875 72.90625 
L 19.671875 8.296875 
L 55.171875 8.296875 
L 55.171875 0 
L 9.8125 0 
z
" id="DejaVuSans-76"/>
       <path d="M 9.8125 72.90625 
L 55.90625 72.90625 
L 55.90625 64.59375 
L 19.671875 64.59375 
L 19.671875 43.015625 
L 54.390625 43.015625 
L 54.390625 34.71875 
L 19.671875 34.71875 
L 19.671875 8.296875 
L 56.78125 8.296875 
L 56.78125 0 
L 9.8125 0 
z
" id="DejaVuSans-69"/>
       <path d="M 31 75.875 
Q 24.46875 64.65625 21.28125 53.65625 
Q 18.109375 42.671875 18.109375 31.390625 
Q 18.109375 20.125 21.3125 9.0625 
Q 24.515625 -2 31 -13.1875 
L 23.1875 -13.1875 
Q 15.875 -1.703125 12.234375 9.375 
Q 8.59375 20.453125 8.59375 31.390625 
Q 8.59375 42.28125 12.203125 53.3125 
Q 15.828125 64.359375 23.1875 75.875 
z
" id="DejaVuSans-40"/>
       <path d="M 4.203125 54.6875 
L 13.1875 54.6875 
L 24.421875 12.015625 
L 35.59375 54.6875 
L 46.1875 54.6875 
L 57.421875 12.015625 
L 68.609375 54.6875 
L 77.59375 54.6875 
L 63.28125 0 
L 52.6875 0 
L 40.921875 44.828125 
L 29.109375 0 
L 18.5 0 
z
" id="DejaVuSans-119"/>
       <path d="M 45.40625 46.390625 
L 45.40625 75.984375 
L 54.390625 75.984375 
L 54.390625 0 
L 45.40625 0 
L 45.40625 8.203125 
Q 42.578125 3.328125 38.25 0.953125 
Q 33.9375 -1.421875 27.875 -1.421875 
Q 17.96875 -1.421875 11.734375 6.484375 
Q 5.515625 14.40625 5.515625 27.296875 
Q 5.515625 40.1875 11.734375 48.09375 
Q 17.96875 56 27.875 56 
Q 33.9375 56 38.25 53.625 
Q 42.578125 51.265625 45.40625 46.390625 
z
M 14.796875 27.296875 
Q 14.796875 17.390625 18.875 11.75 
Q 22.953125 6.109375 30.078125 6.109375 
Q 37.203125 6.109375 41.296875 11.75 
Q 45.40625 17.390625 45.40625 27.296875 
Q 45.40625 37.203125 41.296875 42.84375 
Q 37.203125 48.484375 30.078125 48.484375 
Q 22.953125 48.484375 18.875 42.84375 
Q 14.796875 37.203125 14.796875 27.296875 
z
" id="DejaVuSans-100"/>
       <path d="M 8.015625 75.875 
L 15.828125 75.875 
Q 23.140625 64.359375 26.78125 53.3125 
Q 30.421875 42.28125 30.421875 31.390625 
Q 30.421875 20.453125 26.78125 9.375 
Q 23.140625 -1.703125 15.828125 -13.1875 
L 8.015625 -13.1875 
Q 14.5 -2 17.703125 9.0625 
Q 20.90625 20.125 20.90625 31.390625 
Q 20.90625 42.671875 17.703125 53.65625 
Q 14.5 64.65625 8.015625 75.875 
z
" id="DejaVuSans-41"/>
      </defs>
      <use xlink:href="#DejaVuSans-76"/>
      <use x="55.712891" xlink:href="#DejaVuSans-76"/>
      <use x="111.425781" xlink:href="#DejaVuSans-69"/>
      <use x="174.609375" xlink:href="#DejaVuSans-32"/>
      <use x="206.396484" xlink:href="#DejaVuSans-40"/>
      <use x="245.410156" xlink:href="#DejaVuSans-119"/>
      <use x="327.197266" xlink:href="#DejaVuSans-104"/>
      <use x="390.576172" xlink:href="#DejaVuSans-111"/>
      <use x="451.757812" xlink:href="#DejaVuSans-108"/>
      <use x="479.541016" xlink:href="#DejaVuSans-101"/>
      <use x="541.064453" xlink:href="#DejaVuSans-32"/>
      <use x="572.851562" xlink:href="#DejaVuSans-100"/>
      <use x="636.328125" xlink:href="#DejaVuSans-97"/>
      <use x="697.607422" xlink:href="#DejaVuSans-116"/>
      <use x="736.816406" xlink:href="#DejaVuSans-97"/>
      <use x="798.095703" xlink:href="#DejaVuSans-32"/>
      <use x="829.882812" xlink:href="#DejaVuSans-115"/>
      <use x="881.982422" xlink:href="#DejaVuSans-101"/>
      <use x="943.505859" xlink:href="#DejaVuSans-116"/>
      <use x="982.714844" xlink:href="#DejaVuSans-41"/>
     </g>
    </g>
    <g id="line2d_24">
     <path d="M 118.8 93.811875 
L 142.8 93.811875 
" style="fill:none;stroke:#91db57;stroke-linecap:round;stroke-width:1.5;"/>
    </g>
    <g id="line2d_25"/>
    <g id="text_18">
     <!-- MLLE (whole data set) -->
     <g style="fill:#262626;" transform="translate(152.4 98.011875)scale(0.12 -0.12)">
      <defs>
       <path d="M 9.8125 72.90625 
L 24.515625 72.90625 
L 43.109375 23.296875 
L 61.8125 72.90625 
L 76.515625 72.90625 
L 76.515625 0 
L 66.890625 0 
L 66.890625 64.015625 
L 48.09375 14.015625 
L 38.1875 14.015625 
L 19.390625 64.015625 
L 19.390625 0 
L 9.8125 0 
z
" id="DejaVuSans-77"/>
      </defs>
      <use xlink:href="#DejaVuSans-77"/>
      <use x="86.279297" xlink:href="#DejaVuSans-76"/>
      <use x="141.992188" xlink:href="#DejaVuSans-76"/>
      <use x="197.705078" xlink:href="#DejaVuSans-69"/>
      <use x="260.888672" xlink:href="#DejaVuSans-32"/>
      <use x="292.675781" xlink:href="#DejaVuSans-40"/>
      <use x="331.689453" xlink:href="#DejaVuSans-119"/>
      <use x="413.476562" xlink:href="#DejaVuSans-104"/>
      <use x="476.855469" xlink:href="#DejaVuSans-111"/>
      <use x="538.037109" xlink:href="#DejaVuSans-108"/>
      <use x="565.820312" xlink:href="#DejaVuSans-101"/>
      <use x="627.34375" xlink:href="#DejaVuSans-32"/>
      <use x="659.130859" xlink:href="#DejaVuSans-100"/>
      <use x="722.607422" xlink:href="#DejaVuSans-97"/>
      <use x="783.886719" xlink:href="#DejaVuSans-116"/>
      <use x="823.095703" xlink:href="#DejaVuSans-97"/>
      <use x="884.375" xlink:href="#DejaVuSans-32"/>
      <use x="916.162109" xlink:href="#DejaVuSans-115"/>
      <use x="968.261719" xlink:href="#DejaVuSans-101"/>
      <use x="1029.785156" xlink:href="#DejaVuSans-116"/>
      <use x="1068.994141" xlink:href="#DejaVuSans-41"/>
     </g>
    </g>
    <g id="line2d_26">
     <path d="M 118.8 111.425625 
L 142.8 111.425625 
" style="fill:none;stroke:#57d3db;stroke-linecap:round;stroke-width:1.5;"/>
    </g>
    <g id="line2d_27"/>
    <g id="text_19">
     <!-- LLE (semi data set) -->
     <g style="fill:#262626;" transform="translate(152.4 115.625625)scale(0.12 -0.12)">
      <use xlink:href="#DejaVuSans-76"/>
      <use x="55.712891" xlink:href="#DejaVuSans-76"/>
      <use x="111.425781" xlink:href="#DejaVuSans-69"/>
      <use x="174.609375" xlink:href="#DejaVuSans-32"/>
      <use x="206.396484" xlink:href="#DejaVuSans-40"/>
      <use x="245.410156" xlink:href="#DejaVuSans-115"/>
      <use x="297.509766" xlink:href="#DejaVuSans-101"/>
      <use x="359.033203" xlink:href="#DejaVuSans-109"/>
      <use x="456.445312" xlink:href="#DejaVuSans-105"/>
      <use x="484.228516" xlink:href="#DejaVuSans-32"/>
      <use x="516.015625" xlink:href="#DejaVuSans-100"/>
      <use x="579.492188" xlink:href="#DejaVuSans-97"/>
      <use x="640.771484" xlink:href="#DejaVuSans-116"/>
      <use x="679.980469" xlink:href="#DejaVuSans-97"/>
      <use x="741.259766" xlink:href="#DejaVuSans-32"/>
      <use x="773.046875" xlink:href="#DejaVuSans-115"/>
      <use x="825.146484" xlink:href="#DejaVuSans-101"/>
      <use x="886.669922" xlink:href="#DejaVuSans-116"/>
      <use x="925.878906" xlink:href="#DejaVuSans-41"/>
     </g>
    </g>
    <g id="line2d_28">
     <path d="M 118.8 129.039375 
L 142.8 129.039375 
" style="fill:none;stroke:#a157db;stroke-linecap:round;stroke-width:1.5;"/>
    </g>
    <g id="line2d_29"/>
    <g id="text_20">
     <!-- MLLE (semi data set) -->
     <g style="fill:#262626;" transform="translate(152.4 133.239375)scale(0.12 -0.12)">
      <use xlink:href="#DejaVuSans-77"/>
      <use x="86.279297" xlink:href="#DejaVuSans-76"/>
      <use x="141.992188" xlink:href="#DejaVuSans-76"/>
      <use x="197.705078" xlink:href="#DejaVuSans-69"/>
      <use x="260.888672" xlink:href="#DejaVuSans-32"/>
      <use x="292.675781" xlink:href="#DejaVuSans-40"/>
      <use x="331.689453" xlink:href="#DejaVuSans-115"/>
      <use x="383.789062" xlink:href="#DejaVuSans-101"/>
      <use x="445.3125" xlink:href="#DejaVuSans-109"/>
      <use x="542.724609" xlink:href="#DejaVuSans-105"/>
      <use x="570.507812" xlink:href="#DejaVuSans-32"/>
      <use x="602.294922" xlink:href="#DejaVuSans-100"/>
      <use x="665.771484" xlink:href="#DejaVuSans-97"/>
      <use x="727.050781" xlink:href="#DejaVuSans-116"/>
      <use x="766.259766" xlink:href="#DejaVuSans-97"/>
      <use x="827.539062" xlink:href="#DejaVuSans-32"/>
      <use x="859.326172" xlink:href="#DejaVuSans-115"/>
      <use x="911.425781" xlink:href="#DejaVuSans-101"/>
      <use x="972.949219" xlink:href="#DejaVuSans-116"/>
      <use x="1012.158203" xlink:href="#DejaVuSans-41"/>
     </g>
    </g>
   </g>
  </g>
 </g>
 <defs>
  <clipPath id="pfedaf5240a">
   <rect height="388.08" width="669.6" x="108" y="60.48"/>
  </clipPath>
 </defs>
</svg>
