<?xml version="1.0" encoding="utf-8" standalone="no"?>
<!DOCTYPE svg PUBLIC "-//W3C//DTD SVG 1.1//EN"
  "http://www.w3.org/Graphics/SVG/1.1/DTD/svg11.dtd">
<!-- Created with matplotlib (https://matplotlib.org/) -->
<svg height="504pt" version="1.1" viewBox="0 0 864 504" width="864pt" xmlns="http://www.w3.org/2000/svg" xmlns:xlink="http://www.w3.org/1999/xlink">
 <metadata>
  <rdf:RDF xmlns:cc="http://creativecommons.org/ns#" xmlns:dc="http://purl.org/dc/elements/1.1/" xmlns:rdf="http://www.w3.org/1999/02/22-rdf-syntax-ns#">
   <cc:Work>
    <dc:type rdf:resource="http://purl.org/dc/dcmitype/StillImage"/>
    <dc:date>2021-05-20T22:42:24.599318</dc:date>
    <dc:format>image/svg+xml</dc:format>
    <dc:creator>
     <cc:Agent>
      <dc:title>Matplotlib v3.3.2, https://matplotlib.org/</dc:title>
     </cc:Agent>
    </dc:creator>
   </cc:Work>
  </rdf:RDF>
 </metadata>
 <defs>
  <style type="text/css">*{stroke-linecap:butt;stroke-linejoin:round;}</style>
 </defs>
 <g id="figure_1">
  <g id="patch_1">
   <path d="M 0 504 
L 864 504 
L 864 0 
L 0 0 
z
" style="fill:#ffffff;"/>
  </g>
  <g id="axes_1">
   <g id="patch_2">
    <path d="M 108 448.56 
L 777.6 448.56 
L 777.6 60.48 
L 108 60.48 
z
" style="fill:#eaeaf2;"/>
   </g>
   <g id="matplotlib.axis_1">
    <g id="xtick_1">
     <g id="line2d_1">
      <path clip-path="url(#pa6df0f2d97)" d="M 176.676923 448.56 
L 176.676923 60.48 
" style="fill:none;stroke:#ffffff;stroke-linecap:round;stroke-width:0.8;"/>
     </g>
     <g id="text_1">
      <!-- 25 -->
      <g style="fill:#262626;" transform="translate(170.314423 463.158437)scale(0.1 -0.1)">
       <defs>
        <path d="M 19.1875 8.296875 
L 53.609375 8.296875 
L 53.609375 0 
L 7.328125 0 
L 7.328125 8.296875 
Q 12.9375 14.109375 22.625 23.890625 
Q 32.328125 33.6875 34.8125 36.53125 
Q 39.546875 41.84375 41.421875 45.53125 
Q 43.3125 49.21875 43.3125 52.78125 
Q 43.3125 58.59375 39.234375 62.25 
Q 35.15625 65.921875 28.609375 65.921875 
Q 23.96875 65.921875 18.8125 64.3125 
Q 13.671875 62.703125 7.8125 59.421875 
L 7.8125 69.390625 
Q 13.765625 71.78125 18.9375 73 
Q 24.125 74.21875 28.421875 74.21875 
Q 39.75 74.21875 46.484375 68.546875 
Q 53.21875 62.890625 53.21875 53.421875 
Q 53.21875 48.921875 51.53125 44.890625 
Q 49.859375 40.875 45.40625 35.40625 
Q 44.1875 33.984375 37.640625 27.21875 
Q 31.109375 20.453125 19.1875 8.296875 
z
" id="DejaVuSans-50"/>
        <path d="M 10.796875 72.90625 
L 49.515625 72.90625 
L 49.515625 64.59375 
L 19.828125 64.59375 
L 19.828125 46.734375 
Q 21.96875 47.46875 24.109375 47.828125 
Q 26.265625 48.1875 28.421875 48.1875 
Q 40.625 48.1875 47.75 41.5 
Q 54.890625 34.8125 54.890625 23.390625 
Q 54.890625 11.625 47.5625 5.09375 
Q 40.234375 -1.421875 26.90625 -1.421875 
Q 22.3125 -1.421875 17.546875 -0.640625 
Q 12.796875 0.140625 7.71875 1.703125 
L 7.71875 11.625 
Q 12.109375 9.234375 16.796875 8.0625 
Q 21.484375 6.890625 26.703125 6.890625 
Q 35.15625 6.890625 40.078125 11.328125 
Q 45.015625 15.765625 45.015625 23.390625 
Q 45.015625 31 40.078125 35.4375 
Q 35.15625 39.890625 26.703125 39.890625 
Q 22.75 39.890625 18.8125 39.015625 
Q 14.890625 38.140625 10.796875 36.28125 
z
" id="DejaVuSans-53"/>
       </defs>
       <use xlink:href="#DejaVuSans-50"/>
       <use x="63.623047" xlink:href="#DejaVuSans-53"/>
      </g>
     </g>
    </g>
    <g id="xtick_2">
     <g id="line2d_2">
      <path clip-path="url(#pa6df0f2d97)" d="M 262.523077 448.56 
L 262.523077 60.48 
" style="fill:none;stroke:#ffffff;stroke-linecap:round;stroke-width:0.8;"/>
     </g>
     <g id="text_2">
      <!-- 50 -->
      <g style="fill:#262626;" transform="translate(256.160577 463.158437)scale(0.1 -0.1)">
       <defs>
        <path d="M 31.78125 66.40625 
Q 24.171875 66.40625 20.328125 58.90625 
Q 16.5 51.421875 16.5 36.375 
Q 16.5 21.390625 20.328125 13.890625 
Q 24.171875 6.390625 31.78125 6.390625 
Q 39.453125 6.390625 43.28125 13.890625 
Q 47.125 21.390625 47.125 36.375 
Q 47.125 51.421875 43.28125 58.90625 
Q 39.453125 66.40625 31.78125 66.40625 
z
M 31.78125 74.21875 
Q 44.046875 74.21875 50.515625 64.515625 
Q 56.984375 54.828125 56.984375 36.375 
Q 56.984375 17.96875 50.515625 8.265625 
Q 44.046875 -1.421875 31.78125 -1.421875 
Q 19.53125 -1.421875 13.0625 8.265625 
Q 6.59375 17.96875 6.59375 36.375 
Q 6.59375 54.828125 13.0625 64.515625 
Q 19.53125 74.21875 31.78125 74.21875 
z
" id="DejaVuSans-48"/>
       </defs>
       <use xlink:href="#DejaVuSans-53"/>
       <use x="63.623047" xlink:href="#DejaVuSans-48"/>
      </g>
     </g>
    </g>
    <g id="xtick_3">
     <g id="line2d_3">
      <path clip-path="url(#pa6df0f2d97)" d="M 348.369231 448.56 
L 348.369231 60.48 
" style="fill:none;stroke:#ffffff;stroke-linecap:round;stroke-width:0.8;"/>
     </g>
     <g id="text_3">
      <!-- 75 -->
      <g style="fill:#262626;" transform="translate(342.006731 463.158437)scale(0.1 -0.1)">
       <defs>
        <path d="M 8.203125 72.90625 
L 55.078125 72.90625 
L 55.078125 68.703125 
L 28.609375 0 
L 18.3125 0 
L 43.21875 64.59375 
L 8.203125 64.59375 
z
" id="DejaVuSans-55"/>
       </defs>
       <use xlink:href="#DejaVuSans-55"/>
       <use x="63.623047" xlink:href="#DejaVuSans-53"/>
      </g>
     </g>
    </g>
    <g id="xtick_4">
     <g id="line2d_4">
      <path clip-path="url(#pa6df0f2d97)" d="M 434.215385 448.56 
L 434.215385 60.48 
" style="fill:none;stroke:#ffffff;stroke-linecap:round;stroke-width:0.8;"/>
     </g>
     <g id="text_4">
      <!-- 100 -->
      <g style="fill:#262626;" transform="translate(424.671635 463.158437)scale(0.1 -0.1)">
       <defs>
        <path d="M 12.40625 8.296875 
L 28.515625 8.296875 
L 28.515625 63.921875 
L 10.984375 60.40625 
L 10.984375 69.390625 
L 28.421875 72.90625 
L 38.28125 72.90625 
L 38.28125 8.296875 
L 54.390625 8.296875 
L 54.390625 0 
L 12.40625 0 
z
" id="DejaVuSans-49"/>
       </defs>
       <use xlink:href="#DejaVuSans-49"/>
       <use x="63.623047" xlink:href="#DejaVuSans-48"/>
       <use x="127.246094" xlink:href="#DejaVuSans-48"/>
      </g>
     </g>
    </g>
    <g id="xtick_5">
     <g id="line2d_5">
      <path clip-path="url(#pa6df0f2d97)" d="M 520.061538 448.56 
L 520.061538 60.48 
" style="fill:none;stroke:#ffffff;stroke-linecap:round;stroke-width:0.8;"/>
     </g>
     <g id="text_5">
      <!-- 125 -->
      <g style="fill:#262626;" transform="translate(510.517788 463.158437)scale(0.1 -0.1)">
       <use xlink:href="#DejaVuSans-49"/>
       <use x="63.623047" xlink:href="#DejaVuSans-50"/>
       <use x="127.246094" xlink:href="#DejaVuSans-53"/>
      </g>
     </g>
    </g>
    <g id="xtick_6">
     <g id="line2d_6">
      <path clip-path="url(#pa6df0f2d97)" d="M 605.907692 448.56 
L 605.907692 60.48 
" style="fill:none;stroke:#ffffff;stroke-linecap:round;stroke-width:0.8;"/>
     </g>
     <g id="text_6">
      <!-- 150 -->
      <g style="fill:#262626;" transform="translate(596.363942 463.158437)scale(0.1 -0.1)">
       <use xlink:href="#DejaVuSans-49"/>
       <use x="63.623047" xlink:href="#DejaVuSans-53"/>
       <use x="127.246094" xlink:href="#DejaVuSans-48"/>
      </g>
     </g>
    </g>
    <g id="xtick_7">
     <g id="line2d_7">
      <path clip-path="url(#pa6df0f2d97)" d="M 691.753846 448.56 
L 691.753846 60.48 
" style="fill:none;stroke:#ffffff;stroke-linecap:round;stroke-width:0.8;"/>
     </g>
     <g id="text_7">
      <!-- 175 -->
      <g style="fill:#262626;" transform="translate(682.210096 463.158437)scale(0.1 -0.1)">
       <use xlink:href="#DejaVuSans-49"/>
       <use x="63.623047" xlink:href="#DejaVuSans-55"/>
       <use x="127.246094" xlink:href="#DejaVuSans-53"/>
      </g>
     </g>
    </g>
    <g id="xtick_8">
     <g id="line2d_8">
      <path clip-path="url(#pa6df0f2d97)" d="M 777.6 448.56 
L 777.6 60.48 
" style="fill:none;stroke:#ffffff;stroke-linecap:round;stroke-width:0.8;"/>
     </g>
     <g id="text_8">
      <!-- 200 -->
      <g style="fill:#262626;" transform="translate(768.05625 463.158437)scale(0.1 -0.1)">
       <use xlink:href="#DejaVuSans-50"/>
       <use x="63.623047" xlink:href="#DejaVuSans-48"/>
       <use x="127.246094" xlink:href="#DejaVuSans-48"/>
      </g>
     </g>
    </g>
    <g id="text_9">
     <!-- Neighbors -->
     <g style="fill:#262626;" transform="translate(407.179844 479.875938)scale(0.14 -0.14)">
      <defs>
       <path d="M 9.8125 72.90625 
L 23.09375 72.90625 
L 55.421875 11.921875 
L 55.421875 72.90625 
L 64.984375 72.90625 
L 64.984375 0 
L 51.703125 0 
L 19.390625 60.984375 
L 19.390625 0 
L 9.8125 0 
z
" id="DejaVuSans-78"/>
       <path d="M 56.203125 29.59375 
L 56.203125 25.203125 
L 14.890625 25.203125 
Q 15.484375 15.921875 20.484375 11.0625 
Q 25.484375 6.203125 34.421875 6.203125 
Q 39.59375 6.203125 44.453125 7.46875 
Q 49.3125 8.734375 54.109375 11.28125 
L 54.109375 2.78125 
Q 49.265625 0.734375 44.1875 -0.34375 
Q 39.109375 -1.421875 33.890625 -1.421875 
Q 20.796875 -1.421875 13.15625 6.1875 
Q 5.515625 13.8125 5.515625 26.8125 
Q 5.515625 40.234375 12.765625 48.109375 
Q 20.015625 56 32.328125 56 
Q 43.359375 56 49.78125 48.890625 
Q 56.203125 41.796875 56.203125 29.59375 
z
M 47.21875 32.234375 
Q 47.125 39.59375 43.09375 43.984375 
Q 39.0625 48.390625 32.421875 48.390625 
Q 24.90625 48.390625 20.390625 44.140625 
Q 15.875 39.890625 15.1875 32.171875 
z
" id="DejaVuSans-101"/>
       <path d="M 9.421875 54.6875 
L 18.40625 54.6875 
L 18.40625 0 
L 9.421875 0 
z
M 9.421875 75.984375 
L 18.40625 75.984375 
L 18.40625 64.59375 
L 9.421875 64.59375 
z
" id="DejaVuSans-105"/>
       <path d="M 45.40625 27.984375 
Q 45.40625 37.75 41.375 43.109375 
Q 37.359375 48.484375 30.078125 48.484375 
Q 22.859375 48.484375 18.828125 43.109375 
Q 14.796875 37.75 14.796875 27.984375 
Q 14.796875 18.265625 18.828125 12.890625 
Q 22.859375 7.515625 30.078125 7.515625 
Q 37.359375 7.515625 41.375 12.890625 
Q 45.40625 18.265625 45.40625 27.984375 
z
M 54.390625 6.78125 
Q 54.390625 -7.171875 48.1875 -13.984375 
Q 42 -20.796875 29.203125 -20.796875 
Q 24.46875 -20.796875 20.265625 -20.09375 
Q 16.0625 -19.390625 12.109375 -17.921875 
L 12.109375 -9.1875 
Q 16.0625 -11.328125 19.921875 -12.34375 
Q 23.78125 -13.375 27.78125 -13.375 
Q 36.625 -13.375 41.015625 -8.765625 
Q 45.40625 -4.15625 45.40625 5.171875 
L 45.40625 9.625 
Q 42.625 4.78125 38.28125 2.390625 
Q 33.9375 0 27.875 0 
Q 17.828125 0 11.671875 7.65625 
Q 5.515625 15.328125 5.515625 27.984375 
Q 5.515625 40.671875 11.671875 48.328125 
Q 17.828125 56 27.875 56 
Q 33.9375 56 38.28125 53.609375 
Q 42.625 51.21875 45.40625 46.390625 
L 45.40625 54.6875 
L 54.390625 54.6875 
z
" id="DejaVuSans-103"/>
       <path d="M 54.890625 33.015625 
L 54.890625 0 
L 45.90625 0 
L 45.90625 32.71875 
Q 45.90625 40.484375 42.875 44.328125 
Q 39.84375 48.1875 33.796875 48.1875 
Q 26.515625 48.1875 22.3125 43.546875 
Q 18.109375 38.921875 18.109375 30.90625 
L 18.109375 0 
L 9.078125 0 
L 9.078125 75.984375 
L 18.109375 75.984375 
L 18.109375 46.1875 
Q 21.34375 51.125 25.703125 53.5625 
Q 30.078125 56 35.796875 56 
Q 45.21875 56 50.046875 50.171875 
Q 54.890625 44.34375 54.890625 33.015625 
z
" id="DejaVuSans-104"/>
       <path d="M 48.6875 27.296875 
Q 48.6875 37.203125 44.609375 42.84375 
Q 40.53125 48.484375 33.40625 48.484375 
Q 26.265625 48.484375 22.1875 42.84375 
Q 18.109375 37.203125 18.109375 27.296875 
Q 18.109375 17.390625 22.1875 11.75 
Q 26.265625 6.109375 33.40625 6.109375 
Q 40.53125 6.109375 44.609375 11.75 
Q 48.6875 17.390625 48.6875 27.296875 
z
M 18.109375 46.390625 
Q 20.953125 51.265625 25.265625 53.625 
Q 29.59375 56 35.59375 56 
Q 45.5625 56 51.78125 48.09375 
Q 58.015625 40.1875 58.015625 27.296875 
Q 58.015625 14.40625 51.78125 6.484375 
Q 45.5625 -1.421875 35.59375 -1.421875 
Q 29.59375 -1.421875 25.265625 0.953125 
Q 20.953125 3.328125 18.109375 8.203125 
L 18.109375 0 
L 9.078125 0 
L 9.078125 75.984375 
L 18.109375 75.984375 
z
" id="DejaVuSans-98"/>
       <path d="M 30.609375 48.390625 
Q 23.390625 48.390625 19.1875 42.75 
Q 14.984375 37.109375 14.984375 27.296875 
Q 14.984375 17.484375 19.15625 11.84375 
Q 23.34375 6.203125 30.609375 6.203125 
Q 37.796875 6.203125 41.984375 11.859375 
Q 46.1875 17.53125 46.1875 27.296875 
Q 46.1875 37.015625 41.984375 42.703125 
Q 37.796875 48.390625 30.609375 48.390625 
z
M 30.609375 56 
Q 42.328125 56 49.015625 48.375 
Q 55.71875 40.765625 55.71875 27.296875 
Q 55.71875 13.875 49.015625 6.21875 
Q 42.328125 -1.421875 30.609375 -1.421875 
Q 18.84375 -1.421875 12.171875 6.21875 
Q 5.515625 13.875 5.515625 27.296875 
Q 5.515625 40.765625 12.171875 48.375 
Q 18.84375 56 30.609375 56 
z
" id="DejaVuSans-111"/>
       <path d="M 41.109375 46.296875 
Q 39.59375 47.171875 37.8125 47.578125 
Q 36.03125 48 33.890625 48 
Q 26.265625 48 22.1875 43.046875 
Q 18.109375 38.09375 18.109375 28.8125 
L 18.109375 0 
L 9.078125 0 
L 9.078125 54.6875 
L 18.109375 54.6875 
L 18.109375 46.1875 
Q 20.953125 51.171875 25.484375 53.578125 
Q 30.03125 56 36.53125 56 
Q 37.453125 56 38.578125 55.875 
Q 39.703125 55.765625 41.0625 55.515625 
z
" id="DejaVuSans-114"/>
       <path d="M 44.28125 53.078125 
L 44.28125 44.578125 
Q 40.484375 46.53125 36.375 47.5 
Q 32.28125 48.484375 27.875 48.484375 
Q 21.1875 48.484375 17.84375 46.4375 
Q 14.5 44.390625 14.5 40.28125 
Q 14.5 37.15625 16.890625 35.375 
Q 19.28125 33.59375 26.515625 31.984375 
L 29.59375 31.296875 
Q 39.15625 29.25 43.1875 25.515625 
Q 47.21875 21.78125 47.21875 15.09375 
Q 47.21875 7.46875 41.1875 3.015625 
Q 35.15625 -1.421875 24.609375 -1.421875 
Q 20.21875 -1.421875 15.453125 -0.5625 
Q 10.6875 0.296875 5.421875 2 
L 5.421875 11.28125 
Q 10.40625 8.6875 15.234375 7.390625 
Q 20.0625 6.109375 24.8125 6.109375 
Q 31.15625 6.109375 34.5625 8.28125 
Q 37.984375 10.453125 37.984375 14.40625 
Q 37.984375 18.0625 35.515625 20.015625 
Q 33.0625 21.96875 24.703125 23.78125 
L 21.578125 24.515625 
Q 13.234375 26.265625 9.515625 29.90625 
Q 5.8125 33.546875 5.8125 39.890625 
Q 5.8125 47.609375 11.28125 51.796875 
Q 16.75 56 26.8125 56 
Q 31.78125 56 36.171875 55.265625 
Q 40.578125 54.546875 44.28125 53.078125 
z
" id="DejaVuSans-115"/>
      </defs>
      <use xlink:href="#DejaVuSans-78"/>
      <use x="74.804688" xlink:href="#DejaVuSans-101"/>
      <use x="136.328125" xlink:href="#DejaVuSans-105"/>
      <use x="164.111328" xlink:href="#DejaVuSans-103"/>
      <use x="227.587891" xlink:href="#DejaVuSans-104"/>
      <use x="290.966797" xlink:href="#DejaVuSans-98"/>
      <use x="354.443359" xlink:href="#DejaVuSans-111"/>
      <use x="415.625" xlink:href="#DejaVuSans-114"/>
      <use x="456.738281" xlink:href="#DejaVuSans-115"/>
     </g>
    </g>
   </g>
   <g id="matplotlib.axis_2">
    <g id="ytick_1">
     <g id="line2d_9">
      <path clip-path="url(#pa6df0f2d97)" d="M 108 439.8805 
L 777.6 439.8805 
" style="fill:none;stroke:#ffffff;stroke-linecap:round;stroke-width:0.8;"/>
     </g>
     <g id="text_10">
      <!-- 0 -->
      <g style="fill:#262626;" transform="translate(94.6375 443.679719)scale(0.1 -0.1)">
       <use xlink:href="#DejaVuSans-48"/>
      </g>
     </g>
    </g>
    <g id="ytick_2">
     <g id="line2d_10">
      <path clip-path="url(#pa6df0f2d97)" d="M 108 362.872605 
L 777.6 362.872605 
" style="fill:none;stroke:#ffffff;stroke-linecap:round;stroke-width:0.8;"/>
     </g>
     <g id="text_11">
      <!-- 10 -->
      <g style="fill:#262626;" transform="translate(88.275 366.671824)scale(0.1 -0.1)">
       <use xlink:href="#DejaVuSans-49"/>
       <use x="63.623047" xlink:href="#DejaVuSans-48"/>
      </g>
     </g>
    </g>
    <g id="ytick_3">
     <g id="line2d_11">
      <path clip-path="url(#pa6df0f2d97)" d="M 108 285.86471 
L 777.6 285.86471 
" style="fill:none;stroke:#ffffff;stroke-linecap:round;stroke-width:0.8;"/>
     </g>
     <g id="text_12">
      <!-- 20 -->
      <g style="fill:#262626;" transform="translate(88.275 289.663929)scale(0.1 -0.1)">
       <use xlink:href="#DejaVuSans-50"/>
       <use x="63.623047" xlink:href="#DejaVuSans-48"/>
      </g>
     </g>
    </g>
    <g id="ytick_4">
     <g id="line2d_12">
      <path clip-path="url(#pa6df0f2d97)" d="M 108 208.856815 
L 777.6 208.856815 
" style="fill:none;stroke:#ffffff;stroke-linecap:round;stroke-width:0.8;"/>
     </g>
     <g id="text_13">
      <!-- 30 -->
      <g style="fill:#262626;" transform="translate(88.275 212.656034)scale(0.1 -0.1)">
       <defs>
        <path d="M 40.578125 39.3125 
Q 47.65625 37.796875 51.625 33 
Q 55.609375 28.21875 55.609375 21.1875 
Q 55.609375 10.40625 48.1875 4.484375 
Q 40.765625 -1.421875 27.09375 -1.421875 
Q 22.515625 -1.421875 17.65625 -0.515625 
Q 12.796875 0.390625 7.625 2.203125 
L 7.625 11.71875 
Q 11.71875 9.328125 16.59375 8.109375 
Q 21.484375 6.890625 26.8125 6.890625 
Q 36.078125 6.890625 40.9375 10.546875 
Q 45.796875 14.203125 45.796875 21.1875 
Q 45.796875 27.640625 41.28125 31.265625 
Q 36.765625 34.90625 28.71875 34.90625 
L 20.21875 34.90625 
L 20.21875 43.015625 
L 29.109375 43.015625 
Q 36.375 43.015625 40.234375 45.921875 
Q 44.09375 48.828125 44.09375 54.296875 
Q 44.09375 59.90625 40.109375 62.90625 
Q 36.140625 65.921875 28.71875 65.921875 
Q 24.65625 65.921875 20.015625 65.03125 
Q 15.375 64.15625 9.8125 62.3125 
L 9.8125 71.09375 
Q 15.4375 72.65625 20.34375 73.4375 
Q 25.25 74.21875 29.59375 74.21875 
Q 40.828125 74.21875 47.359375 69.109375 
Q 53.90625 64.015625 53.90625 55.328125 
Q 53.90625 49.265625 50.4375 45.09375 
Q 46.96875 40.921875 40.578125 39.3125 
z
" id="DejaVuSans-51"/>
       </defs>
       <use xlink:href="#DejaVuSans-51"/>
       <use x="63.623047" xlink:href="#DejaVuSans-48"/>
      </g>
     </g>
    </g>
    <g id="ytick_5">
     <g id="line2d_13">
      <path clip-path="url(#pa6df0f2d97)" d="M 108 131.84892 
L 777.6 131.84892 
" style="fill:none;stroke:#ffffff;stroke-linecap:round;stroke-width:0.8;"/>
     </g>
     <g id="text_14">
      <!-- 40 -->
      <g style="fill:#262626;" transform="translate(88.275 135.648139)scale(0.1 -0.1)">
       <defs>
        <path d="M 37.796875 64.3125 
L 12.890625 25.390625 
L 37.796875 25.390625 
z
M 35.203125 72.90625 
L 47.609375 72.90625 
L 47.609375 25.390625 
L 58.015625 25.390625 
L 58.015625 17.1875 
L 47.609375 17.1875 
L 47.609375 0 
L 37.796875 0 
L 37.796875 17.1875 
L 4.890625 17.1875 
L 4.890625 26.703125 
z
" id="DejaVuSans-52"/>
       </defs>
       <use xlink:href="#DejaVuSans-52"/>
       <use x="63.623047" xlink:href="#DejaVuSans-48"/>
      </g>
     </g>
    </g>
    <g id="text_15">
     <!-- Wall clock time [s] -->
     <g style="fill:#262626;" transform="translate(81.363438 318.750469)rotate(-90)scale(0.14 -0.14)">
      <defs>
       <path d="M 3.328125 72.90625 
L 13.28125 72.90625 
L 28.609375 11.28125 
L 43.890625 72.90625 
L 54.984375 72.90625 
L 70.3125 11.28125 
L 85.59375 72.90625 
L 95.609375 72.90625 
L 77.296875 0 
L 64.890625 0 
L 49.515625 63.28125 
L 33.984375 0 
L 21.578125 0 
z
" id="DejaVuSans-87"/>
       <path d="M 34.28125 27.484375 
Q 23.390625 27.484375 19.1875 25 
Q 14.984375 22.515625 14.984375 16.5 
Q 14.984375 11.71875 18.140625 8.90625 
Q 21.296875 6.109375 26.703125 6.109375 
Q 34.1875 6.109375 38.703125 11.40625 
Q 43.21875 16.703125 43.21875 25.484375 
L 43.21875 27.484375 
z
M 52.203125 31.203125 
L 52.203125 0 
L 43.21875 0 
L 43.21875 8.296875 
Q 40.140625 3.328125 35.546875 0.953125 
Q 30.953125 -1.421875 24.3125 -1.421875 
Q 15.921875 -1.421875 10.953125 3.296875 
Q 6 8.015625 6 15.921875 
Q 6 25.140625 12.171875 29.828125 
Q 18.359375 34.515625 30.609375 34.515625 
L 43.21875 34.515625 
L 43.21875 35.40625 
Q 43.21875 41.609375 39.140625 45 
Q 35.0625 48.390625 27.6875 48.390625 
Q 23 48.390625 18.546875 47.265625 
Q 14.109375 46.140625 10.015625 43.890625 
L 10.015625 52.203125 
Q 14.9375 54.109375 19.578125 55.046875 
Q 24.21875 56 28.609375 56 
Q 40.484375 56 46.34375 49.84375 
Q 52.203125 43.703125 52.203125 31.203125 
z
" id="DejaVuSans-97"/>
       <path d="M 9.421875 75.984375 
L 18.40625 75.984375 
L 18.40625 0 
L 9.421875 0 
z
" id="DejaVuSans-108"/>
       <path id="DejaVuSans-32"/>
       <path d="M 48.78125 52.59375 
L 48.78125 44.1875 
Q 44.96875 46.296875 41.140625 47.34375 
Q 37.3125 48.390625 33.40625 48.390625 
Q 24.65625 48.390625 19.8125 42.84375 
Q 14.984375 37.3125 14.984375 27.296875 
Q 14.984375 17.28125 19.8125 11.734375 
Q 24.65625 6.203125 33.40625 6.203125 
Q 37.3125 6.203125 41.140625 7.25 
Q 44.96875 8.296875 48.78125 10.40625 
L 48.78125 2.09375 
Q 45.015625 0.34375 40.984375 -0.53125 
Q 36.96875 -1.421875 32.421875 -1.421875 
Q 20.0625 -1.421875 12.78125 6.34375 
Q 5.515625 14.109375 5.515625 27.296875 
Q 5.515625 40.671875 12.859375 48.328125 
Q 20.21875 56 33.015625 56 
Q 37.15625 56 41.109375 55.140625 
Q 45.0625 54.296875 48.78125 52.59375 
z
" id="DejaVuSans-99"/>
       <path d="M 9.078125 75.984375 
L 18.109375 75.984375 
L 18.109375 31.109375 
L 44.921875 54.6875 
L 56.390625 54.6875 
L 27.390625 29.109375 
L 57.625 0 
L 45.90625 0 
L 18.109375 26.703125 
L 18.109375 0 
L 9.078125 0 
z
" id="DejaVuSans-107"/>
       <path d="M 18.3125 70.21875 
L 18.3125 54.6875 
L 36.8125 54.6875 
L 36.8125 47.703125 
L 18.3125 47.703125 
L 18.3125 18.015625 
Q 18.3125 11.328125 20.140625 9.421875 
Q 21.96875 7.515625 27.59375 7.515625 
L 36.8125 7.515625 
L 36.8125 0 
L 27.59375 0 
Q 17.1875 0 13.234375 3.875 
Q 9.28125 7.765625 9.28125 18.015625 
L 9.28125 47.703125 
L 2.6875 47.703125 
L 2.6875 54.6875 
L 9.28125 54.6875 
L 9.28125 70.21875 
z
" id="DejaVuSans-116"/>
       <path d="M 52 44.1875 
Q 55.375 50.25 60.0625 53.125 
Q 64.75 56 71.09375 56 
Q 79.640625 56 84.28125 50.015625 
Q 88.921875 44.046875 88.921875 33.015625 
L 88.921875 0 
L 79.890625 0 
L 79.890625 32.71875 
Q 79.890625 40.578125 77.09375 44.375 
Q 74.3125 48.1875 68.609375 48.1875 
Q 61.625 48.1875 57.5625 43.546875 
Q 53.515625 38.921875 53.515625 30.90625 
L 53.515625 0 
L 44.484375 0 
L 44.484375 32.71875 
Q 44.484375 40.625 41.703125 44.40625 
Q 38.921875 48.1875 33.109375 48.1875 
Q 26.21875 48.1875 22.15625 43.53125 
Q 18.109375 38.875 18.109375 30.90625 
L 18.109375 0 
L 9.078125 0 
L 9.078125 54.6875 
L 18.109375 54.6875 
L 18.109375 46.1875 
Q 21.1875 51.21875 25.484375 53.609375 
Q 29.78125 56 35.6875 56 
Q 41.65625 56 45.828125 52.96875 
Q 50 49.953125 52 44.1875 
z
" id="DejaVuSans-109"/>
       <path d="M 8.59375 75.984375 
L 29.296875 75.984375 
L 29.296875 69 
L 17.578125 69 
L 17.578125 -6.203125 
L 29.296875 -6.203125 
L 29.296875 -13.1875 
L 8.59375 -13.1875 
z
" id="DejaVuSans-91"/>
       <path d="M 30.421875 75.984375 
L 30.421875 -13.1875 
L 9.71875 -13.1875 
L 9.71875 -6.203125 
L 21.390625 -6.203125 
L 21.390625 69 
L 9.71875 69 
L 9.71875 75.984375 
z
" id="DejaVuSans-93"/>
      </defs>
      <use xlink:href="#DejaVuSans-87"/>
      <use x="92.501953" xlink:href="#DejaVuSans-97"/>
      <use x="153.78125" xlink:href="#DejaVuSans-108"/>
      <use x="181.564453" xlink:href="#DejaVuSans-108"/>
      <use x="209.347656" xlink:href="#DejaVuSans-32"/>
      <use x="241.134766" xlink:href="#DejaVuSans-99"/>
      <use x="296.115234" xlink:href="#DejaVuSans-108"/>
      <use x="323.898438" xlink:href="#DejaVuSans-111"/>
      <use x="385.080078" xlink:href="#DejaVuSans-99"/>
      <use x="440.060547" xlink:href="#DejaVuSans-107"/>
      <use x="497.970703" xlink:href="#DejaVuSans-32"/>
      <use x="529.757812" xlink:href="#DejaVuSans-116"/>
      <use x="568.966797" xlink:href="#DejaVuSans-105"/>
      <use x="596.75" xlink:href="#DejaVuSans-109"/>
      <use x="694.162109" xlink:href="#DejaVuSans-101"/>
      <use x="755.685547" xlink:href="#DejaVuSans-32"/>
      <use x="787.472656" xlink:href="#DejaVuSans-91"/>
      <use x="826.486328" xlink:href="#DejaVuSans-115"/>
      <use x="878.585938" xlink:href="#DejaVuSans-93"/>
     </g>
    </g>
   </g>
   <g id="PolyCollection_1">
    <defs>
     <path d="M 108 -93.818801 
L 108 -93.277187 
L 111.433846 -100.784819 
L 118.301538 -112.325866 
L 125.169231 -124.024291 
L 132.036923 -126.854354 
L 138.904615 -130.512696 
L 145.772308 -136.407566 
L 152.64 -140.231644 
L 159.507692 -137.110549 
L 166.375385 -161.082693 
L 173.243077 -152.461244 
L 180.110769 -158.807451 
L 186.978462 -162.991137 
L 193.846154 -166.861346 
L 200.713846 -158.931953 
L 207.581538 -159.646791 
L 214.449231 -163.346672 
L 221.316923 -167.584303 
L 228.184615 -180.416374 
L 235.052308 -177.322143 
L 241.92 -173.522779 
L 248.787692 -179.212617 
L 255.655385 -176.430484 
L 262.523077 -185.281457 
L 269.390769 -182.833281 
L 276.258462 -188.108094 
L 283.126154 -181.64047 
L 289.993846 -182.996203 
L 296.861538 -189.943483 
L 303.729231 -187.380318 
L 310.596923 -187.693448 
L 317.464615 -188.061811 
L 324.332308 -191.996747 
L 331.2 -191.363561 
L 334.633846 -193.079247 
L 341.501538 -193.781202 
L 348.369231 -184.097713 
L 355.236923 -190.676975 
L 362.104615 -191.370095 
L 368.972308 -187.400328 
L 375.84 -187.279117 
L 382.707692 -186.401748 
L 389.575385 -191.121283 
L 396.443077 -194.126694 
L 403.310769 -196.791742 
L 410.178462 -194.733736 
L 417.046154 -192.192863 
L 423.913846 -199.371804 
L 430.781538 -196.456147 
L 437.649231 -200.18866 
L 444.516923 -202.30417 
L 451.384615 -202.387771 
L 458.252308 -200.551745 
L 465.12 -210.350288 
L 471.987692 -204.793033 
L 478.855385 -209.695383 
L 485.723077 -212.043372 
L 492.590769 -209.743183 
L 499.458462 -208.108527 
L 506.326154 -205.585245 
L 513.193846 -207.169915 
L 520.061538 -211.32569 
L 526.929231 -210.106603 
L 533.796923 -200.790071 
L 540.664615 -203.808353 
L 547.532308 -205.308094 
L 554.4 -202.792301 
L 557.833846 -206.798414 
L 564.701538 -217.829069 
L 571.569231 -214.649275 
L 578.436923 -217.258015 
L 585.304615 -213.31762 
L 592.172308 -215.975432 
L 599.04 -213.38568 
L 605.907692 -215.890804 
L 612.775385 -213.656395 
L 619.643077 -213.724136 
L 626.510769 -214.150626 
L 633.378462 -213.32378 
L 640.246154 -219.275195 
L 647.113846 -215.130622 
L 653.981538 -214.383922 
L 660.849231 -210.253015 
L 667.716923 -208.254821 
L 674.584615 -215.03588 
L 681.452308 -218.659799 
L 688.32 -224.18955 
L 695.187692 -216.765205 
L 702.055385 -215.296915 
L 708.923077 -216.296451 
L 715.790769 -220.439849 
L 722.658462 -221.68521 
L 729.526154 -222.496155 
L 736.393846 -212.690344 
L 743.261538 -218.109375 
L 750.129231 -220.124073 
L 756.996923 -223.08575 
L 763.864615 -225.864332 
L 770.732308 -222.973517 
L 777.6 -223.128403 
L 777.6 -223.75613 
L 777.6 -223.75613 
L 770.732308 -223.932356 
L 763.864615 -226.531817 
L 756.996923 -223.180249 
L 750.129231 -220.774641 
L 743.261538 -218.468623 
L 736.393846 -213.42359 
L 729.526154 -223.328016 
L 722.658462 -221.978414 
L 715.790769 -221.322028 
L 708.923077 -216.742332 
L 702.055385 -215.795942 
L 695.187692 -222.734982 
L 688.32 -224.9805 
L 681.452308 -219.347811 
L 674.584615 -215.940569 
L 667.716923 -208.819593 
L 660.849231 -210.603503 
L 653.981538 -215.285282 
L 647.113846 -215.385428 
L 640.246154 -219.537809 
L 633.378462 -213.739866 
L 626.510769 -214.86701 
L 619.643077 -214.881297 
L 612.775385 -214.732583 
L 605.907692 -216.242328 
L 599.04 -213.925365 
L 592.172308 -216.528386 
L 585.304615 -213.810483 
L 578.436923 -217.847379 
L 571.569231 -216.555822 
L 564.701538 -218.174529 
L 557.833846 -207.389072 
L 554.4 -203.328226 
L 547.532308 -205.999705 
L 540.664615 -204.712381 
L 533.796923 -201.345245 
L 526.929231 -211.507238 
L 520.061538 -211.871867 
L 513.193846 -207.429276 
L 506.326154 -206.078994 
L 499.458462 -208.702466 
L 492.590769 -210.746069 
L 485.723077 -212.35223 
L 478.855385 -210.193406 
L 471.987692 -205.451418 
L 465.12 -210.692602 
L 458.252308 -201.03706 
L 451.384615 -202.963761 
L 444.516923 -203.628037 
L 437.649231 -200.558977 
L 430.781538 -196.648819 
L 423.913846 -199.687799 
L 417.046154 -192.623955 
L 410.178462 -195.032951 
L 403.310769 -197.131994 
L 396.443077 -194.872605 
L 389.575385 -191.462935 
L 382.707692 -187.253235 
L 375.84 -188.040287 
L 368.972308 -187.653247 
L 362.104615 -191.990039 
L 355.236923 -190.967562 
L 348.369231 -184.80304 
L 341.501538 -194.621704 
L 334.633846 -193.534159 
L 331.2 -191.844431 
L 324.332308 -208.287385 
L 317.464615 -200.87701 
L 310.596923 -187.901377 
L 303.729231 -187.52176 
L 296.861538 -191.103064 
L 289.993846 -183.200023 
L 283.126154 -181.716254 
L 276.258462 -188.389627 
L 269.390769 -183.176709 
L 262.523077 -185.772337 
L 255.655385 -176.663269 
L 248.787692 -179.375968 
L 241.92 -173.791441 
L 235.052308 -177.573948 
L 228.184615 -180.743355 
L 221.316923 -170.249141 
L 214.449231 -163.637913 
L 207.581538 -159.897275 
L 200.713846 -159.081377 
L 193.846154 -168.621484 
L 186.978462 -163.18669 
L 180.110769 -158.979267 
L 173.243077 -152.866142 
L 166.375385 -161.864077 
L 159.507692 -137.771765 
L 152.64 -140.587418 
L 145.772308 -136.672535 
L 138.904615 -130.675321 
L 132.036923 -127.130577 
L 125.169231 -124.366845 
L 118.301538 -112.55306 
L 111.433846 -101.878104 
L 108 -93.818801 
z
" id="m03bbcede4a" style="stroke:#db5f57;stroke-opacity:0.2;"/>
    </defs>
    <g clip-path="url(#pa6df0f2d97)">
     <use style="fill:#db5f57;fill-opacity:0.2;stroke:#db5f57;stroke-opacity:0.2;" x="0" xlink:href="#m03bbcede4a" y="504"/>
    </g>
   </g>
   <g id="PolyCollection_2">
    <defs>
     <path d="M 108 -184.328101 
L 108 -183.716958 
L 111.433846 -184.287123 
L 118.301538 -185.70634 
L 125.169231 -186.694816 
L 132.036923 -187.90396 
L 138.904615 -188.626292 
L 145.772308 -189.309765 
L 152.64 -190.074467 
L 159.507692 -190.586152 
L 166.375385 -191.633146 
L 173.243077 -192.085075 
L 180.110769 -192.871981 
L 186.978462 -193.893257 
L 193.846154 -195.008226 
L 200.713846 -202.171691 
L 207.581538 -203.952112 
L 214.449231 -205.154975 
L 221.316923 -206.363228 
L 228.184615 -188.026132 
L 235.052308 -189.801691 
L 241.92 -192.533979 
L 248.787692 -202.594061 
L 255.655385 -199.422554 
L 262.523077 -202.217454 
L 269.390769 -206.283502 
L 276.258462 -212.550022 
L 283.126154 -209.038874 
L 331.2 -242.130059 
L 334.633846 -243.329908 
L 341.501538 -244.869234 
L 348.369231 -237.2034 
L 355.236923 -244.712016 
L 362.104615 -247.542456 
L 368.972308 -242.687284 
L 375.84 -243.864053 
L 382.707692 -253.478906 
L 389.575385 -259.784101 
L 396.443077 -264.285473 
L 403.310769 -268.764099 
L 410.178462 -268.921527 
L 417.046154 -268.57822 
L 423.913846 -276.660103 
L 430.781538 -278.55206 
L 437.649231 -278.528095 
L 444.516923 -283.100272 
L 451.384615 -285.741515 
L 458.252308 -283.749237 
L 465.12 -297.543275 
L 471.987692 -292.932485 
L 478.855385 -299.123037 
L 485.723077 -303.289086 
L 492.590769 -302.420728 
L 499.458462 -301.015137 
L 506.326154 -301.919766 
L 513.193846 -303.757569 
L 520.061538 -309.943954 
L 526.929231 -309.760041 
L 533.796923 -305.359166 
L 540.664615 -308.912798 
L 547.532308 -312.091667 
L 554.4 -311.522917 
L 557.833846 -313.987656 
L 564.701538 -326.697324 
L 571.569231 -324.982634 
L 578.436923 -330.105333 
L 585.304615 -340.196254 
L 592.172308 -345.480192 
L 599.04 -344.66182 
L 605.907692 -349.767235 
L 612.775385 -333.811512 
L 619.643077 -334.125504 
L 626.510769 -336.844145 
L 633.378462 -338.345074 
L 640.246154 -345.867598 
L 647.113846 -344.250849 
L 653.981538 -345.979673 
L 660.849231 -345.850357 
L 667.716923 -345.076975 
L 674.584615 -355.620092 
L 681.452308 -361.792209 
L 688.32 -369.951903 
L 695.187692 -364.996328 
L 702.055385 -367.200669 
L 708.923077 -370.541919 
L 715.790769 -378.682548 
L 722.658462 -381.667401 
L 729.526154 -386.39867 
L 736.393846 -378.492008 
L 743.261538 -387.083281 
L 750.129231 -391.65612 
L 756.996923 -396.605379 
L 763.864615 -402.683021 
L 770.732308 -403.339057 
L 777.6 -404.239082 
L 777.6 -405.314244 
L 777.6 -405.314244 
L 770.732308 -409.138135 
L 763.864615 -404.810247 
L 756.996923 -425.88 
L 750.129231 -391.944617 
L 743.261538 -389.405855 
L 736.393846 -380.677829 
L 729.526154 -387.485631 
L 722.658462 -382.395234 
L 715.790769 -379.749017 
L 708.923077 -372.080553 
L 702.055385 -367.668605 
L 695.187692 -366.204863 
L 688.32 -373.05833 
L 681.452308 -377.88392 
L 674.584615 -358.034044 
L 667.716923 -347.219816 
L 660.849231 -347.513659 
L 653.981538 -347.024499 
L 647.113846 -344.848271 
L 640.246154 -347.118115 
L 633.378462 -340.097912 
L 626.510769 -338.048279 
L 619.643077 -336.035847 
L 612.775385 -334.584626 
L 605.907692 -351.947887 
L 599.04 -346.156423 
L 592.172308 -347.680437 
L 585.304615 -342.543939 
L 578.436923 -330.984204 
L 571.569231 -326.325544 
L 564.701538 -327.157973 
L 557.833846 -314.488796 
L 554.4 -312.256219 
L 547.532308 -312.706753 
L 540.664615 -309.241439 
L 533.796923 -307.136902 
L 526.929231 -310.241792 
L 520.061538 -310.384697 
L 513.193846 -303.979756 
L 506.326154 -302.457856 
L 499.458462 -301.558232 
L 492.590769 -303.712653 
L 485.723077 -303.641747 
L 478.855385 -299.44597 
L 471.987692 -293.69703 
L 465.12 -298.24303 
L 458.252308 -284.913471 
L 451.384615 -286.341051 
L 444.516923 -285.834899 
L 437.649231 -279.356386 
L 430.781538 -313.069845 
L 423.913846 -277.084614 
L 417.046154 -269.532409 
L 410.178462 -269.313084 
L 403.310769 -269.299492 
L 396.443077 -264.969891 
L 389.575385 -260.395871 
L 382.707692 -253.884577 
L 375.84 -244.226306 
L 368.972308 -243.032985 
L 362.104615 -248.107943 
L 355.236923 -245.400945 
L 348.369231 -237.399378 
L 341.501538 -245.45746 
L 334.633846 -243.803694 
L 331.2 -242.667796 
L 283.126154 -209.338199 
L 276.258462 -213.272423 
L 269.390769 -207.778967 
L 262.523077 -202.540312 
L 255.655385 -199.783656 
L 248.787692 -202.994905 
L 241.92 -192.686722 
L 235.052308 -190.315215 
L 228.184615 -188.812185 
L 221.316923 -206.784659 
L 214.449231 -205.685237 
L 207.581538 -204.433332 
L 200.713846 -202.41767 
L 193.846154 -195.335053 
L 186.978462 -194.442526 
L 180.110769 -193.405036 
L 173.243077 -192.359822 
L 166.375385 -191.827001 
L 159.507692 -190.932371 
L 152.64 -190.441859 
L 145.772308 -189.469336 
L 138.904615 -189.117856 
L 132.036923 -188.34017 
L 125.169231 -187.359995 
L 118.301538 -185.851232 
L 111.433846 -184.92028 
L 108 -184.328101 
z
" id="m81d265e046" style="stroke:#91db57;stroke-opacity:0.2;"/>
    </defs>
    <g clip-path="url(#pa6df0f2d97)">
     <use style="fill:#91db57;fill-opacity:0.2;stroke:#91db57;stroke-opacity:0.2;" x="0" xlink:href="#m81d265e046" y="504"/>
    </g>
   </g>
   <g id="PolyCollection_3">
    <defs>
     <path d="M 108 -73.390006 
L 108 -73.08 
L 111.433846 -73.777982 
L 118.301538 -75.719396 
L 125.169231 -77.124483 
L 132.036923 -77.229732 
L 138.904615 -78.580281 
L 145.772308 -79.165613 
L 152.64 -80.016029 
L 159.507692 -81.408014 
L 166.375385 -81.834713 
L 173.243077 -81.619524 
L 180.110769 -82.3173 
L 186.978462 -83.257438 
L 193.846154 -84.455547 
L 200.713846 -85.289388 
L 207.581538 -85.858963 
L 214.449231 -85.160163 
L 221.316923 -85.694473 
L 228.184615 -86.658563 
L 235.052308 -87.143408 
L 241.92 -88.423778 
L 248.787692 -87.966928 
L 255.655385 -87.666233 
L 262.523077 -87.699525 
L 269.390769 -87.936219 
L 276.258462 -88.387528 
L 283.126154 -88.133169 
L 289.993846 -88.491561 
L 296.861538 -88.427617 
L 303.729231 -89.104527 
L 310.596923 -89.990865 
L 317.464615 -89.754241 
L 324.332308 -90.844572 
L 331.2 -89.563902 
L 334.633846 -90.50155 
L 341.501538 -89.353834 
L 348.369231 -93.169135 
L 355.236923 -91.717202 
L 362.104615 -91.81601 
L 368.972308 -92.439095 
L 375.84 -91.262232 
L 382.707692 -92.560841 
L 389.575385 -92.455626 
L 396.443077 -93.285978 
L 403.310769 -93.519036 
L 410.178462 -94.215686 
L 417.046154 -93.777603 
L 423.913846 -94.138396 
L 430.781538 -94.182062 
L 437.649231 -94.725844 
L 444.516923 -95.134944 
L 451.384615 -94.973414 
L 458.252308 -95.552285 
L 465.12 -95.795013 
L 471.987692 -95.500016 
L 478.855385 -95.690313 
L 485.723077 -97.091658 
L 492.590769 -97.247026 
L 499.458462 -97.530889 
L 506.326154 -97.671425 
L 513.193846 -97.862763 
L 520.061538 -98.215191 
L 526.929231 -98.162632 
L 533.796923 -97.529749 
L 540.664615 -97.02157 
L 547.532308 -96.766586 
L 554.4 -96.576296 
L 557.833846 -96.50875 
L 564.701538 -97.707725 
L 571.569231 -97.402907 
L 578.436923 -98.281559 
L 585.304615 -98.25637 
L 592.172308 -98.595051 
L 599.04 -98.488922 
L 605.907692 -98.502214 
L 612.775385 -97.301907 
L 619.643077 -97.933013 
L 626.510769 -98.578596 
L 633.378462 -98.147346 
L 640.246154 -99.285696 
L 647.113846 -99.998346 
L 653.981538 -100.601324 
L 660.849231 -100.394287 
L 667.716923 -101.044623 
L 674.584615 -102.317411 
L 681.452308 -102.514178 
L 688.32 -102.798259 
L 695.187692 -102.902164 
L 702.055385 -103.803519 
L 708.923077 -104.155306 
L 715.790769 -103.253656 
L 722.658462 -102.938969 
L 729.526154 -103.425457 
L 736.393846 -104.016463 
L 743.261538 -105.212346 
L 750.129231 -105.773346 
L 756.996923 -105.914054 
L 763.864615 -106.338044 
L 770.732308 -106.842626 
L 777.6 -106.546825 
L 777.6 -106.654491 
L 777.6 -106.654491 
L 770.732308 -106.990453 
L 763.864615 -106.703793 
L 756.996923 -106.199439 
L 750.129231 -105.825226 
L 743.261538 -105.548795 
L 736.393846 -104.161827 
L 729.526154 -103.661112 
L 722.658462 -103.03099 
L 715.790769 -103.426187 
L 708.923077 -104.322181 
L 702.055385 -103.997094 
L 695.187692 -102.998481 
L 688.32 -102.878106 
L 681.452308 -102.644095 
L 674.584615 -102.465583 
L 667.716923 -101.111239 
L 660.849231 -100.676429 
L 653.981538 -100.828124 
L 647.113846 -100.043094 
L 640.246154 -99.866921 
L 633.378462 -98.46498 
L 626.510769 -98.672178 
L 619.643077 -98.211439 
L 612.775385 -97.404695 
L 605.907692 -98.70145 
L 599.04 -98.69314 
L 592.172308 -98.769719 
L 585.304615 -98.41502 
L 578.436923 -98.538169 
L 571.569231 -97.540936 
L 564.701538 -97.990115 
L 557.833846 -96.65439 
L 554.4 -96.845357 
L 547.532308 -97.144653 
L 540.664615 -97.187669 
L 533.796923 -97.704943 
L 526.929231 -98.310354 
L 520.061538 -98.378759 
L 513.193846 -98.029939 
L 506.326154 -97.772764 
L 499.458462 -97.630555 
L 492.590769 -97.442972 
L 485.723077 -97.195044 
L 478.855385 -95.736745 
L 471.987692 -95.58879 
L 465.12 -95.80553 
L 458.252308 -95.762546 
L 451.384615 -95.057584 
L 444.516923 -95.355304 
L 437.649231 -94.775261 
L 430.781538 -94.392335 
L 423.913846 -94.415658 
L 417.046154 -93.807082 
L 410.178462 -94.478209 
L 403.310769 -93.62356 
L 396.443077 -93.399636 
L 389.575385 -92.555769 
L 382.707692 -92.594959 
L 375.84 -91.503415 
L 368.972308 -92.681013 
L 362.104615 -91.98121 
L 355.236923 -95.210188 
L 348.369231 -98.858981 
L 341.501538 -90.045542 
L 334.633846 -90.627606 
L 331.2 -89.792236 
L 324.332308 -90.940099 
L 317.464615 -89.821714 
L 310.596923 -90.145749 
L 303.729231 -89.209142 
L 296.861538 -88.575256 
L 289.993846 -88.572898 
L 283.126154 -88.272191 
L 276.258462 -88.490912 
L 269.390769 -88.021137 
L 262.523077 -87.779787 
L 255.655385 -87.738082 
L 248.787692 -88.064675 
L 241.92 -88.523297 
L 235.052308 -87.359266 
L 228.184615 -86.700186 
L 221.316923 -85.814356 
L 214.449231 -85.213064 
L 207.581538 -85.946499 
L 200.713846 -85.530505 
L 193.846154 -84.505992 
L 186.978462 -83.294502 
L 180.110769 -83.006781 
L 173.243077 -81.768554 
L 166.375385 -81.857495 
L 159.507692 -81.497811 
L 152.64 -80.117407 
L 145.772308 -79.236093 
L 138.904615 -78.63112 
L 132.036923 -77.271977 
L 125.169231 -77.185952 
L 118.301538 -75.793906 
L 111.433846 -73.825587 
L 108 -73.390006 
z
" id="m646569d50d" style="stroke:#57d3db;stroke-opacity:0.2;"/>
    </defs>
    <g clip-path="url(#pa6df0f2d97)">
     <use style="fill:#57d3db;fill-opacity:0.2;stroke:#57d3db;stroke-opacity:0.2;" x="0" xlink:href="#m646569d50d" y="504"/>
    </g>
   </g>
   <g id="PolyCollection_4">
    <defs>
     <path d="M 108 -84.565121 
L 108 -84.144327 
L 111.433846 -84.299673 
L 118.301538 -84.43951 
L 125.169231 -84.59467 
L 132.036923 -85.287665 
L 138.904615 -85.845152 
L 145.772308 -86.09466 
L 152.64 -86.334815 
L 159.507692 -86.696989 
L 166.375385 -87.055991 
L 173.243077 -87.41707 
L 180.110769 -87.693034 
L 186.978462 -87.783346 
L 193.846154 -89.317275 
L 200.713846 -91.900772 
L 207.581538 -93.497595 
L 214.449231 -94.050247 
L 221.316923 -95.09079 
L 228.184615 -97.089593 
L 235.052308 -97.946898 
L 241.92 -99.687078 
L 248.787692 -100.365026 
L 255.655385 -100.428281 
L 262.523077 -101.07483 
L 269.390769 -101.759087 
L 276.258462 -103.073551 
L 283.126154 -102.994982 
L 289.993846 -110.125424 
L 296.861538 -110.67703 
L 303.729231 -111.957836 
L 310.596923 -113.320099 
L 317.464615 -113.872301 
L 324.332308 -115.267998 
L 331.2 -115.012268 
L 334.633846 -116.410085 
L 341.501538 -115.951733 
L 348.369231 -118.538755 
L 355.236923 -118.942041 
L 362.104615 -119.511924 
L 368.972308 -121.010632 
L 375.84 -120.563241 
L 382.707692 -127.597203 
L 389.575385 -128.418696 
L 396.443077 -130.02652 
L 403.310769 -131.024742 
L 410.178462 -132.483179 
L 417.046154 -132.428493 
L 423.913846 -133.786186 
L 430.781538 -134.366379 
L 437.649231 -135.591027 
L 444.516923 -136.638271 
L 451.384615 -137.230218 
L 458.252308 -138.569332 
L 465.12 -139.566786 
L 471.987692 -140.026452 
L 478.855385 -140.965396 
L 485.723077 -143.342392 
L 492.590769 -144.411089 
L 499.458462 -145.810696 
L 506.326154 -146.438398 
L 513.193846 -147.562388 
L 520.061538 -148.525808 
L 526.929231 -149.580224 
L 533.796923 -150.853466 
L 540.664615 -151.280901 
L 547.532308 -152.266764 
L 554.4 -152.711472 
L 557.833846 -151.029653 
L 564.701538 -153.769351 
L 571.569231 -154.800786 
L 578.436923 -156.768301 
L 585.304615 -162.746555 
L 592.172308 -164.616328 
L 599.04 -164.949275 
L 605.907692 -166.233625 
L 612.775385 -158.313458 
L 619.643077 -160.268526 
L 626.510769 -161.472875 
L 633.378462 -162.158897 
L 640.246154 -163.534764 
L 647.113846 -165.301434 
L 653.981538 -167.79685 
L 660.849231 -168.945901 
L 667.716923 -170.245329 
L 674.584615 -174.00737 
L 681.452308 -174.889655 
L 688.32 -176.631543 
L 695.187692 -177.765175 
L 702.055385 -180.477595 
L 708.923077 -182.070124 
L 715.790769 -182.857108 
L 722.658462 -183.74627 
L 729.526154 -186.038572 
L 736.393846 -187.599011 
L 743.261538 -190.215704 
L 750.129231 -191.697028 
L 756.996923 -194.016722 
L 763.864615 -194.879311 
L 770.732308 -197.513059 
L 777.6 -197.93365 
L 777.6 -198.636273 
L 777.6 -198.636273 
L 770.732308 -197.859386 
L 763.864615 -200.350661 
L 756.996923 -194.264969 
L 750.129231 -191.888599 
L 743.261538 -190.414248 
L 736.393846 -187.908878 
L 729.526154 -186.133051 
L 722.658462 -184.050524 
L 715.790769 -183.036193 
L 708.923077 -182.194971 
L 702.055385 -180.73877 
L 695.187692 -177.896141 
L 688.32 -176.926136 
L 681.452308 -175.13251 
L 674.584615 -178.55077 
L 667.716923 -183.125748 
L 660.849231 -169.271286 
L 653.981538 -168.152732 
L 647.113846 -165.648716 
L 640.246154 -166.497181 
L 633.378462 -162.624777 
L 626.510769 -161.525361 
L 619.643077 -160.452889 
L 612.775385 -158.704704 
L 605.907692 -166.510511 
L 599.04 -165.218086 
L 592.172308 -164.941758 
L 585.304615 -163.027421 
L 578.436923 -157.018238 
L 571.569231 -155.43564 
L 564.701538 -154.032635 
L 557.833846 -151.325973 
L 554.4 -155.379354 
L 547.532308 -154.800731 
L 540.664615 -151.352308 
L 533.796923 -151.121697 
L 526.929231 -149.918059 
L 520.061538 -149.014301 
L 513.193846 -148.2736 
L 506.326154 -150.822802 
L 499.458462 -159.136479 
L 492.590769 -144.916582 
L 485.723077 -144.13067 
L 478.855385 -142.034723 
L 471.987692 -140.909608 
L 465.12 -140.625083 
L 458.252308 -139.499144 
L 451.384615 -138.150258 
L 444.516923 -137.598259 
L 437.649231 -137.60228 
L 430.781538 -135.350697 
L 423.913846 -134.50511 
L 417.046154 -133.401063 
L 410.178462 -134.456771 
L 403.310769 -131.767641 
L 396.443077 -130.524967 
L 389.575385 -129.042728 
L 382.707692 -128.2631 
L 375.84 -121.214979 
L 368.972308 -121.621129 
L 362.104615 -120.03551 
L 355.236923 -119.451801 
L 348.369231 -118.632907 
L 341.501538 -116.095665 
L 334.633846 -116.65053 
L 331.2 -115.345632 
L 324.332308 -115.816787 
L 317.464615 -114.321923 
L 310.596923 -113.690243 
L 303.729231 -112.376229 
L 296.861538 -111.210213 
L 289.993846 -110.520163 
L 283.126154 -103.231671 
L 276.258462 -103.394051 
L 269.390769 -102.226998 
L 262.523077 -101.573812 
L 255.655385 -100.587483 
L 248.787692 -100.583075 
L 241.92 -99.737773 
L 235.052308 -98.286718 
L 228.184615 -97.163338 
L 221.316923 -95.336231 
L 214.449231 -94.271629 
L 207.581538 -93.831967 
L 200.713846 -92.745742 
L 193.846154 -89.517684 
L 186.978462 -88.043303 
L 180.110769 -90.049492 
L 173.243077 -87.462202 
L 166.375385 -87.20903 
L 159.507692 -86.827885 
L 152.64 -86.539142 
L 145.772308 -86.254191 
L 138.904615 -85.917195 
L 132.036923 -85.49583 
L 125.169231 -85.084257 
L 118.301538 -84.942325 
L 111.433846 -84.8466 
L 108 -84.565121 
z
" id="m1ad660abce" style="stroke:#a157db;stroke-opacity:0.2;"/>
    </defs>
    <g clip-path="url(#pa6df0f2d97)">
     <use style="fill:#a157db;fill-opacity:0.2;stroke:#a157db;stroke-opacity:0.2;" x="0" xlink:href="#m1ad660abce" y="504"/>
    </g>
   </g>
   <g id="line2d_14">
    <path clip-path="url(#pa6df0f2d97)" d="M 108 410.452006 
L 111.433846 402.668539 
L 118.301538 391.574688 
L 125.169231 379.804432 
L 132.036923 377.009946 
L 138.904615 373.405992 
L 145.772308 367.496648 
L 152.64 363.590142 
L 159.507692 366.562396 
L 166.375385 342.428421 
L 173.243077 351.312424 
L 180.110769 345.108638 
L 186.978462 340.906103 
L 193.846154 336.517936 
L 200.713846 344.996122 
L 207.581538 344.24017 
L 214.449231 340.535432 
L 221.316923 335.500957 
L 228.184615 323.453758 
L 235.052308 326.542536 
L 241.92 330.34289 
L 248.787692 324.725712 
L 255.655385 327.458616 
L 262.523077 318.473103 
L 269.390769 321.001828 
L 276.258462 315.783068 
L 283.126154 322.32255 
L 289.993846 320.875847 
L 296.861538 313.545464 
L 303.729231 316.552614 
L 310.596923 316.232458 
L 317.464615 310.401119 
L 324.332308 306.41403 
L 331.2 312.375699 
L 334.633846 310.722736 
L 341.501538 309.762044 
L 348.369231 319.550392 
L 355.236923 313.175587 
L 362.104615 312.319933 
L 368.972308 316.506744 
L 375.84 316.418405 
L 382.707692 317.166175 
L 389.575385 312.719359 
L 396.443077 309.50035 
L 403.310769 307.021318 
L 410.178462 309.145956 
L 417.046154 311.626476 
L 423.913846 304.470198 
L 430.781538 307.447517 
L 437.649231 303.626181 
L 444.516923 301.033896 
L 451.384615 301.324234 
L 458.252308 303.199527 
L 465.12 293.490711 
L 471.987692 298.818705 
L 478.855385 294.055606 
L 485.723077 291.802199 
L 492.590769 293.764815 
L 499.458462 295.682396 
L 506.326154 298.140862 
L 513.193846 296.713062 
L 520.061538 292.401221 
L 526.929231 293.323995 
L 533.796923 302.952179 
L 540.664615 299.739633 
L 547.532308 298.346101 
L 554.4 300.98247 
L 557.833846 296.912404 
L 564.701538 286.030724 
L 571.569231 288.397452 
L 578.436923 286.490002 
L 585.304615 290.444212 
L 592.172308 287.722486 
L 599.04 290.271889 
L 605.907692 287.933443 
L 612.775385 289.772615 
L 619.643077 289.759503 
L 626.510769 289.454597 
L 633.378462 290.467882 
L 640.246154 284.614935 
L 647.113846 288.735511 
L 653.981538 289.06603 
L 660.849231 293.525982 
L 667.716923 295.462793 
L 674.584615 288.568589 
L 681.452308 284.961176 
L 688.32 279.391343 
L 695.187692 285.181995 
L 702.055385 288.45586 
L 708.923077 287.480608 
L 715.790769 283.170103 
L 722.658462 282.168193 
L 729.526154 280.991617 
L 736.393846 290.943033 
L 743.261538 285.687447 
L 750.129231 283.550643 
L 756.996923 280.867 
L 763.864615 277.826678 
L 770.732308 280.547064 
L 777.6 280.505003 
" style="fill:none;stroke:#db5f57;stroke-linecap:round;stroke-width:1.5;"/>
   </g>
   <g id="line2d_15">
    <path clip-path="url(#pa6df0f2d97)" d="M 108 319.998141 
L 111.433846 319.359742 
L 118.301538 318.203338 
L 125.169231 316.976308 
L 132.036923 315.877935 
L 138.904615 315.18916 
L 145.772308 314.61045 
L 152.64 313.761131 
L 159.507692 313.222633 
L 166.375385 312.269927 
L 173.243077 311.777551 
L 180.110769 310.861492 
L 186.978462 309.85954 
L 193.846154 308.808849 
L 200.713846 301.705319 
L 207.581538 299.804549 
L 214.449231 298.602283 
L 221.316923 297.467588 
L 228.184615 315.580841 
L 235.052308 313.941547 
L 241.92 311.389649 
L 248.787692 301.205517 
L 255.655385 304.40642 
L 262.523077 301.640822 
L 269.390769 297.137725 
L 276.258462 291.130878 
L 283.126154 294.814674 
L 331.2 261.601073 
L 334.633846 260.433199 
L 341.501538 258.780085 
L 348.369231 266.691043 
L 355.236923 258.906705 
L 362.104615 256.176845 
L 368.972308 261.120014 
L 375.84 259.975819 
L 382.707692 250.350382 
L 389.575385 243.944553 
L 396.443077 239.33016 
L 403.310769 234.9427 
L 410.178462 234.882695 
L 417.046154 234.969883 
L 423.913846 227.159718 
L 430.781538 211.98481 
L 437.649231 224.97541 
L 444.516923 219.610807 
L 451.384615 217.949241 
L 458.252308 219.668646 
L 465.12 206.052666 
L 471.987692 210.685242 
L 478.855385 204.712308 
L 485.723077 200.534584 
L 492.590769 200.893959 
L 499.458462 202.713316 
L 506.326154 201.822314 
L 513.193846 200.141728 
L 520.061538 193.843674 
L 526.929231 193.984036 
L 533.796923 197.844161 
L 540.664615 194.964629 
L 547.532308 191.641935 
L 554.4 192.084239 
L 557.833846 189.780757 
L 564.701538 177.106287 
L 571.569231 178.483989 
L 578.436923 173.477262 
L 585.304615 162.637405 
L 592.172308 157.41388 
L 599.04 158.590879 
L 605.907692 152.893938 
L 612.775385 169.804144 
L 619.643077 168.993667 
L 626.510769 166.555322 
L 633.378462 164.867962 
L 640.246154 157.494421 
L 647.113846 159.499941 
L 653.981538 157.497914 
L 660.849231 157.315927 
L 667.716923 157.85283 
L 674.584615 147.208347 
L 681.452308 136.62769 
L 688.32 132.887972 
L 695.187692 138.489937 
L 702.055385 136.565363 
L 708.923077 132.688764 
L 715.790769 124.919292 
L 722.658462 121.986209 
L 729.526154 117.05785 
L 736.393846 124.415081 
L 743.261538 115.586278 
L 750.129231 112.199631 
L 756.996923 97.537838 
L 763.864615 100.332679 
L 770.732308 98.070768 
L 777.6 99.294027 
" style="fill:none;stroke:#91db57;stroke-linecap:round;stroke-width:1.5;"/>
   </g>
   <g id="line2d_16">
    <path clip-path="url(#pa6df0f2d97)" d="M 108 430.773632 
L 111.433846 430.198216 
L 118.301538 428.238163 
L 125.169231 426.843008 
L 132.036923 426.750779 
L 138.904615 425.396837 
L 145.772308 424.797079 
L 152.64 423.93081 
L 159.507692 422.555115 
L 166.375385 422.153846 
L 173.243077 422.304993 
L 180.110769 421.41622 
L 186.978462 420.722284 
L 193.846154 419.519231 
L 200.713846 418.581431 
L 207.581538 418.095759 
L 214.449231 418.816481 
L 221.316923 418.243504 
L 228.184615 417.314651 
L 235.052308 416.771492 
L 241.92 415.512551 
L 248.787692 415.984199 
L 255.655385 416.291635 
L 262.523077 416.2568 
L 269.390769 416.015573 
L 276.258462 415.559362 
L 283.126154 415.809679 
L 289.993846 415.462347 
L 296.861538 415.500002 
L 303.729231 414.8404 
L 310.596923 413.936496 
L 317.464615 414.211892 
L 324.332308 413.096618 
L 331.2 414.353487 
L 334.633846 413.435422 
L 341.501538 414.40665 
L 348.369231 407.883494 
L 355.236923 410.908507 
L 362.104615 412.10139 
L 368.972308 411.450935 
L 375.84 412.608076 
L 382.707692 411.423486 
L 389.575385 411.502535 
L 396.443077 410.642126 
L 403.310769 410.417197 
L 410.178462 409.656702 
L 417.046154 410.203794 
L 423.913846 409.754672 
L 430.781538 409.735793 
L 437.649231 409.246704 
L 444.516923 408.751147 
L 451.384615 408.97639 
L 458.252308 408.334983 
L 465.12 408.199728 
L 471.987692 408.457086 
L 478.855385 408.286471 
L 485.723077 406.856649 
L 492.590769 406.655312 
L 499.458462 406.42012 
L 506.326154 406.288417 
L 513.193846 406.04768 
L 520.061538 405.69592 
L 526.929231 405.7739 
L 533.796923 406.387586 
L 540.664615 406.888657 
L 547.532308 407.07062 
L 554.4 407.289349 
L 557.833846 407.416955 
L 564.701538 406.188281 
L 571.569231 406.523502 
L 578.436923 405.614198 
L 585.304615 405.654029 
L 592.172308 405.328284 
L 599.04 405.408969 
L 605.907692 405.426281 
L 612.775385 406.646699 
L 619.643077 405.959704 
L 626.510769 405.374564 
L 633.378462 405.724296 
L 640.246154 404.503543 
L 647.113846 403.97928 
L 653.981538 403.310485 
L 660.849231 403.469875 
L 667.716923 402.921085 
L 674.584615 401.608503 
L 681.452308 401.426195 
L 688.32 401.168919 
L 695.187692 401.044817 
L 702.055385 400.099693 
L 708.923077 399.757559 
L 715.790769 400.674579 
L 722.658462 401.015129 
L 729.526154 400.464301 
L 736.393846 399.913909 
L 743.261538 398.669176 
L 750.129231 398.207094 
L 756.996923 397.95177 
L 763.864615 397.487383 
L 770.732308 397.103865 
L 777.6 397.399342 
" style="fill:none;stroke:#57d3db;stroke-linecap:round;stroke-width:1.5;"/>
   </g>
   <g id="line2d_17">
    <path clip-path="url(#pa6df0f2d97)" d="M 108 419.644953 
L 111.433846 419.426863 
L 118.301538 419.309083 
L 125.169231 419.160537 
L 132.036923 418.597476 
L 138.904615 418.125204 
L 145.772308 417.829917 
L 152.64 417.563021 
L 159.507692 417.23717 
L 166.375385 416.86258 
L 173.243077 416.566798 
L 180.110769 415.484314 
L 186.978462 416.095311 
L 193.846154 414.559577 
L 200.713846 411.625183 
L 207.581538 410.353266 
L 214.449231 409.82593 
L 221.316923 408.785209 
L 228.184615 406.879791 
L 235.052308 405.882857 
L 241.92 404.287575 
L 248.787692 403.525949 
L 255.655385 403.485393 
L 262.523077 402.675679 
L 269.390769 402.006957 
L 276.258462 400.77716 
L 283.126154 400.886674 
L 289.993846 393.699293 
L 296.861538 393.040648 
L 303.729231 391.832968 
L 310.596923 390.494829 
L 317.464615 389.899944 
L 324.332308 388.457608 
L 331.2 388.83888 
L 334.633846 387.469692 
L 341.501538 387.990659 
L 348.369231 385.411499 
L 355.236923 384.803716 
L 362.104615 384.226283 
L 368.972308 382.65464 
L 375.84 383.125321 
L 382.707692 376.069849 
L 389.575385 375.269288 
L 396.443077 373.724257 
L 403.310769 372.603809 
L 410.178462 370.693015 
L 417.046154 371.085222 
L 423.913846 369.839306 
L 430.781538 369.131589 
L 437.649231 367.521222 
L 444.516923 366.881735 
L 451.384615 366.334064 
L 458.252308 364.965762 
L 465.12 363.904066 
L 471.987692 363.53197 
L 478.855385 362.49994 
L 485.723077 360.220239 
L 492.590769 359.33976 
L 499.458462 353.021985 
L 506.326154 355.90847 
L 513.193846 356.130939 
L 520.061538 355.19112 
L 526.929231 354.247392 
L 533.796923 353.030098 
L 540.664615 352.683395 
L 547.532308 350.639725 
L 554.4 350.382302 
L 557.833846 352.822187 
L 564.701538 350.100931 
L 571.569231 348.938069 
L 578.436923 347.135286 
L 585.304615 341.157647 
L 592.172308 339.268435 
L 599.04 338.919449 
L 605.907692 337.603365 
L 612.775385 345.529768 
L 619.643077 343.637574 
L 626.510769 342.50609 
L 633.378462 341.565449 
L 640.246154 339.396956 
L 647.113846 338.524925 
L 653.981538 335.983471 
L 660.849231 334.877638 
L 667.716923 329.424123 
L 674.584615 328.338732 
L 681.452308 328.988917 
L 688.32 327.201123 
L 695.187692 326.169342 
L 702.055385 323.384653 
L 708.923077 321.867453 
L 715.790769 321.034277 
L 722.658462 320.119654 
L 729.526154 317.902081 
L 736.393846 316.278215 
L 743.261538 313.685024 
L 750.129231 312.207186 
L 756.996923 309.859155 
L 763.864615 306.385014 
L 770.732308 306.302086 
L 777.6 305.708564 
" style="fill:none;stroke:#a157db;stroke-linecap:round;stroke-width:1.5;"/>
   </g>
   <g id="line2d_18"/>
   <g id="line2d_19"/>
   <g id="line2d_20"/>
   <g id="line2d_21"/>
   <g id="patch_3">
    <path d="M 108 448.56 
L 108 60.48 
" style="fill:none;stroke:#ffffff;stroke-linecap:square;stroke-linejoin:miter;stroke-width:0.8;"/>
   </g>
   <g id="patch_4">
    <path d="M 777.6 448.56 
L 777.6 60.48 
" style="fill:none;stroke:#ffffff;stroke-linecap:square;stroke-linejoin:miter;stroke-width:0.8;"/>
   </g>
   <g id="patch_5">
    <path d="M 108 448.56 
L 777.6 448.56 
" style="fill:none;stroke:#ffffff;stroke-linecap:square;stroke-linejoin:miter;stroke-width:0.8;"/>
   </g>
   <g id="patch_6">
    <path d="M 108 60.48 
L 777.6 60.48 
" style="fill:none;stroke:#ffffff;stroke-linecap:square;stroke-linejoin:miter;stroke-width:0.8;"/>
   </g>
   <g id="text_16">
    <!-- Time performances comparison -->
    <g style="fill:#262626;" transform="translate(316.02625 54.48)scale(0.16 -0.16)">
     <defs>
      <path d="M -0.296875 72.90625 
L 61.375 72.90625 
L 61.375 64.59375 
L 35.5 64.59375 
L 35.5 0 
L 25.59375 0 
L 25.59375 64.59375 
L -0.296875 64.59375 
z
" id="DejaVuSans-84"/>
      <path d="M 18.109375 8.203125 
L 18.109375 -20.796875 
L 9.078125 -20.796875 
L 9.078125 54.6875 
L 18.109375 54.6875 
L 18.109375 46.390625 
Q 20.953125 51.265625 25.265625 53.625 
Q 29.59375 56 35.59375 56 
Q 45.5625 56 51.78125 48.09375 
Q 58.015625 40.1875 58.015625 27.296875 
Q 58.015625 14.40625 51.78125 6.484375 
Q 45.5625 -1.421875 35.59375 -1.421875 
Q 29.59375 -1.421875 25.265625 0.953125 
Q 20.953125 3.328125 18.109375 8.203125 
z
M 48.6875 27.296875 
Q 48.6875 37.203125 44.609375 42.84375 
Q 40.53125 48.484375 33.40625 48.484375 
Q 26.265625 48.484375 22.1875 42.84375 
Q 18.109375 37.203125 18.109375 27.296875 
Q 18.109375 17.390625 22.1875 11.75 
Q 26.265625 6.109375 33.40625 6.109375 
Q 40.53125 6.109375 44.609375 11.75 
Q 48.6875 17.390625 48.6875 27.296875 
z
" id="DejaVuSans-112"/>
      <path d="M 37.109375 75.984375 
L 37.109375 68.5 
L 28.515625 68.5 
Q 23.6875 68.5 21.796875 66.546875 
Q 19.921875 64.59375 19.921875 59.515625 
L 19.921875 54.6875 
L 34.71875 54.6875 
L 34.71875 47.703125 
L 19.921875 47.703125 
L 19.921875 0 
L 10.890625 0 
L 10.890625 47.703125 
L 2.296875 47.703125 
L 2.296875 54.6875 
L 10.890625 54.6875 
L 10.890625 58.5 
Q 10.890625 67.625 15.140625 71.796875 
Q 19.390625 75.984375 28.609375 75.984375 
z
" id="DejaVuSans-102"/>
      <path d="M 54.890625 33.015625 
L 54.890625 0 
L 45.90625 0 
L 45.90625 32.71875 
Q 45.90625 40.484375 42.875 44.328125 
Q 39.84375 48.1875 33.796875 48.1875 
Q 26.515625 48.1875 22.3125 43.546875 
Q 18.109375 38.921875 18.109375 30.90625 
L 18.109375 0 
L 9.078125 0 
L 9.078125 54.6875 
L 18.109375 54.6875 
L 18.109375 46.1875 
Q 21.34375 51.125 25.703125 53.5625 
Q 30.078125 56 35.796875 56 
Q 45.21875 56 50.046875 50.171875 
Q 54.890625 44.34375 54.890625 33.015625 
z
" id="DejaVuSans-110"/>
     </defs>
     <use xlink:href="#DejaVuSans-84"/>
     <use x="57.958984" xlink:href="#DejaVuSans-105"/>
     <use x="85.742188" xlink:href="#DejaVuSans-109"/>
     <use x="183.154297" xlink:href="#DejaVuSans-101"/>
     <use x="244.677734" xlink:href="#DejaVuSans-32"/>
     <use x="276.464844" xlink:href="#DejaVuSans-112"/>
     <use x="339.941406" xlink:href="#DejaVuSans-101"/>
     <use x="401.464844" xlink:href="#DejaVuSans-114"/>
     <use x="442.578125" xlink:href="#DejaVuSans-102"/>
     <use x="477.783203" xlink:href="#DejaVuSans-111"/>
     <use x="538.964844" xlink:href="#DejaVuSans-114"/>
     <use x="578.328125" xlink:href="#DejaVuSans-109"/>
     <use x="675.740234" xlink:href="#DejaVuSans-97"/>
     <use x="737.019531" xlink:href="#DejaVuSans-110"/>
     <use x="800.398438" xlink:href="#DejaVuSans-99"/>
     <use x="855.378906" xlink:href="#DejaVuSans-101"/>
     <use x="916.902344" xlink:href="#DejaVuSans-115"/>
     <use x="969.001953" xlink:href="#DejaVuSans-32"/>
     <use x="1000.789062" xlink:href="#DejaVuSans-99"/>
     <use x="1055.769531" xlink:href="#DejaVuSans-111"/>
     <use x="1116.951172" xlink:href="#DejaVuSans-109"/>
     <use x="1214.363281" xlink:href="#DejaVuSans-112"/>
     <use x="1277.839844" xlink:href="#DejaVuSans-97"/>
     <use x="1339.119141" xlink:href="#DejaVuSans-114"/>
     <use x="1380.232422" xlink:href="#DejaVuSans-105"/>
     <use x="1408.015625" xlink:href="#DejaVuSans-115"/>
     <use x="1460.115234" xlink:href="#DejaVuSans-111"/>
     <use x="1521.296875" xlink:href="#DejaVuSans-110"/>
    </g>
   </g>
   <g id="legend_1">
    <g id="patch_7">
     <path d="M 116.4 140.535 
L 287.761875 140.535 
Q 290.161875 140.535 290.161875 138.135 
L 290.161875 68.88 
Q 290.161875 66.48 287.761875 66.48 
L 116.4 66.48 
Q 114 66.48 114 68.88 
L 114 138.135 
Q 114 140.535 116.4 140.535 
z
" style="fill:#eaeaf2;opacity:0.8;stroke:#cccccc;stroke-linejoin:miter;"/>
    </g>
    <g id="line2d_22">
     <path d="M 118.8 76.198125 
L 142.8 76.198125 
" style="fill:none;stroke:#db5f57;stroke-linecap:round;stroke-width:1.5;"/>
    </g>
    <g id="line2d_23"/>
    <g id="text_17">
     <!-- LLE (whole data set) -->
     <g style="fill:#262626;" transform="translate(152.4 80.398125)scale(0.12 -0.12)">
      <defs>
       <path d="M 9.8125 72.90625 
L 19.671875 72.90625 
L 19.671875 8.296875 
L 55.171875 8.296875 
L 55.171875 0 
L 9.8125 0 
z
" id="DejaVuSans-76"/>
       <path d="M 9.8125 72.90625 
L 55.90625 72.90625 
L 55.90625 64.59375 
L 19.671875 64.59375 
L 19.671875 43.015625 
L 54.390625 43.015625 
L 54.390625 34.71875 
L 19.671875 34.71875 
L 19.671875 8.296875 
L 56.78125 8.296875 
L 56.78125 0 
L 9.8125 0 
z
" id="DejaVuSans-69"/>
       <path d="M 31 75.875 
Q 24.46875 64.65625 21.28125 53.65625 
Q 18.109375 42.671875 18.109375 31.390625 
Q 18.109375 20.125 21.3125 9.0625 
Q 24.515625 -2 31 -13.1875 
L 23.1875 -13.1875 
Q 15.875 -1.703125 12.234375 9.375 
Q 8.59375 20.453125 8.59375 31.390625 
Q 8.59375 42.28125 12.203125 53.3125 
Q 15.828125 64.359375 23.1875 75.875 
z
" id="DejaVuSans-40"/>
       <path d="M 4.203125 54.6875 
L 13.1875 54.6875 
L 24.421875 12.015625 
L 35.59375 54.6875 
L 46.1875 54.6875 
L 57.421875 12.015625 
L 68.609375 54.6875 
L 77.59375 54.6875 
L 63.28125 0 
L 52.6875 0 
L 40.921875 44.828125 
L 29.109375 0 
L 18.5 0 
z
" id="DejaVuSans-119"/>
       <path d="M 45.40625 46.390625 
L 45.40625 75.984375 
L 54.390625 75.984375 
L 54.390625 0 
L 45.40625 0 
L 45.40625 8.203125 
Q 42.578125 3.328125 38.25 0.953125 
Q 33.9375 -1.421875 27.875 -1.421875 
Q 17.96875 -1.421875 11.734375 6.484375 
Q 5.515625 14.40625 5.515625 27.296875 
Q 5.515625 40.1875 11.734375 48.09375 
Q 17.96875 56 27.875 56 
Q 33.9375 56 38.25 53.625 
Q 42.578125 51.265625 45.40625 46.390625 
z
M 14.796875 27.296875 
Q 14.796875 17.390625 18.875 11.75 
Q 22.953125 6.109375 30.078125 6.109375 
Q 37.203125 6.109375 41.296875 11.75 
Q 45.40625 17.390625 45.40625 27.296875 
Q 45.40625 37.203125 41.296875 42.84375 
Q 37.203125 48.484375 30.078125 48.484375 
Q 22.953125 48.484375 18.875 42.84375 
Q 14.796875 37.203125 14.796875 27.296875 
z
" id="DejaVuSans-100"/>
       <path d="M 8.015625 75.875 
L 15.828125 75.875 
Q 23.140625 64.359375 26.78125 53.3125 
Q 30.421875 42.28125 30.421875 31.390625 
Q 30.421875 20.453125 26.78125 9.375 
Q 23.140625 -1.703125 15.828125 -13.1875 
L 8.015625 -13.1875 
Q 14.5 -2 17.703125 9.0625 
Q 20.90625 20.125 20.90625 31.390625 
Q 20.90625 42.671875 17.703125 53.65625 
Q 14.5 64.65625 8.015625 75.875 
z
" id="DejaVuSans-41"/>
      </defs>
      <use xlink:href="#DejaVuSans-76"/>
      <use x="55.712891" xlink:href="#DejaVuSans-76"/>
      <use x="111.425781" xlink:href="#DejaVuSans-69"/>
      <use x="174.609375" xlink:href="#DejaVuSans-32"/>
      <use x="206.396484" xlink:href="#DejaVuSans-40"/>
      <use x="245.410156" xlink:href="#DejaVuSans-119"/>
      <use x="327.197266" xlink:href="#DejaVuSans-104"/>
      <use x="390.576172" xlink:href="#DejaVuSans-111"/>
      <use x="451.757812" xlink:href="#DejaVuSans-108"/>
      <use x="479.541016" xlink:href="#DejaVuSans-101"/>
      <use x="541.064453" xlink:href="#DejaVuSans-32"/>
      <use x="572.851562" xlink:href="#DejaVuSans-100"/>
      <use x="636.328125" xlink:href="#DejaVuSans-97"/>
      <use x="697.607422" xlink:href="#DejaVuSans-116"/>
      <use x="736.816406" xlink:href="#DejaVuSans-97"/>
      <use x="798.095703" xlink:href="#DejaVuSans-32"/>
      <use x="829.882812" xlink:href="#DejaVuSans-115"/>
      <use x="881.982422" xlink:href="#DejaVuSans-101"/>
      <use x="943.505859" xlink:href="#DejaVuSans-116"/>
      <use x="982.714844" xlink:href="#DejaVuSans-41"/>
     </g>
    </g>
    <g id="line2d_24">
     <path d="M 118.8 93.811875 
L 142.8 93.811875 
" style="fill:none;stroke:#91db57;stroke-linecap:round;stroke-width:1.5;"/>
    </g>
    <g id="line2d_25"/>
    <g id="text_18">
     <!-- MLLE (whole data set) -->
     <g style="fill:#262626;" transform="translate(152.4 98.011875)scale(0.12 -0.12)">
      <defs>
       <path d="M 9.8125 72.90625 
L 24.515625 72.90625 
L 43.109375 23.296875 
L 61.8125 72.90625 
L 76.515625 72.90625 
L 76.515625 0 
L 66.890625 0 
L 66.890625 64.015625 
L 48.09375 14.015625 
L 38.1875 14.015625 
L 19.390625 64.015625 
L 19.390625 0 
L 9.8125 0 
z
" id="DejaVuSans-77"/>
      </defs>
      <use xlink:href="#DejaVuSans-77"/>
      <use x="86.279297" xlink:href="#DejaVuSans-76"/>
      <use x="141.992188" xlink:href="#DejaVuSans-76"/>
      <use x="197.705078" xlink:href="#DejaVuSans-69"/>
      <use x="260.888672" xlink:href="#DejaVuSans-32"/>
      <use x="292.675781" xlink:href="#DejaVuSans-40"/>
      <use x="331.689453" xlink:href="#DejaVuSans-119"/>
      <use x="413.476562" xlink:href="#DejaVuSans-104"/>
      <use x="476.855469" xlink:href="#DejaVuSans-111"/>
      <use x="538.037109" xlink:href="#DejaVuSans-108"/>
      <use x="565.820312" xlink:href="#DejaVuSans-101"/>
      <use x="627.34375" xlink:href="#DejaVuSans-32"/>
      <use x="659.130859" xlink:href="#DejaVuSans-100"/>
      <use x="722.607422" xlink:href="#DejaVuSans-97"/>
      <use x="783.886719" xlink:href="#DejaVuSans-116"/>
      <use x="823.095703" xlink:href="#DejaVuSans-97"/>
      <use x="884.375" xlink:href="#DejaVuSans-32"/>
      <use x="916.162109" xlink:href="#DejaVuSans-115"/>
      <use x="968.261719" xlink:href="#DejaVuSans-101"/>
      <use x="1029.785156" xlink:href="#DejaVuSans-116"/>
      <use x="1068.994141" xlink:href="#DejaVuSans-41"/>
     </g>
    </g>
    <g id="line2d_26">
     <path d="M 118.8 111.425625 
L 142.8 111.425625 
" style="fill:none;stroke:#57d3db;stroke-linecap:round;stroke-width:1.5;"/>
    </g>
    <g id="line2d_27"/>
    <g id="text_19">
     <!-- LLE (semi data set) -->
     <g style="fill:#262626;" transform="translate(152.4 115.625625)scale(0.12 -0.12)">
      <use xlink:href="#DejaVuSans-76"/>
      <use x="55.712891" xlink:href="#DejaVuSans-76"/>
      <use x="111.425781" xlink:href="#DejaVuSans-69"/>
      <use x="174.609375" xlink:href="#DejaVuSans-32"/>
      <use x="206.396484" xlink:href="#DejaVuSans-40"/>
      <use x="245.410156" xlink:href="#DejaVuSans-115"/>
      <use x="297.509766" xlink:href="#DejaVuSans-101"/>
      <use x="359.033203" xlink:href="#DejaVuSans-109"/>
      <use x="456.445312" xlink:href="#DejaVuSans-105"/>
      <use x="484.228516" xlink:href="#DejaVuSans-32"/>
      <use x="516.015625" xlink:href="#DejaVuSans-100"/>
      <use x="579.492188" xlink:href="#DejaVuSans-97"/>
      <use x="640.771484" xlink:href="#DejaVuSans-116"/>
      <use x="679.980469" xlink:href="#DejaVuSans-97"/>
      <use x="741.259766" xlink:href="#DejaVuSans-32"/>
      <use x="773.046875" xlink:href="#DejaVuSans-115"/>
      <use x="825.146484" xlink:href="#DejaVuSans-101"/>
      <use x="886.669922" xlink:href="#DejaVuSans-116"/>
      <use x="925.878906" xlink:href="#DejaVuSans-41"/>
     </g>
    </g>
    <g id="line2d_28">
     <path d="M 118.8 129.039375 
L 142.8 129.039375 
" style="fill:none;stroke:#a157db;stroke-linecap:round;stroke-width:1.5;"/>
    </g>
    <g id="line2d_29"/>
    <g id="text_20">
     <!-- MLLE (semi data set) -->
     <g style="fill:#262626;" transform="translate(152.4 133.239375)scale(0.12 -0.12)">
      <use xlink:href="#DejaVuSans-77"/>
      <use x="86.279297" xlink:href="#DejaVuSans-76"/>
      <use x="141.992188" xlink:href="#DejaVuSans-76"/>
      <use x="197.705078" xlink:href="#DejaVuSans-69"/>
      <use x="260.888672" xlink:href="#DejaVuSans-32"/>
      <use x="292.675781" xlink:href="#DejaVuSans-40"/>
      <use x="331.689453" xlink:href="#DejaVuSans-115"/>
      <use x="383.789062" xlink:href="#DejaVuSans-101"/>
      <use x="445.3125" xlink:href="#DejaVuSans-109"/>
      <use x="542.724609" xlink:href="#DejaVuSans-105"/>
      <use x="570.507812" xlink:href="#DejaVuSans-32"/>
      <use x="602.294922" xlink:href="#DejaVuSans-100"/>
      <use x="665.771484" xlink:href="#DejaVuSans-97"/>
      <use x="727.050781" xlink:href="#DejaVuSans-116"/>
      <use x="766.259766" xlink:href="#DejaVuSans-97"/>
      <use x="827.539062" xlink:href="#DejaVuSans-32"/>
      <use x="859.326172" xlink:href="#DejaVuSans-115"/>
      <use x="911.425781" xlink:href="#DejaVuSans-101"/>
      <use x="972.949219" xlink:href="#DejaVuSans-116"/>
      <use x="1012.158203" xlink:href="#DejaVuSans-41"/>
     </g>
    </g>
   </g>
  </g>
 </g>
 <defs>
  <clipPath id="pa6df0f2d97">
   <rect height="388.08" width="669.6" x="108" y="60.48"/>
  </clipPath>
 </defs>
</svg>
