<?xml version="1.0" encoding="utf-8" standalone="no"?>
<!DOCTYPE svg PUBLIC "-//W3C//DTD SVG 1.1//EN"
  "http://www.w3.org/Graphics/SVG/1.1/DTD/svg11.dtd">
<!-- Created with matplotlib (https://matplotlib.org/) -->
<svg height="504pt" version="1.1" viewBox="0 0 864 504" width="864pt" xmlns="http://www.w3.org/2000/svg" xmlns:xlink="http://www.w3.org/1999/xlink">
 <metadata>
  <rdf:RDF xmlns:cc="http://creativecommons.org/ns#" xmlns:dc="http://purl.org/dc/elements/1.1/" xmlns:rdf="http://www.w3.org/1999/02/22-rdf-syntax-ns#">
   <cc:Work>
    <dc:type rdf:resource="http://purl.org/dc/dcmitype/StillImage"/>
    <dc:date>2021-05-22T10:09:13.228652</dc:date>
    <dc:format>image/svg+xml</dc:format>
    <dc:creator>
     <cc:Agent>
      <dc:title>Matplotlib v3.3.4, https://matplotlib.org/</dc:title>
     </cc:Agent>
    </dc:creator>
   </cc:Work>
  </rdf:RDF>
 </metadata>
 <defs>
  <style type="text/css">*{stroke-linecap:butt;stroke-linejoin:round;}</style>
 </defs>
 <g id="figure_1">
  <g id="patch_1">
   <path d="M 0 504 
L 864 504 
L 864 0 
L 0 0 
z
" style="fill:#ffffff;"/>
  </g>
  <g id="axes_1">
   <g id="patch_2">
    <path d="M 108 448.56 
L 777.6 448.56 
L 777.6 60.48 
L 108 60.48 
z
" style="fill:#eaeaf2;"/>
   </g>
   <g id="matplotlib.axis_1">
    <g id="xtick_1">
     <g id="line2d_1">
      <path clip-path="url(#p5575cbb612)" d="M 176.676923 448.56 
L 176.676923 60.48 
" style="fill:none;stroke:#ffffff;stroke-linecap:round;stroke-width:0.8;"/>
     </g>
     <g id="text_1">
      <!-- 25 -->
      <g style="fill:#262626;" transform="translate(171.115986 462.717813)scale(0.1 -0.1)">
       <defs>
        <path d="M 50.34375 8.453125 
L 50.34375 0 
L 3.03125 0 
Q 2.9375 3.171875 4.046875 6.109375 
Q 5.859375 10.9375 9.828125 15.625 
Q 13.8125 20.3125 21.34375 26.46875 
Q 33.015625 36.03125 37.109375 41.625 
Q 41.21875 47.21875 41.21875 52.203125 
Q 41.21875 57.421875 37.46875 61 
Q 33.734375 64.59375 27.734375 64.59375 
Q 21.390625 64.59375 17.578125 60.78125 
Q 13.765625 56.984375 13.71875 50.25 
L 4.6875 51.171875 
Q 5.609375 61.28125 11.65625 66.578125 
Q 17.71875 71.875 27.9375 71.875 
Q 38.234375 71.875 44.234375 66.15625 
Q 50.25 60.453125 50.25 52 
Q 50.25 47.703125 48.484375 43.546875 
Q 46.734375 39.40625 42.65625 34.8125 
Q 38.578125 30.21875 29.109375 22.21875 
Q 21.1875 15.578125 18.9375 13.203125 
Q 16.703125 10.84375 15.234375 8.453125 
z
" id="ArialMT-50"/>
        <path d="M 4.15625 18.75 
L 13.375 19.53125 
Q 14.40625 12.796875 18.140625 9.390625 
Q 21.875 6 27.15625 6 
Q 33.5 6 37.890625 10.78125 
Q 42.28125 15.578125 42.28125 23.484375 
Q 42.28125 31 38.0625 35.34375 
Q 33.84375 39.703125 27 39.703125 
Q 22.75 39.703125 19.328125 37.765625 
Q 15.921875 35.84375 13.96875 32.765625 
L 5.71875 33.84375 
L 12.640625 70.609375 
L 48.25 70.609375 
L 48.25 62.203125 
L 19.671875 62.203125 
L 15.828125 42.96875 
Q 22.265625 47.46875 29.34375 47.46875 
Q 38.71875 47.46875 45.15625 40.96875 
Q 51.609375 34.46875 51.609375 24.265625 
Q 51.609375 14.546875 45.953125 7.46875 
Q 39.0625 -1.21875 27.15625 -1.21875 
Q 17.390625 -1.21875 11.203125 4.25 
Q 5.03125 9.71875 4.15625 18.75 
z
" id="ArialMT-53"/>
       </defs>
       <use xlink:href="#ArialMT-50"/>
       <use x="55.615234" xlink:href="#ArialMT-53"/>
      </g>
     </g>
    </g>
    <g id="xtick_2">
     <g id="line2d_2">
      <path clip-path="url(#p5575cbb612)" d="M 262.523077 448.56 
L 262.523077 60.48 
" style="fill:none;stroke:#ffffff;stroke-linecap:round;stroke-width:0.8;"/>
     </g>
     <g id="text_2">
      <!-- 50 -->
      <g style="fill:#262626;" transform="translate(256.962139 462.717813)scale(0.1 -0.1)">
       <defs>
        <path d="M 4.15625 35.296875 
Q 4.15625 48 6.765625 55.734375 
Q 9.375 63.484375 14.515625 67.671875 
Q 19.671875 71.875 27.484375 71.875 
Q 33.25 71.875 37.59375 69.546875 
Q 41.9375 67.234375 44.765625 62.859375 
Q 47.609375 58.5 49.21875 52.21875 
Q 50.828125 45.953125 50.828125 35.296875 
Q 50.828125 22.703125 48.234375 14.96875 
Q 45.65625 7.234375 40.5 3 
Q 35.359375 -1.21875 27.484375 -1.21875 
Q 17.140625 -1.21875 11.234375 6.203125 
Q 4.15625 15.140625 4.15625 35.296875 
z
M 13.1875 35.296875 
Q 13.1875 17.671875 17.3125 11.828125 
Q 21.4375 6 27.484375 6 
Q 33.546875 6 37.671875 11.859375 
Q 41.796875 17.71875 41.796875 35.296875 
Q 41.796875 52.984375 37.671875 58.78125 
Q 33.546875 64.59375 27.390625 64.59375 
Q 21.34375 64.59375 17.71875 59.46875 
Q 13.1875 52.9375 13.1875 35.296875 
z
" id="ArialMT-48"/>
       </defs>
       <use xlink:href="#ArialMT-53"/>
       <use x="55.615234" xlink:href="#ArialMT-48"/>
      </g>
     </g>
    </g>
    <g id="xtick_3">
     <g id="line2d_3">
      <path clip-path="url(#p5575cbb612)" d="M 348.369231 448.56 
L 348.369231 60.48 
" style="fill:none;stroke:#ffffff;stroke-linecap:round;stroke-width:0.8;"/>
     </g>
     <g id="text_3">
      <!-- 75 -->
      <g style="fill:#262626;" transform="translate(342.808293 462.717813)scale(0.1 -0.1)">
       <defs>
        <path d="M 4.734375 62.203125 
L 4.734375 70.65625 
L 51.078125 70.65625 
L 51.078125 63.8125 
Q 44.234375 56.546875 37.515625 44.484375 
Q 30.8125 32.421875 27.15625 19.671875 
Q 24.515625 10.6875 23.78125 0 
L 14.75 0 
Q 14.890625 8.453125 18.0625 20.40625 
Q 21.234375 32.375 27.171875 43.484375 
Q 33.109375 54.59375 39.796875 62.203125 
z
" id="ArialMT-55"/>
       </defs>
       <use xlink:href="#ArialMT-55"/>
       <use x="55.615234" xlink:href="#ArialMT-53"/>
      </g>
     </g>
    </g>
    <g id="xtick_4">
     <g id="line2d_4">
      <path clip-path="url(#p5575cbb612)" d="M 434.215385 448.56 
L 434.215385 60.48 
" style="fill:none;stroke:#ffffff;stroke-linecap:round;stroke-width:0.8;"/>
     </g>
     <g id="text_4">
      <!-- 100 -->
      <g style="fill:#262626;" transform="translate(425.873978 462.717813)scale(0.1 -0.1)">
       <defs>
        <path d="M 37.25 0 
L 28.46875 0 
L 28.46875 56 
Q 25.296875 52.984375 20.140625 49.953125 
Q 14.984375 46.921875 10.890625 45.40625 
L 10.890625 53.90625 
Q 18.265625 57.375 23.78125 62.296875 
Q 29.296875 67.234375 31.59375 71.875 
L 37.25 71.875 
z
" id="ArialMT-49"/>
       </defs>
       <use xlink:href="#ArialMT-49"/>
       <use x="55.615234" xlink:href="#ArialMT-48"/>
       <use x="111.230469" xlink:href="#ArialMT-48"/>
      </g>
     </g>
    </g>
    <g id="xtick_5">
     <g id="line2d_5">
      <path clip-path="url(#p5575cbb612)" d="M 520.061538 448.56 
L 520.061538 60.48 
" style="fill:none;stroke:#ffffff;stroke-linecap:round;stroke-width:0.8;"/>
     </g>
     <g id="text_5">
      <!-- 125 -->
      <g style="fill:#262626;" transform="translate(511.720132 462.717813)scale(0.1 -0.1)">
       <use xlink:href="#ArialMT-49"/>
       <use x="55.615234" xlink:href="#ArialMT-50"/>
       <use x="111.230469" xlink:href="#ArialMT-53"/>
      </g>
     </g>
    </g>
    <g id="xtick_6">
     <g id="line2d_6">
      <path clip-path="url(#p5575cbb612)" d="M 605.907692 448.56 
L 605.907692 60.48 
" style="fill:none;stroke:#ffffff;stroke-linecap:round;stroke-width:0.8;"/>
     </g>
     <g id="text_6">
      <!-- 150 -->
      <g style="fill:#262626;" transform="translate(597.566286 462.717813)scale(0.1 -0.1)">
       <use xlink:href="#ArialMT-49"/>
       <use x="55.615234" xlink:href="#ArialMT-53"/>
       <use x="111.230469" xlink:href="#ArialMT-48"/>
      </g>
     </g>
    </g>
    <g id="xtick_7">
     <g id="line2d_7">
      <path clip-path="url(#p5575cbb612)" d="M 691.753846 448.56 
L 691.753846 60.48 
" style="fill:none;stroke:#ffffff;stroke-linecap:round;stroke-width:0.8;"/>
     </g>
     <g id="text_7">
      <!-- 175 -->
      <g style="fill:#262626;" transform="translate(683.41244 462.717813)scale(0.1 -0.1)">
       <use xlink:href="#ArialMT-49"/>
       <use x="55.615234" xlink:href="#ArialMT-55"/>
       <use x="111.230469" xlink:href="#ArialMT-53"/>
      </g>
     </g>
    </g>
    <g id="xtick_8">
     <g id="line2d_8">
      <path clip-path="url(#p5575cbb612)" d="M 777.6 448.56 
L 777.6 60.48 
" style="fill:none;stroke:#ffffff;stroke-linecap:round;stroke-width:0.8;"/>
     </g>
     <g id="text_8">
      <!-- 200 -->
      <g style="fill:#262626;" transform="translate(769.258594 462.717813)scale(0.1 -0.1)">
       <use xlink:href="#ArialMT-50"/>
       <use x="55.615234" xlink:href="#ArialMT-48"/>
       <use x="111.230469" xlink:href="#ArialMT-48"/>
      </g>
     </g>
    </g>
    <g id="text_9">
     <!-- Neighbors -->
     <g style="fill:#262626;" transform="translate(410.895312 478.72625)scale(0.14 -0.14)">
      <defs>
       <path d="M 7.625 0 
L 7.625 71.578125 
L 17.328125 71.578125 
L 54.9375 15.375 
L 54.9375 71.578125 
L 64.015625 71.578125 
L 64.015625 0 
L 54.296875 0 
L 16.703125 56.25 
L 16.703125 0 
z
" id="ArialMT-78"/>
       <path d="M 42.09375 16.703125 
L 51.171875 15.578125 
Q 49.03125 7.625 43.21875 3.21875 
Q 37.40625 -1.171875 28.375 -1.171875 
Q 17 -1.171875 10.328125 5.828125 
Q 3.65625 12.84375 3.65625 25.484375 
Q 3.65625 38.578125 10.390625 45.796875 
Q 17.140625 53.03125 27.875 53.03125 
Q 38.28125 53.03125 44.875 45.953125 
Q 51.46875 38.875 51.46875 26.03125 
Q 51.46875 25.25 51.421875 23.6875 
L 12.75 23.6875 
Q 13.234375 15.140625 17.578125 10.59375 
Q 21.921875 6.0625 28.421875 6.0625 
Q 33.25 6.0625 36.671875 8.59375 
Q 40.09375 11.140625 42.09375 16.703125 
z
M 13.234375 30.90625 
L 42.1875 30.90625 
Q 41.609375 37.453125 38.875 40.71875 
Q 34.671875 45.796875 27.984375 45.796875 
Q 21.921875 45.796875 17.796875 41.75 
Q 13.671875 37.703125 13.234375 30.90625 
z
" id="ArialMT-101"/>
       <path d="M 6.640625 61.46875 
L 6.640625 71.578125 
L 15.4375 71.578125 
L 15.4375 61.46875 
z
M 6.640625 0 
L 6.640625 51.859375 
L 15.4375 51.859375 
L 15.4375 0 
z
" id="ArialMT-105"/>
       <path d="M 4.984375 -4.296875 
L 13.53125 -5.5625 
Q 14.0625 -9.515625 16.5 -11.328125 
Q 19.78125 -13.765625 25.4375 -13.765625 
Q 31.546875 -13.765625 34.859375 -11.328125 
Q 38.1875 -8.890625 39.359375 -4.5 
Q 40.046875 -1.8125 39.984375 6.78125 
Q 34.234375 0 25.640625 0 
Q 14.9375 0 9.078125 7.71875 
Q 3.21875 15.4375 3.21875 26.21875 
Q 3.21875 33.640625 5.90625 39.90625 
Q 8.59375 46.1875 13.6875 49.609375 
Q 18.796875 53.03125 25.6875 53.03125 
Q 34.859375 53.03125 40.828125 45.609375 
L 40.828125 51.859375 
L 48.921875 51.859375 
L 48.921875 7.03125 
Q 48.921875 -5.078125 46.453125 -10.125 
Q 44 -15.1875 38.640625 -18.109375 
Q 33.296875 -21.046875 25.484375 -21.046875 
Q 16.21875 -21.046875 10.5 -16.875 
Q 4.78125 -12.703125 4.984375 -4.296875 
z
M 12.25 26.859375 
Q 12.25 16.65625 16.296875 11.96875 
Q 20.359375 7.28125 26.46875 7.28125 
Q 32.515625 7.28125 36.609375 11.9375 
Q 40.71875 16.609375 40.71875 26.5625 
Q 40.71875 36.078125 36.5 40.90625 
Q 32.28125 45.75 26.3125 45.75 
Q 20.453125 45.75 16.34375 40.984375 
Q 12.25 36.234375 12.25 26.859375 
z
" id="ArialMT-103"/>
       <path d="M 6.59375 0 
L 6.59375 71.578125 
L 15.375 71.578125 
L 15.375 45.90625 
Q 21.53125 53.03125 30.90625 53.03125 
Q 36.671875 53.03125 40.921875 50.75 
Q 45.171875 48.484375 47 44.484375 
Q 48.828125 40.484375 48.828125 32.859375 
L 48.828125 0 
L 40.046875 0 
L 40.046875 32.859375 
Q 40.046875 39.453125 37.1875 42.453125 
Q 34.328125 45.453125 29.109375 45.453125 
Q 25.203125 45.453125 21.75 43.421875 
Q 18.3125 41.40625 16.84375 37.9375 
Q 15.375 34.46875 15.375 28.375 
L 15.375 0 
z
" id="ArialMT-104"/>
       <path d="M 14.703125 0 
L 6.546875 0 
L 6.546875 71.578125 
L 15.328125 71.578125 
L 15.328125 46.046875 
Q 20.90625 53.03125 29.546875 53.03125 
Q 34.328125 53.03125 38.59375 51.09375 
Q 42.875 49.171875 45.625 45.671875 
Q 48.390625 42.1875 49.953125 37.25 
Q 51.515625 32.328125 51.515625 26.703125 
Q 51.515625 13.375 44.921875 6.09375 
Q 38.328125 -1.171875 29.109375 -1.171875 
Q 19.921875 -1.171875 14.703125 6.5 
z
M 14.59375 26.3125 
Q 14.59375 17 17.140625 12.84375 
Q 21.296875 6.0625 28.375 6.0625 
Q 34.125 6.0625 38.328125 11.0625 
Q 42.53125 16.0625 42.53125 25.984375 
Q 42.53125 36.140625 38.5 40.96875 
Q 34.46875 45.796875 28.765625 45.796875 
Q 23 45.796875 18.796875 40.796875 
Q 14.59375 35.796875 14.59375 26.3125 
z
" id="ArialMT-98"/>
       <path d="M 3.328125 25.921875 
Q 3.328125 40.328125 11.328125 47.265625 
Q 18.015625 53.03125 27.640625 53.03125 
Q 38.328125 53.03125 45.109375 46.015625 
Q 51.90625 39.015625 51.90625 26.65625 
Q 51.90625 16.65625 48.90625 10.90625 
Q 45.90625 5.171875 40.15625 2 
Q 34.421875 -1.171875 27.640625 -1.171875 
Q 16.75 -1.171875 10.03125 5.8125 
Q 3.328125 12.796875 3.328125 25.921875 
z
M 12.359375 25.921875 
Q 12.359375 15.96875 16.703125 11.015625 
Q 21.046875 6.0625 27.640625 6.0625 
Q 34.1875 6.0625 38.53125 11.03125 
Q 42.875 16.015625 42.875 26.21875 
Q 42.875 35.84375 38.5 40.796875 
Q 34.125 45.75 27.640625 45.75 
Q 21.046875 45.75 16.703125 40.8125 
Q 12.359375 35.890625 12.359375 25.921875 
z
" id="ArialMT-111"/>
       <path d="M 6.5 0 
L 6.5 51.859375 
L 14.40625 51.859375 
L 14.40625 44 
Q 17.4375 49.515625 20 51.265625 
Q 22.5625 53.03125 25.640625 53.03125 
Q 30.078125 53.03125 34.671875 50.203125 
L 31.640625 42.046875 
Q 28.421875 43.953125 25.203125 43.953125 
Q 22.3125 43.953125 20.015625 42.21875 
Q 17.71875 40.484375 16.75 37.40625 
Q 15.28125 32.71875 15.28125 27.15625 
L 15.28125 0 
z
" id="ArialMT-114"/>
       <path d="M 3.078125 15.484375 
L 11.765625 16.84375 
Q 12.5 11.625 15.84375 8.84375 
Q 19.1875 6.0625 25.203125 6.0625 
Q 31.25 6.0625 34.171875 8.515625 
Q 37.109375 10.984375 37.109375 14.3125 
Q 37.109375 17.28125 34.515625 19 
Q 32.71875 20.171875 25.53125 21.96875 
Q 15.875 24.421875 12.140625 26.203125 
Q 8.40625 27.984375 6.46875 31.125 
Q 4.546875 34.28125 4.546875 38.09375 
Q 4.546875 41.546875 6.125 44.5 
Q 7.71875 47.46875 10.453125 49.421875 
Q 12.5 50.921875 16.03125 51.96875 
Q 19.578125 53.03125 23.640625 53.03125 
Q 29.734375 53.03125 34.34375 51.265625 
Q 38.96875 49.515625 41.15625 46.5 
Q 43.359375 43.5 44.1875 38.484375 
L 35.59375 37.3125 
Q 35.015625 41.3125 32.203125 43.546875 
Q 29.390625 45.796875 24.265625 45.796875 
Q 18.21875 45.796875 15.625 43.796875 
Q 13.03125 41.796875 13.03125 39.109375 
Q 13.03125 37.40625 14.109375 36.03125 
Q 15.1875 34.625 17.484375 33.6875 
Q 18.796875 33.203125 25.25 31.453125 
Q 34.578125 28.953125 38.25 27.359375 
Q 41.9375 25.78125 44.03125 22.75 
Q 46.140625 19.734375 46.140625 15.234375 
Q 46.140625 10.84375 43.578125 6.953125 
Q 41.015625 3.078125 36.171875 0.953125 
Q 31.34375 -1.171875 25.25 -1.171875 
Q 15.140625 -1.171875 9.84375 3.03125 
Q 4.546875 7.234375 3.078125 15.484375 
z
" id="ArialMT-115"/>
      </defs>
      <use xlink:href="#ArialMT-78"/>
      <use x="72.216797" xlink:href="#ArialMT-101"/>
      <use x="127.832031" xlink:href="#ArialMT-105"/>
      <use x="150.048828" xlink:href="#ArialMT-103"/>
      <use x="205.664062" xlink:href="#ArialMT-104"/>
      <use x="261.279297" xlink:href="#ArialMT-98"/>
      <use x="316.894531" xlink:href="#ArialMT-111"/>
      <use x="372.509766" xlink:href="#ArialMT-114"/>
      <use x="405.810547" xlink:href="#ArialMT-115"/>
     </g>
    </g>
   </g>
   <g id="matplotlib.axis_2">
    <g id="ytick_1">
     <g id="line2d_9">
      <path clip-path="url(#p5575cbb612)" d="M 108 438.905882 
L 777.6 438.905882 
" style="fill:none;stroke:#ffffff;stroke-linecap:round;stroke-width:0.8;"/>
     </g>
     <g id="text_10">
      <!-- 0 -->
      <g style="fill:#262626;" transform="translate(95.439063 442.484788)scale(0.1 -0.1)">
       <use xlink:href="#ArialMT-48"/>
      </g>
     </g>
    </g>
    <g id="ytick_2">
     <g id="line2d_10">
      <path clip-path="url(#p5575cbb612)" d="M 108 362.105453 
L 777.6 362.105453 
" style="fill:none;stroke:#ffffff;stroke-linecap:round;stroke-width:0.8;"/>
     </g>
     <g id="text_11">
      <!-- 10 -->
      <g style="fill:#262626;" transform="translate(89.878125 365.68436)scale(0.1 -0.1)">
       <use xlink:href="#ArialMT-49"/>
       <use x="55.615234" xlink:href="#ArialMT-48"/>
      </g>
     </g>
    </g>
    <g id="ytick_3">
     <g id="line2d_11">
      <path clip-path="url(#p5575cbb612)" d="M 108 285.305025 
L 777.6 285.305025 
" style="fill:none;stroke:#ffffff;stroke-linecap:round;stroke-width:0.8;"/>
     </g>
     <g id="text_12">
      <!-- 20 -->
      <g style="fill:#262626;" transform="translate(89.878125 288.883931)scale(0.1 -0.1)">
       <use xlink:href="#ArialMT-50"/>
       <use x="55.615234" xlink:href="#ArialMT-48"/>
      </g>
     </g>
    </g>
    <g id="ytick_4">
     <g id="line2d_12">
      <path clip-path="url(#p5575cbb612)" d="M 108 208.504597 
L 777.6 208.504597 
" style="fill:none;stroke:#ffffff;stroke-linecap:round;stroke-width:0.8;"/>
     </g>
     <g id="text_13">
      <!-- 30 -->
      <g style="fill:#262626;" transform="translate(89.878125 212.083503)scale(0.1 -0.1)">
       <defs>
        <path d="M 4.203125 18.890625 
L 12.984375 20.0625 
Q 14.5 12.59375 18.140625 9.296875 
Q 21.78125 6 27 6 
Q 33.203125 6 37.46875 10.296875 
Q 41.75 14.59375 41.75 20.953125 
Q 41.75 27 37.796875 30.921875 
Q 33.84375 34.859375 27.734375 34.859375 
Q 25.25 34.859375 21.53125 33.890625 
L 22.515625 41.609375 
Q 23.390625 41.5 23.921875 41.5 
Q 29.546875 41.5 34.03125 44.421875 
Q 38.53125 47.359375 38.53125 53.46875 
Q 38.53125 58.296875 35.25 61.46875 
Q 31.984375 64.65625 26.8125 64.65625 
Q 21.6875 64.65625 18.265625 61.421875 
Q 14.84375 58.203125 13.875 51.765625 
L 5.078125 53.328125 
Q 6.6875 62.15625 12.390625 67.015625 
Q 18.109375 71.875 26.609375 71.875 
Q 32.46875 71.875 37.390625 69.359375 
Q 42.328125 66.84375 44.9375 62.5 
Q 47.5625 58.15625 47.5625 53.265625 
Q 47.5625 48.640625 45.0625 44.828125 
Q 42.578125 41.015625 37.703125 38.765625 
Q 44.046875 37.3125 47.5625 32.6875 
Q 51.078125 28.078125 51.078125 21.140625 
Q 51.078125 11.765625 44.234375 5.25 
Q 37.40625 -1.265625 26.953125 -1.265625 
Q 17.53125 -1.265625 11.296875 4.34375 
Q 5.078125 9.96875 4.203125 18.890625 
z
" id="ArialMT-51"/>
       </defs>
       <use xlink:href="#ArialMT-51"/>
       <use x="55.615234" xlink:href="#ArialMT-48"/>
      </g>
     </g>
    </g>
    <g id="ytick_5">
     <g id="line2d_13">
      <path clip-path="url(#p5575cbb612)" d="M 108 131.704169 
L 777.6 131.704169 
" style="fill:none;stroke:#ffffff;stroke-linecap:round;stroke-width:0.8;"/>
     </g>
     <g id="text_14">
      <!-- 40 -->
      <g style="fill:#262626;" transform="translate(89.878125 135.283075)scale(0.1 -0.1)">
       <defs>
        <path d="M 32.328125 0 
L 32.328125 17.140625 
L 1.265625 17.140625 
L 1.265625 25.203125 
L 33.9375 71.578125 
L 41.109375 71.578125 
L 41.109375 25.203125 
L 50.78125 25.203125 
L 50.78125 17.140625 
L 41.109375 17.140625 
L 41.109375 0 
z
M 32.328125 25.203125 
L 32.328125 57.46875 
L 9.90625 25.203125 
z
" id="ArialMT-52"/>
       </defs>
       <use xlink:href="#ArialMT-52"/>
       <use x="55.615234" xlink:href="#ArialMT-48"/>
      </g>
     </g>
    </g>
    <g id="text_15">
     <!-- Wall clock time [s] -->
     <g style="fill:#262626;" transform="translate(83.095625 310.262969)rotate(-90)scale(0.14 -0.14)">
      <defs>
       <path d="M 20.21875 0 
L 1.21875 71.578125 
L 10.9375 71.578125 
L 21.828125 24.65625 
Q 23.578125 17.28125 24.859375 10.015625 
Q 27.59375 21.484375 28.078125 23.25 
L 41.703125 71.578125 
L 53.125 71.578125 
L 63.375 35.359375 
Q 67.234375 21.875 68.953125 10.015625 
Q 70.3125 16.796875 72.515625 25.59375 
L 83.734375 71.578125 
L 93.265625 71.578125 
L 73.640625 0 
L 64.5 0 
L 49.421875 54.546875 
Q 47.515625 61.375 47.171875 62.9375 
Q 46.046875 58.015625 45.0625 54.546875 
L 29.890625 0 
z
" id="ArialMT-87"/>
       <path d="M 40.4375 6.390625 
Q 35.546875 2.25 31.03125 0.53125 
Q 26.515625 -1.171875 21.34375 -1.171875 
Q 12.796875 -1.171875 8.203125 3 
Q 3.609375 7.171875 3.609375 13.671875 
Q 3.609375 17.484375 5.34375 20.625 
Q 7.078125 23.78125 9.890625 25.6875 
Q 12.703125 27.59375 16.21875 28.5625 
Q 18.796875 29.25 24.03125 29.890625 
Q 34.671875 31.15625 39.703125 32.90625 
Q 39.75 34.71875 39.75 35.203125 
Q 39.75 40.578125 37.25 42.78125 
Q 33.890625 45.75 27.25 45.75 
Q 21.046875 45.75 18.09375 43.578125 
Q 15.140625 41.40625 13.71875 35.890625 
L 5.125 37.0625 
Q 6.296875 42.578125 8.984375 45.96875 
Q 11.671875 49.359375 16.75 51.1875 
Q 21.828125 53.03125 28.515625 53.03125 
Q 35.15625 53.03125 39.296875 51.46875 
Q 43.453125 49.90625 45.40625 47.53125 
Q 47.359375 45.171875 48.140625 41.546875 
Q 48.578125 39.3125 48.578125 33.453125 
L 48.578125 21.734375 
Q 48.578125 9.46875 49.140625 6.21875 
Q 49.703125 2.984375 51.375 0 
L 42.1875 0 
Q 40.828125 2.734375 40.4375 6.390625 
z
M 39.703125 26.03125 
Q 34.90625 24.078125 25.34375 22.703125 
Q 19.921875 21.921875 17.671875 20.9375 
Q 15.4375 19.96875 14.203125 18.09375 
Q 12.984375 16.21875 12.984375 13.921875 
Q 12.984375 10.40625 15.640625 8.0625 
Q 18.3125 5.71875 23.4375 5.71875 
Q 28.515625 5.71875 32.46875 7.9375 
Q 36.421875 10.15625 38.28125 14.015625 
Q 39.703125 17 39.703125 22.796875 
z
" id="ArialMT-97"/>
       <path d="M 6.390625 0 
L 6.390625 71.578125 
L 15.1875 71.578125 
L 15.1875 0 
z
" id="ArialMT-108"/>
       <path id="ArialMT-32"/>
       <path d="M 40.4375 19 
L 49.078125 17.875 
Q 47.65625 8.9375 41.8125 3.875 
Q 35.984375 -1.171875 27.484375 -1.171875 
Q 16.84375 -1.171875 10.375 5.78125 
Q 3.90625 12.75 3.90625 25.734375 
Q 3.90625 34.125 6.6875 40.421875 
Q 9.46875 46.734375 15.15625 49.875 
Q 20.84375 53.03125 27.546875 53.03125 
Q 35.984375 53.03125 41.359375 48.75 
Q 46.734375 44.484375 48.25 36.625 
L 39.703125 35.296875 
Q 38.484375 40.53125 35.375 43.15625 
Q 32.28125 45.796875 27.875 45.796875 
Q 21.234375 45.796875 17.078125 41.03125 
Q 12.9375 36.28125 12.9375 25.984375 
Q 12.9375 15.53125 16.9375 10.796875 
Q 20.953125 6.0625 27.390625 6.0625 
Q 32.5625 6.0625 36.03125 9.234375 
Q 39.5 12.40625 40.4375 19 
z
" id="ArialMT-99"/>
       <path d="M 6.640625 0 
L 6.640625 71.578125 
L 15.4375 71.578125 
L 15.4375 30.765625 
L 36.234375 51.859375 
L 47.609375 51.859375 
L 27.78125 32.625 
L 49.609375 0 
L 38.765625 0 
L 21.625 26.515625 
L 15.4375 20.5625 
L 15.4375 0 
z
" id="ArialMT-107"/>
       <path d="M 25.78125 7.859375 
L 27.046875 0.09375 
Q 23.34375 -0.6875 20.40625 -0.6875 
Q 15.625 -0.6875 12.984375 0.828125 
Q 10.359375 2.34375 9.28125 4.8125 
Q 8.203125 7.28125 8.203125 15.1875 
L 8.203125 45.015625 
L 1.765625 45.015625 
L 1.765625 51.859375 
L 8.203125 51.859375 
L 8.203125 64.703125 
L 16.9375 69.96875 
L 16.9375 51.859375 
L 25.78125 51.859375 
L 25.78125 45.015625 
L 16.9375 45.015625 
L 16.9375 14.703125 
Q 16.9375 10.9375 17.40625 9.859375 
Q 17.875 8.796875 18.921875 8.15625 
Q 19.96875 7.515625 21.921875 7.515625 
Q 23.390625 7.515625 25.78125 7.859375 
z
" id="ArialMT-116"/>
       <path d="M 6.59375 0 
L 6.59375 51.859375 
L 14.453125 51.859375 
L 14.453125 44.578125 
Q 16.890625 48.390625 20.9375 50.703125 
Q 25 53.03125 30.171875 53.03125 
Q 35.9375 53.03125 39.625 50.640625 
Q 43.3125 48.25 44.828125 43.953125 
Q 50.984375 53.03125 60.84375 53.03125 
Q 68.5625 53.03125 72.703125 48.75 
Q 76.859375 44.484375 76.859375 35.59375 
L 76.859375 0 
L 68.109375 0 
L 68.109375 32.671875 
Q 68.109375 37.9375 67.25 40.25 
Q 66.40625 42.578125 64.15625 43.984375 
Q 61.921875 45.40625 58.890625 45.40625 
Q 53.421875 45.40625 49.796875 41.765625 
Q 46.1875 38.140625 46.1875 30.125 
L 46.1875 0 
L 37.40625 0 
L 37.40625 33.6875 
Q 37.40625 39.546875 35.25 42.46875 
Q 33.109375 45.40625 28.21875 45.40625 
Q 24.515625 45.40625 21.359375 43.453125 
Q 18.21875 41.5 16.796875 37.734375 
Q 15.375 33.984375 15.375 26.90625 
L 15.375 0 
z
" id="ArialMT-109"/>
       <path d="M 6.78125 -19.875 
L 6.78125 71.578125 
L 26.171875 71.578125 
L 26.171875 64.3125 
L 15.578125 64.3125 
L 15.578125 -12.59375 
L 26.171875 -12.59375 
L 26.171875 -19.875 
z
" id="ArialMT-91"/>
       <path d="M 21.296875 -19.875 
L 1.90625 -19.875 
L 1.90625 -12.59375 
L 12.5 -12.59375 
L 12.5 64.3125 
L 1.90625 64.3125 
L 1.90625 71.578125 
L 21.296875 71.578125 
z
" id="ArialMT-93"/>
      </defs>
      <use xlink:href="#ArialMT-87"/>
      <use x="90.634766" xlink:href="#ArialMT-97"/>
      <use x="146.25" xlink:href="#ArialMT-108"/>
      <use x="168.466797" xlink:href="#ArialMT-108"/>
      <use x="190.683594" xlink:href="#ArialMT-32"/>
      <use x="218.466797" xlink:href="#ArialMT-99"/>
      <use x="268.466797" xlink:href="#ArialMT-108"/>
      <use x="290.683594" xlink:href="#ArialMT-111"/>
      <use x="346.298828" xlink:href="#ArialMT-99"/>
      <use x="396.298828" xlink:href="#ArialMT-107"/>
      <use x="446.298828" xlink:href="#ArialMT-32"/>
      <use x="474.082031" xlink:href="#ArialMT-116"/>
      <use x="501.865234" xlink:href="#ArialMT-105"/>
      <use x="524.082031" xlink:href="#ArialMT-109"/>
      <use x="607.382812" xlink:href="#ArialMT-101"/>
      <use x="662.998047" xlink:href="#ArialMT-32"/>
      <use x="690.78125" xlink:href="#ArialMT-91"/>
      <use x="718.564453" xlink:href="#ArialMT-115"/>
      <use x="768.564453" xlink:href="#ArialMT-93"/>
     </g>
    </g>
   </g>
   <g id="PolyCollection_1">
    <defs>
     <path d="M 108 -94.713406 
L 108 -94.173252 
L 111.433846 -101.660657 
L 118.301538 -113.170611 
L 125.169231 -124.83752 
L 132.036923 -127.659958 
L 138.904615 -131.308444 
L 145.772308 -137.187433 
L 152.64 -141.001208 
L 159.507692 -137.888522 
L 166.375385 -161.796083 
L 173.243077 -153.197861 
L 180.110769 -159.513787 
L 186.978462 -163.699385 
L 193.846154 -167.559167 
L 200.713846 -159.651431 
L 207.581538 -160.345769 
L 214.449231 -164.035977 
L 221.316923 -168.280177 
L 228.184615 -181.080343 
L 235.052308 -177.991782 
L 241.92 -174.202654 
L 248.787692 -179.876347 
L 255.655385 -177.103054 
L 262.523077 -185.929653 
L 269.390769 -183.488072 
L 276.258462 -188.748675 
L 283.126154 -182.298475 
L 289.993846 -183.650556 
L 296.861538 -190.579119 
L 303.729231 -188.032607 
L 310.596923 -188.335146 
L 317.464615 -188.702517 
L 324.332308 -192.605483 
L 331.2 -191.995372 
L 334.633846 -193.706435 
L 341.501538 -194.406499 
L 348.369231 -184.749098 
L 355.236923 -191.314913 
L 362.104615 -192.001888 
L 368.972308 -188.042816 
L 375.84 -187.908439 
L 382.707692 -186.937437 
L 389.575385 -191.738728 
L 396.443077 -194.75106 
L 403.310769 -197.408928 
L 410.178462 -195.356467 
L 417.046154 -192.822439 
L 423.913846 -199.98204 
L 430.781538 -197.074237 
L 437.649231 -200.796695 
L 444.516923 -202.903766 
L 451.384615 -202.989881 
L 458.252308 -201.158801 
L 465.12 -210.901159 
L 471.987692 -205.387464 
L 478.855385 -210.277806 
L 485.723077 -212.619469 
L 492.590769 -210.434014 
L 499.458462 -208.695225 
L 506.326154 -206.17874 
L 513.193846 -207.760504 
L 520.061538 -211.903721 
L 526.929231 -210.687917 
L 533.796923 -201.396486 
L 540.664615 -204.406636 
L 547.532308 -205.902336 
L 554.4 -203.393914 
L 557.833846 -207.388641 
L 564.701538 -218.389579 
L 571.569231 -215.218351 
L 578.436923 -217.79403 
L 585.304615 -213.890284 
L 592.172308 -216.540935 
L 599.04 -213.983248 
L 605.907692 -216.456535 
L 612.775385 -214.228146 
L 619.643077 -214.295704 
L 626.510769 -214.719356 
L 633.378462 -213.873458 
L 640.246154 -219.831809 
L 647.113846 -215.698402 
L 653.981538 -214.992205 
L 660.849231 -210.833936 
L 667.716923 -208.841124 
L 674.584615 -215.603915 
L 681.452308 -219.218071 
L 688.32 -224.732924 
L 695.187692 -217.288171 
L 702.055385 -215.864246 
L 708.923077 -216.86109 
L 715.790769 -220.993325 
L 722.658462 -222.235331 
L 729.526154 -223.044092 
L 736.393846 -213.264698 
L 743.261538 -218.66913 
L 750.129231 -220.678399 
L 756.996923 -223.632098 
L 763.864615 -226.403194 
L 770.732308 -223.520167 
L 777.6 -223.674636 
L 777.6 -224.300672 
L 777.6 -224.300672 
L 770.732308 -224.476423 
L 763.864615 -227.033166 
L 756.996923 -223.730241 
L 750.129231 -221.327216 
L 743.261538 -219.039428 
L 736.393846 -214.004191 
L 729.526154 -223.873711 
L 722.658462 -222.528179 
L 715.790769 -221.77132 
L 708.923077 -217.30577 
L 702.055385 -216.361929 
L 695.187692 -223.281265 
L 688.32 -225.574405 
L 681.452308 -219.904229 
L 674.584615 -216.506167 
L 667.716923 -209.404375 
L 660.849231 -211.181195 
L 653.981538 -215.852645 
L 647.113846 -215.952521 
L 640.246154 -220.093715 
L 633.378462 -214.311392 
L 626.510769 -215.4355 
L 619.643077 -215.449748 
L 612.775385 -215.301435 
L 605.907692 -216.807095 
L 599.04 -214.496392 
L 592.172308 -217.0924 
L 585.304615 -214.367026 
L 578.436923 -218.45454 
L 571.569231 -217.119762 
L 564.701538 -218.734108 
L 557.833846 -207.977708 
L 554.4 -203.965962 
L 547.532308 -206.592084 
L 540.664615 -205.308229 
L 533.796923 -201.950164 
L 526.929231 -212.084779 
L 520.061538 -212.457588 
L 513.193846 -207.991195 
L 506.326154 -206.67116 
L 499.458462 -209.287564 
L 492.590769 -211.325661 
L 485.723077 -212.927495 
L 478.855385 -210.774487 
L 471.987692 -206.045274 
L 465.12 -211.302126 
L 458.252308 -201.642809 
L 451.384615 -203.564319 
L 444.516923 -204.226806 
L 437.649231 -201.166014 
L 430.781538 -197.26639 
L 423.913846 -200.297183 
L 417.046154 -193.25237 
L 410.178462 -195.625338 
L 403.310769 -197.748264 
L 396.443077 -195.494962 
L 389.575385 -192.094478 
L 382.707692 -187.896119 
L 375.84 -188.679938 
L 368.972308 -188.284255 
L 362.104615 -192.660606 
L 355.236923 -191.600439 
L 348.369231 -185.559434 
L 341.501538 -195.244736 
L 334.633846 -194.160122 
L 331.2 -192.474946 
L 324.332308 -208.873601 
L 317.464615 -201.48319 
L 310.596923 -188.542515 
L 303.729231 -188.16392 
L 296.861538 -191.735576 
L 289.993846 -183.853827 
L 283.126154 -182.374055 
L 276.258462 -189.029449 
L 269.390769 -183.830575 
L 262.523077 -186.419211 
L 255.655385 -177.334683 
L 248.787692 -180.040074 
L 241.92 -174.470592 
L 235.052308 -178.243459 
L 228.184615 -181.40332 
L 221.316923 -170.937835 
L 214.449231 -164.322273 
L 207.581538 -160.613859 
L 200.713846 -159.800159 
L 193.846154 -169.328138 
L 186.978462 -163.894412 
L 180.110769 -159.698323 
L 173.243077 -153.601668 
L 166.375385 -162.587192 
L 159.507692 -138.547957 
L 152.64 -141.356024 
L 145.772308 -137.451533 
L 138.904615 -131.470632 
L 132.036923 -127.935438 
L 125.169231 -125.179151 
L 118.301538 -113.397194 
L 111.433846 -102.750997 
L 108 -94.713406 
z
" id="m78f1918433" style="stroke:#db5f57;stroke-opacity:0.2;"/>
    </defs>
    <g clip-path="url(#p5575cbb612)">
     <use style="fill:#db5f57;fill-opacity:0.2;stroke:#db5f57;stroke-opacity:0.2;" x="0" xlink:href="#m78f1918433" y="504"/>
    </g>
   </g>
   <g id="PolyCollection_2">
    <defs>
     <path d="M 108 -184.937636 
L 108 -184.369369 
L 111.433846 -185.012036 
L 118.301538 -186.353391 
L 125.169231 -187.339205 
L 132.036923 -188.545091 
L 138.904615 -189.265477 
L 145.772308 -189.947108 
L 152.64 -190.709922 
L 159.507692 -191.191065 
L 166.375385 -192.26423 
L 173.243077 -192.714942 
L 180.110769 -193.499728 
L 186.978462 -194.518253 
L 193.846154 -195.632498 
L 200.713846 -202.774383 
L 207.581538 -204.550008 
L 214.449231 -205.74963 
L 221.316923 -206.954628 
L 228.184615 -188.666934 
L 235.052308 -190.437709 
L 241.92 -193.162399 
L 248.787692 -203.195615 
L 255.655385 -200.032653 
L 262.523077 -202.834309 
L 269.390769 -206.875117 
L 276.258462 -213.124754 
L 283.126154 -209.623065 
L 331.2 -242.604754 
L 334.633846 -243.821716 
L 341.501538 -245.356895 
L 348.369231 -237.711714 
L 355.236923 -245.134361 
L 362.104615 -248.022915 
L 368.972308 -243.180823 
L 375.84 -244.371037 
L 382.707692 -253.880237 
L 389.575385 -260.231579 
L 396.443077 -264.720772 
L 403.310769 -269.130002 
L 410.178462 -269.344389 
L 417.046154 -269.00294 
L 423.913846 -277.062117 
L 430.781538 -278.948976 
L 437.649231 -278.925076 
L 444.516923 -283.476652 
L 451.384615 -286.119062 
L 458.252308 -284.132151 
L 465.12 -297.854413 
L 471.987692 -293.290659 
L 478.855385 -299.464532 
L 485.723077 -303.619358 
L 492.590769 -302.75334 
L 499.458462 -301.351535 
L 506.326154 -302.253727 
L 513.193846 -304.088401 
L 520.061538 -310.256297 
L 526.929231 -310.072879 
L 533.796923 -305.683861 
L 540.664615 -309.234071 
L 547.532308 -312.398224 
L 554.4 -311.83167 
L 557.833846 -314.289105 
L 564.701538 -326.964532 
L 571.569231 -325.254462 
L 578.436923 -330.363359 
L 585.304615 -340.427095 
L 592.172308 -345.619728 
L 599.04 -344.88063 
L 605.907692 -349.960508 
L 612.775385 -334.059554 
L 619.643077 -334.3727 
L 626.510769 -337.084016 
L 633.378462 -338.670905 
L 640.246154 -345.970496 
L 647.113846 -344.470766 
L 653.981538 -346.194932 
L 660.849231 -345.905324 
L 667.716923 -345.294667 
L 674.584615 -355.809379 
L 681.452308 -361.963235 
L 688.32 -370.136565 
L 695.187692 -365.160355 
L 702.055385 -367.358757 
L 708.923077 -370.691005 
L 715.790769 -378.809703 
L 722.658462 -381.718711 
L 729.526154 -386.505036 
L 736.393846 -378.618471 
L 743.261538 -387.187803 
L 750.129231 -391.748322 
L 756.996923 -396.684247 
L 763.864615 -402.72571 
L 770.732308 -403.399784 
L 777.6 -404.297385 
L 777.6 -405.36965 
L 777.6 -405.36965 
L 770.732308 -409.183239 
L 763.864615 -404.867011 
L 756.996923 -425.88 
L 750.129231 -392.036843 
L 743.261538 -389.50412 
L 736.393846 -380.799608 
L 729.526154 -387.589069 
L 722.658462 -382.512386 
L 715.790769 -379.873299 
L 708.923077 -372.225494 
L 702.055385 -367.825432 
L 695.187692 -366.365633 
L 688.32 -373.199787 
L 681.452308 -378.018072 
L 674.584615 -358.216828 
L 667.716923 -347.439703 
L 660.849231 -347.724786 
L 653.981538 -347.236944 
L 647.113846 -345.066578 
L 640.246154 -347.330308 
L 633.378462 -340.329017 
L 626.510769 -338.284906 
L 619.643077 -336.277896 
L 612.775385 -334.830585 
L 605.907692 -352.443834 
L 599.04 -346.371206 
L 592.172308 -347.814046 
L 585.304615 -342.768454 
L 578.436923 -331.311943 
L 571.569231 -326.519267 
L 564.701538 -327.397599 
L 557.833846 -314.788895 
L 554.4 -312.562332 
L 547.532308 -312.99503 
L 540.664615 -309.555675 
L 533.796923 -307.601531 
L 526.929231 -310.553332 
L 520.061538 -310.679897 
L 513.193846 -304.308167 
L 506.326154 -302.790367 
L 499.458462 -301.893167 
L 492.590769 -304.041784 
L 485.723077 -303.971068 
L 478.855385 -299.786596 
L 471.987692 -294.054733 
L 465.12 -298.631811 
L 458.252308 -285.293249 
L 451.384615 -286.716982 
L 444.516923 -286.211988 
L 437.649231 -279.75112 
L 430.781538 -313.373766 
L 423.913846 -277.435336 
L 417.046154 -269.953625 
L 410.178462 -269.73489 
L 403.310769 -269.721335 
L 396.443077 -265.403398 
L 389.575385 -260.772895 
L 382.707692 -254.333603 
L 375.84 -244.715699 
L 368.972308 -243.525593 
L 362.104615 -248.582799 
L 355.236923 -245.887173 
L 348.369231 -237.907163 
L 341.501538 -245.94991 
L 334.633846 -244.294225 
L 331.2 -243.161388 
L 283.126154 -209.921584 
L 276.258462 -213.845208 
L 269.390769 -208.366553 
L 262.523077 -203.141513 
L 255.655385 -200.392782 
L 248.787692 -203.59538 
L 241.92 -193.314968 
L 235.052308 -190.94985 
L 228.184615 -189.450869 
L 221.316923 -207.374923 
L 214.449231 -206.278463 
L 207.581538 -205.029931 
L 200.713846 -203.019699 
L 193.846154 -195.953883 
L 186.978462 -195.011326 
L 180.110769 -194.031346 
L 173.243077 -192.988949 
L 166.375385 -192.457562 
L 159.507692 -191.565283 
L 152.64 -191.076152 
L 145.772308 -190.10625 
L 138.904615 -189.755716 
L 132.036923 -188.980125 
L 125.169231 -188.002591 
L 118.301538 -186.497893 
L 111.433846 -185.568328 
L 108 -184.937636 
z
" id="m9a664f0217" style="stroke:#91db57;stroke-opacity:0.2;"/>
    </defs>
    <g clip-path="url(#p5575cbb612)">
     <use style="fill:#91db57;fill-opacity:0.2;stroke:#91db57;stroke-opacity:0.2;" x="0" xlink:href="#m9a664f0217" y="504"/>
    </g>
   </g>
   <g id="PolyCollection_3">
    <defs>
     <path d="M 108 -75.585144 
L 108 -73.08 
L 125.169231 -77.953746 
L 142.338462 -79.984207 
L 142.338462 -83.980075 
L 142.338462 -83.980075 
L 125.169231 -81.669935 
L 108 -75.585144 
z
" id="m528d6d77ba" style="stroke:#57d3db;stroke-opacity:0.2;"/>
    </defs>
    <g clip-path="url(#p5575cbb612)">
     <use style="fill:#57d3db;fill-opacity:0.2;stroke:#57d3db;stroke-opacity:0.2;" x="0" xlink:href="#m528d6d77ba" y="504"/>
    </g>
   </g>
   <g id="PolyCollection_4">
    <defs>
     <path d="M 108 -88.862013 
L 108 -85.439454 
L 125.169231 -87.248874 
L 142.338462 -88.133279 
L 142.338462 -91.43658 
L 142.338462 -91.43658 
L 125.169231 -91.168079 
L 108 -88.862013 
z
" id="m9aef6f5416" style="stroke:#a157db;stroke-opacity:0.2;"/>
    </defs>
    <g clip-path="url(#p5575cbb612)">
     <use style="fill:#a157db;fill-opacity:0.2;stroke:#a157db;stroke-opacity:0.2;" x="0" xlink:href="#m9aef6f5416" y="504"/>
    </g>
   </g>
   <g id="line2d_14">
    <path clip-path="url(#p5575cbb612)" d="M 108 409.556671 
L 111.433846 401.794173 
L 118.301538 390.73021 
L 125.169231 378.991665 
L 132.036923 376.204707 
L 138.904615 372.610462 
L 145.772308 366.717039 
L 152.64 362.821057 
L 159.507692 365.785304 
L 166.375385 341.716348 
L 173.243077 350.576417 
L 180.110769 344.389344 
L 186.978462 340.198132 
L 193.846154 335.821787 
L 200.713846 344.277131 
L 207.581538 343.523216 
L 214.449231 339.828459 
L 221.316923 334.807547 
L 228.184615 322.792804 
L 235.052308 325.873261 
L 241.92 329.663377 
L 248.787692 324.061332 
L 255.655385 326.786873 
L 262.523077 317.825568 
L 269.390769 320.347481 
L 276.258462 315.14278 
L 283.126154 321.664644 
L 289.993846 320.221839 
L 296.861538 312.911204 
L 303.729231 315.910253 
L 310.596923 315.59096 
L 317.464615 309.775331 
L 324.332308 305.798983 
L 331.2 311.744591 
L 334.633846 310.096081 
L 341.501538 309.137978 
L 348.369231 318.899955 
L 355.236923 312.542324 
L 362.104615 311.688976 
L 368.972308 315.864506 
L 375.84 315.776406 
L 382.707692 316.522161 
L 389.575385 312.087325 
L 396.443077 308.876989 
L 403.310769 306.404635 
L 410.178462 308.523549 
L 417.046154 310.997386 
L 423.913846 303.860389 
L 430.781538 306.829686 
L 437.649231 303.018645 
L 444.516923 300.433344 
L 451.384615 300.7229 
L 458.252308 302.593141 
L 465.12 292.910482 
L 471.987692 298.224121 
L 478.855385 293.473854 
L 485.723077 291.226518 
L 492.590769 293.183847 
L 499.458462 295.096262 
L 506.326154 297.548104 
L 513.193846 296.12415 
L 520.061538 291.823927 
L 526.929231 292.744214 
L 533.796923 302.346459 
L 540.664615 299.142568 
L 547.532308 297.75279 
L 554.4 300.382056 
L 557.833846 296.322956 
L 564.701538 285.470592 
L 571.569231 287.830944 
L 578.436923 285.928633 
L 585.304615 289.87219 
L 592.172308 287.157796 
L 599.04 289.700331 
L 605.907692 287.368185 
L 612.775385 289.202402 
L 619.643077 289.189326 
L 626.510769 288.88524 
L 633.378462 289.895796 
L 640.246154 284.058618 
L 647.113846 288.168092 
L 653.981538 288.497721 
L 660.849231 292.945657 
L 667.716923 294.877251 
L 674.584615 288.00162 
L 681.452308 284.403926 
L 688.32 278.849098 
L 695.187692 284.62415 
L 702.055385 287.889194 
L 708.923077 286.91657 
L 715.790769 282.617678 
L 722.658462 281.618467 
L 729.526154 280.445061 
L 736.393846 290.369666 
L 743.261538 285.12824 
L 750.129231 282.997193 
L 756.996923 280.32078 
L 763.864615 277.288649 
L 770.732308 280.001705 
L 777.6 279.959757 
" style="fill:none;stroke:#db5f57;stroke-linecap:round;stroke-width:1.5;"/>
   </g>
   <g id="line2d_15">
    <path clip-path="url(#p5575cbb612)" d="M 108 319.346497 
L 111.433846 318.709818 
L 118.301538 317.55653 
L 125.169231 316.332806 
L 132.036923 315.237392 
L 138.904615 314.550473 
L 145.772308 313.973321 
L 152.64 313.126291 
L 159.507692 312.589243 
L 166.375385 311.639104 
L 173.243077 311.148055 
L 180.110769 310.234463 
L 186.978462 309.235211 
L 193.846154 308.187351 
L 200.713846 301.102959 
L 207.581538 299.207309 
L 214.449231 298.008282 
L 221.316923 296.876644 
L 228.184615 314.941098 
L 235.052308 313.306221 
L 241.92 310.761198 
L 248.787692 300.604503 
L 255.655385 303.796782 
L 262.523077 301.038635 
L 269.390769 296.54767 
L 276.258462 290.557006 
L 283.126154 294.230878 
L 331.2 261.106756 
L 334.633846 259.94203 
L 341.501538 258.293369 
L 348.369231 266.183014 
L 355.236923 258.419648 
L 362.104615 255.697143 
L 368.972308 260.626994 
L 375.84 259.485882 
L 382.707692 249.886376 
L 389.575385 243.497806 
L 396.443077 238.895843 
L 403.310769 234.520204 
L 410.178462 234.460361 
L 417.046154 234.547314 
L 423.913846 226.758191 
L 430.781538 211.624165 
L 437.649231 224.579767 
L 444.516923 219.229617 
L 451.384615 217.572528 
L 458.252308 219.2873 
L 465.12 205.708003 
L 471.987692 210.328099 
L 478.855385 204.371256 
L 485.723077 200.204787 
L 492.590769 200.563194 
L 499.458462 202.377649 
L 506.326154 201.489048 
L 513.193846 199.812989 
L 520.061538 193.531903 
L 526.929231 193.671886 
L 533.796923 197.521613 
L 540.664615 194.649838 
L 547.532308 191.336095 
L 554.4 191.777208 
L 557.833846 189.479932 
L 564.701538 176.839608 
L 571.569231 178.213599 
L 578.436923 173.22036 
L 585.304615 162.409706 
L 592.172308 157.200254 
L 599.04 158.374082 
L 605.907692 152.69249 
L 612.775385 169.557138 
L 619.643077 168.748844 
L 626.510769 166.317068 
L 633.378462 164.634254 
L 640.246154 157.280579 
L 647.113846 159.280695 
L 653.981538 157.284062 
L 660.849231 157.102565 
L 667.716923 157.638022 
L 674.584615 147.022216 
L 681.452308 136.470065 
L 688.32 132.740422 
L 695.187692 138.327294 
L 702.055385 136.407905 
L 708.923077 132.54175 
L 715.790769 124.79321 
L 722.658462 121.868029 
L 729.526154 116.952947 
L 736.393846 124.290358 
L 743.261538 115.485341 
L 750.129231 112.107818 
L 756.996923 97.485525 
L 763.864615 100.272836 
L 770.732308 98.017019 
L 777.6 99.236982 
" style="fill:none;stroke:#91db57;stroke-linecap:round;stroke-width:1.5;"/>
   </g>
   <g id="line2d_16">
    <path clip-path="url(#p5575cbb612)" d="M 108 429.629295 
L 125.169231 424.068063 
L 142.338462 421.808869 
" style="fill:none;stroke:#57d3db;stroke-linecap:round;stroke-width:1.5;"/>
   </g>
   <g id="line2d_17">
    <path clip-path="url(#p5575cbb612)" d="M 108 416.775909 
L 125.169231 414.699481 
L 142.338462 414.128103 
" style="fill:none;stroke:#a157db;stroke-linecap:round;stroke-width:1.5;"/>
   </g>
   <g id="line2d_18"/>
   <g id="line2d_19"/>
   <g id="line2d_20"/>
   <g id="line2d_21"/>
   <g id="patch_3">
    <path d="M 108 448.56 
L 108 60.48 
" style="fill:none;stroke:#ffffff;stroke-linecap:square;stroke-linejoin:miter;stroke-width:0.8;"/>
   </g>
   <g id="patch_4">
    <path d="M 777.6 448.56 
L 777.6 60.48 
" style="fill:none;stroke:#ffffff;stroke-linecap:square;stroke-linejoin:miter;stroke-width:0.8;"/>
   </g>
   <g id="patch_5">
    <path d="M 108 448.56 
L 777.6 448.56 
" style="fill:none;stroke:#ffffff;stroke-linecap:square;stroke-linejoin:miter;stroke-width:0.8;"/>
   </g>
   <g id="patch_6">
    <path d="M 108 60.48 
L 777.6 60.48 
" style="fill:none;stroke:#ffffff;stroke-linecap:square;stroke-linejoin:miter;stroke-width:0.8;"/>
   </g>
   <g id="text_16">
    <!-- Time performances comparison -->
    <g style="fill:#262626;" transform="translate(330.62375 54.48)scale(0.16 -0.16)">
     <defs>
      <path d="M 25.921875 0 
L 25.921875 63.140625 
L 2.34375 63.140625 
L 2.34375 71.578125 
L 59.078125 71.578125 
L 59.078125 63.140625 
L 35.40625 63.140625 
L 35.40625 0 
z
" id="ArialMT-84"/>
      <path d="M 6.59375 -19.875 
L 6.59375 51.859375 
L 14.59375 51.859375 
L 14.59375 45.125 
Q 17.4375 49.078125 21 51.046875 
Q 24.5625 53.03125 29.640625 53.03125 
Q 36.28125 53.03125 41.359375 49.609375 
Q 46.4375 46.1875 49.015625 39.953125 
Q 51.609375 33.734375 51.609375 26.3125 
Q 51.609375 18.359375 48.75 11.984375 
Q 45.90625 5.609375 40.453125 2.21875 
Q 35.015625 -1.171875 29 -1.171875 
Q 24.609375 -1.171875 21.109375 0.6875 
Q 17.625 2.546875 15.375 5.375 
L 15.375 -19.875 
z
M 14.546875 25.640625 
Q 14.546875 15.625 18.59375 10.84375 
Q 22.65625 6.0625 28.421875 6.0625 
Q 34.28125 6.0625 38.453125 11.015625 
Q 42.625 15.96875 42.625 26.375 
Q 42.625 36.28125 38.546875 41.203125 
Q 34.46875 46.140625 28.8125 46.140625 
Q 23.1875 46.140625 18.859375 40.890625 
Q 14.546875 35.640625 14.546875 25.640625 
z
" id="ArialMT-112"/>
      <path d="M 8.6875 0 
L 8.6875 45.015625 
L 0.921875 45.015625 
L 0.921875 51.859375 
L 8.6875 51.859375 
L 8.6875 57.375 
Q 8.6875 62.59375 9.625 65.140625 
Q 10.890625 68.5625 14.078125 70.671875 
Q 17.28125 72.796875 23.046875 72.796875 
Q 26.765625 72.796875 31.25 71.921875 
L 29.9375 64.265625 
Q 27.203125 64.75 24.75 64.75 
Q 20.75 64.75 19.09375 63.03125 
Q 17.4375 61.328125 17.4375 56.640625 
L 17.4375 51.859375 
L 27.546875 51.859375 
L 27.546875 45.015625 
L 17.4375 45.015625 
L 17.4375 0 
z
" id="ArialMT-102"/>
      <path d="M 6.59375 0 
L 6.59375 51.859375 
L 14.5 51.859375 
L 14.5 44.484375 
Q 20.21875 53.03125 31 53.03125 
Q 35.6875 53.03125 39.625 51.34375 
Q 43.5625 49.65625 45.515625 46.921875 
Q 47.46875 44.1875 48.25 40.4375 
Q 48.734375 37.984375 48.734375 31.890625 
L 48.734375 0 
L 39.9375 0 
L 39.9375 31.546875 
Q 39.9375 36.921875 38.90625 39.578125 
Q 37.890625 42.234375 35.28125 43.8125 
Q 32.671875 45.40625 29.15625 45.40625 
Q 23.53125 45.40625 19.453125 41.84375 
Q 15.375 38.28125 15.375 28.328125 
L 15.375 0 
z
" id="ArialMT-110"/>
     </defs>
     <use xlink:href="#ArialMT-84"/>
     <use x="57.333984" xlink:href="#ArialMT-105"/>
     <use x="79.550781" xlink:href="#ArialMT-109"/>
     <use x="162.851562" xlink:href="#ArialMT-101"/>
     <use x="218.466797" xlink:href="#ArialMT-32"/>
     <use x="246.25" xlink:href="#ArialMT-112"/>
     <use x="301.865234" xlink:href="#ArialMT-101"/>
     <use x="357.480469" xlink:href="#ArialMT-114"/>
     <use x="390.78125" xlink:href="#ArialMT-102"/>
     <use x="418.564453" xlink:href="#ArialMT-111"/>
     <use x="474.179688" xlink:href="#ArialMT-114"/>
     <use x="507.480469" xlink:href="#ArialMT-109"/>
     <use x="590.78125" xlink:href="#ArialMT-97"/>
     <use x="646.396484" xlink:href="#ArialMT-110"/>
     <use x="702.011719" xlink:href="#ArialMT-99"/>
     <use x="752.011719" xlink:href="#ArialMT-101"/>
     <use x="807.626953" xlink:href="#ArialMT-115"/>
     <use x="857.626953" xlink:href="#ArialMT-32"/>
     <use x="885.410156" xlink:href="#ArialMT-99"/>
     <use x="935.410156" xlink:href="#ArialMT-111"/>
     <use x="991.025391" xlink:href="#ArialMT-109"/>
     <use x="1074.326172" xlink:href="#ArialMT-112"/>
     <use x="1129.941406" xlink:href="#ArialMT-97"/>
     <use x="1185.556641" xlink:href="#ArialMT-114"/>
     <use x="1218.857422" xlink:href="#ArialMT-105"/>
     <use x="1241.074219" xlink:href="#ArialMT-115"/>
     <use x="1291.074219" xlink:href="#ArialMT-111"/>
     <use x="1346.689453" xlink:href="#ArialMT-110"/>
    </g>
   </g>
   <g id="legend_1">
    <g id="patch_7">
     <path d="M 116.4 139.125 
L 274.850625 139.125 
Q 277.250625 139.125 277.250625 136.725 
L 277.250625 68.88 
Q 277.250625 66.48 274.850625 66.48 
L 116.4 66.48 
Q 114 66.48 114 68.88 
L 114 136.725 
Q 114 139.125 116.4 139.125 
z
" style="fill:#eaeaf2;opacity:0.8;stroke:#cccccc;stroke-linejoin:miter;"/>
    </g>
    <g id="line2d_22">
     <path d="M 118.8 75.815625 
L 142.8 75.815625 
" style="fill:none;stroke:#db5f57;stroke-linecap:round;stroke-width:1.5;"/>
    </g>
    <g id="line2d_23"/>
    <g id="text_17">
     <!-- LLE (whole data set) -->
     <g style="fill:#262626;" transform="translate(152.4 80.015625)scale(0.12 -0.12)">
      <defs>
       <path d="M 7.328125 0 
L 7.328125 71.578125 
L 16.796875 71.578125 
L 16.796875 8.453125 
L 52.046875 8.453125 
L 52.046875 0 
z
" id="ArialMT-76"/>
       <path d="M 7.90625 0 
L 7.90625 71.578125 
L 59.671875 71.578125 
L 59.671875 63.140625 
L 17.390625 63.140625 
L 17.390625 41.21875 
L 56.984375 41.21875 
L 56.984375 32.8125 
L 17.390625 32.8125 
L 17.390625 8.453125 
L 61.328125 8.453125 
L 61.328125 0 
z
" id="ArialMT-69"/>
       <path d="M 23.390625 -21.046875 
Q 16.109375 -11.859375 11.078125 0.4375 
Q 6.0625 12.75 6.0625 25.921875 
Q 6.0625 37.546875 9.8125 48.1875 
Q 14.203125 60.546875 23.390625 72.796875 
L 29.6875 72.796875 
Q 23.78125 62.640625 21.875 58.296875 
Q 18.890625 51.5625 17.1875 44.234375 
Q 15.09375 35.109375 15.09375 25.875 
Q 15.09375 2.390625 29.6875 -21.046875 
z
" id="ArialMT-40"/>
       <path d="M 16.15625 0 
L 0.296875 51.859375 
L 9.375 51.859375 
L 17.625 21.921875 
L 20.703125 10.796875 
Q 20.90625 11.625 23.390625 21.484375 
L 31.640625 51.859375 
L 40.671875 51.859375 
L 48.4375 21.78125 
L 51.03125 11.859375 
L 54 21.875 
L 62.890625 51.859375 
L 71.4375 51.859375 
L 55.21875 0 
L 46.09375 0 
L 37.84375 31.0625 
L 35.84375 39.890625 
L 25.34375 0 
z
" id="ArialMT-119"/>
       <path d="M 40.234375 0 
L 40.234375 6.546875 
Q 35.296875 -1.171875 25.734375 -1.171875 
Q 19.53125 -1.171875 14.328125 2.25 
Q 9.125 5.671875 6.265625 11.796875 
Q 3.421875 17.921875 3.421875 25.875 
Q 3.421875 33.640625 6 39.96875 
Q 8.59375 46.296875 13.765625 49.65625 
Q 18.953125 53.03125 25.34375 53.03125 
Q 30.03125 53.03125 33.6875 51.046875 
Q 37.359375 49.078125 39.65625 45.90625 
L 39.65625 71.578125 
L 48.390625 71.578125 
L 48.390625 0 
z
M 12.453125 25.875 
Q 12.453125 15.921875 16.640625 10.984375 
Q 20.84375 6.0625 26.5625 6.0625 
Q 32.328125 6.0625 36.34375 10.765625 
Q 40.375 15.484375 40.375 25.140625 
Q 40.375 35.796875 36.265625 40.765625 
Q 32.171875 45.75 26.171875 45.75 
Q 20.3125 45.75 16.375 40.96875 
Q 12.453125 36.1875 12.453125 25.875 
z
" id="ArialMT-100"/>
       <path d="M 12.359375 -21.046875 
L 6.0625 -21.046875 
Q 20.65625 2.390625 20.65625 25.875 
Q 20.65625 35.0625 18.5625 44.09375 
Q 16.890625 51.421875 13.921875 58.15625 
Q 12.015625 62.546875 6.0625 72.796875 
L 12.359375 72.796875 
Q 21.53125 60.546875 25.921875 48.1875 
Q 29.6875 37.546875 29.6875 25.921875 
Q 29.6875 12.75 24.625 0.4375 
Q 19.578125 -11.859375 12.359375 -21.046875 
z
" id="ArialMT-41"/>
      </defs>
      <use xlink:href="#ArialMT-76"/>
      <use x="55.615234" xlink:href="#ArialMT-76"/>
      <use x="111.230469" xlink:href="#ArialMT-69"/>
      <use x="177.929688" xlink:href="#ArialMT-32"/>
      <use x="205.712891" xlink:href="#ArialMT-40"/>
      <use x="239.013672" xlink:href="#ArialMT-119"/>
      <use x="311.230469" xlink:href="#ArialMT-104"/>
      <use x="366.845703" xlink:href="#ArialMT-111"/>
      <use x="422.460938" xlink:href="#ArialMT-108"/>
      <use x="444.677734" xlink:href="#ArialMT-101"/>
      <use x="500.292969" xlink:href="#ArialMT-32"/>
      <use x="528.076172" xlink:href="#ArialMT-100"/>
      <use x="583.691406" xlink:href="#ArialMT-97"/>
      <use x="639.306641" xlink:href="#ArialMT-116"/>
      <use x="667.089844" xlink:href="#ArialMT-97"/>
      <use x="722.705078" xlink:href="#ArialMT-32"/>
      <use x="750.488281" xlink:href="#ArialMT-115"/>
      <use x="800.488281" xlink:href="#ArialMT-101"/>
      <use x="856.103516" xlink:href="#ArialMT-116"/>
      <use x="883.886719" xlink:href="#ArialMT-41"/>
     </g>
    </g>
    <g id="line2d_24">
     <path d="M 118.8 93.076875 
L 142.8 93.076875 
" style="fill:none;stroke:#91db57;stroke-linecap:round;stroke-width:1.5;"/>
    </g>
    <g id="line2d_25"/>
    <g id="text_18">
     <!-- MLLE (whole data set) -->
     <g style="fill:#262626;" transform="translate(152.4 97.276875)scale(0.12 -0.12)">
      <defs>
       <path d="M 7.421875 0 
L 7.421875 71.578125 
L 21.6875 71.578125 
L 38.625 20.90625 
Q 40.96875 13.8125 42.046875 10.296875 
Q 43.265625 14.203125 45.84375 21.78125 
L 62.984375 71.578125 
L 75.734375 71.578125 
L 75.734375 0 
L 66.609375 0 
L 66.609375 59.90625 
L 45.796875 0 
L 37.25 0 
L 16.546875 60.9375 
L 16.546875 0 
z
" id="ArialMT-77"/>
      </defs>
      <use xlink:href="#ArialMT-77"/>
      <use x="83.300781" xlink:href="#ArialMT-76"/>
      <use x="138.916016" xlink:href="#ArialMT-76"/>
      <use x="194.53125" xlink:href="#ArialMT-69"/>
      <use x="261.230469" xlink:href="#ArialMT-32"/>
      <use x="289.013672" xlink:href="#ArialMT-40"/>
      <use x="322.314453" xlink:href="#ArialMT-119"/>
      <use x="394.53125" xlink:href="#ArialMT-104"/>
      <use x="450.146484" xlink:href="#ArialMT-111"/>
      <use x="505.761719" xlink:href="#ArialMT-108"/>
      <use x="527.978516" xlink:href="#ArialMT-101"/>
      <use x="583.59375" xlink:href="#ArialMT-32"/>
      <use x="611.376953" xlink:href="#ArialMT-100"/>
      <use x="666.992188" xlink:href="#ArialMT-97"/>
      <use x="722.607422" xlink:href="#ArialMT-116"/>
      <use x="750.390625" xlink:href="#ArialMT-97"/>
      <use x="806.005859" xlink:href="#ArialMT-32"/>
      <use x="833.789062" xlink:href="#ArialMT-115"/>
      <use x="883.789062" xlink:href="#ArialMT-101"/>
      <use x="939.404297" xlink:href="#ArialMT-116"/>
      <use x="967.1875" xlink:href="#ArialMT-41"/>
     </g>
    </g>
    <g id="line2d_26">
     <path d="M 118.8 110.338125 
L 142.8 110.338125 
" style="fill:none;stroke:#57d3db;stroke-linecap:round;stroke-width:1.5;"/>
    </g>
    <g id="line2d_27"/>
    <g id="text_19">
     <!-- LLE (semi data set) -->
     <g style="fill:#262626;" transform="translate(152.4 114.538125)scale(0.12 -0.12)">
      <use xlink:href="#ArialMT-76"/>
      <use x="55.615234" xlink:href="#ArialMT-76"/>
      <use x="111.230469" xlink:href="#ArialMT-69"/>
      <use x="177.929688" xlink:href="#ArialMT-32"/>
      <use x="205.712891" xlink:href="#ArialMT-40"/>
      <use x="239.013672" xlink:href="#ArialMT-115"/>
      <use x="289.013672" xlink:href="#ArialMT-101"/>
      <use x="344.628906" xlink:href="#ArialMT-109"/>
      <use x="427.929688" xlink:href="#ArialMT-105"/>
      <use x="450.146484" xlink:href="#ArialMT-32"/>
      <use x="477.929688" xlink:href="#ArialMT-100"/>
      <use x="533.544922" xlink:href="#ArialMT-97"/>
      <use x="589.160156" xlink:href="#ArialMT-116"/>
      <use x="616.943359" xlink:href="#ArialMT-97"/>
      <use x="672.558594" xlink:href="#ArialMT-32"/>
      <use x="700.341797" xlink:href="#ArialMT-115"/>
      <use x="750.341797" xlink:href="#ArialMT-101"/>
      <use x="805.957031" xlink:href="#ArialMT-116"/>
      <use x="833.740234" xlink:href="#ArialMT-41"/>
     </g>
    </g>
    <g id="line2d_28">
     <path d="M 118.8 127.599375 
L 142.8 127.599375 
" style="fill:none;stroke:#a157db;stroke-linecap:round;stroke-width:1.5;"/>
    </g>
    <g id="line2d_29"/>
    <g id="text_20">
     <!-- MLLE (semi data set) -->
     <g style="fill:#262626;" transform="translate(152.4 131.799375)scale(0.12 -0.12)">
      <use xlink:href="#ArialMT-77"/>
      <use x="83.300781" xlink:href="#ArialMT-76"/>
      <use x="138.916016" xlink:href="#ArialMT-76"/>
      <use x="194.53125" xlink:href="#ArialMT-69"/>
      <use x="261.230469" xlink:href="#ArialMT-32"/>
      <use x="289.013672" xlink:href="#ArialMT-40"/>
      <use x="322.314453" xlink:href="#ArialMT-115"/>
      <use x="372.314453" xlink:href="#ArialMT-101"/>
      <use x="427.929688" xlink:href="#ArialMT-109"/>
      <use x="511.230469" xlink:href="#ArialMT-105"/>
      <use x="533.447266" xlink:href="#ArialMT-32"/>
      <use x="561.230469" xlink:href="#ArialMT-100"/>
      <use x="616.845703" xlink:href="#ArialMT-97"/>
      <use x="672.460938" xlink:href="#ArialMT-116"/>
      <use x="700.244141" xlink:href="#ArialMT-97"/>
      <use x="755.859375" xlink:href="#ArialMT-32"/>
      <use x="783.642578" xlink:href="#ArialMT-115"/>
      <use x="833.642578" xlink:href="#ArialMT-101"/>
      <use x="889.257812" xlink:href="#ArialMT-116"/>
      <use x="917.041016" xlink:href="#ArialMT-41"/>
     </g>
    </g>
   </g>
  </g>
 </g>
 <defs>
  <clipPath id="p5575cbb612">
   <rect height="388.08" width="669.6" x="108" y="60.48"/>
  </clipPath>
 </defs>
</svg>
